<?xml version="1.0" encoding="UTF-8"?>
<!DOCTYPE svg PUBLIC "-//W3C//DTD SVG 1.1//EN" "http://www.w3.org/Graphics/SVG/1.1/DTD/svg11.dtd">
<svg xmlns="http://www.w3.org/2000/svg" version="1.1" width="960px" height="960px" style="shape-rendering:geometricPrecision; text-rendering:geometricPrecision; image-rendering:optimizeQuality; fill-rule:evenodd; clip-rule:evenodd" xmlns:xlink="http://www.w3.org/1999/xlink">
<g><path style="opacity:0.938" fill="#e7e7e8" d="M 666.5,94.5 C 674.324,94.0321 681.991,94.8654 689.5,97C 696.195,99.1906 700.195,103.691 701.5,110.5C 712.959,112.364 724.293,114.864 735.5,118C 743.087,123.043 750.587,128.21 758,133.5C 766.448,126.687 774.615,119.52 782.5,112C 784.691,110.081 787.024,108.747 789.5,108C 790.081,108.893 790.415,109.893 790.5,111C 787.817,125.247 784.817,139.414 781.5,153.5C 795.479,160.155 809.145,167.322 822.5,175C 822.355,175.772 822.022,176.439 821.5,177C 805.17,177.5 788.837,177.667 772.5,177.5C 771.76,192.864 770.593,208.197 769,223.5C 768.586,223.957 768.086,224.291 767.5,224.5C 765.854,223.221 764.687,221.555 764,219.5C 757.704,203.605 752.037,187.605 747,171.5C 749.09,170.209 750.424,170.876 751,173.5C 756,186.5 761,199.5 766,212.5C 767.121,199.803 768.287,187.137 769.5,174.5C 783.488,173.667 797.488,173.167 811.5,173C 800.142,167.881 788.975,162.381 778,156.5C 780.334,142.828 782.668,129.162 785,115.5C 776.286,123.053 767.453,130.387 758.5,137.5C 750.116,132.554 741.949,127.221 734,121.5C 727.922,126.122 721.755,130.622 715.5,135C 710.411,137.184 705.078,138.517 699.5,139C 696.31,150.916 689.81,160.416 680,167.5C 678.499,180.168 677.999,192.834 678.5,205.5C 685.452,207.988 692.452,210.321 699.5,212.5C 701.125,266.084 691.958,317.751 672,367.5C 660.628,394.435 645.128,418.601 625.5,440C 650.525,511.408 675.359,582.908 700,654.5C 700.667,656.167 700.667,657.833 700,659.5C 553.506,727.886 406.84,795.886 260,863.5C 259.167,863.333 258.333,863.167 257.5,863C 245.667,851.167 233.833,839.333 222,827.5C 214.571,800.283 207.071,773.116 199.5,746C 179.639,751.06 159.805,756.56 140,762.5C 138.72,762.387 137.887,761.72 137.5,760.5C 148.4,719.401 159.067,678.234 169.5,637C 139.901,527.77 110.067,418.603 80,309.5C 78.355,304.935 77.6883,300.269 78,295.5C 84.0394,283.92 90.2061,272.42 96.5,261C 155.821,263.153 215.154,265.153 274.5,267C 290.416,231.374 317.749,216.041 356.5,221C 367.033,223.349 376.199,228.182 384,235.5C 390.37,217.468 402.87,205.968 421.5,201C 454.503,197.003 484.503,204.669 511.5,224C 528.897,237.858 534.897,255.524 529.5,277C 543.219,277.777 556.885,278.944 570.5,280.5C 576.973,299.252 583.639,317.919 590.5,336.5C 595.913,325.091 599.413,313.091 601,300.5C 604.596,262.9 607.262,225.234 609,187.5C 612.635,187.152 616.302,186.818 620,186.5C 623.455,186.871 626.455,188.205 629,190.5C 624.497,182.502 620.164,174.169 616,165.5C 614.85,161.888 614.017,158.222 613.5,154.5C 589,158.444 564.5,162.444 540,166.5C 528.661,164.824 524.661,158.491 528,147.5C 530.687,143.806 534.187,141.306 538.5,140C 563.168,135.433 587.835,130.933 612.5,126.5C 611.793,111.381 618.793,102.214 633.5,99C 644.807,98.6963 655.807,97.1963 666.5,94.5 Z M 666.5,98.5 C 673.992,98.0584 681.325,98.8917 688.5,101C 693.527,102.853 696.527,106.353 697.5,111.5C 693.423,111.735 689.423,112.402 685.5,113.5C 677.574,106.87 668.574,102.37 658.5,100C 661.365,99.8171 664.031,99.3171 666.5,98.5 Z M 633.5,102.5 C 647.386,102.092 660.72,104.592 673.5,110C 677.615,112.448 681.448,115.281 685,118.5C 686.128,120.345 686.628,122.345 686.5,124.5C 674.758,124.515 663.258,122.849 652,119.5C 639.856,121.83 627.689,123.664 615.5,125C 616.6,113.416 622.6,105.916 633.5,102.5 Z M 704.5,114.5 C 708.825,120.141 710.492,126.475 709.5,133.5C 708.393,127.35 706.393,121.517 703.5,116C 704.056,115.617 704.389,115.117 704.5,114.5 Z M 689.5,148.5 C 690.043,148.56 690.376,148.893 690.5,149.5C 686.701,156.971 681.034,162.304 673.5,165.5C 674.288,168.434 674.954,171.434 675.5,174.5C 674.714,184.504 673.881,194.504 673,204.5C 661.587,200.808 650.087,197.308 638.5,194C 630.648,184.636 624.315,174.303 619.5,163C 630.216,164.811 640.883,164.144 651.5,161C 664.692,158.044 677.359,153.878 689.5,148.5 Z M 465.5,212.5 C 486.462,215.325 502.962,225.325 515,242.5C 521.907,255.674 522.24,269.008 516,282.5C 514.188,285.28 512.021,287.78 509.5,290C 529.814,308.258 538.314,331.092 535,358.5C 530.704,382.436 518.038,400.436 497,412.5C 496.493,411.004 496.993,409.837 498.5,409C 525.552,391.562 537.052,366.728 533,334.5C 529.933,316.195 521.1,301.362 506.5,290C 516.847,281.129 520.68,269.962 518,256.5C 514.416,242.244 506.249,231.411 493.5,224C 485.238,219.746 476.572,216.579 467.5,214.5C 466.287,214.253 465.62,213.586 465.5,212.5 Z M 100.5,264.5 C 158.168,266.846 215.835,269.346 273.5,272C 271.148,278.609 269.814,285.443 269.5,292.5C 240.838,291.458 212.172,290.958 183.5,291C 228.171,458.551 273.838,626.051 320.5,793.5C 321,793.833 321.5,794.167 322,794.5C 437.212,747.878 552.212,700.878 667,653.5C 646.9,589.365 626.067,525.365 604.5,461.5C 610.167,455.167 616.167,449.167 622.5,443.5C 647.164,514.491 671.83,585.491 696.5,656.5C 551.478,724.453 406.312,792.12 261,859.5C 207.34,661.191 153.84,462.858 100.5,264.5 Z M 683.5,299.5 C 672.586,346.651 652.586,389.318 623.5,427.5C 621.21,430.292 618.71,432.959 616,435.5C 615.5,435.333 615,435.167 614.5,435C 616.629,432.561 618.629,430.061 620.5,427.5C 636.009,407.837 649.009,386.504 659.5,363.5C 669.417,343.083 676.75,321.75 681.5,299.5C 683.622,288.759 685.955,278.092 688.5,267.5C 687.936,278.222 686.27,288.889 683.5,299.5 Z M 456.5,270.5 C 458.068,272.811 458.902,275.478 459,278.5C 462.742,303.129 460.408,327.129 452,350.5C 446.409,363.033 438.409,373.699 428,382.5C 426.89,380.963 425.39,380.297 423.5,380.5C 423.5,393.833 423.5,407.167 423.5,420.5C 413.176,419.77 402.843,419.104 392.5,418.5C 397.189,400.473 400.022,382.14 401,363.5C 402.849,364.561 404.849,365.227 407,365.5C 408.662,365.612 409.829,364.946 410.5,363.5C 407.814,361.726 404.814,360.393 401.5,359.5C 400.069,344.467 398.403,329.467 396.5,314.5C 415.948,312.541 430.948,303.375 441.5,287C 442.833,286.333 444.167,286.333 445.5,287C 447.369,288.602 449.369,289.602 451.5,290C 452.517,288.951 452.684,287.784 452,286.5C 449.63,284.629 447.13,282.962 444.5,281.5C 445.407,278.943 446.407,276.443 447.5,274C 450.731,273.139 453.731,271.972 456.5,270.5 Z M 527.5,281.5 C 539.497,282 551.497,282.5 563.5,283C 564.938,283.219 566.271,283.719 567.5,284.5C 574.467,303.902 581.134,323.402 587.5,343C 584.174,352.152 579.674,360.652 574,368.5C 567.066,346.363 559.732,324.363 552,302.5C 545.581,301.687 539.081,301.187 532.5,301C 529.133,297.297 525.466,293.964 521.5,291C 524.647,288.536 526.647,285.37 527.5,281.5 Z M 187.5,295.5 C 192.322,294.834 197.322,294.501 202.5,294.5C 224.831,295.322 247.164,295.989 269.5,296.5C 269.314,303.881 269.814,311.214 271,318.5C 273.561,327.244 275.728,336.077 277.5,345C 277.445,352.388 273.779,356.721 266.5,358C 242.539,354.568 224.372,363.068 212,383.5C 204.094,353.968 195.927,324.634 187.5,295.5 Z M 536.5,305.5 C 540.833,305.5 545.167,305.5 549.5,305.5C 556.594,328.611 563.761,351.611 571,374.5C 546.736,409.894 513.569,432.227 471.5,441.5C 471.281,440.325 471.614,439.325 472.5,438.5C 500.164,425.338 521.997,405.671 538,379.5C 549.814,354.47 549.314,329.804 536.5,305.5 Z M 184.5,386.5 C 185.721,387.028 186.887,387.695 188,388.5C 198.532,421.795 208.365,455.295 217.5,489C 217.646,491.034 216.98,492.701 215.5,494C 206.773,496.909 197.94,499.409 189,501.5C 186.966,501.646 185.299,500.98 184,499.5C 173.699,464.627 163.865,429.627 154.5,394.5C 154.148,392.076 155.148,390.576 157.5,390C 166.656,388.916 175.656,387.749 184.5,386.5 Z M 600.5,463.5 C 621.898,525.861 642.398,588.528 662,651.5C 597.667,677.833 533.333,704.167 469,730.5C 478.912,665.698 489.912,601.032 502,536.5C 507.149,525.033 514.982,515.866 525.5,509C 548.097,499.04 569.43,487.04 589.5,473C 593.359,469.968 597.026,466.802 600.5,463.5 Z M 219.5,515.5 C 222.961,515.146 225.461,516.479 227,519.5C 230.299,529.357 232.632,539.357 234,549.5C 233.097,550.701 231.931,551.535 230.5,552C 221.914,554.308 213.414,556.808 205,559.5C 203.045,558.547 201.378,557.213 200,555.5C 197.869,547.441 195.536,539.441 193,531.5C 191.621,527.525 192.787,524.691 196.5,523C 204.374,520.764 212.04,518.264 219.5,515.5 Z M 236.5,572.5 C 240.42,572.043 242.92,573.709 244,577.5C 253.422,610.023 262.922,642.523 272.5,675C 272.01,676.982 271.01,678.649 269.5,680C 260.664,682.501 251.831,685.001 243,687.5C 239.691,686.858 237.691,684.858 237,681.5C 227.524,649.573 218.357,617.573 209.5,585.5C 209.046,582.776 210.046,580.943 212.5,580C 220.712,577.787 228.712,575.287 236.5,572.5 Z"/></g>
<g><path style="opacity:0.821" fill="#e8e8e8" d="M 487.5,116.5 C 488.833,116.5 490.167,116.5 491.5,116.5C 491.494,119.518 490.494,122.184 488.5,124.5C 491.756,126.397 493.756,129.063 494.5,132.5C 491.309,132.238 488.642,130.905 486.5,128.5C 484.747,131.005 483.247,133.671 482,136.5C 480.989,137.337 479.822,137.67 478.5,137.5C 478.968,133.556 480.301,129.889 482.5,126.5C 481.141,124.308 479.308,122.641 477,121.5C 476.51,120.207 476.343,118.873 476.5,117.5C 479.691,117.762 482.358,119.095 484.5,121.5C 486.262,120.312 487.262,118.645 487.5,116.5 Z"/></g>
<g><path style="opacity:0.814" fill="#e8e8e8" d="M 870.5,140.5 C 874.485,140.44 876.152,142.44 875.5,146.5C 878.789,145.626 882.123,144.959 885.5,144.5C 885.649,145.552 885.483,146.552 885,147.5C 882.205,148.808 879.705,150.474 877.5,152.5C 878.785,155.021 879.452,157.687 879.5,160.5C 878.167,160.5 876.833,160.5 875.5,160.5C 875.305,152.903 872.305,151.57 866.5,156.5C 865.28,156.113 864.613,155.28 864.5,154C 866.963,151.93 869.629,150.097 872.5,148.5C 871.518,145.904 870.851,143.238 870.5,140.5 Z"/></g>
<g><path style="opacity:0.814" fill="#e8e8e8" d="M 371.5,144.5 C 372.822,144.33 373.989,144.663 375,145.5C 381.805,158.775 388.305,172.108 394.5,185.5C 392.856,185.714 391.356,185.38 390,184.5C 382.986,171.478 376.82,158.144 371.5,144.5 Z"/></g>
<g><path style="opacity:0.827" fill="#e8e8e8" d="M 421.5,156.5 C 423.948,156.085 425.281,157.085 425.5,159.5C 424.503,165.473 423.67,171.473 423,177.5C 421.989,178.337 420.822,178.67 419.5,178.5C 419.801,171.129 420.467,163.795 421.5,156.5 Z"/></g>
<g><path style="opacity:1" fill="#245dfc" d="M 613.5,190.5 C 620.307,192.385 626.973,194.385 633.5,196.5C 632.25,196.577 631.417,197.244 631,198.5C 630.833,200.833 630.667,203.167 630.5,205.5C 631.32,216.485 631.653,227.485 631.5,238.5C 624.38,237.347 617.547,235.347 611,232.5C 610.515,220.826 610.681,209.159 611.5,197.5C 612.167,195.167 612.833,192.833 613.5,190.5 Z"/></g>
<g><path style="opacity:1" fill="#87a3f2" d="M 613.5,190.5 C 612.833,192.833 612.167,195.167 611.5,197.5C 611.187,194.753 611.52,192.086 612.5,189.5C 613.107,189.624 613.44,189.957 613.5,190.5 Z"/></g>
<g><path style="opacity:0.792" fill="#e8e8e8" d="M 355.5,197.5 C 361.423,198.621 367.089,200.621 372.5,203.5C 373.823,205.204 373.49,206.537 371.5,207.5C 366.5,205.333 361.5,203.167 356.5,201C 355.663,199.989 355.33,198.822 355.5,197.5 Z"/></g>
<g><path style="opacity:1" fill="#d9dde9" d="M 622.5,200.5 C 623.5,200.5 624.5,200.5 625.5,200.5C 624.288,210.487 623.121,220.487 622,230.5C 621.586,230.957 621.086,231.291 620.5,231.5C 620.167,229.833 619.833,228.167 619.5,226.5C 620.689,217.847 621.689,209.181 622.5,200.5 Z"/></g>
<g><path style="opacity:1" fill="#114efd" d="M 633.5,196.5 C 654.69,203.12 676.023,209.12 697.5,214.5C 696.881,228.169 696.214,241.836 695.5,255.5C 673.989,250.456 652.656,244.789 631.5,238.5C 631.653,227.485 631.32,216.485 630.5,205.5C 630.667,203.167 630.833,200.833 631,198.5C 631.417,197.244 632.25,196.577 633.5,196.5 Z"/></g>
<g><path style="opacity:1" fill="#d4d8ea" d="M 686.5,218.5 C 687.5,218.5 688.5,218.5 689.5,218.5C 688.881,228.837 688.214,239.17 687.5,249.5C 686.5,249.5 685.5,249.5 684.5,249.5C 685.089,239.16 685.755,228.826 686.5,218.5 Z"/></g>
<g><path style="opacity:1" fill="#d4d8ea" d="M 666.5,213.5 C 667.748,214.334 668.415,215.667 668.5,217.5C 667.199,226.474 666.199,235.474 665.5,244.5C 664.5,244.5 663.5,244.5 662.5,244.5C 663.278,234.058 664.611,223.725 666.5,213.5 Z"/></g>
<g><path style="opacity:1" fill="#cfd5eb" d="M 644.5,207.5 C 646.252,207.418 647.252,208.251 647.5,210C 645.24,219.39 643.574,228.89 642.5,238.5C 641.5,238.5 640.5,238.5 639.5,238.5C 640.416,228.008 642.082,217.675 644.5,207.5 Z"/></g>
<g><path style="opacity:0.895" fill="#e2e4e8" d="M 859.5,234.5 C 860.5,234.5 861.5,234.5 862.5,234.5C 863.425,242.899 864.758,251.232 866.5,259.5C 873.003,263.586 879.67,267.419 886.5,271C 887.517,272.049 887.684,273.216 887,274.5C 880.422,275.508 873.922,276.841 867.5,278.5C 869.7,285.101 871.7,291.768 873.5,298.5C 873.547,300 872.881,301 871.5,301.5C 864.833,296.5 858.167,291.5 851.5,286.5C 845.701,289.802 840.034,293.302 834.5,297C 832.975,298.009 831.308,298.509 829.5,298.5C 831.573,290.182 834.906,282.348 839.5,275C 831.89,268.849 824.224,262.682 816.5,256.5C 816.709,255.914 817.043,255.414 817.5,255C 818.833,254.833 820.167,254.667 821.5,254.5C 830.499,255.458 839.499,255.958 848.5,256C 852.307,248.885 855.974,241.718 859.5,234.5 Z"/></g>
<g><path style="opacity:0.992" fill="#034ffd" d="M 631.5,242.5 C 652.469,247.821 673.469,253.154 694.5,258.5C 693.074,272.237 691.074,285.904 688.5,299.5C 686.833,299.5 685.167,299.5 683.5,299.5C 686.27,288.889 687.936,278.222 688.5,267.5C 685.955,278.092 683.622,288.759 681.5,299.5C 678.833,299.5 676.167,299.5 673.5,299.5C 672.065,294.51 670.065,289.844 667.5,285.5C 667.167,286.333 666.833,287.167 666.5,288C 667.608,291.821 668.608,295.655 669.5,299.5C 654.5,299.5 639.5,299.5 624.5,299.5C 628.01,280.522 630.343,261.522 631.5,242.5 Z"/></g>
<g><path style="opacity:0.851" fill="#e8e8e8" d="M 738.5,259.5 C 740.103,259.312 741.437,259.812 742.5,261C 741.36,262.973 740.027,264.807 738.5,266.5C 740.027,268.193 741.36,270.027 742.5,272C 741.687,273.885 740.353,274.551 738.5,274C 736.629,268.73 734.295,268.397 731.5,273C 728.866,273.925 727.699,273.091 728,270.5C 729.5,269 731,267.5 732.5,266C 728.48,260.85 729.48,259.684 735.5,262.5C 736.855,261.812 737.855,260.812 738.5,259.5 Z"/></g>
<g><path style="opacity:1" fill="#1b60fb" d="M 631.5,242.5 C 630.343,261.522 628.01,280.522 624.5,299.5C 621.909,310.273 618.909,320.94 615.5,331.5C 609.5,331.5 603.5,331.5 597.5,331.5C 600.409,323.068 602.576,314.401 604,305.5C 606.402,282.541 608.235,259.541 609.5,236.5C 617.101,237.898 624.434,239.898 631.5,242.5 Z"/></g>
<g><path style="opacity:1" fill="#0865f9" d="M 863.5,274.5 C 856.922,275.46 850.255,275.793 843.5,275.5C 843.703,273.61 843.037,272.11 841.5,271C 835.658,267.246 829.991,263.246 824.5,259C 833.494,259.641 842.494,259.475 851.5,258.5C 854.079,253.008 856.912,247.675 860,242.5C 860.593,248.912 861.593,255.245 863,261.5C 868.585,265.377 874.418,268.877 880.5,272C 874.768,272.728 869.101,273.561 863.5,274.5 Z"/></g>
<g><path style="opacity:1" fill="#1773f7" d="M 863.5,274.5 C 865.337,281.156 866.837,287.823 868,294.5C 863.08,289.631 857.58,285.631 851.5,282.5C 846.372,285.233 841.372,288.233 836.5,291.5C 836.167,291.167 835.833,290.833 835.5,290.5C 837.941,285.28 840.608,280.28 843.5,275.5C 850.255,275.793 856.922,275.46 863.5,274.5 Z"/></g>
<g><path style="opacity:1" fill="#d2d8ea" d="M 673.5,299.5 C 674.15,301.435 674.483,303.435 674.5,305.5C 673.5,305.5 672.5,305.5 671.5,305.5C 671.405,303.214 670.738,301.214 669.5,299.5C 668.608,295.655 667.608,291.821 666.5,288C 666.833,287.167 667.167,286.333 667.5,285.5C 670.065,289.844 672.065,294.51 673.5,299.5 Z"/></g>
<g><path style="opacity:0.961" fill="#e8e8e8" d="M 754.5,290.5 C 755.822,290.33 756.989,290.663 758,291.5C 762.58,300.328 767.413,308.995 772.5,317.5C 782.218,321.113 791.718,325.113 801,329.5C 801.617,330.449 801.451,331.282 800.5,332C 793.167,335.333 785.833,338.667 778.5,342C 784.087,349.845 789.421,357.845 794.5,366C 794.387,367.28 793.72,368.113 792.5,368.5C 783.257,364.295 774.091,359.962 765,355.5C 757.073,362.215 749.24,369.049 741.5,376C 740.207,376.49 738.873,376.657 737.5,376.5C 740.333,366.169 743.666,356.002 747.5,346C 738.091,338.966 729.091,331.466 720.5,323.5C 721.714,321.931 723.381,321.098 725.5,321C 733.461,319.506 741.461,318.34 749.5,317.5C 750.417,308.33 752.083,299.33 754.5,290.5 Z"/></g>
<g><path style="opacity:0.781" fill="#e8e8e8" d="M 439.5,295.5 C 440.833,295.5 442.167,295.5 443.5,295.5C 443.5,300.5 443.5,305.5 443.5,310.5C 442.178,310.67 441.011,310.337 440,309.5C 439.501,304.845 439.334,300.179 439.5,295.5 Z"/></g>
<g><path style="opacity:0.992" fill="#0154fc" d="M 624.5,299.5 C 639.5,299.5 654.5,299.5 669.5,299.5C 670.738,301.214 671.405,303.214 671.5,305.5C 672.5,305.5 673.5,305.5 674.5,305.5C 674.483,303.435 674.15,301.435 673.5,299.5C 676.167,299.5 678.833,299.5 681.5,299.5C 676.75,321.75 669.417,343.083 659.5,363.5C 640.83,363.667 622.164,363.5 603.5,363C 604.5,362.667 605.5,362.333 606.5,362C 605.584,361.722 604.918,361.222 604.5,360.5C 608.374,350.874 612.041,341.207 615.5,331.5C 618.909,320.94 621.909,310.273 624.5,299.5 Z"/></g>
<g><path style="opacity:1" fill="#d4daea" d="M 623.5,317.5 C 624.675,317.281 625.675,317.614 626.5,318.5C 627.083,320.002 627.916,321.335 629,322.5C 633.369,321.806 633.536,322.973 629.5,326C 630.444,328.719 630.777,331.552 630.5,334.5C 629.5,334.5 628.5,334.5 627.5,334.5C 627.808,332.076 627.474,329.743 626.5,327.5C 625.252,328.04 624.085,328.707 623,329.5C 622.308,328.975 621.808,328.308 621.5,327.5C 622.833,326.167 624.167,324.833 625.5,323.5C 624.253,321.677 623.586,319.677 623.5,317.5 Z"/></g>
<g><path style="opacity:0.801" fill="#e9e9e9" d="M 428.5,323.5 C 439.66,321.826 444.16,326.492 442,337.5C 438.746,342.223 434.246,343.723 428.5,342C 425.921,340.388 425.921,338.888 428.5,337.5C 433.746,339.82 437.08,338.32 438.5,333C 438.507,331.188 437.84,329.688 436.5,328.5C 433.891,327.77 431.224,327.27 428.5,327C 427.316,325.855 427.316,324.688 428.5,323.5 Z"/></g>
<g><path style="opacity:1" fill="#1b66fa" d="M 597.5,331.5 C 603.5,331.5 609.5,331.5 615.5,331.5C 612.041,341.207 608.374,350.874 604.5,360.5C 598.581,371.344 591.914,381.677 584.5,391.5C 578.167,390.833 571.833,390.167 565.5,389.5C 578.241,371.354 588.908,352.021 597.5,331.5 Z"/></g>
<g><path style="opacity:0.816" fill="#e8e8e8" d="M 884.5,349.5 C 892.784,348.614 899.284,351.614 904,358.5C 915.699,374.262 921.366,391.929 921,411.5C 919.547,423.57 914.047,433.403 904.5,441C 892.332,448.585 879.999,455.918 867.5,463C 853.419,473.322 845.086,487.155 842.5,504.5C 842.704,515.852 848.204,522.852 859,525.5C 867.796,524.236 871.463,519.236 870,510.5C 867.633,507.068 864.966,506.735 862,509.5C 861.647,510.672 861.813,511.838 862.5,513C 860.873,516.299 859.373,516.132 858,512.5C 857.879,505.293 861.379,502.459 868.5,504C 871,505.167 872.833,507 874,509.5C 875.575,520.942 870.575,527.609 859,529.5C 843.391,525.647 836.725,515.647 839,499.5C 840.932,489.304 845.265,480.304 852,472.5C 864.662,459.245 879.496,449.079 896.5,442C 915.317,429.56 921.483,412.394 915,390.5C 912.158,381.815 908.491,373.481 904,365.5C 899.505,356.504 892.338,352.671 882.5,354C 882.043,353.586 881.709,353.086 881.5,352.5C 882.34,351.265 883.34,350.265 884.5,349.5 Z"/></g>
<g><path style="opacity:0.939" fill="#095afb" d="M 683.5,299.5 C 685.167,299.5 686.833,299.5 688.5,299.5C 681.005,337.154 667.505,372.487 648,405.5C 642.734,413.042 637.234,420.375 631.5,427.5C 628.833,427.5 626.167,427.5 623.5,427.5C 652.586,389.318 672.586,346.651 683.5,299.5 Z"/></g>
<g><path style="opacity:0.991" fill="#025bfb" d="M 604.5,360.5 C 604.918,361.222 605.584,361.722 606.5,362C 605.5,362.333 604.5,362.667 603.5,363C 622.164,363.5 640.83,363.667 659.5,363.5C 649.009,386.504 636.009,407.837 620.5,427.5C 620.209,426.351 619.376,425.684 618,425.5C 617.167,425.667 616.333,425.833 615.5,426C 616.833,426.333 618.167,426.667 619.5,427C 596.996,427.83 574.663,427.663 552.5,426.5C 564.585,416.084 575.252,404.417 584.5,391.5C 591.914,381.677 598.581,371.344 604.5,360.5 Z"/></g>
<g><path style="opacity:0.829" fill="#e8e8e8" d="M 886.5,381.5 C 887.496,381.414 888.329,381.748 889,382.5C 890.019,387.599 892.519,388.599 896.5,385.5C 897.287,386.242 897.953,387.075 898.5,388C 897.122,389.713 895.455,391.047 893.5,392C 895.35,393.845 895.683,395.845 894.5,398C 893.833,398.667 893.167,398.667 892.5,398C 891.174,394.337 888.841,393.504 885.5,395.5C 885.247,393.173 885.914,391.173 887.5,389.5C 885.522,386.957 885.189,384.29 886.5,381.5 Z"/></g>
<g><path style="opacity:0.809" fill="#e8e8e8" d="M 173.5,383.5 C 178.511,383.334 183.511,383.501 188.5,384C 190.726,385.227 192.226,387.061 193,389.5C 202.178,421.212 211.511,452.879 221,484.5C 221.667,487.833 221.667,491.167 221,494.5C 220.167,495.333 219.333,496.167 218.5,497C 207.598,501.751 196.264,504.417 184.5,505C 182.333,504.167 180.833,502.667 180,500.5C 169.854,465.249 160.021,429.916 150.5,394.5C 150.759,390.812 152.426,387.978 155.5,386C 161.659,385.25 167.659,384.417 173.5,383.5 Z M 184.5,386.5 C 175.656,387.749 166.656,388.916 157.5,390C 155.148,390.576 154.148,392.076 154.5,394.5C 163.865,429.627 173.699,464.627 184,499.5C 185.299,500.98 186.966,501.646 189,501.5C 197.94,499.409 206.773,496.909 215.5,494C 216.98,492.701 217.646,491.034 217.5,489C 208.365,455.295 198.532,421.795 188,388.5C 186.887,387.695 185.721,387.028 184.5,386.5 Z"/></g>
<g><path style="opacity:1" fill="#d0d7ea" d="M 630.5,385.5 C 632.924,385.192 635.257,385.526 637.5,386.5C 637.291,387.086 636.957,387.586 636.5,388C 632.035,388.699 627.702,389.866 623.5,391.5C 621.512,390.711 621.179,389.545 622.5,388C 625.379,387.454 628.046,386.621 630.5,385.5 Z"/></g>
<g><path style="opacity:0.832" fill="#e8e8e8" d="M 853.5,385.5 C 854.833,385.5 856.167,385.5 857.5,385.5C 856.548,392.863 855.715,400.196 855,407.5C 860.253,410.876 865.42,414.376 870.5,418C 871.38,419.356 871.714,420.856 871.5,422.5C 864.492,422.334 857.492,422.5 850.5,423C 848.928,428.116 847.428,433.282 846,438.5C 845.612,439.428 844.945,440.095 844,440.5C 841.974,439.48 840.641,437.813 840,435.5C 838.193,431.244 836.693,426.911 835.5,422.5C 828.133,422.044 820.966,420.711 814,418.5C 813.493,417.004 813.993,415.837 815.5,415C 819.167,412.667 822.833,410.333 826.5,408C 823.58,403.496 820.914,398.829 818.5,394C 818.998,392.842 819.831,392.009 821,391.5C 827.432,393.976 833.765,396.643 840,399.5C 844.703,394.965 849.203,390.298 853.5,385.5 Z M 826.5,398.5 C 831.151,400.156 835.817,401.823 840.5,403.5C 844.75,400.757 848.583,397.424 852,393.5C 851.451,398.804 851.118,404.138 851,409.5C 855.08,412.457 859.247,415.29 863.5,418C 858.167,418.333 852.833,418.667 847.5,419C 846.073,423.221 844.573,427.387 843,431.5C 841.643,427.254 839.81,423.254 837.5,419.5C 832.123,418.471 826.79,417.304 821.5,416C 824.603,414.561 827.436,412.727 830,410.5C 830.667,409.167 830.667,407.833 830,406.5C 828.546,403.929 827.38,401.262 826.5,398.5 Z"/></g>
<g><path style="opacity:1" fill="#d2d8ea" d="M 578.5,421.5 C 578.5,419.5 578.5,417.5 578.5,415.5C 577.209,415.263 576.209,415.596 575.5,416.5C 573.712,416.785 572.045,416.452 570.5,415.5C 570.667,415.167 570.833,414.833 571,414.5C 573.041,413.577 575.208,413.244 577.5,413.5C 577.261,411.533 577.594,409.699 578.5,408C 580.934,407.667 581.934,408.834 581.5,411.5C 584.247,411.187 586.914,411.52 589.5,412.5C 589.291,413.086 588.957,413.586 588.5,414C 586.19,414.497 583.857,414.663 581.5,414.5C 581.663,416.857 581.497,419.19 581,421.5C 580.023,422.774 579.189,422.774 578.5,421.5 Z"/></g>
<g><path style="opacity:1" fill="#6e9cf2" d="M 575.5,416.5 C 576.209,415.596 577.209,415.263 578.5,415.5C 578.5,417.5 578.5,419.5 578.5,421.5C 578.028,419.469 577.028,417.802 575.5,416.5 Z"/></g>
<g><path style="opacity:1" fill="#1b6cf8" d="M 565.5,389.5 C 571.833,390.167 578.167,390.833 584.5,391.5C 575.252,404.417 564.585,416.084 552.5,426.5C 540.823,435.008 528.49,442.508 515.5,449C 506.52,452.916 497.186,455.916 487.5,458C 480.946,459.081 474.612,458.414 468.5,456C 464.581,452.173 464.581,448.339 468.5,444.5C 510.143,442.514 542.477,424.18 565.5,389.5 Z"/></g>
<g><path style="opacity:1" fill="#1e6ff8" d="M 370.5,421.5 C 372.461,423.798 373.461,426.465 373.5,429.5C 372.504,429.414 371.671,429.748 371,430.5C 370.262,432.953 369.762,435.453 369.5,438C 369.608,439.681 370.275,440.848 371.5,441.5C 371.5,442.5 371.5,443.5 371.5,444.5C 372.5,444.5 373.5,444.5 374.5,444.5C 370.353,445.325 366.019,445.825 361.5,446C 361.043,446.414 360.709,446.914 360.5,447.5C 362.743,448.474 365.076,448.808 367.5,448.5C 361.668,454.083 354.668,457.583 346.5,459C 312.247,462.419 279.247,470.752 247.5,484C 244.739,484.722 242.073,484.555 239.5,483.5C 237.74,479.605 236.406,475.438 235.5,471C 247.766,462.871 261.1,456.871 275.5,453C 301.773,445.477 328.44,443.477 355.5,447C 357.894,438.927 360.06,430.76 362,422.5C 364.719,421.556 367.552,421.223 370.5,421.5 Z"/></g>
<g><path style="opacity:1" fill="#0361fa" d="M 370.5,421.5 C 402.155,423.087 433.822,424.42 465.5,425.5C 466.34,431.859 467.34,438.192 468.5,444.5C 464.581,448.339 464.581,452.173 468.5,456C 474.612,458.414 480.946,459.081 487.5,458C 497.186,455.916 506.52,452.916 515.5,449C 528.49,442.508 540.823,435.008 552.5,426.5C 574.663,427.663 596.996,427.83 619.5,427C 618.167,426.667 616.833,426.333 615.5,426C 616.333,425.833 617.167,425.667 618,425.5C 619.376,425.684 620.209,426.351 620.5,427.5C 618.629,430.061 616.629,432.561 614.5,435C 615,435.167 615.5,435.333 616,435.5C 618.71,432.959 621.21,430.292 623.5,427.5C 626.167,427.5 628.833,427.5 631.5,427.5C 610.644,453.693 585.311,474.359 555.5,489.5C 536.833,489.5 518.167,489.5 499.5,489.5C 498.292,488.766 496.959,488.433 495.5,488.5C 495.46,485.119 495.793,481.786 496.5,478.5C 495.5,478.5 494.5,478.5 493.5,478.5C 493.477,480.927 492.977,483.26 492,485.5C 489.37,485.859 487.203,486.859 485.5,488.5C 469.167,489.833 452.833,489.833 436.5,488.5C 439.318,485.495 442.484,482.828 446,480.5C 446.591,479.517 446.257,478.85 445,478.5C 439.764,480.911 435.264,484.245 431.5,488.5C 391.239,489.494 350.906,489.827 310.5,489.5C 305.617,488.216 304.784,485.882 308,482.5C 308.781,481.056 308.614,479.723 307.5,478.5C 305.655,480.231 303.822,481.898 302,483.5C 300.037,482.375 298.204,481.041 296.5,479.5C 295.417,480.365 295.251,481.365 296,482.5C 297.5,484 299,485.5 300.5,487C 299.934,487.995 299.267,488.828 298.5,489.5C 279.167,489.5 259.833,489.5 240.5,489.5C 239.659,487.621 239.325,485.621 239.5,483.5C 242.073,484.555 244.739,484.722 247.5,484C 279.247,470.752 312.247,462.419 346.5,459C 354.668,457.583 361.668,454.083 367.5,448.5C 399.803,446.898 432.137,446.065 464.5,446C 465.833,445.333 465.833,444.667 464.5,444C 434.494,443.333 404.494,443.5 374.5,444.5C 373.5,444.5 372.5,444.5 371.5,444.5C 371.5,443.5 371.5,442.5 371.5,441.5C 372.989,437.764 373.656,433.764 373.5,429.5C 373.461,426.465 372.461,423.798 370.5,421.5 Z"/></g>
<g><path style="opacity:1" fill="#d5dbe9" d="M 373.5,429.5 C 373.656,433.764 372.989,437.764 371.5,441.5C 370.275,440.848 369.608,439.681 369.5,438C 369.762,435.453 370.262,432.953 371,430.5C 371.671,429.748 372.504,429.414 373.5,429.5 Z"/></g>
<g><path style="opacity:1" fill="#c5cfeb" d="M 387.5,429.5 C 388.833,429.5 390.167,429.5 391.5,429.5C 391.663,431.857 391.497,434.19 391,436.5C 390.902,438.619 390.069,440.286 388.5,441.5C 387.509,437.555 387.176,433.555 387.5,429.5 Z"/></g>
<g><path style="opacity:1" fill="#e2e4e8" d="M 423.5,429.5 C 424.5,429.5 425.5,429.5 426.5,429.5C 426.5,433.167 426.5,436.833 426.5,440.5C 425.5,440.5 424.5,440.5 423.5,440.5C 423.5,436.833 423.5,433.167 423.5,429.5 Z"/></g>
<g><path style="opacity:0.818" fill="#e8e8e8" d="M 680.5,429.5 C 692.447,430.113 698.78,436.446 699.5,448.5C 699.324,451.882 698.824,455.215 698,458.5C 692.783,468.933 688.117,479.599 684,490.5C 681.298,509.32 684.631,526.987 694,543.5C 700.362,552.398 708.529,554.564 718.5,550C 722.255,546.557 722.255,543.224 718.5,540C 714.781,539.547 713.447,541.047 714.5,544.5C 712.258,547.074 710.591,546.574 709.5,543C 712.219,535.54 716.719,534.04 723,538.5C 726.101,545.305 724.601,550.805 718.5,555C 710.076,557.793 702.409,556.46 695.5,551C 686.691,540.871 681.524,529.037 680,515.5C 678.647,503.594 679.647,491.927 683,480.5C 686.939,472.955 690.606,465.288 694,457.5C 696.409,450.516 695.742,443.849 692,437.5C 686.667,432.167 681.333,432.167 676,437.5C 674.872,439.345 674.372,441.345 674.5,443.5C 672.654,443.778 671.32,443.111 670.5,441.5C 671.367,435.31 674.7,431.31 680.5,429.5 Z"/></g>
<g><path style="opacity:1" fill="#d1d8ea" d="M 437.5,430.5 C 438.5,430.5 439.5,430.5 440.5,430.5C 440.5,433.833 440.5,437.167 440.5,440.5C 439.5,440.5 438.5,440.5 437.5,440.5C 437.5,437.167 437.5,433.833 437.5,430.5 Z"/></g>
<g><path style="opacity:1" fill="#cbd3eb" d="M 452.5,429.5 C 453.5,429.5 454.5,429.5 455.5,429.5C 456.114,433.135 456.448,436.802 456.5,440.5C 455.5,440.5 454.5,440.5 453.5,440.5C 452.756,436.881 452.423,433.215 452.5,429.5 Z"/></g>
<g><path style="opacity:1" fill="#d9dee9" d="M 405.5,430.5 C 406.5,430.5 407.5,430.5 408.5,430.5C 408.82,433.898 408.487,437.232 407.5,440.5C 406.914,440.291 406.414,439.957 406,439.5C 405.502,436.518 405.335,433.518 405.5,430.5 Z"/></g>
<g><path style="opacity:1" fill="#d3daea" d="M 541.5,435.5 C 543.722,435.559 544.722,436.725 544.5,439C 543.699,441.598 542.366,443.931 540.5,446C 534.23,448.152 527.897,450.152 521.5,452C 519.374,454.433 518.041,457.266 517.5,460.5C 514.712,456.591 515.378,453.091 519.5,450C 525.273,447.453 531.273,445.453 537.5,444C 540.844,442.106 542.178,439.273 541.5,435.5 Z"/></g>
<g><path style="opacity:1" fill="#d8dee9" d="M 367.5,448.5 C 365.076,448.808 362.743,448.474 360.5,447.5C 360.709,446.914 361.043,446.414 361.5,446C 366.019,445.825 370.353,445.325 374.5,444.5C 404.494,443.5 434.494,443.333 464.5,444C 465.833,444.667 465.833,445.333 464.5,446C 432.137,446.065 399.803,446.898 367.5,448.5 Z"/></g>
<g><path style="opacity:0.891" fill="#e1e3e8" d="M 787.5,463.5 C 789.346,463.222 790.68,463.889 791.5,465.5C 789.059,472.324 786.726,479.157 784.5,486C 788.699,490.534 793.199,494.701 798,498.5C 798.49,499.793 798.657,501.127 798.5,502.5C 791.825,502.334 785.158,502.5 778.5,503C 776.343,510.139 774.177,517.306 772,524.5C 769.291,525.706 767.625,524.706 767,521.5C 764.33,515.655 762.164,509.655 760.5,503.5C 751.844,504.299 743.178,504.966 734.5,505.5C 734.238,504.022 734.571,502.689 735.5,501.5C 740.337,497.496 744.67,492.996 748.5,488C 745.13,481.051 742.463,473.884 740.5,466.5C 749.009,468.893 757.343,471.893 765.5,475.5C 773.216,471.98 780.549,467.98 787.5,463.5 Z"/></g>
<g><path style="opacity:1" fill="#d5dbe9" d="M 544.5,467.5 C 550.113,468.371 555.446,470.038 560.5,472.5C 560.167,473.5 559.5,474.167 558.5,474.5C 555.014,472.757 551.348,471.59 547.5,471C 545.574,470.578 544.574,469.411 544.5,467.5 Z"/></g>
<g><path style="opacity:1" fill="#0c58fc" d="M 780.5,487.5 C 771.44,488.429 762.107,488.429 752.5,487.5C 750.31,482.285 747.976,477.118 745.5,472C 752.364,474.069 759.197,476.569 766,479.5C 772.811,476.094 779.478,472.428 786,468.5C 784.501,474.841 782.668,481.174 780.5,487.5 Z"/></g>
<g><path style="opacity:1" fill="#d7dee9" d="M 436.5,488.5 C 435.469,489.355 434.303,490.022 433,490.5C 431.97,490.164 431.47,489.497 431.5,488.5C 435.264,484.245 439.764,480.911 445,478.5C 446.257,478.85 446.591,479.517 446,480.5C 442.484,482.828 439.318,485.495 436.5,488.5 Z"/></g>
<g><path style="opacity:1" fill="#d4dbe9" d="M 499.5,489.5 C 498.082,491.308 496.082,491.975 493.5,491.5C 493.769,493.429 493.269,495.095 492,496.5C 490.837,494.715 490.17,492.715 490,490.5C 488.53,489.733 487.03,489.067 485.5,488.5C 487.203,486.859 489.37,485.859 492,485.5C 492.977,483.26 493.477,480.927 493.5,478.5C 494.5,478.5 495.5,478.5 496.5,478.5C 495.793,481.786 495.46,485.119 495.5,488.5C 496.959,488.433 498.292,488.766 499.5,489.5 Z"/></g>
<g><path style="opacity:1" fill="#d5dbe9" d="M 310.5,489.5 C 310.38,490.586 309.713,491.253 308.5,491.5C 306.726,491.113 305.059,490.447 303.5,489.5C 302.167,490.5 300.833,491.5 299.5,492.5C 297.481,491.867 297.147,490.867 298.5,489.5C 299.267,488.828 299.934,487.995 300.5,487C 299,485.5 297.5,484 296,482.5C 295.251,481.365 295.417,480.365 296.5,479.5C 298.204,481.041 300.037,482.375 302,483.5C 303.822,481.898 305.655,480.231 307.5,478.5C 308.614,479.723 308.781,481.056 308,482.5C 304.784,485.882 305.617,488.216 310.5,489.5 Z"/></g>
<g><path style="opacity:1" fill="#0563fa" d="M 752.5,487.5 C 762.107,488.429 771.44,488.429 780.5,487.5C 784.473,490.806 788.14,494.473 791.5,498.5C 785.697,499.087 780.197,498.42 775,496.5C 773.667,499.167 772.333,499.167 771,496.5C 769.667,499.167 768.333,499.167 767,496.5C 765.667,499.167 764.333,499.167 763,496.5C 761.667,499.167 760.333,499.167 759,496.5C 757.667,499.167 756.333,499.167 755,496.5C 753.667,499.167 752.333,499.167 751,496.5C 750.29,497.973 749.124,498.64 747.5,498.5C 747.5,497.5 747.5,496.5 747.5,495.5C 748.793,493.704 750.293,492.037 752,490.5C 752.483,489.552 752.649,488.552 752.5,487.5 Z"/></g>
<g><path style="opacity:1" fill="#0264f9" d="M 431.5,488.5 C 431.47,489.497 431.97,490.164 433,490.5C 434.303,490.022 435.469,489.355 436.5,488.5C 452.833,489.833 469.167,489.833 485.5,488.5C 487.03,489.067 488.53,489.733 490,490.5C 490.17,492.715 490.837,494.715 492,496.5C 493.269,495.095 493.769,493.429 493.5,491.5C 496.082,491.975 498.082,491.308 499.5,489.5C 518.167,489.5 536.833,489.5 555.5,489.5C 548.173,493.83 540.506,497.664 532.5,501C 527.349,503.996 522.349,507.162 517.5,510.5C 473.167,510.5 428.833,510.5 384.5,510.5C 381.194,508.511 377.861,506.511 374.5,504.5C 373.417,505.365 373.251,506.365 374,507.5C 374.995,508.066 375.828,508.733 376.5,509.5C 333.337,510.499 290.003,510.832 246.5,510.5C 244.267,503.663 242.267,496.663 240.5,489.5C 259.833,489.5 279.167,489.5 298.5,489.5C 297.147,490.867 297.481,491.867 299.5,492.5C 300.833,491.5 302.167,490.5 303.5,489.5C 305.059,490.447 306.726,491.113 308.5,491.5C 309.713,491.253 310.38,490.586 310.5,489.5C 350.906,489.827 391.239,489.494 431.5,488.5 Z"/></g>
<g><path style="opacity:1" fill="#126ef8" d="M 747.5,495.5 C 747.5,496.5 747.5,497.5 747.5,498.5C 749.124,498.64 750.29,497.973 751,496.5C 752.333,499.167 753.667,499.167 755,496.5C 756.333,499.167 757.667,499.167 759,496.5C 760.333,499.167 761.667,499.167 763,496.5C 764.333,499.167 765.667,499.167 767,496.5C 768.333,499.167 769.667,499.167 771,496.5C 772.333,499.167 773.667,499.167 775,496.5C 780.197,498.42 785.697,499.087 791.5,498.5C 786.923,499.355 781.589,499.855 775.5,500C 773.436,506.086 771.603,512.253 770,518.5C 767.224,512.615 764.724,506.615 762.5,500.5C 761.333,500.167 760.167,499.833 759,499.5C 753.18,500.541 747.347,501.041 741.5,501C 743.37,498.96 745.37,497.127 747.5,495.5 Z"/></g>
<g><path style="opacity:1" fill="#d4dce9" d="M 384.5,510.5 C 385.806,511.467 386.473,512.801 386.5,514.5C 382.926,513.379 379.592,511.713 376.5,509.5C 375.828,508.733 374.995,508.066 374,507.5C 373.251,506.365 373.417,505.365 374.5,504.5C 377.861,506.511 381.194,508.511 384.5,510.5 Z"/></g>
<g><path style="opacity:0.824" fill="#e8e8e8" d="M 218.5,511.5 C 222.937,510.892 226.603,512.225 229.5,515.5C 234.082,526.824 236.915,538.491 238,550.5C 235.599,554.291 232.099,556.458 227.5,557C 218.779,560.433 209.779,562.1 200.5,562C 197.372,559.654 195.539,556.487 195,552.5C 192.845,545.545 190.845,538.545 189,531.5C 187.435,525.799 189.268,521.633 194.5,519C 202.766,516.965 210.766,514.465 218.5,511.5 Z M 219.5,515.5 C 212.04,518.264 204.374,520.764 196.5,523C 192.787,524.691 191.621,527.525 193,531.5C 195.536,539.441 197.869,547.441 200,555.5C 201.378,557.213 203.045,558.547 205,559.5C 213.414,556.808 221.914,554.308 230.5,552C 231.931,551.535 233.097,550.701 234,549.5C 232.632,539.357 230.299,529.357 227,519.5C 225.461,516.479 222.961,515.146 219.5,515.5 Z"/></g>
<g><path style="opacity:1" fill="#d3dbe9" d="M 333.5,526.5 C 333.334,530.514 333.501,534.514 334,538.5C 336.382,539.866 338.548,539.533 340.5,537.5C 341.582,540.776 340.248,542.443 336.5,542.5C 333.349,542.189 331.182,540.523 330,537.5C 330.354,533.599 330.187,529.766 329.5,526C 328.092,525.685 326.759,526.018 325.5,527C 324.315,528.353 322.981,529.52 321.5,530.5C 320.702,530.043 320.369,529.376 320.5,528.5C 323.22,523.298 327.22,521.798 332.5,524C 333.252,524.671 333.586,525.504 333.5,526.5 Z"/></g>
<g><path style="opacity:1" fill="#0166f9" d="M 376.5,509.5 C 379.592,511.713 382.926,513.379 386.5,514.5C 386.473,512.801 385.806,511.467 384.5,510.5C 428.833,510.5 473.167,510.5 517.5,510.5C 511.237,515.707 505.904,521.707 501.5,528.5C 445.284,529.156 389.284,528.489 333.5,526.5C 333.586,525.504 333.252,524.671 332.5,524C 327.22,521.798 323.22,523.298 320.5,528.5C 297.5,528.5 274.5,528.5 251.5,528.5C 249.343,522.76 247.676,516.76 246.5,510.5C 290.003,510.832 333.337,510.499 376.5,509.5 Z"/></g>
<g><path style="opacity:1" fill="#0269f9" d="M 333.5,526.5 C 389.284,528.489 445.284,529.156 501.5,528.5C 496.095,539.514 493.095,551.18 492.5,563.5C 469.5,563.5 446.5,563.5 423.5,563.5C 422,561.821 420.167,560.488 418,559.5C 417.852,557.095 418.352,554.761 419.5,552.5C 419.167,551.833 418.833,551.167 418.5,550.5C 416.515,552.457 415.015,554.79 414,557.5C 411.966,555.968 409.799,554.635 407.5,553.5C 407.167,554 406.833,554.5 406.5,555C 408.209,557.043 410.209,558.877 412.5,560.5C 412.058,561.739 411.391,562.739 410.5,563.5C 360.833,563.5 311.167,563.5 261.5,563.5C 257.674,552.077 254.341,540.41 251.5,528.5C 274.5,528.5 297.5,528.5 320.5,528.5C 320.369,529.376 320.702,530.043 321.5,530.5C 322.981,529.52 324.315,528.353 325.5,527C 326.759,526.018 328.092,525.685 329.5,526C 330.187,529.766 330.354,533.599 330,537.5C 331.182,540.523 333.349,542.189 336.5,542.5C 340.248,542.443 341.582,540.776 340.5,537.5C 338.548,539.533 336.382,539.866 334,538.5C 333.501,534.514 333.334,530.514 333.5,526.5 Z"/></g>
<g><path style="opacity:0.834" fill="#e7e7e7" d="M 70.5,533.5 C 71.8734,533.343 73.2068,533.51 74.5,534C 75.6217,536.124 77.1217,537.957 79,539.5C 81.039,537.126 83.3723,535.126 86,533.5C 87.3654,534.593 87.6987,535.926 87,537.5C 85.1667,539.333 83.3333,541.167 81.5,543C 84.0912,545.357 85.7579,548.191 86.5,551.5C 85.1266,551.657 83.7932,551.49 82.5,551C 81.6948,549.028 80.3615,547.528 78.5,546.5C 76.3501,548.149 74.3501,549.982 72.5,552C 70.9262,552.699 69.5929,552.365 68.5,551C 70.6445,548.021 72.9778,545.188 75.5,542.5C 72.529,540.203 70.8624,537.203 70.5,533.5 Z"/></g>
<g><path style="opacity:1" fill="#d4dce9" d="M 423.5,563.5 C 423.631,564.376 423.298,565.043 422.5,565.5C 420.201,564.365 418.034,563.032 416,561.5C 414.401,564.378 412.567,567.044 410.5,569.5C 409.481,567.54 409.481,565.54 410.5,563.5C 411.391,562.739 412.058,561.739 412.5,560.5C 410.209,558.877 408.209,557.043 406.5,555C 406.833,554.5 407.167,554 407.5,553.5C 409.799,554.635 411.966,555.968 414,557.5C 415.015,554.79 416.515,552.457 418.5,550.5C 418.833,551.167 419.167,551.833 419.5,552.5C 418.352,554.761 417.852,557.095 418,559.5C 420.167,560.488 422,561.821 423.5,563.5 Z"/></g>
<g><path style="opacity:1" fill="#cfd8ea" d="M 468.5,554.5 C 471.694,554.176 472.694,555.342 471.5,558C 466.246,559.271 460.913,559.771 455.5,559.5C 455.5,558.5 455.5,557.5 455.5,556.5C 459.182,556.665 462.848,556.499 466.5,556C 467.416,555.722 468.082,555.222 468.5,554.5 Z"/></g>
<g><path style="opacity:1" fill="#016df8" d="M 423.5,563.5 C 446.5,563.5 469.5,563.5 492.5,563.5C 488.842,584.448 485.509,605.448 482.5,626.5C 462.909,627.487 443.243,627.821 423.5,627.5C 420.311,622.528 421.644,619.195 427.5,617.5C 429.274,617.887 430.941,618.553 432.5,619.5C 433.731,618.349 433.731,617.183 432.5,616C 423.671,612.993 419.004,616.159 418.5,625.5C 397.86,627.489 376.86,628.155 355.5,627.5C 356.527,621.155 356.527,614.822 355.5,608.5C 354.914,608.709 354.414,609.043 354,609.5C 353.037,615.465 352.537,621.465 352.5,627.5C 339.656,627.829 326.989,627.495 314.5,626.5C 314.539,625.244 314.039,624.244 313,623.5C 311.333,625.167 309.667,626.833 308,628.5C 305.966,625.294 304.133,621.96 302.5,618.5C 301.675,617.614 300.675,617.281 299.5,617.5C 299.878,619.921 300.545,622.254 301.5,624.5C 301.414,625.496 301.748,626.329 302.5,627C 294.507,627.5 286.507,627.666 278.5,627.5C 272.519,606.242 266.852,584.909 261.5,563.5C 311.167,563.5 360.833,563.5 410.5,563.5C 409.481,565.54 409.481,567.54 410.5,569.5C 412.567,567.044 414.401,564.378 416,561.5C 418.034,563.032 420.201,564.365 422.5,565.5C 423.298,565.043 423.631,564.376 423.5,563.5 Z"/></g>
<g><path style="opacity:1" fill="#d6dde9" d="M 278.5,566.5 C 281.14,566.954 283.473,568.121 285.5,570C 288.226,570.182 290.893,570.682 293.5,571.5C 293.291,572.086 292.957,572.586 292.5,573C 286.095,574.295 281.429,572.128 278.5,566.5 Z"/></g>
<g><path style="opacity:0.818" fill="#e8e8e8" d="M 235.5,568.5 C 240.814,567.74 244.647,569.74 247,574.5C 256.911,607.98 266.745,641.48 276.5,675C 276.417,679.749 274.084,682.749 269.5,684C 260.776,686.889 251.943,689.389 243,691.5C 238.653,691.482 235.653,689.482 234,685.5C 223.884,652.155 214.384,618.655 205.5,585C 205.039,581.455 206.372,578.788 209.5,577C 218.274,574.148 226.941,571.314 235.5,568.5 Z M 236.5,572.5 C 228.712,575.287 220.712,577.787 212.5,580C 210.046,580.943 209.046,582.776 209.5,585.5C 218.357,617.573 227.524,649.573 237,681.5C 237.691,684.858 239.691,686.858 243,687.5C 251.831,685.001 260.664,682.501 269.5,680C 271.01,678.649 272.01,676.982 272.5,675C 262.922,642.523 253.422,610.023 244,577.5C 242.92,573.709 240.42,572.043 236.5,572.5 Z"/></g>
<g><path style="opacity:0.944" fill="#e8e8e8" d="M 795.5,577.5 C 797.722,577.559 798.722,578.725 798.5,581C 796.957,587.482 796.624,593.982 797.5,600.5C 804.584,604.101 811.25,608.267 817.5,613C 816.771,614.992 815.271,615.826 813,615.5C 805.853,614.464 798.687,614.297 791.5,615C 789.618,620.025 788.118,625.192 787,630.5C 785.286,631.925 783.953,631.592 783,629.5C 781,623.5 779,617.5 777,611.5C 770.093,613.82 763.093,614.82 756,614.5C 755.333,613.833 755.333,613.167 756,612.5C 760.042,608.29 764.208,604.29 768.5,600.5C 764.329,597.162 760.663,593.329 757.5,589C 757.613,587.72 758.28,586.887 759.5,586.5C 766.833,588.167 774.167,589.833 781.5,591.5C 786.521,587.146 791.188,582.479 795.5,577.5 Z"/></g>
<g><path style="opacity:0.814" fill="#e8e8e8" d="M 51.5,588.5 C 80.0752,587.517 97.5752,600.85 104,628.5C 105.743,646.346 99.7431,661.012 86,672.5C 81.1594,684.837 73.8261,695.504 64,704.5C 59.8383,709.814 58.1717,715.814 59,722.5C 61.9683,728.919 66.4683,730.586 72.5,727.5C 74.6858,724.37 75.0191,721.037 73.5,717.5C 75.451,717.227 76.951,717.893 78,719.5C 78.8149,729.352 74.3149,733.852 64.5,733C 57.2844,729.404 54.1177,723.571 55,715.5C 55.2503,712.246 56.2503,709.246 58,706.5C 63.2916,699.54 68.9583,692.873 75,686.5C 76.7059,682.921 78.5392,679.421 80.5,676C 68.1494,679.882 59.3161,676.048 54,664.5C 53.8717,651.312 60.3717,646.145 73.5,649C 80.5322,652.035 84.5322,657.369 85.5,665C 85.8499,666.257 86.5165,666.591 87.5,666C 103.347,647.341 104.514,627.841 91,607.5C 78.3379,594.892 63.1712,590.225 45.5,593.5C 45.33,592.178 45.6634,591.011 46.5,590C 48.3817,589.802 50.0484,589.302 51.5,588.5 Z M 63.5,652.5 C 76.0384,652.038 81.7051,658.038 80.5,670.5C 75.6895,672.485 70.6895,672.985 65.5,672C 55.9154,666.02 55.2488,659.52 63.5,652.5 Z"/></g>
<g><path style="opacity:1" fill="#cdd8ea" d="M 355.5,627.5 C 354.5,627.5 353.5,627.5 352.5,627.5C 352.537,621.465 353.037,615.465 354,609.5C 354.414,609.043 354.914,608.709 355.5,608.5C 356.527,614.822 356.527,621.155 355.5,627.5 Z"/></g>
<g><path style="opacity:1" fill="#ced9ea" d="M 423.5,627.5 C 423.054,635.121 419.054,637.621 411.5,635C 410.663,633.989 410.33,632.822 410.5,631.5C 413.455,632.159 416.455,632.492 419.5,632.5C 419.802,629.941 419.468,627.607 418.5,625.5C 419.004,616.159 423.671,612.993 432.5,616C 433.731,617.183 433.731,618.349 432.5,619.5C 430.941,618.553 429.274,617.887 427.5,617.5C 421.644,619.195 420.311,622.528 423.5,627.5 Z"/></g>
<g><path style="opacity:1" fill="#d5dde9" d="M 314.5,626.5 C 309.593,629.512 309.593,632.846 314.5,636.5C 313.635,637.583 312.635,637.749 311.5,637C 310.333,635.833 309.167,634.667 308,633.5C 306.56,636.335 304.727,636.835 302.5,635C 306.223,631.224 305.889,627.724 301.5,624.5C 300.545,622.254 299.878,619.921 299.5,617.5C 300.675,617.281 301.675,617.614 302.5,618.5C 304.133,621.96 305.966,625.294 308,628.5C 309.667,626.833 311.333,625.167 313,623.5C 314.039,624.244 314.539,625.244 314.5,626.5 Z"/></g>
<g><path style="opacity:1" fill="#0173f7" d="M 301.5,624.5 C 305.889,627.724 306.223,631.224 302.5,635C 304.727,636.835 306.56,636.335 308,633.5C 309.167,634.667 310.333,635.833 311.5,637C 312.635,637.749 313.635,637.583 314.5,636.5C 309.593,632.846 309.593,629.512 314.5,626.5C 326.989,627.495 339.656,627.829 352.5,627.5C 353.5,627.5 354.5,627.5 355.5,627.5C 376.86,628.155 397.86,627.489 418.5,625.5C 419.468,627.607 419.802,629.941 419.5,632.5C 416.455,632.492 413.455,632.159 410.5,631.5C 410.33,632.822 410.663,633.989 411.5,635C 419.054,637.621 423.054,635.121 423.5,627.5C 443.243,627.821 462.909,627.487 482.5,626.5C 478.511,648.102 474.844,669.768 471.5,691.5C 412.618,691.695 353.952,691.361 295.5,690.5C 289.707,669.536 284.04,648.536 278.5,627.5C 286.507,627.666 294.507,627.5 302.5,627C 301.748,626.329 301.414,625.496 301.5,624.5 Z"/></g>
<g><path style="opacity:0.784" fill="#e9e9e9" d="M 39.5,627.5 C 42.1008,628.28 44.1008,629.946 45.5,632.5C 47.0712,630.585 49.0712,629.585 51.5,629.5C 51.8541,632.421 50.8541,634.754 48.5,636.5C 49.624,637.914 50.624,639.414 51.5,641C 48.9034,643.033 46.7367,642.533 45,639.5C 43.2845,642.397 40.7845,643.731 37.5,643.5C 38.0913,640.386 39.758,637.886 42.5,636C 39.829,633.543 38.829,630.709 39.5,627.5 Z"/></g>
<g><path style="opacity:1" fill="#d6dee9" d="M 456.5,670.5 C 457.497,670.47 458.164,670.97 458.5,672C 455.691,677.129 452.024,681.129 447.5,684C 446.549,683.282 446.383,682.449 447,681.5C 450.647,678.175 453.814,674.508 456.5,670.5 Z"/></g>
<g><path style="opacity:1" fill="#0279f6" d="M 295.5,690.5 C 353.952,691.361 412.618,691.695 471.5,691.5C 469.413,705.194 467.079,718.86 464.5,732.5C 445.592,740.456 426.592,748.123 407.5,755.5C 395.495,755.667 383.495,755.5 371.5,755C 372.252,754.329 372.586,753.496 372.5,752.5C 372.5,751.5 372.5,750.5 372.5,749.5C 369.637,750.492 367.637,752.492 366.5,755.5C 348.833,755.5 331.167,755.5 313.5,755.5C 307.799,733.761 301.799,712.094 295.5,690.5 Z"/></g>
<g><path style="opacity:1" fill="#d6dee9" d="M 394.5,698.5 C 395.239,698.369 395.906,698.536 396.5,699C 397.747,700.946 399.08,702.78 400.5,704.5C 402.323,703.253 404.323,702.586 406.5,702.5C 406.719,703.675 406.386,704.675 405.5,705.5C 403.77,706.026 402.436,707.026 401.5,708.5C 402.681,710.198 402.681,711.865 401.5,713.5C 400.167,712.167 398.833,710.833 397.5,709.5C 395.021,711.076 392.354,712.076 389.5,712.5C 389.281,711.325 389.614,710.325 390.5,709.5C 392.413,708.627 394.247,707.627 396,706.5C 395.847,703.826 395.347,701.16 394.5,698.5 Z"/></g>
<g><path style="opacity:1" fill="#d3dde9" d="M 334.5,702.5 C 335.833,702.5 337.167,702.5 338.5,702.5C 338.5,703.5 338.5,704.5 338.5,705.5C 337.5,705.5 336.5,705.5 335.5,705.5C 335.383,707.484 336.05,709.15 337.5,710.5C 348.1,712.585 353.267,718.918 353,729.5C 352.333,730.833 351.667,732.167 351,733.5C 350.333,734.833 349.667,734.833 349,733.5C 349.434,729.548 349.434,725.548 349,721.5C 348.215,719.714 347.049,718.214 345.5,717C 341.444,715.536 337.611,713.703 334,711.5C 332.029,708.384 332.195,705.384 334.5,702.5 Z"/></g>
<g><path style="opacity:1" fill="#d6dfe9" d="M 372.5,752.5 C 369.775,756.729 366.441,760.562 362.5,764C 361.056,764.781 359.723,764.614 358.5,763.5C 361.494,761.173 364.161,758.506 366.5,755.5C 367.637,752.492 369.637,750.492 372.5,749.5C 372.5,750.5 372.5,751.5 372.5,752.5 Z"/></g>
<g><path style="opacity:1" fill="#077ef5" d="M 372.5,752.5 C 372.586,753.496 372.252,754.329 371.5,755C 383.495,755.5 395.495,755.667 407.5,755.5C 379.589,767.114 351.589,778.781 323.5,790.5C 319.857,778.893 316.524,767.226 313.5,755.5C 331.167,755.5 348.833,755.5 366.5,755.5C 364.161,758.506 361.494,761.173 358.5,763.5C 359.723,764.614 361.056,764.781 362.5,764C 366.441,760.562 369.775,756.729 372.5,752.5 Z"/></g>
</svg>
