<?xml version="1.0" encoding="UTF-8"?>
<!DOCTYPE svg PUBLIC "-//W3C//DTD SVG 1.1//EN" "http://www.w3.org/Graphics/SVG/1.1/DTD/svg11.dtd">
<svg xmlns="http://www.w3.org/2000/svg" version="1.1" width="960px" height="960px" style="shape-rendering:geometricPrecision; text-rendering:geometricPrecision; image-rendering:optimizeQuality; fill-rule:evenodd; clip-rule:evenodd" xmlns:xlink="http://www.w3.org/1999/xlink">
<g><path style="opacity:0.851" fill="#e7e7e8" d="M 286.5,37.5 C 374.181,36.0842 442.347,71.4175 491,143.5C 534.332,220.18 534.332,296.847 491,373.5C 438.847,449.989 366.347,484.822 273.5,478C 195.344,467.38 137.177,427.88 99,359.5C 64.1515,286.105 66.8182,214.105 107,143.5C 149.601,79.2725 209.435,43.9391 286.5,37.5 Z M 298.5,41.5 C 370.888,43.4452 429.722,72.4452 475,128.5C 524.463,198.896 531.796,273.562 497,352.5C 491.419,363.334 485.086,373.668 478,383.5C 441.051,361.054 400.885,350.72 357.5,352.5C 357.093,344.441 354.426,337.274 349.5,331C 348.167,330.333 346.833,329.667 345.5,329C 335.522,328.011 325.522,327.511 315.5,327.5C 313.743,319.999 314.243,312.666 317,305.5C 318.167,304.333 319.333,303.167 320.5,302C 326.752,299.138 333.085,296.472 339.5,294C 346.35,288.468 350.183,281.301 351,272.5C 354.077,238.814 357.244,205.147 360.5,171.5C 368.334,171.396 376.001,170.229 383.5,168C 390.966,163.461 392.633,157.461 388.5,150C 387.167,149.333 385.833,148.667 384.5,148C 378.806,147.616 373.14,147.616 367.5,148C 380.869,140.759 387.035,129.593 386,114.5C 381.178,102.174 372.344,98.0078 359.5,102C 355.127,103.713 351.293,106.213 348,109.5C 348.696,88.8472 339.529,82.3472 320.5,90C 315.806,93.8858 312.473,98.7191 310.5,104.5C 302.047,92.1876 291.047,89.3543 277.5,96C 271.276,100.615 267.776,106.782 267,114.5C 251.801,107.585 240.801,111.918 234,127.5C 232.007,134.101 231.34,140.768 232,147.5C 221.014,148.327 211.68,152.66 204,160.5C 198.964,169.082 199.464,177.249 205.5,185C 191.313,192.276 187.479,203.109 194,217.5C 196.448,219.631 198.948,221.631 201.5,223.5C 195.906,231.63 196.239,239.464 202.5,247C 205.787,248.304 208.787,249.97 211.5,252C 208.628,271.126 216.628,278.46 235.5,274C 237.09,272.954 238.59,271.787 240,270.5C 241.282,290.817 242.115,311.15 242.5,331.5C 228.817,331.85 222.483,338.85 223.5,352.5C 223.524,355.421 223.857,358.254 224.5,361C 191.288,368.186 162.454,383.353 138,406.5C 80.847,341.742 65.5137,268.076 92,185.5C 123.493,108.014 180.326,61.181 262.5,45C 274.616,43.4306 286.616,42.2639 298.5,41.5 Z M 351.5,171.5 C 352.833,171.5 354.167,171.5 355.5,171.5C 352.757,203.168 349.924,234.835 347,266.5C 346.982,275.69 343.815,283.523 337.5,290C 331.432,292.134 325.432,294.467 319.5,297C 315.48,300.011 312.647,303.844 311,308.5C 310.21,314.552 310.376,320.552 311.5,326.5C 295.821,327.88 280.155,329.047 264.5,330C 265.126,329.25 265.626,328.416 266,327.5C 266.167,323.833 266.333,320.167 266.5,316.5C 265.518,301.836 265.018,287.17 265,272.5C 269.69,282.219 277.19,285.386 287.5,282C 289,279.833 288.5,278.333 286,277.5C 278.562,279.697 273.062,277.363 269.5,270.5C 267.563,269.842 265.73,269.509 264,269.5C 262.676,246.292 260.843,223.125 258.5,200C 258.482,196.361 259.148,192.861 260.5,189.5C 261.665,188.416 262.998,187.583 264.5,187C 283.41,183.272 302.077,178.606 320.5,173C 331.008,172.83 341.341,172.33 351.5,171.5 Z M 247.5,328.5 C 251.06,330.283 251.06,331.283 247.5,331.5C 247.5,330.5 247.5,329.5 247.5,328.5 Z M 441.5,378.5 C 446.264,380.717 450.931,383.217 455.5,386C 455,386.5 454.5,387 454,387.5C 444.913,382.749 435.413,379.082 425.5,376.5C 406.143,370.137 386.143,366.971 365.5,367C 365.043,366.586 364.709,366.086 364.5,365.5C 391.039,364.54 416.706,368.874 441.5,378.5 Z"/></g>
<g><path style="opacity:0.85" fill="#e9e9e9" d="M 211.5,107.5 C 213.09,107.628 214.423,108.295 215.5,109.5C 211.487,113.458 211.654,117.125 216,120.5C 216.833,123.667 215.667,124.833 212.5,124C 211.299,123.097 210.465,121.931 210,120.5C 208.974,123.693 206.808,125.026 203.5,124.5C 203.462,121.819 204.129,119.319 205.5,117C 204.396,115.18 202.896,113.68 201,112.5C 200.146,110.393 200.812,109.059 203,108.5C 204.667,109.5 206.333,110.5 208,111.5C 209.856,110.798 211.023,109.464 211.5,107.5 Z"/></g>
<g><path style="opacity:0.838" fill="#e8e8e8" d="M 558.5,119.5 C 562.151,119.162 563.817,120.828 563.5,124.5C 566.833,123.833 570.167,123.167 573.5,122.5C 573.714,124.144 573.38,125.644 572.5,127C 569.782,128.072 567.115,129.238 564.5,130.5C 565.348,132.409 565.682,134.409 565.5,136.5C 561.5,137.167 559.833,135.5 560.5,131.5C 557.933,131.855 555.433,132.521 553,133.5C 550.5,132.667 550,131.167 551.5,129C 554.244,128.197 556.911,127.197 559.5,126C 558.577,123.959 558.244,121.792 558.5,119.5 Z"/></g>
<g><path style="opacity:0.842" fill="#e8e8e8" d="M 602.5,131.5 C 603.5,131.5 604.5,131.5 605.5,131.5C 605.66,133.199 605.494,134.866 605,136.5C 590.159,150.845 584.493,168.178 588,188.5C 589.331,191.834 591.165,194.834 593.5,197.5C 595.755,191.075 599.421,185.575 604.5,181C 611.125,177.056 616.958,177.889 622,183.5C 623.094,195.085 617.928,202.252 606.5,205C 603.854,205.497 601.187,205.664 598.5,205.5C 599.428,209.362 600.928,213.029 603,216.5C 608.576,223.32 613.909,230.32 619,237.5C 625.66,248.062 624.826,257.895 616.5,267C 614.655,268.128 612.655,268.628 610.5,268.5C 610.238,267.022 610.571,265.689 611.5,264.5C 613.258,263.872 614.758,262.872 616,261.5C 617.171,258.65 618.338,255.816 619.5,253C 618.722,249.853 617.889,246.687 617,243.5C 611.053,234.553 604.72,225.886 598,217.5C 595.584,212.754 593.917,207.754 593,202.5C 587.243,198.731 583.91,193.398 583,186.5C 580.177,164.759 586.677,146.426 602.5,131.5 Z M 610.5,182.5 C 614.766,182.125 617.433,183.959 618.5,188C 615.277,197.779 608.61,201.613 598.5,199.5C 600.223,192.128 604.223,186.462 610.5,182.5 Z"/></g>
<g><path style="opacity:0.847" fill="#e8e8e8" d="M 173.5,150.5 C 174.552,150.351 175.552,150.517 176.5,151C 177.542,152.918 178.708,154.751 180,156.5C 181.848,153.959 184.348,152.959 187.5,153.5C 186.857,156.988 184.857,159.488 181.5,161C 183.795,163.757 184.795,166.923 184.5,170.5C 183.022,170.762 181.689,170.429 180.5,169.5C 179.752,167.668 178.752,166.001 177.5,164.5C 175.684,165.815 174.017,167.315 172.5,169C 171.207,169.49 169.873,169.657 168.5,169.5C 169.319,165.147 171.652,161.647 175.5,159C 173.101,156.431 172.434,153.598 173.5,150.5 Z"/></g>
<g><path style="opacity:0.822" fill="#e8e8e8" d="M 412.5,159.5 C 413.833,159.5 415.167,159.5 416.5,159.5C 416.657,160.873 416.49,162.207 416,163.5C 409.054,171.068 401.887,178.402 394.5,185.5C 391.497,184.392 390.997,182.725 393,180.5C 399.507,173.468 406.007,166.468 412.5,159.5 Z"/></g>
<g><path style="opacity:0.849" fill="#e8e8e8" d="M 311.5,181.5 C 321.869,181.006 331.869,182.673 341.5,186.5C 342.429,187.689 342.762,189.022 342.5,190.5C 331.438,186.94 320.105,185.773 308.5,187C 306.919,187.707 305.419,188.54 304,189.5C 302.48,193.375 302.146,197.375 303,201.5C 306.359,217.127 309.525,232.794 312.5,248.5C 311.42,251.73 309.087,253.564 305.5,254C 302.167,254.667 298.833,254.667 295.5,254C 294.167,252.667 294.167,251.333 295.5,250C 298.833,249.667 302.167,249.333 305.5,249C 306.516,248.481 307.182,247.647 307.5,246.5C 303.355,228.614 300.188,210.614 298,192.5C 300.144,185.856 304.644,182.189 311.5,181.5 Z"/></g>
<g><path style="opacity:0.832" fill="#e8e8e8" d="M 452.5,181.5 C 455.389,181.999 456.056,183.499 454.5,186C 435.966,192.884 416.966,198.05 397.5,201.5C 394.625,198.628 395.291,196.794 399.5,196C 417.864,193.261 435.53,188.428 452.5,181.5 Z"/></g>
<g><path style="opacity:0.845" fill="#e8e8e8" d="M 271.5,201.5 C 275.514,201.334 279.514,201.501 283.5,202C 287.601,202.925 289.601,205.425 289.5,209.5C 285.449,208.072 281.282,206.738 277,205.5C 272.519,207.328 268.019,208.995 263.5,210.5C 263.343,209.127 263.51,207.793 264,206.5C 266.426,204.548 268.926,202.881 271.5,201.5 Z"/></g>
<g><path style="opacity:0.822" fill="#e7e7e7" d="M 318.5,201.5 C 324.402,200.962 330.068,201.795 335.5,204C 336.798,206.395 335.965,207.562 333,207.5C 330.149,206.912 327.315,206.245 324.5,205.5C 320.911,206.648 317.244,207.315 313.5,207.5C 313.238,206.022 313.571,204.689 314.5,203.5C 316.026,203.006 317.359,202.339 318.5,201.5 Z"/></g>
<g><path style="opacity:0.842" fill="#e8e8e8" d="M 390.5,214.5 C 391.552,214.351 392.552,214.517 393.5,215C 398.349,219.925 404.015,223.591 410.5,226C 411.38,227.356 411.714,228.856 411.5,230.5C 403.108,228.72 395.941,224.72 390,218.5C 389.421,217.072 389.588,215.738 390.5,214.5 Z"/></g>
<g><path style="opacity:0.873" fill="#e7e7e8" d="M 700.5,269.5 C 769.096,270.046 823.596,297.713 864,352.5C 900.145,408.194 907.479,467.528 886,530.5C 856.765,601.215 804.265,642.382 728.5,654C 653.674,660.328 593.507,633.828 548,574.5C 509.535,516.177 502.535,454.177 527,388.5C 561.559,314.966 619.392,275.299 700.5,269.5 Z M 691.5,274.5 C 770.764,272.398 830.598,305.065 871,372.5C 904.866,442.038 900.533,509.038 858,573.5C 845.959,589.874 831.626,603.874 815,615.5C 814.783,606.65 813.45,597.983 811,589.5C 806.742,580.906 799.908,575.739 790.5,574C 795.285,567.687 794.285,562.687 787.5,559C 783.245,558.204 779.079,558.371 775,559.5C 773.412,554.948 770.245,552.115 765.5,551C 759.912,549.711 754.245,549.211 748.5,549.5C 749.629,530.844 750.629,512.177 751.5,493.5C 766.694,497.935 778.194,493.269 786,479.5C 789.914,465.573 786.081,454.406 774.5,446C 787.055,436.581 789.888,424.748 783,410.5C 777.716,403.941 770.883,400.107 762.5,399C 768.685,388.383 767.019,379.05 757.5,371C 747.238,364.45 736.738,363.95 726,369.5C 728.276,356.762 724.776,345.929 715.5,337C 705.674,330.307 695.674,329.974 685.5,336C 681.885,339.619 679.051,343.786 677,348.5C 673.133,344.298 668.967,340.465 664.5,337C 649.554,332.386 638.72,337.22 632,351.5C 629.659,360.866 630.159,370.033 633.5,379C 619.647,387.26 616.813,398.427 625,412.5C 633.123,421.598 643.289,425.265 655.5,423.5C 654.977,443.573 655.81,463.573 658,483.5C 659.632,489.93 663.132,495.097 668.5,499C 674.081,501.86 679.748,504.526 685.5,507C 694.885,513.81 698.385,522.977 696,534.5C 693.043,538.736 691.543,543.403 691.5,548.5C 681.889,547.778 672.556,548.945 663.5,552C 662.167,553.333 660.833,554.667 659.5,556C 654.231,557.106 648.897,557.773 643.5,558C 640.943,558.685 639.109,560.185 638,562.5C 637.788,565.332 637.621,567.998 637.5,570.5C 630.55,569.37 623.55,569.203 616.5,570C 609,572.167 604.167,577 602,584.5C 599.718,595.769 599.052,607.102 600,618.5C 540.696,575.541 513.362,517.208 518,443.5C 529.813,362.032 574.646,308.198 652.5,282C 665.413,278.329 678.413,275.829 691.5,274.5 Z M 670.5,405.5 C 691.824,403.666 712.491,406.499 732.5,414C 739.113,417.042 742.946,422.209 744,429.5C 747.278,469.507 747.111,509.507 743.5,549.5C 730.462,549.827 717.462,549.327 704.5,548C 709.52,536.578 711.02,524.745 709,512.5C 707.861,508.888 706.194,505.554 704,502.5C 696.649,495.648 689.149,488.981 681.5,482.5C 673.113,471.143 669.113,458.31 669.5,444C 670.349,435.855 670.682,427.689 670.5,419.5C 679.51,420.046 688.51,420.713 697.5,421.5C 694.861,434.859 692.028,448.193 689,461.5C 688.333,465.167 688.333,468.833 689,472.5C 689.465,473.931 690.299,475.097 691.5,476C 696.453,477.16 701.453,477.993 706.5,478.5C 706.762,477.022 706.429,475.689 705.5,474.5C 701.939,473.239 698.272,472.406 694.5,472C 693.427,470.687 692.76,469.187 692.5,467.5C 696.479,450.938 699.812,434.272 702.5,417.5C 691.479,416.68 680.479,415.68 669.5,414.5C 669.534,411.801 668.867,409.301 667.5,407C 668.737,406.768 669.737,406.268 670.5,405.5 Z M 803.5,601.5 C 804.091,606.569 803.091,611.236 800.5,615.5C 799.702,615.043 799.369,614.376 799.5,613.5C 800.726,609.367 800.726,605.367 799.5,601.5C 799.315,596.794 797.315,593.127 793.5,590.5C 792.351,588.851 791.018,587.351 789.5,586C 789.833,585.5 790.167,585 790.5,584.5C 797.023,588.571 801.357,594.238 803.5,601.5 Z"/></g>
<g><path style="opacity:0.848" fill="#e8e7e7" d="M 59.5,301.5 C 60.8333,301.5 62.1667,301.5 63.5,301.5C 64.8651,328.263 73.1984,352.596 88.5,374.5C 86.7642,377.105 84.9308,377.105 83,374.5C 67.8544,352.562 60.021,328.229 59.5,301.5 Z"/></g>
<g><path style="opacity:1" fill="#658ef5" d="M 334.5,332.5 C 329.833,332.5 325.167,332.5 320.5,332.5C 320.5,334.833 320.5,337.167 320.5,339.5C 320.167,339.5 319.833,339.5 319.5,339.5C 319.5,336.833 319.5,334.167 319.5,331.5C 324.695,331.179 329.695,331.513 334.5,332.5 Z"/></g>
<g><path style="opacity:1" fill="#0556fc" d="M 293.5,343.5 C 293.5,343.833 293.5,344.167 293.5,344.5C 286.833,344.5 280.167,344.5 273.5,344.5C 273.5,340.833 273.5,337.167 273.5,333.5C 280.167,333.167 286.833,332.833 293.5,332.5C 293.5,336.167 293.5,339.833 293.5,343.5 Z"/></g>
<g><path style="opacity:1" fill="#0d56fc" d="M 315.5,344.5 C 309.5,344.5 303.5,344.5 297.5,344.5C 297.5,340.167 297.5,335.833 297.5,331.5C 303.833,331.5 310.167,331.5 316.5,331.5C 316.533,335.869 316.2,340.202 315.5,344.5 Z"/></g>
<g><path style="opacity:1" fill="#0052fc" d="M 334.5,332.5 C 334.5,335.167 334.5,337.833 334.5,340.5C 329.637,340.819 324.97,340.486 320.5,339.5C 320.5,337.167 320.5,334.833 320.5,332.5C 325.167,332.5 329.833,332.5 334.5,332.5 Z"/></g>
<g><path style="opacity:1" fill="#1e5cfb" d="M 269.5,334.5 C 269.5,337.833 269.5,341.167 269.5,344.5C 263.833,344.5 258.167,344.5 252.5,344.5C 252.5,341.167 252.5,337.833 252.5,334.5C 258.167,334.5 263.833,334.5 269.5,334.5 Z"/></g>
<g><path style="opacity:1" fill="#9dbded" d="M 269.5,334.5 C 270.494,344.653 270.828,354.986 270.5,365.5C 264.31,365.823 258.31,365.49 252.5,364.5C 258.167,364.5 263.833,364.5 269.5,364.5C 269.5,360.833 269.5,357.167 269.5,353.5C 269.5,350.5 269.5,347.5 269.5,344.5C 269.5,341.167 269.5,337.833 269.5,334.5 Z"/></g>
<g><path style="opacity:1" fill="#2270f8" d="M 234.5,347.5 C 234.5,349.167 234.5,350.833 234.5,352.5C 232.5,352.5 230.5,352.5 228.5,352.5C 228.5,350.167 228.5,347.833 228.5,345.5C 228.639,341.889 230.306,339.223 233.5,337.5C 234.487,340.768 234.82,344.102 234.5,347.5 Z"/></g>
<g><path style="opacity:1" fill="#0261fa" d="M 319.5,339.5 C 319.833,339.5 320.167,339.5 320.5,339.5C 324.97,340.486 329.637,340.819 334.5,340.5C 334.5,344.833 334.5,349.167 334.5,353.5C 329.5,353.5 324.5,353.5 319.5,353.5C 319.5,351.833 319.5,350.167 319.5,348.5C 319.5,345.5 319.5,342.5 319.5,339.5 Z"/></g>
<g><path style="opacity:1" fill="#0d5dfb" d="M 352.5,348.5 C 348.167,348.5 343.833,348.5 339.5,348.5C 339.802,345.941 339.468,343.607 338.5,341.5C 338.5,338.5 338.5,335.5 338.5,332.5C 348.22,333.215 352.886,338.548 352.5,348.5 Z"/></g>
<g><path style="opacity:1" fill="#0962fa" d="M 241.5,335.5 C 243.833,335.5 246.167,335.5 248.5,335.5C 248.5,341.5 248.5,347.5 248.5,353.5C 244.488,354.113 242.488,352.446 242.5,348.5C 241.167,348.5 239.833,348.5 238.5,348.5C 238.5,344.5 238.5,340.5 238.5,336.5C 239.791,336.737 240.791,336.404 241.5,335.5 Z"/></g>
<g><path style="opacity:1" fill="#0065f9" d="M 252.5,344.5 C 258.167,344.5 263.833,344.5 269.5,344.5C 269.5,347.5 269.5,350.5 269.5,353.5C 263.741,353.786 258.075,353.452 252.5,352.5C 252.5,349.833 252.5,347.167 252.5,344.5 Z"/></g>
<g><path style="opacity:1" fill="#0065f9" d="M 273.5,344.5 C 280.167,344.5 286.833,344.5 293.5,344.5C 293.5,347.5 293.5,350.5 293.5,353.5C 286.745,353.793 280.078,353.46 273.5,352.5C 273.5,349.833 273.5,347.167 273.5,344.5 Z"/></g>
<g><path style="opacity:1" fill="#0065f9" d="M 297.5,344.5 C 303.5,344.5 309.5,344.5 315.5,344.5C 315.5,347.5 315.5,350.5 315.5,353.5C 309.5,353.5 303.5,353.5 297.5,353.5C 297.5,350.5 297.5,347.5 297.5,344.5 Z"/></g>
<g><path style="opacity:1" fill="#086af8" d="M 338.5,341.5 C 339.468,343.607 339.802,345.941 339.5,348.5C 343.833,348.5 348.167,348.5 352.5,348.5C 352.5,351.5 352.5,354.5 352.5,357.5C 348.167,357.5 343.833,357.5 339.5,357.5C 339.806,354.615 339.473,351.948 338.5,349.5C 338.5,346.833 338.5,344.167 338.5,341.5 Z"/></g>
<g><path style="opacity:1" fill="#a4bdee" d="M 241.5,335.5 C 240.791,336.404 239.791,336.737 238.5,336.5C 238.5,340.5 238.5,344.5 238.5,348.5C 238.5,349.833 238.5,351.167 238.5,352.5C 237.511,347.025 237.178,341.358 237.5,335.5C 238.833,335.5 240.167,335.5 241.5,335.5 Z"/></g>
<g><path style="opacity:1" fill="#1573f7" d="M 334.5,332.5 C 335.494,342.319 335.827,352.319 335.5,362.5C 330.167,362.5 324.833,362.5 319.5,362.5C 319.5,359.5 319.5,356.5 319.5,353.5C 324.5,353.5 329.5,353.5 334.5,353.5C 334.5,349.167 334.5,344.833 334.5,340.5C 334.5,337.833 334.5,335.167 334.5,332.5 Z"/></g>
<g><path style="opacity:1" fill="#1078f6" d="M 238.5,348.5 C 239.833,348.5 241.167,348.5 242.5,348.5C 242.488,352.446 244.488,354.113 248.5,353.5C 248.5,357.5 248.5,361.5 248.5,365.5C 245.167,365.5 241.833,365.5 238.5,365.5C 238.5,361.167 238.5,356.833 238.5,352.5C 238.5,351.167 238.5,349.833 238.5,348.5 Z"/></g>
<g><path style="opacity:1" fill="#2481f5" d="M 228.5,345.5 C 228.5,347.833 228.5,350.167 228.5,352.5C 230.5,352.5 232.5,352.5 234.5,352.5C 235.089,356.971 234.423,360.971 232.5,364.5C 230.112,363.781 228.612,362.115 228,359.5C 227.185,354.648 227.352,349.981 228.5,345.5 Z"/></g>
<g><path style="opacity:1" fill="#0173f7" d="M 252.5,352.5 C 258.075,353.452 263.741,353.786 269.5,353.5C 269.5,357.167 269.5,360.833 269.5,364.5C 263.833,364.5 258.167,364.5 252.5,364.5C 252.5,360.5 252.5,356.5 252.5,352.5 Z"/></g>
<g><path style="opacity:1" fill="#0373f7" d="M 273.5,352.5 C 280.078,353.46 286.745,353.793 293.5,353.5C 293.5,356.833 293.5,360.167 293.5,363.5C 287.167,363.5 280.833,363.5 274.5,363.5C 274.784,361.585 274.451,359.919 273.5,358.5C 273.5,356.5 273.5,354.5 273.5,352.5 Z"/></g>
<g><path style="opacity:1" fill="#0b75f6" d="M 297.5,353.5 C 303.5,353.5 309.5,353.5 315.5,353.5C 315.5,356.833 315.5,360.167 315.5,363.5C 309.5,363.5 303.5,363.5 297.5,363.5C 297.5,360.167 297.5,356.833 297.5,353.5 Z"/></g>
<g><path style="opacity:1" fill="#3982f5" d="M 338.5,349.5 C 339.473,351.948 339.806,354.615 339.5,357.5C 343.833,357.5 348.167,357.5 352.5,357.5C 348.924,361.885 344.257,363.552 338.5,362.5C 338.5,358.167 338.5,353.833 338.5,349.5 Z"/></g>
<g><path style="opacity:1" fill="#66a4f0" d="M 293.5,343.5 C 294.491,350.313 294.825,357.313 294.5,364.5C 287.5,364.5 280.5,364.5 273.5,364.5C 273.5,362.5 273.5,360.5 273.5,358.5C 274.451,359.919 274.784,361.585 274.5,363.5C 280.833,363.5 287.167,363.5 293.5,363.5C 293.5,360.167 293.5,356.833 293.5,353.5C 293.5,350.5 293.5,347.5 293.5,344.5C 293.5,344.167 293.5,343.833 293.5,343.5 Z"/></g>
<g><path style="opacity:0.973" fill="#054ffd" d="M 456.5,376.5 C 451.5,377.167 446.5,377.833 441.5,378.5C 416.706,368.874 391.039,364.54 364.5,365.5C 364.709,366.086 365.043,366.586 365.5,367C 386.143,366.971 406.143,370.137 425.5,376.5C 363.336,377.499 301.002,377.832 238.5,377.5C 240.06,375.046 241.06,372.38 241.5,369.5C 244.713,369.81 247.713,369.477 250.5,368.5C 280.84,367.962 311.173,367.128 341.5,366C 348.526,366.518 353.526,363.685 356.5,357.5C 391.567,355.046 424.9,361.379 456.5,376.5 Z"/></g>
<g><path style="opacity:1" fill="#87b6ee" d="M 319.5,348.5 C 319.5,350.167 319.5,351.833 319.5,353.5C 319.5,356.5 319.5,359.5 319.5,362.5C 324.833,362.5 330.167,362.5 335.5,362.5C 330.025,363.489 324.358,363.822 318.5,363.5C 318.179,358.305 318.513,353.305 319.5,348.5 Z"/></g>
<g><path style="opacity:1" fill="#97bfed" d="M 234.5,347.5 C 235.49,353.31 235.823,359.31 235.5,365.5C 234.209,365.737 233.209,365.404 232.5,364.5C 234.423,360.971 235.089,356.971 234.5,352.5C 234.5,350.833 234.5,349.167 234.5,347.5 Z"/></g>
<g><path style="opacity:1" fill="#1f62fa" d="M 250.5,368.5 C 247.713,369.477 244.713,369.81 241.5,369.5C 241.06,372.38 240.06,375.046 238.5,377.5C 232.988,381.005 226.988,383.339 220.5,384.5C 206.5,383.833 192.5,383.167 178.5,382.5C 193.787,373.682 210.121,368.182 227.5,366C 228.672,366.419 229.672,367.085 230.5,368C 237.158,368.5 243.825,368.666 250.5,368.5 Z"/></g>
<g><path style="opacity:0.994" fill="#0255fc" d="M 425.5,376.5 C 435.413,379.082 444.913,382.749 454,387.5C 454.5,387 455,386.5 455.5,386C 450.931,383.217 446.264,380.717 441.5,378.5C 446.5,377.833 451.5,377.167 456.5,376.5C 463.332,379.412 469.666,383.079 475.5,387.5C 474.476,388.852 473.476,390.185 472.5,391.5C 471.25,391.423 470.417,390.756 470,389.5C 469.333,392.167 468.667,392.167 468,389.5C 467.333,392.167 466.667,392.167 466,389.5C 465.333,392.167 464.667,392.167 464,389.5C 463.333,392.167 462.667,392.167 462,389.5C 461.333,392.167 460.667,392.167 460,389.5C 459.333,392.167 458.667,392.167 458,389.5C 457.333,392.167 456.667,392.167 456,389.5C 455.333,392.167 454.667,392.167 454,389.5C 453.333,392.167 452.667,392.167 452,389.5C 451.333,392.167 450.667,392.167 450,389.5C 449.333,392.167 448.667,392.167 448,389.5C 447.333,392.167 446.667,392.167 446,389.5C 445.333,392.167 444.667,392.167 444,389.5C 443.333,392.167 442.667,392.167 442,389.5C 441.333,392.167 440.667,392.167 440,389.5C 439.333,392.167 438.667,392.167 438,389.5C 437.333,392.167 436.667,392.167 436,389.5C 435.333,392.167 434.667,392.167 434,389.5C 433.333,392.167 432.667,392.167 432,389.5C 431.333,392.167 430.667,392.167 430,389.5C 429.333,392.167 428.667,392.167 428,389.5C 427.333,392.167 426.667,392.167 426,389.5C 425.333,392.167 424.667,392.167 424,389.5C 423.333,392.167 422.667,392.167 422,389.5C 421.333,392.167 420.667,392.167 420,389.5C 419.333,392.167 418.667,392.167 418,389.5C 417.583,390.756 416.75,391.423 415.5,391.5C 409.495,392.002 403.495,392.168 397.5,392C 395.92,389.061 394.253,386.228 392.5,383.5C 390.889,384.32 390.222,385.654 390.5,387.5C 390.291,388.922 389.791,390.255 389,391.5C 388.333,388.833 387.667,388.833 387,391.5C 386.333,388.833 385.667,388.833 385,391.5C 384.333,388.833 383.667,388.833 383,391.5C 382.333,388.833 381.667,388.833 381,391.5C 380.333,388.833 379.667,388.833 379,391.5C 378.333,388.833 377.667,388.833 377,391.5C 376.333,388.833 375.667,388.833 375,391.5C 374.333,388.833 373.667,388.833 373,391.5C 372.333,388.833 371.667,388.833 371,391.5C 370.333,388.833 369.667,388.833 369,391.5C 368.333,388.833 367.667,388.833 367,391.5C 366.333,388.833 365.667,388.833 365,391.5C 364.333,388.833 363.667,388.833 363,391.5C 362.333,388.833 361.667,388.833 361,391.5C 360.333,388.833 359.667,388.833 359,391.5C 358.333,388.833 357.667,388.833 357,391.5C 356.333,388.833 355.667,388.833 355,391.5C 354.333,388.833 353.667,388.833 353,391.5C 352.333,388.833 351.667,388.833 351,391.5C 350.333,388.833 349.667,388.833 349,391.5C 348.333,388.833 347.667,388.833 347,391.5C 346.333,388.833 345.667,388.833 345,391.5C 344.333,388.833 343.667,388.833 343,391.5C 342.333,388.833 341.667,388.833 341,391.5C 340.333,388.833 339.667,388.833 339,391.5C 338.333,388.833 337.667,388.833 337,391.5C 336.333,388.833 335.667,388.833 335,391.5C 334.333,388.833 333.667,388.833 333,391.5C 332.333,388.833 331.667,388.833 331,391.5C 330.333,388.833 329.667,388.833 329,391.5C 328.333,388.833 327.667,388.833 327,391.5C 326.333,388.833 325.667,388.833 325,391.5C 324.333,388.833 323.667,388.833 323,391.5C 322.333,388.833 321.667,388.833 321,391.5C 320.333,388.833 319.667,388.833 319,391.5C 318.333,388.833 317.667,388.833 317,391.5C 316.333,388.833 315.667,388.833 315,391.5C 314.333,388.833 313.667,388.833 313,391.5C 312.333,388.833 311.667,388.833 311,391.5C 310.333,388.833 309.667,388.833 309,391.5C 308.333,388.833 307.667,388.833 307,391.5C 306.333,388.833 305.667,388.833 305,391.5C 304.333,388.833 303.667,388.833 303,391.5C 302.333,388.833 301.667,388.833 301,391.5C 300.333,388.833 299.667,388.833 299,391.5C 298.333,388.833 297.667,388.833 297,391.5C 296.333,388.833 295.667,388.833 295,391.5C 294.333,388.833 293.667,388.833 293,391.5C 292.333,388.833 291.667,388.833 291,391.5C 290.333,388.833 289.667,388.833 289,391.5C 288.333,388.833 287.667,388.833 287,391.5C 286.333,388.833 285.667,388.833 285,391.5C 284.333,388.833 283.667,388.833 283,391.5C 282.333,388.833 281.667,388.833 281,391.5C 280.333,388.833 279.667,388.833 279,391.5C 278.333,388.833 277.667,388.833 277,391.5C 276.333,388.833 275.667,388.833 275,391.5C 274.333,388.833 273.667,388.833 273,391.5C 272.333,388.833 271.667,388.833 271,391.5C 270.333,388.833 269.667,388.833 269,391.5C 268.333,388.833 267.667,388.833 267,391.5C 266.333,388.833 265.667,388.833 265,391.5C 264.333,388.833 263.667,388.833 263,391.5C 262.333,388.833 261.667,388.833 261,391.5C 260.333,388.833 259.667,388.833 259,391.5C 258.333,388.833 257.667,388.833 257,391.5C 256.333,388.833 255.667,388.833 255,391.5C 254.333,388.833 253.667,388.833 253,391.5C 252.333,388.833 251.667,388.833 251,391.5C 250.333,388.833 249.667,388.833 249,391.5C 248.333,388.833 247.667,388.833 247,391.5C 246.333,388.833 245.667,388.833 245,391.5C 244.333,388.833 243.667,388.833 243,391.5C 242.333,388.833 241.667,388.833 241,391.5C 240.333,388.833 239.667,388.833 239,391.5C 238.333,388.833 237.667,388.833 237,391.5C 236.333,388.833 235.667,388.833 235,391.5C 234.667,390.833 234.333,390.167 234,389.5C 233.722,390.416 233.222,391.082 232.5,391.5C 232.662,389.473 232.495,387.473 232,385.5C 231,384.167 230,384.167 229,385.5C 228.505,387.473 228.338,389.473 228.5,391.5C 227.25,391.423 226.417,390.756 226,389.5C 225.333,392.167 224.667,392.167 224,389.5C 223.333,392.167 222.667,392.167 222,389.5C 221.333,392.167 220.667,392.167 220,389.5C 219.333,392.167 218.667,392.167 218,389.5C 217.333,392.167 216.667,392.167 216,389.5C 215.333,392.167 214.667,392.167 214,389.5C 213.333,392.167 212.667,392.167 212,389.5C 211.333,392.167 210.667,392.167 210,389.5C 209.333,392.167 208.667,392.167 208,389.5C 206.993,391.742 206.159,391.408 205.5,388.5C 210.184,386.079 215.184,384.745 220.5,384.5C 226.988,383.339 232.988,381.005 238.5,377.5C 301.002,377.832 363.336,377.499 425.5,376.5 Z"/></g>
<g><path style="opacity:1" fill="#d9dee9" d="M 415.5,391.5 C 419.355,394.549 421.022,398.549 420.5,403.5C 418.544,405.175 417.211,404.842 416.5,402.5C 417.041,399.348 416.041,396.848 413.5,395C 408.249,395.961 402.916,396.294 397.5,396C 393.853,394.143 391.52,391.31 390.5,387.5C 390.222,385.654 390.889,384.32 392.5,383.5C 394.253,386.228 395.92,389.061 397.5,392C 403.495,392.168 409.495,392.002 415.5,391.5 Z"/></g>
<g><path style="opacity:1" fill="#d3d9ea" d="M 232.5,391.5 C 231.678,393.389 230.845,395.389 230,397.5C 226.751,399.689 223.584,401.689 220.5,403.5C 219.523,406.287 219.19,409.287 219.5,412.5C 217.876,412.64 216.71,411.973 216,410.5C 215.503,408.19 215.337,405.857 215.5,403.5C 217.713,399.047 221.38,396.547 226.5,396C 227.267,394.53 227.933,393.03 228.5,391.5C 228.338,389.473 228.505,387.473 229,385.5C 230,384.167 231,384.167 232,385.5C 232.495,387.473 232.662,389.473 232.5,391.5 Z"/></g>
<g><path style="opacity:1" fill="#045bfb" d="M 205.5,388.5 C 206.159,391.408 206.993,391.742 208,389.5C 208.667,392.167 209.333,392.167 210,389.5C 210.667,392.167 211.333,392.167 212,389.5C 212.667,392.167 213.333,392.167 214,389.5C 214.667,392.167 215.333,392.167 216,389.5C 216.667,392.167 217.333,392.167 218,389.5C 218.667,392.167 219.333,392.167 220,389.5C 220.667,392.167 221.333,392.167 222,389.5C 222.667,392.167 223.333,392.167 224,389.5C 224.667,392.167 225.333,392.167 226,389.5C 226.417,390.756 227.25,391.423 228.5,391.5C 227.933,393.03 227.267,394.53 226.5,396C 221.38,396.547 217.713,399.047 215.5,403.5C 205.833,403.5 196.167,403.5 186.5,403.5C 187.291,401.309 187.291,399.309 186.5,397.5C 192.401,393.718 198.734,390.718 205.5,388.5 Z"/></g>
<g><path style="opacity:1" fill="#025bfb" d="M 390.5,387.5 C 391.52,391.31 393.853,394.143 397.5,396C 402.916,396.294 408.249,395.961 413.5,395C 416.041,396.848 417.041,399.348 416.5,402.5C 384.167,403.833 351.833,403.833 319.5,402.5C 319.5,401.5 319.5,400.5 319.5,399.5C 318.167,399.5 316.833,399.5 315.5,399.5C 315.5,400.833 315.5,402.167 315.5,403.5C 283.833,403.5 252.167,403.5 220.5,403.5C 223.584,401.689 226.751,399.689 230,397.5C 230.845,395.389 231.678,393.389 232.5,391.5C 233.222,391.082 233.722,390.416 234,389.5C 234.333,390.167 234.667,390.833 235,391.5C 235.667,388.833 236.333,388.833 237,391.5C 237.667,388.833 238.333,388.833 239,391.5C 239.667,388.833 240.333,388.833 241,391.5C 241.667,388.833 242.333,388.833 243,391.5C 243.667,388.833 244.333,388.833 245,391.5C 245.667,388.833 246.333,388.833 247,391.5C 247.667,388.833 248.333,388.833 249,391.5C 249.667,388.833 250.333,388.833 251,391.5C 251.667,388.833 252.333,388.833 253,391.5C 253.667,388.833 254.333,388.833 255,391.5C 255.667,388.833 256.333,388.833 257,391.5C 257.667,388.833 258.333,388.833 259,391.5C 259.667,388.833 260.333,388.833 261,391.5C 261.667,388.833 262.333,388.833 263,391.5C 263.667,388.833 264.333,388.833 265,391.5C 265.667,388.833 266.333,388.833 267,391.5C 267.667,388.833 268.333,388.833 269,391.5C 269.667,388.833 270.333,388.833 271,391.5C 271.667,388.833 272.333,388.833 273,391.5C 273.667,388.833 274.333,388.833 275,391.5C 275.667,388.833 276.333,388.833 277,391.5C 277.667,388.833 278.333,388.833 279,391.5C 279.667,388.833 280.333,388.833 281,391.5C 281.667,388.833 282.333,388.833 283,391.5C 283.667,388.833 284.333,388.833 285,391.5C 285.667,388.833 286.333,388.833 287,391.5C 287.667,388.833 288.333,388.833 289,391.5C 289.667,388.833 290.333,388.833 291,391.5C 291.667,388.833 292.333,388.833 293,391.5C 293.667,388.833 294.333,388.833 295,391.5C 295.667,388.833 296.333,388.833 297,391.5C 297.667,388.833 298.333,388.833 299,391.5C 299.667,388.833 300.333,388.833 301,391.5C 301.667,388.833 302.333,388.833 303,391.5C 303.667,388.833 304.333,388.833 305,391.5C 305.667,388.833 306.333,388.833 307,391.5C 307.667,388.833 308.333,388.833 309,391.5C 309.667,388.833 310.333,388.833 311,391.5C 311.667,388.833 312.333,388.833 313,391.5C 313.667,388.833 314.333,388.833 315,391.5C 315.667,388.833 316.333,388.833 317,391.5C 317.667,388.833 318.333,388.833 319,391.5C 319.667,388.833 320.333,388.833 321,391.5C 321.667,388.833 322.333,388.833 323,391.5C 323.667,388.833 324.333,388.833 325,391.5C 325.667,388.833 326.333,388.833 327,391.5C 327.667,388.833 328.333,388.833 329,391.5C 329.667,388.833 330.333,388.833 331,391.5C 331.667,388.833 332.333,388.833 333,391.5C 333.667,388.833 334.333,388.833 335,391.5C 335.667,388.833 336.333,388.833 337,391.5C 337.667,388.833 338.333,388.833 339,391.5C 339.667,388.833 340.333,388.833 341,391.5C 341.667,388.833 342.333,388.833 343,391.5C 343.667,388.833 344.333,388.833 345,391.5C 345.667,388.833 346.333,388.833 347,391.5C 347.667,388.833 348.333,388.833 349,391.5C 349.667,388.833 350.333,388.833 351,391.5C 351.667,388.833 352.333,388.833 353,391.5C 353.667,388.833 354.333,388.833 355,391.5C 355.667,388.833 356.333,388.833 357,391.5C 357.667,388.833 358.333,388.833 359,391.5C 359.667,388.833 360.333,388.833 361,391.5C 361.667,388.833 362.333,388.833 363,391.5C 363.667,388.833 364.333,388.833 365,391.5C 365.667,388.833 366.333,388.833 367,391.5C 367.667,388.833 368.333,388.833 369,391.5C 369.667,388.833 370.333,388.833 371,391.5C 371.667,388.833 372.333,388.833 373,391.5C 373.667,388.833 374.333,388.833 375,391.5C 375.667,388.833 376.333,388.833 377,391.5C 377.667,388.833 378.333,388.833 379,391.5C 379.667,388.833 380.333,388.833 381,391.5C 381.667,388.833 382.333,388.833 383,391.5C 383.667,388.833 384.333,388.833 385,391.5C 385.667,388.833 386.333,388.833 387,391.5C 387.667,388.833 388.333,388.833 389,391.5C 389.791,390.255 390.291,388.922 390.5,387.5 Z"/></g>
<g><path style="opacity:1" fill="#035bfb" d="M 472.5,391.5 C 469.542,396.126 465.876,400.126 461.5,403.5C 447.833,403.5 434.167,403.5 420.5,403.5C 421.022,398.549 419.355,394.549 415.5,391.5C 416.75,391.423 417.583,390.756 418,389.5C 418.667,392.167 419.333,392.167 420,389.5C 420.667,392.167 421.333,392.167 422,389.5C 422.667,392.167 423.333,392.167 424,389.5C 424.667,392.167 425.333,392.167 426,389.5C 426.667,392.167 427.333,392.167 428,389.5C 428.667,392.167 429.333,392.167 430,389.5C 430.667,392.167 431.333,392.167 432,389.5C 432.667,392.167 433.333,392.167 434,389.5C 434.667,392.167 435.333,392.167 436,389.5C 436.667,392.167 437.333,392.167 438,389.5C 438.667,392.167 439.333,392.167 440,389.5C 440.667,392.167 441.333,392.167 442,389.5C 442.667,392.167 443.333,392.167 444,389.5C 444.667,392.167 445.333,392.167 446,389.5C 446.667,392.167 447.333,392.167 448,389.5C 448.667,392.167 449.333,392.167 450,389.5C 450.667,392.167 451.333,392.167 452,389.5C 452.667,392.167 453.333,392.167 454,389.5C 454.667,392.167 455.333,392.167 456,389.5C 456.667,392.167 457.333,392.167 458,389.5C 458.667,392.167 459.333,392.167 460,389.5C 460.667,392.167 461.333,392.167 462,389.5C 462.667,392.167 463.333,392.167 464,389.5C 464.667,392.167 465.333,392.167 466,389.5C 466.667,392.167 467.333,392.167 468,389.5C 468.667,392.167 469.333,392.167 470,389.5C 470.417,390.756 471.25,391.423 472.5,391.5 Z"/></g>
<g><path style="opacity:1" fill="#dde1e9" d="M 186.5,397.5 C 187.291,399.309 187.291,401.309 186.5,403.5C 182.888,406.023 179.222,408.356 175.5,410.5C 174.527,412.948 174.194,415.615 174.5,418.5C 173.5,418.5 172.5,418.5 171.5,418.5C 169.37,409.798 172.703,404.632 181.5,403C 182.46,401.581 183.293,400.081 184,398.5C 184.671,397.748 185.504,397.414 186.5,397.5 Z"/></g>
<g><path style="opacity:1" fill="#d6dde9" d="M 319.5,402.5 C 319.204,407.767 316.871,411.767 312.5,414.5C 311.233,417.061 311.233,419.728 312.5,422.5C 314.087,424.619 313.754,426.286 311.5,427.5C 309.436,425.518 308.103,423.184 307.5,420.5C 307.5,418.833 307.5,417.167 307.5,415.5C 308.782,412.383 310.949,410.05 314,408.5C 315.009,406.975 315.509,405.308 315.5,403.5C 315.5,402.167 315.5,400.833 315.5,399.5C 316.833,399.5 318.167,399.5 319.5,399.5C 319.5,400.5 319.5,401.5 319.5,402.5 Z"/></g>
<g><path style="opacity:1" fill="#0260fa" d="M 186.5,403.5 C 196.167,403.5 205.833,403.5 215.5,403.5C 215.337,405.857 215.503,408.19 216,410.5C 216.71,411.973 217.876,412.64 219.5,412.5C 219.19,409.287 219.523,406.287 220.5,403.5C 252.167,403.5 283.833,403.5 315.5,403.5C 315.509,405.308 315.009,406.975 314,408.5C 310.949,410.05 308.782,412.383 307.5,415.5C 263.5,415.5 219.5,415.5 175.5,415.5C 175.5,413.833 175.5,412.167 175.5,410.5C 179.222,408.356 182.888,406.023 186.5,403.5 Z"/></g>
<g><path style="opacity:1" fill="#0160fa" d="M 319.5,402.5 C 351.833,403.833 384.167,403.833 416.5,402.5C 417.211,404.842 418.544,405.175 420.5,403.5C 434.167,403.5 447.833,403.5 461.5,403.5C 458.564,408.105 454.898,412.105 450.5,415.5C 404.33,415.832 358.33,415.499 312.5,414.5C 316.871,411.767 319.204,407.767 319.5,402.5 Z"/></g>
<g><path style="opacity:1" fill="#0b67f9" d="M 178.5,382.5 C 192.5,383.167 206.5,383.833 220.5,384.5C 215.184,384.745 210.184,386.079 205.5,388.5C 198.734,390.718 192.401,393.718 186.5,397.5C 185.504,397.414 184.671,397.748 184,398.5C 183.293,400.081 182.46,401.581 181.5,403C 172.703,404.632 169.37,409.798 171.5,418.5C 172.5,418.5 173.5,418.5 174.5,418.5C 174.194,415.615 174.527,412.948 175.5,410.5C 175.5,412.167 175.5,413.833 175.5,415.5C 219.5,415.5 263.5,415.5 307.5,415.5C 307.5,417.167 307.5,418.833 307.5,420.5C 307.5,421.5 307.5,422.5 307.5,423.5C 291.833,423.5 276.167,423.5 260.5,423.5C 261.401,419.759 260.068,417.759 256.5,417.5C 257.352,423.796 255.019,428.462 249.5,431.5C 221.833,431.5 194.167,431.5 166.5,431.5C 157.568,424.905 149.234,417.571 141.5,409.5C 152.426,398.574 164.76,389.574 178.5,382.5 Z"/></g>
<g><path style="opacity:1" fill="#0165f9" d="M 312.5,414.5 C 358.33,415.499 404.33,415.832 450.5,415.5C 447.859,417.804 445.192,420.138 442.5,422.5C 399.167,422.5 355.833,422.5 312.5,422.5C 311.233,419.728 311.233,417.061 312.5,414.5 Z"/></g>
<g><path style="opacity:1" fill="#d8dee9" d="M 260.5,423.5 C 259.18,426.14 257.847,428.807 256.5,431.5C 253.848,432.152 252.181,433.819 251.5,436.5C 252.237,438.97 253.237,441.304 254.5,443.5C 255.289,444.915 255.956,446.415 256.5,448C 256.387,449.28 255.72,450.113 254.5,450.5C 252.834,447.839 251.167,445.172 249.5,442.5C 248.242,438.8 248.242,435.134 249.5,431.5C 255.019,428.462 257.352,423.796 256.5,417.5C 260.068,417.759 261.401,419.759 260.5,423.5 Z"/></g>
<g><path style="opacity:0.853" fill="#e8e8e8" d="M 604.5,417.5 C 606.384,417.712 607.717,418.712 608.5,420.5C 610.173,418.914 612.173,418.247 614.5,418.5C 614.854,421.421 613.854,423.754 611.5,425.5C 612.929,427.331 613.429,429.331 613,431.5C 610.507,432.946 608.673,432.279 607.5,429.5C 606.126,430.711 604.626,431.711 603,432.5C 601.831,431.991 600.998,431.158 600.5,430C 601.848,427.99 603.182,425.99 604.5,424C 603.833,422.667 603.167,421.333 602.5,420C 603.056,418.989 603.722,418.156 604.5,417.5 Z"/></g>
<g><path style="opacity:1" fill="#036af8" d="M 307.5,420.5 C 308.103,423.184 309.436,425.518 311.5,427.5C 313.754,426.286 314.087,424.619 312.5,422.5C 355.833,422.5 399.167,422.5 442.5,422.5C 433.237,430.472 423.237,437.472 412.5,443.5C 399.5,443.5 386.5,443.5 373.5,443.5C 371.548,439.713 368.714,436.713 365,434.5C 364.51,433.207 364.343,431.873 364.5,430.5C 363.209,430.263 362.209,430.596 361.5,431.5C 326.36,431.102 291.36,431.102 256.5,431.5C 257.847,428.807 259.18,426.14 260.5,423.5C 276.167,423.5 291.833,423.5 307.5,423.5C 307.5,422.5 307.5,421.5 307.5,420.5 Z"/></g>
<g><path style="opacity:0.814" fill="#e8e8e8" d="M 717.5,426.5 C 719.635,426.147 720.968,426.98 721.5,429C 720.639,432.137 719.973,435.303 719.5,438.5C 718.167,438.5 716.833,438.5 715.5,438.5C 715.334,434.326 716,430.326 717.5,426.5 Z"/></g>
<g><path style="opacity:0.83" fill="#e9e9e9" d="M 682.5,427.5 C 684.635,427.147 685.968,427.98 686.5,430C 685.082,433.001 684.249,436.168 684,439.5C 682.022,440.816 680.522,440.316 679.5,438C 680.088,434.371 681.088,430.871 682.5,427.5 Z"/></g>
<g><path style="opacity:1" fill="#026df8" d="M 361.5,431.5 C 361.34,433.199 361.506,434.866 362,436.5C 364.063,438.734 366.229,440.734 368.5,442.5C 330.67,443.499 292.67,443.832 254.5,443.5C 253.237,441.304 252.237,438.97 251.5,436.5C 252.181,433.819 253.848,432.152 256.5,431.5C 291.36,431.102 326.36,431.102 361.5,431.5 Z"/></g>
<g><path style="opacity:1" fill="#dae0e9" d="M 373.5,443.5 C 373.623,446.588 372.623,449.255 370.5,451.5C 369.28,451.113 368.613,450.28 368.5,449C 369.693,446.676 369.693,444.51 368.5,442.5C 366.229,440.734 364.063,438.734 362,436.5C 361.506,434.866 361.34,433.199 361.5,431.5C 362.209,430.596 363.209,430.263 364.5,430.5C 364.343,431.873 364.51,433.207 365,434.5C 368.714,436.713 371.548,439.713 373.5,443.5 Z"/></g>
<g><path style="opacity:1" fill="#046ef8" d="M 166.5,431.5 C 194.167,431.5 221.833,431.5 249.5,431.5C 248.242,435.134 248.242,438.8 249.5,442.5C 228.006,443.497 206.34,443.831 184.5,443.5C 178.205,439.859 172.205,435.859 166.5,431.5 Z"/></g>
<g><path style="opacity:1" fill="#0373f7" d="M 249.5,442.5 C 251.167,445.172 252.834,447.839 254.5,450.5C 255.72,450.113 256.387,449.28 256.5,448C 255.956,446.415 255.289,444.915 254.5,443.5C 292.67,443.832 330.67,443.499 368.5,442.5C 369.693,444.51 369.693,446.676 368.5,449C 368.613,450.28 369.28,451.113 370.5,451.5C 372.623,449.255 373.623,446.588 373.5,443.5C 386.5,443.5 399.5,443.5 412.5,443.5C 403.763,449.202 394.43,453.868 384.5,457.5C 384.279,454.903 383.779,454.903 383,457.5C 382.333,454.833 381.667,454.833 381,457.5C 380.333,454.833 379.667,454.833 379,457.5C 378.333,454.833 377.667,454.833 377,457.5C 376.333,454.833 375.667,454.833 375,457.5C 374.333,454.833 373.667,454.833 373,457.5C 372.333,454.833 371.667,454.833 371,457.5C 370.333,454.833 369.667,454.833 369,457.5C 368.333,454.833 367.667,454.833 367,457.5C 366.333,454.833 365.667,454.833 365,457.5C 364.333,454.833 363.667,454.833 363,457.5C 362.333,454.833 361.667,454.833 361,457.5C 360.333,454.833 359.667,454.833 359,457.5C 358.333,454.833 357.667,454.833 357,457.5C 356.333,454.833 355.667,454.833 355,457.5C 354.333,454.833 353.667,454.833 353,457.5C 352.333,454.833 351.667,454.833 351,457.5C 350.333,454.833 349.667,454.833 349,457.5C 348.333,454.833 347.667,454.833 347,457.5C 346.333,454.833 345.667,454.833 345,457.5C 344.333,454.833 343.667,454.833 343,457.5C 342.333,454.833 341.667,454.833 341,457.5C 340.333,454.833 339.667,454.833 339,457.5C 338.333,454.833 337.667,454.833 337,457.5C 336.333,454.833 335.667,454.833 335,457.5C 334.333,454.833 333.667,454.833 333,457.5C 332.333,454.833 331.667,454.833 331,457.5C 330.333,454.833 329.667,454.833 329,457.5C 328.333,454.833 327.667,454.833 327,457.5C 326.333,454.833 325.667,454.833 325,457.5C 324.333,454.833 323.667,454.833 323,457.5C 322.333,454.833 321.667,454.833 321,457.5C 320.333,454.833 319.667,454.833 319,457.5C 318.333,454.833 317.667,454.833 317,457.5C 316.333,454.833 315.667,454.833 315,457.5C 314.333,454.833 313.667,454.833 313,457.5C 312.333,454.833 311.667,454.833 311,457.5C 310.333,454.833 309.667,454.833 309,457.5C 308.333,454.833 307.667,454.833 307,457.5C 306.333,454.833 305.667,454.833 305,457.5C 304.333,454.833 303.667,454.833 303,457.5C 302.333,454.833 301.667,454.833 301,457.5C 300.333,454.833 299.667,454.833 299,457.5C 298.333,454.833 297.667,454.833 297,457.5C 296.333,454.833 295.667,454.833 295,457.5C 294.333,454.833 293.667,454.833 293,457.5C 292.333,454.833 291.667,454.833 291,457.5C 290.333,454.833 289.667,454.833 289,457.5C 288.333,454.833 287.667,454.833 287,457.5C 286.333,454.833 285.667,454.833 285,457.5C 284.333,454.833 283.667,454.833 283,457.5C 282.333,454.833 281.667,454.833 281,457.5C 280.333,454.833 279.667,454.833 279,457.5C 278.333,454.833 277.667,454.833 277,457.5C 276.333,454.833 275.667,454.833 275,457.5C 274.333,454.833 273.667,454.833 273,457.5C 272.333,454.833 271.667,454.833 271,457.5C 270.333,454.833 269.667,454.833 269,457.5C 268.333,454.833 267.667,454.833 267,457.5C 266.333,454.833 265.667,454.833 265,457.5C 264.333,454.833 263.667,454.833 263,457.5C 262.333,454.833 261.667,454.833 261,457.5C 260.333,454.833 259.667,454.833 259,457.5C 258.333,454.833 257.667,454.833 257,457.5C 256.333,454.833 255.667,454.833 255,457.5C 254.333,454.833 253.667,454.833 253,457.5C 252.333,454.833 251.667,454.833 251,457.5C 250.333,454.833 249.667,454.833 249,457.5C 248.333,454.833 247.667,454.833 247,457.5C 246.333,454.833 245.667,454.833 245,457.5C 244.333,454.833 243.667,454.833 243,457.5C 242.333,454.833 241.667,454.833 241,457.5C 240.333,454.833 239.667,454.833 239,457.5C 238.333,454.833 237.667,454.833 237,457.5C 236.333,454.833 235.667,454.833 235,457.5C 234.333,454.833 233.667,454.833 233,457.5C 232.333,454.833 231.667,454.833 231,457.5C 230.333,454.833 229.667,454.833 229,457.5C 228.333,454.833 227.667,454.833 227,457.5C 226.333,454.833 225.667,454.833 225,457.5C 224.333,454.833 223.667,454.833 223,457.5C 222.333,454.833 221.667,454.833 221,457.5C 220.333,454.833 219.667,454.833 219,457.5C 218.333,454.833 217.667,454.833 217,457.5C 216.667,456.833 216.333,456.167 216,455.5C 215.29,456.973 214.124,457.64 212.5,457.5C 202.612,453.889 193.279,449.223 184.5,443.5C 206.34,443.831 228.006,443.497 249.5,442.5 Z"/></g>
<g><path style="opacity:1" fill="#0479f6" d="M 384.5,457.5 C 372.279,463.753 359.279,467.753 345.5,469.5C 314.167,469.5 282.833,469.5 251.5,469.5C 237.785,467.482 224.785,463.482 212.5,457.5C 214.124,457.64 215.29,456.973 216,455.5C 216.333,456.167 216.667,456.833 217,457.5C 217.667,454.833 218.333,454.833 219,457.5C 219.667,454.833 220.333,454.833 221,457.5C 221.667,454.833 222.333,454.833 223,457.5C 223.667,454.833 224.333,454.833 225,457.5C 225.667,454.833 226.333,454.833 227,457.5C 227.667,454.833 228.333,454.833 229,457.5C 229.667,454.833 230.333,454.833 231,457.5C 231.667,454.833 232.333,454.833 233,457.5C 233.667,454.833 234.333,454.833 235,457.5C 235.667,454.833 236.333,454.833 237,457.5C 237.667,454.833 238.333,454.833 239,457.5C 239.667,454.833 240.333,454.833 241,457.5C 241.667,454.833 242.333,454.833 243,457.5C 243.667,454.833 244.333,454.833 245,457.5C 245.667,454.833 246.333,454.833 247,457.5C 247.667,454.833 248.333,454.833 249,457.5C 249.667,454.833 250.333,454.833 251,457.5C 251.667,454.833 252.333,454.833 253,457.5C 253.667,454.833 254.333,454.833 255,457.5C 255.667,454.833 256.333,454.833 257,457.5C 257.667,454.833 258.333,454.833 259,457.5C 259.667,454.833 260.333,454.833 261,457.5C 261.667,454.833 262.333,454.833 263,457.5C 263.667,454.833 264.333,454.833 265,457.5C 265.667,454.833 266.333,454.833 267,457.5C 267.667,454.833 268.333,454.833 269,457.5C 269.667,454.833 270.333,454.833 271,457.5C 271.667,454.833 272.333,454.833 273,457.5C 273.667,454.833 274.333,454.833 275,457.5C 275.667,454.833 276.333,454.833 277,457.5C 277.667,454.833 278.333,454.833 279,457.5C 279.667,454.833 280.333,454.833 281,457.5C 281.667,454.833 282.333,454.833 283,457.5C 283.667,454.833 284.333,454.833 285,457.5C 285.667,454.833 286.333,454.833 287,457.5C 287.667,454.833 288.333,454.833 289,457.5C 289.667,454.833 290.333,454.833 291,457.5C 291.667,454.833 292.333,454.833 293,457.5C 293.667,454.833 294.333,454.833 295,457.5C 295.667,454.833 296.333,454.833 297,457.5C 297.667,454.833 298.333,454.833 299,457.5C 299.667,454.833 300.333,454.833 301,457.5C 301.667,454.833 302.333,454.833 303,457.5C 303.667,454.833 304.333,454.833 305,457.5C 305.667,454.833 306.333,454.833 307,457.5C 307.667,454.833 308.333,454.833 309,457.5C 309.667,454.833 310.333,454.833 311,457.5C 311.667,454.833 312.333,454.833 313,457.5C 313.667,454.833 314.333,454.833 315,457.5C 315.667,454.833 316.333,454.833 317,457.5C 317.667,454.833 318.333,454.833 319,457.5C 319.667,454.833 320.333,454.833 321,457.5C 321.667,454.833 322.333,454.833 323,457.5C 323.667,454.833 324.333,454.833 325,457.5C 325.667,454.833 326.333,454.833 327,457.5C 327.667,454.833 328.333,454.833 329,457.5C 329.667,454.833 330.333,454.833 331,457.5C 331.667,454.833 332.333,454.833 333,457.5C 333.667,454.833 334.333,454.833 335,457.5C 335.667,454.833 336.333,454.833 337,457.5C 337.667,454.833 338.333,454.833 339,457.5C 339.667,454.833 340.333,454.833 341,457.5C 341.667,454.833 342.333,454.833 343,457.5C 343.667,454.833 344.333,454.833 345,457.5C 345.667,454.833 346.333,454.833 347,457.5C 347.667,454.833 348.333,454.833 349,457.5C 349.667,454.833 350.333,454.833 351,457.5C 351.667,454.833 352.333,454.833 353,457.5C 353.667,454.833 354.333,454.833 355,457.5C 355.667,454.833 356.333,454.833 357,457.5C 357.667,454.833 358.333,454.833 359,457.5C 359.667,454.833 360.333,454.833 361,457.5C 361.667,454.833 362.333,454.833 363,457.5C 363.667,454.833 364.333,454.833 365,457.5C 365.667,454.833 366.333,454.833 367,457.5C 367.667,454.833 368.333,454.833 369,457.5C 369.667,454.833 370.333,454.833 371,457.5C 371.667,454.833 372.333,454.833 373,457.5C 373.667,454.833 374.333,454.833 375,457.5C 375.667,454.833 376.333,454.833 377,457.5C 377.667,454.833 378.333,454.833 379,457.5C 379.667,454.833 380.333,454.833 381,457.5C 381.667,454.833 382.333,454.833 383,457.5C 383.779,454.903 384.279,454.903 384.5,457.5 Z"/></g>
<g><path style="opacity:0.838" fill="#e8e8e8" d="M 613.5,461.5 C 615.484,461.484 616.484,462.484 616.5,464.5C 615.11,468.281 613.443,471.947 611.5,475.5C 613.583,476.959 615.75,478.292 618,479.5C 618.49,480.793 618.657,482.127 618.5,483.5C 614.818,483.409 611.651,482.076 609,479.5C 607.744,483.016 605.744,486.016 603,488.5C 601.842,488.002 601.009,487.169 600.5,486C 601.697,483.106 603.03,480.273 604.5,477.5C 603.472,475.639 601.972,474.305 600,473.5C 599.51,472.207 599.343,470.873 599.5,469.5C 602.475,469.307 604.975,470.307 607,472.5C 609.178,468.806 611.345,465.139 613.5,461.5 Z"/></g>
<g><path style="opacity:1" fill="#1e82f4" d="M 251.5,469.5 C 282.833,469.5 314.167,469.5 345.5,469.5C 321.306,475.567 296.639,477.067 271.5,474C 264.571,473.051 257.904,471.551 251.5,469.5 Z"/></g>
<g><path style="opacity:0.84" fill="#e8e8e8" d="M 140.5,470.5 C 160.9,476.433 170.066,490.1 168,511.5C 164.7,522.642 157.867,530.975 147.5,536.5C 146.464,547.98 142.964,558.647 137,568.5C 127.567,580.279 120.233,593.279 115,607.5C 113.97,611.773 113.303,616.106 113,620.5C 110.2,622.118 108.7,621.285 108.5,618C 109.32,608.206 112.154,599.04 117,590.5C 124.396,579.431 131.396,568.098 138,556.5C 140.948,550.474 142.281,544.14 142,537.5C 132.989,540.367 125.322,538.367 119,531.5C 115.596,523.622 117.43,517.456 124.5,513C 135.141,512.29 141.974,517.124 145,527.5C 145.333,529.167 145.667,530.833 146,532.5C 163.319,522.211 167.986,507.878 160,489.5C 155.478,481.975 148.978,477.141 140.5,475C 139.272,473.51 139.272,472.01 140.5,470.5 Z M 125.5,517.5 C 135.45,518.444 140.45,523.777 140.5,533.5C 131.107,536.094 124.774,532.927 121.5,524C 121.836,521.08 123.17,518.913 125.5,517.5 Z"/></g>
<g><path style="opacity:0.83" fill="#e8e8e8" d="M 95.5,487.5 C 96.4959,487.414 97.3292,487.748 98,488.5C 98.6189,491.032 99.6189,493.365 101,495.5C 102.789,493.771 104.956,493.104 107.5,493.5C 107.762,494.978 107.429,496.311 106.5,497.5C 104.611,498.604 102.945,499.937 101.5,501.5C 103.246,504.267 103.579,507.101 102.5,510C 101.365,510.749 100.365,510.583 99.5,509.5C 98.5682,507.205 97.7348,504.871 97,502.5C 94.0312,505.338 90.6978,506.671 87,506.5C 86.3333,505.5 86.3333,504.5 87,503.5C 89.4985,501.583 92.1651,499.916 95,498.5C 94.4851,494.776 94.6518,491.11 95.5,487.5 Z"/></g>
<g><path style="opacity:0.847" fill="#e8e8e8" d="M 729.5,486.5 C 731.948,486.085 733.281,487.085 733.5,489.5C 730.546,497.159 724.879,501.159 716.5,501.5C 713.355,501.181 710.522,500.181 708,498.5C 707.383,497.551 707.549,496.718 708.5,496C 714.054,497.298 719.387,496.631 724.5,494C 727.2,492.143 728.866,489.643 729.5,486.5 Z"/></g>
<g><path style="opacity:0.937" fill="#e7e7e8" d="M 347.5,518.5 C 431.916,515.781 496.082,550.114 540,621.5C 572.549,684.193 573.882,747.526 544,811.5C 509.287,875.164 455.787,911.664 383.5,921C 308.444,925.878 247.61,899.045 201,840.5C 161.928,783.96 152.261,722.626 172,656.5C 203.057,575.611 261.557,529.611 347.5,518.5 Z M 343.5,523.5 C 407.985,519.263 462.818,539.93 508,585.5C 560.952,647.104 573.952,716.438 547,793.5C 535.717,820.108 519.717,843.441 499,863.5C 496.601,848.973 491.434,835.473 483.5,823C 495.661,804.19 500.161,783.69 497,761.5C 495.449,752.295 493.115,743.295 490,734.5C 484.448,722.729 479.448,710.729 475,698.5C 473.948,692.7 473.115,686.867 472.5,681C 480.148,633.297 462.815,598.297 420.5,576C 369.638,558.954 327.138,571.121 293,612.5C 272.636,642.956 263.636,676.623 266,713.5C 265.333,716.167 264.667,718.833 264,721.5C 258.396,731.432 252.396,741.099 246,750.5C 232.372,777.392 231.372,804.726 243,832.5C 245.041,836.084 247.208,839.584 249.5,843C 244.604,850.291 240.937,858.125 238.5,866.5C 239.043,867.864 239.21,869.197 239,870.5C 238.282,871.451 237.449,871.617 236.5,871C 179.219,819.162 157.386,754.996 171,678.5C 189.311,605.853 233.811,557.02 304.5,532C 317.462,528.338 330.462,525.505 343.5,523.5 Z M 424.5,589.5 C 448.195,607.223 459.862,630.89 459.5,660.5C 457.94,642.988 452.44,626.655 443,611.5C 437.366,604.864 431.366,598.531 425,592.5C 424.517,591.552 424.351,590.552 424.5,589.5 Z M 411.5,638.5 C 421.75,659.588 425.916,681.922 424,705.5C 422.703,714.759 419.703,723.426 415,731.5C 405.045,744.457 394.712,757.124 384,769.5C 377.503,778.659 374.003,788.826 373.5,800C 373.667,802.5 373.833,805 374,807.5C 375.011,808.337 376.178,808.67 377.5,808.5C 377.179,801.353 378.012,794.353 380,787.5C 383.864,795.668 385.698,804.335 385.5,813.5C 386.202,821.525 384.202,828.691 379.5,835C 368.682,837.499 361.515,833.332 358,822.5C 355.677,814.872 353.51,807.206 351.5,799.5C 357.942,798.058 361.609,794.058 362.5,787.5C 359.574,753.484 356.741,719.484 354,685.5C 356.323,675.852 361.989,672.519 371,675.5C 374.322,672.756 373.822,670.589 369.5,669C 366.428,668.544 363.428,668.544 360.5,669C 361.406,667.301 361.739,665.467 361.5,663.5C 378.95,668.764 393.783,664.764 406,651.5C 408.711,647.532 410.544,643.198 411.5,638.5 Z M 386.5,781.5 C 388.833,781.5 391.167,781.5 393.5,781.5C 394.112,785.45 395.112,789.283 396.5,793C 393.753,794.604 390.753,795.438 387.5,795.5C 387.181,791.024 385.848,786.857 383.5,783C 384.737,782.768 385.737,782.268 386.5,781.5 Z M 395.5,798.5 C 396.586,798.62 397.253,799.287 397.5,800.5C 398.086,804.195 398.753,807.862 399.5,811.5C 396.617,812.738 393.783,814.072 391,815.5C 389.919,810.53 389.586,805.53 390,800.5C 391.948,799.891 393.782,799.224 395.5,798.5 Z M 346.5,802.5 C 347.117,802.611 347.617,802.944 348,803.5C 349.167,807.813 349.834,812.147 350,816.5C 347,818.5 344,820.5 341,822.5C 338.487,818.133 336.654,813.466 335.5,808.5C 339.237,806.489 342.904,804.489 346.5,802.5 Z M 397.5,817.5 C 398.239,817.369 398.906,817.536 399.5,818C 398.855,822.983 397.521,827.816 395.5,832.5C 392.679,833.739 390.013,833.405 387.5,831.5C 388.373,827.801 389.373,824.135 390.5,820.5C 392.885,819.339 395.219,818.339 397.5,817.5 Z M 351.5,821.5 C 354.158,825.761 356.825,830.094 359.5,834.5C 357.183,837.317 354.683,839.984 352,842.5C 348.21,837.88 345.043,832.88 342.5,827.5C 345.393,825.228 348.393,823.228 351.5,821.5 Z M 383.5,836.5 C 386.568,836.547 389.568,837.047 392.5,838C 388.724,844.05 383.391,847.883 376.5,849.5C 376.5,846.5 376.5,843.5 376.5,840.5C 379.614,840.445 381.948,839.112 383.5,836.5 Z M 363.5,837.5 C 365.829,839.278 368.496,840.278 371.5,840.5C 371.5,843.833 371.5,847.167 371.5,850.5C 366.222,850.777 361.388,849.444 357,846.5C 356.333,845.833 356.333,845.167 357,844.5C 359.372,842.297 361.539,839.963 363.5,837.5 Z"/></g>
<g><path style="opacity:0.839" fill="#e8e8e8" d="M 896.5,538.5 C 898.346,538.222 899.68,538.889 900.5,540.5C 890.863,569.28 874.696,593.613 852,613.5C 849.291,612.176 848.958,610.51 851,608.5C 871.993,588.997 887.16,565.663 896.5,538.5 Z"/></g>
<g><path style="opacity:1" fill="#034efd" d="M 710.5,553.5 C 727.503,553.333 744.503,553.5 761.5,554C 769.133,555.742 772.466,560.575 771.5,568.5C 768.038,569.482 764.371,569.815 760.5,569.5C 760.806,566.615 760.473,563.948 759.5,561.5C 758.947,559.448 757.947,559.115 756.5,560.5C 755.523,563.287 755.19,566.287 755.5,569.5C 751.833,569.5 748.167,569.5 744.5,569.5C 744.806,566.615 744.473,563.948 743.5,561.5C 742.779,559.618 741.779,559.285 740.5,560.5C 739.523,563.287 739.19,566.287 739.5,569.5C 735.5,569.5 731.5,569.5 727.5,569.5C 727.813,565.958 727.479,562.625 726.5,559.5C 725.811,558.226 724.977,558.226 724,559.5C 723.503,561.81 723.337,564.143 723.5,566.5C 722.596,567.209 722.263,568.209 722.5,569.5C 718.5,569.5 714.5,569.5 710.5,569.5C 710.815,565.629 710.482,561.962 709.5,558.5C 707.821,558.285 706.821,558.952 706.5,560.5C 705.523,563.287 705.19,566.287 705.5,569.5C 701.5,569.5 697.5,569.5 693.5,569.5C 693.5,568.5 693.5,567.5 693.5,566.5C 693.662,564.473 693.495,562.473 693,560.5C 691.989,559.663 690.822,559.33 689.5,559.5C 689.54,562.881 689.207,566.214 688.5,569.5C 684.167,569.5 679.833,569.5 675.5,569.5C 675.5,566.167 675.5,562.833 675.5,559.5C 674.167,559.5 672.833,559.5 671.5,559.5C 671.5,562.833 671.5,566.167 671.5,569.5C 670.167,569.5 668.833,569.5 667.5,569.5C 667.43,563.31 669.763,558.31 674.5,554.5C 686.482,553.501 698.482,553.168 710.5,553.5 Z"/></g>
<g><path style="opacity:1" fill="#e0e1e9" d="M 709.5,558.5 C 709.5,562.833 709.5,567.167 709.5,571.5C 708.5,571.5 707.5,571.5 706.5,571.5C 706.5,567.833 706.5,564.167 706.5,560.5C 706.821,558.952 707.821,558.285 709.5,558.5 Z"/></g>
<g><path style="opacity:1" fill="#d4d9ea" d="M 675.5,569.5 C 673.998,572.022 672.665,572.022 671.5,569.5C 671.5,566.167 671.5,562.833 671.5,559.5C 672.833,559.5 674.167,559.5 675.5,559.5C 675.5,562.833 675.5,566.167 675.5,569.5 Z"/></g>
<g><path style="opacity:1" fill="#e1e2e8" d="M 726.5,559.5 C 726.666,563.514 726.499,567.514 726,571.5C 725.586,571.957 725.086,572.291 724.5,572.5C 723.534,570.604 723.201,568.604 723.5,566.5C 723.337,564.143 723.503,561.81 724,559.5C 724.977,558.226 725.811,558.226 726.5,559.5 Z"/></g>
<g><path style="opacity:1" fill="#e4e5e8" d="M 759.5,561.5 C 759.5,565.5 759.5,569.5 759.5,573.5C 758.5,573.5 757.5,573.5 756.5,573.5C 756.5,569.167 756.5,564.833 756.5,560.5C 757.947,559.115 758.947,559.448 759.5,561.5 Z"/></g>
<g><path style="opacity:1" fill="#88a8f0" d="M 646.5,561.5 C 649.962,560.518 653.629,560.185 657.5,560.5C 657.737,561.791 657.404,562.791 656.5,563.5C 653.663,561.598 650.329,560.931 646.5,561.5 Z"/></g>
<g><path style="opacity:1" fill="#cfd5eb" d="M 693.5,566.5 C 692.566,567.568 692.232,568.901 692.5,570.5C 690.901,570.768 689.568,570.434 688.5,569.5C 689.207,566.214 689.54,562.881 689.5,559.5C 690.822,559.33 691.989,559.663 693,560.5C 693.495,562.473 693.662,564.473 693.5,566.5 Z"/></g>
<g><path style="opacity:1" fill="#e4e5e8" d="M 743.5,561.5 C 743.5,565.5 743.5,569.5 743.5,573.5C 742.5,573.5 741.5,573.5 740.5,573.5C 740.5,569.167 740.5,564.833 740.5,560.5C 741.779,559.285 742.779,559.618 743.5,561.5 Z"/></g>
<g><path style="opacity:1" fill="#1067f9" d="M 646.5,561.5 C 650.329,560.931 653.663,561.598 656.5,563.5C 655.649,570.103 651.982,572.27 645.5,570C 640.112,566.634 640.445,563.801 646.5,561.5 Z"/></g>
<g><path style="opacity:1" fill="#1767f9" d="M 775.5,562.5 C 779.571,562.234 783.571,562.567 787.5,563.5C 789.869,572.962 786.536,575.795 777.5,572C 775.924,569.049 775.257,565.883 775.5,562.5 Z"/></g>
<g><path style="opacity:1" fill="#0b59fb" d="M 709.5,558.5 C 710.482,561.962 710.815,565.629 710.5,569.5C 714.5,569.5 718.5,569.5 722.5,569.5C 722.263,568.209 722.596,567.209 723.5,566.5C 723.201,568.604 723.534,570.604 724.5,572.5C 725.086,572.291 725.586,571.957 726,571.5C 726.499,567.514 726.666,563.514 726.5,559.5C 727.479,562.625 727.813,565.958 727.5,569.5C 731.5,569.5 735.5,569.5 739.5,569.5C 739.19,566.287 739.523,563.287 740.5,560.5C 740.5,564.833 740.5,569.167 740.5,573.5C 741.5,573.5 742.5,573.5 743.5,573.5C 743.5,569.5 743.5,565.5 743.5,561.5C 744.473,563.948 744.806,566.615 744.5,569.5C 748.167,569.5 751.833,569.5 755.5,569.5C 755.19,566.287 755.523,563.287 756.5,560.5C 756.5,564.833 756.5,569.167 756.5,573.5C 757.5,573.5 758.5,573.5 759.5,573.5C 759.5,569.5 759.5,565.5 759.5,561.5C 760.473,563.948 760.806,566.615 760.5,569.5C 764.371,569.815 768.038,569.482 771.5,568.5C 772.51,571.33 774.177,573.83 776.5,576C 784.526,576.632 792.193,578.632 799.5,582C 804.806,585.459 807.806,590.292 808.5,596.5C 809.543,601.464 807.876,603.131 803.5,601.5C 801.357,594.238 797.023,588.571 790.5,584.5C 790.167,585 789.833,585.5 789.5,586C 791.018,587.351 792.351,588.851 793.5,590.5C 778.009,591.496 762.342,591.83 746.5,591.5C 743.62,588.064 742.12,584.064 742,579.5C 737.742,576.419 734.909,577.419 733.5,582.5C 734.458,585.635 736.625,587.302 740,587.5C 740.791,588.745 741.291,590.078 741.5,591.5C 727.833,591.5 714.167,591.5 700.5,591.5C 700.5,589.833 700.5,588.167 700.5,586.5C 707.078,585.694 708.078,582.861 703.5,578C 701.299,577.175 699.466,577.675 698,579.5C 697.452,583.17 696.952,586.837 696.5,590.5C 671.575,591.49 646.575,591.823 621.5,591.5C 621.433,590.041 621.766,588.708 622.5,587.5C 624.759,585.245 627.592,584.245 631,584.5C 639.807,586.811 648.64,586.978 657.5,585C 662.492,580.835 665.826,575.669 667.5,569.5C 668.833,569.5 670.167,569.5 671.5,569.5C 672.665,572.022 673.998,572.022 675.5,569.5C 679.833,569.5 684.167,569.5 688.5,569.5C 689.568,570.434 690.901,570.768 692.5,570.5C 692.232,568.901 692.566,567.568 693.5,566.5C 693.5,567.5 693.5,568.5 693.5,569.5C 697.5,569.5 701.5,569.5 705.5,569.5C 705.19,566.287 705.523,563.287 706.5,560.5C 706.5,564.167 706.5,567.833 706.5,571.5C 707.5,571.5 708.5,571.5 709.5,571.5C 709.5,567.167 709.5,562.833 709.5,558.5 Z"/></g>
<g><path style="opacity:1" fill="#2467f9" d="M 710.5,553.5 C 698.482,553.168 686.482,553.501 674.5,554.5C 669.763,558.31 667.43,563.31 667.5,569.5C 665.826,575.669 662.492,580.835 657.5,585C 648.64,586.978 639.807,586.811 631,584.5C 627.592,584.245 624.759,585.245 622.5,587.5C 616.729,588.113 611.396,587.446 606.5,585.5C 607.908,579.591 611.574,575.757 617.5,574C 628.847,574.114 640.181,574.448 651.5,575C 657.761,572.337 660.928,567.504 661,560.5C 663.928,556.619 667.761,554.119 672.5,553C 685.34,552.173 698.007,552.34 710.5,553.5 Z"/></g>
<g><path style="opacity:1" fill="#d4dbe9" d="M 700.5,591.5 C 700.812,597.099 702.145,602.433 704.5,607.5C 706.184,612.676 706.85,618.009 706.5,623.5C 705.264,628.91 701.93,632.576 696.5,634.5C 694.899,633.965 694.399,632.965 695,631.5C 698.214,630.502 700.381,628.502 701.5,625.5C 702.791,621.399 702.791,617.399 701.5,613.5C 701.829,610.772 701.163,608.438 699.5,606.5C 697.665,601.328 696.665,595.995 696.5,590.5C 696.952,586.837 697.452,583.17 698,579.5C 699.466,577.675 701.299,577.175 703.5,578C 708.078,582.861 707.078,585.694 700.5,586.5C 700.5,588.167 700.5,589.833 700.5,591.5 Z"/></g>
<g><path style="opacity:1" fill="#d8dee9" d="M 746.5,591.5 C 747.774,593.993 748.44,596.659 748.5,599.5C 748.663,604.547 748.329,609.547 747.5,614.5C 746.842,615.793 746.508,617.293 746.5,619C 746.336,621.544 747.003,623.71 748.5,625.5C 748.5,626.5 748.5,627.5 748.5,628.5C 747.448,628.649 746.448,628.483 745.5,628C 744.837,626.482 743.837,625.315 742.5,624.5C 742.617,617.535 743.617,610.701 745.5,604C 745.492,602.293 745.158,600.793 744.5,599.5C 744.267,596.458 743.267,593.792 741.5,591.5C 741.291,590.078 740.791,588.745 740,587.5C 736.625,587.302 734.458,585.635 733.5,582.5C 734.909,577.419 737.742,576.419 742,579.5C 742.12,584.064 743.62,588.064 746.5,591.5 Z"/></g>
<g><path style="opacity:0.988" fill="#0060fa" d="M 793.5,590.5 C 797.315,593.127 799.315,596.794 799.5,601.5C 783.452,601.933 767.286,602.267 751,602.5C 750.148,601.429 749.315,600.429 748.5,599.5C 748.44,596.659 747.774,593.993 746.5,591.5C 762.342,591.83 778.009,591.496 793.5,590.5 Z"/></g>
<g><path style="opacity:1" fill="#0061fa" d="M 700.5,591.5 C 714.167,591.5 727.833,591.5 741.5,591.5C 743.267,593.792 744.267,596.458 744.5,599.5C 744.5,602.167 744.5,604.833 744.5,607.5C 731.167,607.5 717.833,607.5 704.5,607.5C 702.145,602.433 700.812,597.099 700.5,591.5 Z"/></g>
<g><path style="opacity:0.82" fill="#e8e8e8" d="M 272.5,592.5 C 273.496,592.414 274.329,592.748 275,593.5C 275.748,595.332 276.748,596.999 278,598.5C 279.991,596.095 282.324,595.428 285,596.5C 285.06,599.648 283.56,601.981 280.5,603.5C 281.637,605.607 282.637,607.773 283.5,610C 282.902,611.301 281.902,612.135 280.5,612.5C 279.139,610.972 277.972,609.305 277,607.5C 273.621,610.49 271.955,609.824 272,605.5C 272.833,604.667 273.667,603.833 274.5,603C 273.039,600.579 271.706,598.079 270.5,595.5C 271.193,594.482 271.859,593.482 272.5,592.5 Z"/></g>
<g><path style="opacity:1" fill="#0163fa" d="M 696.5,590.5 C 696.665,595.995 697.665,601.328 699.5,606.5C 673.855,608.491 647.855,609.158 621.5,608.5C 620.411,602.812 620.411,597.146 621.5,591.5C 646.575,591.823 671.575,591.49 696.5,590.5 Z"/></g>
<g><path style="opacity:1" fill="#0268f8" d="M 699.5,606.5 C 701.163,608.438 701.829,610.772 701.5,613.5C 701.631,614.239 701.464,614.906 701,615.5C 674.87,615.413 648.703,615.413 622.5,615.5C 621.526,613.257 621.192,610.924 621.5,608.5C 647.855,609.158 673.855,608.491 699.5,606.5 Z"/></g>
<g><path style="opacity:0.997" fill="#0368f9" d="M 748.5,599.5 C 749.315,600.429 750.148,601.429 751,602.5C 767.286,602.267 783.452,601.933 799.5,601.5C 800.726,605.367 800.726,609.367 799.5,613.5C 798.849,614.091 798.182,614.757 797.5,615.5C 780.813,615.125 764.146,614.792 747.5,614.5C 748.329,609.547 748.663,604.547 748.5,599.5 Z"/></g>
<g><path style="opacity:0.881" fill="#e8e8e8" d="M 242.5,612.5 C 244.359,612.461 245.692,613.294 246.5,615C 245.577,617.041 245.244,619.208 245.5,621.5C 248.141,620.737 250.808,620.57 253.5,621C 254.517,622.049 254.684,623.216 254,624.5C 251.595,625.274 249.095,625.774 246.5,626C 245.726,628.405 245.226,630.905 245,633.5C 243.667,634.833 242.333,634.833 241,633.5C 240.503,631.19 240.337,628.857 240.5,626.5C 236.952,626.905 233.619,626.405 230.5,625C 233.604,622.402 237.271,621.235 241.5,621.5C 241.264,618.391 241.597,615.391 242.5,612.5 Z"/></g>
<g><path style="opacity:0.997" fill="#0e6ef8" d="M 808.5,596.5 C 810.364,602.925 810.864,609.592 810,616.5C 809.727,618.329 808.893,619.829 807.5,621C 804.941,622.777 802.274,624.277 799.5,625.5C 782.5,625.5 765.5,625.5 748.5,625.5C 747.003,623.71 746.336,621.544 746.5,619C 746.508,617.293 746.842,615.793 747.5,614.5C 764.146,614.792 780.813,615.125 797.5,615.5C 798.182,614.757 798.849,614.091 799.5,613.5C 799.369,614.376 799.702,615.043 800.5,615.5C 803.091,611.236 804.091,606.569 803.5,601.5C 807.876,603.131 809.543,601.464 808.5,596.5 Z"/></g>
<g><path style="opacity:1" fill="#096ef8" d="M 606.5,585.5 C 611.396,587.446 616.729,588.113 622.5,587.5C 621.766,588.708 621.433,590.041 621.5,591.5C 620.411,597.146 620.411,602.812 621.5,608.5C 621.192,610.924 621.526,613.257 622.5,615.5C 648.703,615.413 674.87,615.413 701,615.5C 701.464,614.906 701.631,614.239 701.5,613.5C 702.791,617.399 702.791,621.399 701.5,625.5C 673.498,625.667 645.498,625.5 617.5,625C 620.243,621.239 621.076,617.072 620,612.5C 614.843,612.54 609.676,612.873 604.5,613.5C 604.334,605.16 604.5,596.827 605,588.5C 605.232,587.263 605.732,586.263 606.5,585.5 Z"/></g>
<g><path style="opacity:1" fill="#036cf8" d="M 744.5,599.5 C 745.158,600.793 745.492,602.293 745.5,604C 743.617,610.701 742.617,617.535 742.5,624.5C 736.676,625.166 730.676,625.5 724.5,625.5C 718.128,625.496 712.128,624.829 706.5,623.5C 706.85,618.009 706.184,612.676 704.5,607.5C 717.833,607.5 731.167,607.5 744.5,607.5C 744.5,604.833 744.5,602.167 744.5,599.5 Z"/></g>
<g><path style="opacity:1" fill="#0874f7" d="M 701.5,625.5 C 700.381,628.502 698.214,630.502 695,631.5C 694.399,632.965 694.899,633.965 696.5,634.5C 701.93,632.576 705.264,628.91 706.5,623.5C 712.128,624.829 718.128,625.496 724.5,625.5C 730.676,625.5 736.676,625.166 742.5,624.5C 743.837,625.315 744.837,626.482 745.5,628C 746.448,628.483 747.448,628.649 748.5,628.5C 748.5,627.5 748.5,626.5 748.5,625.5C 765.5,625.5 782.5,625.5 799.5,625.5C 793.43,629.868 786.764,633.202 779.5,635.5C 729.833,635.5 680.167,635.5 630.5,635.5C 621.631,632.399 613.298,628.232 605.5,623C 604.549,619.943 604.216,616.777 604.5,613.5C 609.676,612.873 614.843,612.54 620,612.5C 621.076,617.072 620.243,621.239 617.5,625C 645.498,625.5 673.498,625.667 701.5,625.5 Z"/></g>
<g><path style="opacity:1" fill="#0d7bf5" d="M 630.5,635.5 C 680.167,635.5 729.833,635.5 779.5,635.5C 735.767,654.192 691.1,656.359 645.5,642C 640.193,640.295 635.193,638.129 630.5,635.5 Z"/></g>
<g><path style="opacity:0.795" fill="#e8e8e8" d="M 402.5,665.5 C 406.584,665.043 410.417,665.71 414,667.5C 414.854,669.607 414.188,670.941 412,671.5C 408.293,668.792 404.793,669.125 401.5,672.5C 400.354,671.855 399.354,671.022 398.5,670C 399.357,667.981 400.691,666.481 402.5,665.5 Z"/></g>
<g><path style="opacity:0.84" fill="#e8e8e8" d="M 385.5,668.5 C 386.978,668.238 388.311,668.571 389.5,669.5C 392.727,676.622 395.393,683.955 397.5,691.5C 395.602,697.979 391.269,700.313 384.5,698.5C 384.33,697.178 384.663,696.011 385.5,695C 388.665,694.923 390.999,693.59 392.5,691C 389.448,683.68 387.115,676.18 385.5,668.5 Z"/></g>
<g><path style="opacity:0.879" fill="#e8e8e8" d="M 675.5,693.5 C 676.833,693.5 678.167,693.5 679.5,693.5C 679.452,696.313 678.785,698.979 677.5,701.5C 686.9,704.241 686.567,706.074 676.5,707C 675.577,709.041 675.244,711.208 675.5,713.5C 673.856,713.714 672.356,713.38 671,712.5C 671.135,710.575 671.302,708.575 671.5,706.5C 668.5,706.5 665.5,706.5 662.5,706.5C 662.5,705.167 662.5,703.833 662.5,702.5C 665.898,702.82 669.232,702.487 672.5,701.5C 673.513,698.812 674.513,696.146 675.5,693.5 Z"/></g>
<g><path style="opacity:0.835" fill="#e8e8e8" d="M 150.5,698.5 C 151.833,698.5 153.167,698.5 154.5,698.5C 152.907,705.453 151.407,712.453 150,719.5C 149.333,726.833 149.333,734.167 150,741.5C 151.554,749.718 153.72,757.718 156.5,765.5C 153.762,766.035 151.928,765.035 151,762.5C 142.504,741.233 142.338,719.9 150.5,698.5 Z"/></g>
<g><path style="opacity:0.821" fill="#e7e7e7" d="M 365.5,711.5 C 368.86,710.79 370.693,712.124 371,715.5C 375.132,720.048 380.299,721.715 386.5,720.5C 386.773,722.451 386.107,723.951 384.5,725C 377.795,726.729 372.295,724.895 368,719.5C 366.293,717.091 365.46,714.425 365.5,711.5 Z"/></g>
<g><path style="opacity:0.844" fill="#e8e8e8" d="M 731.5,726.5 C 733.167,726.5 734.833,726.5 736.5,726.5C 736.714,728.144 736.38,729.644 735.5,731C 722.191,732.992 709.525,736.992 697.5,743C 697.466,747.026 697.299,751.193 697,755.5C 692.549,763.618 686.383,770.118 678.5,775C 667.347,777.837 662.514,773.671 664,762.5C 670.617,754.551 678.45,748.051 687.5,743C 686.737,742.056 685.737,741.556 684.5,741.5C 655.358,749.973 633.692,767.639 619.5,794.5C 618.311,795.429 616.978,795.762 615.5,795.5C 615.372,793.345 615.872,791.345 617,789.5C 631.395,765.11 651.895,747.943 678.5,738C 683.808,737.119 688.975,737.619 694,739.5C 706.025,733.437 718.525,729.104 731.5,726.5 Z M 691.5,745.5 C 693.326,747.455 693.826,749.788 693,752.5C 689.585,760.916 683.752,767.082 675.5,771C 667.334,770.496 665.834,766.996 671,760.5C 677.635,755.112 684.468,750.112 691.5,745.5 Z"/></g>
<g><path style="opacity:0.82" fill="#e8e8e8" d="M 239.5,743.5 C 241.346,743.222 242.68,743.889 243.5,745.5C 236.533,755.103 232.033,765.77 230,777.5C 227.661,781.588 226.161,781.254 225.5,776.5C 227.177,764.156 231.843,753.156 239.5,743.5 Z"/></g>
<g><path style="opacity:0.837" fill="#e8e8e8" d="M 503.5,750.5 C 505.411,750.574 506.578,751.574 507,753.5C 510.79,768.374 510.123,783.04 505,797.5C 503.644,798.38 502.144,798.714 500.5,798.5C 503.108,790.059 504.774,781.393 505.5,772.5C 504.872,766.435 503.872,760.435 502.5,754.5C 502.623,753.075 502.957,751.742 503.5,750.5 Z"/></g>
<g><path style="opacity:0.827" fill="#e8e8e8" d="M 725.5,763.5 C 727.144,763.286 728.644,763.62 730,764.5C 729.71,767.551 728.877,770.551 727.5,773.5C 729.535,775.195 731.868,776.528 734.5,777.5C 735.89,779.495 735.39,780.828 733,781.5C 730.239,780.692 727.572,779.692 725,778.5C 723.471,779.729 722.304,781.229 721.5,783C 719.597,783.774 717.93,783.44 716.5,782C 717.376,780.414 718.376,778.914 719.5,777.5C 717.821,776.218 715.987,775.218 714,774.5C 713.146,772.393 713.812,771.059 716,770.5C 718.158,771.451 720.325,771.951 722.5,772C 724.196,769.413 725.196,766.579 725.5,763.5 Z"/></g>
<g><path style="opacity:1" fill="#0b4ffd" d="M 460.5,803.5 C 458.961,805.982 457.461,805.982 456,803.5C 454.667,806.167 453.333,806.167 452,803.5C 450.667,806.167 449.333,806.167 448,803.5C 446.667,806.167 445.333,806.167 444,803.5C 442.667,806.167 441.333,806.167 440,803.5C 438.667,806.167 437.333,806.167 436,803.5C 434.667,806.167 433.333,806.167 432,803.5C 430.667,806.167 429.333,806.167 428,803.5C 426.667,806.167 425.333,806.167 424,803.5C 422.667,806.167 421.333,806.167 420,803.5C 418.667,806.167 417.333,806.167 416,803.5C 414.667,806.167 413.333,806.167 412,803.5C 410.667,806.167 409.333,806.167 408,803.5C 406.667,806.167 405.333,806.167 404,803.5C 403.617,804.056 403.117,804.389 402.5,804.5C 401.341,796.369 399.674,788.369 397.5,780.5C 415.721,780.271 432.721,784.771 448.5,794C 452.975,796.65 456.975,799.817 460.5,803.5 Z"/></g>
<g><path style="opacity:1" fill="#0755fc" d="M 460.5,803.5 C 466.904,807.569 471.904,812.902 475.5,819.5C 462.5,819.5 449.5,819.5 436.5,819.5C 435.315,818.143 434.315,816.643 433.5,815C 436.413,806.594 435.247,805.761 430,812.5C 428.981,811.313 427.814,810.313 426.5,809.5C 425.295,811.859 425.628,814.026 427.5,816C 427.192,817.459 426.525,818.626 425.5,819.5C 418.167,819.5 410.833,819.5 403.5,819.5C 403.817,815.298 403.483,811.298 402.5,807.5C 402.5,806.5 402.5,805.5 402.5,804.5C 403.117,804.389 403.617,804.056 404,803.5C 405.333,806.167 406.667,806.167 408,803.5C 409.333,806.167 410.667,806.167 412,803.5C 413.333,806.167 414.667,806.167 416,803.5C 417.333,806.167 418.667,806.167 420,803.5C 421.333,806.167 422.667,806.167 424,803.5C 425.333,806.167 426.667,806.167 428,803.5C 429.333,806.167 430.667,806.167 432,803.5C 433.333,806.167 434.667,806.167 436,803.5C 437.333,806.167 438.667,806.167 440,803.5C 441.333,806.167 442.667,806.167 444,803.5C 445.333,806.167 446.667,806.167 448,803.5C 449.333,806.167 450.667,806.167 452,803.5C 453.333,806.167 454.667,806.167 456,803.5C 457.461,805.982 458.961,805.982 460.5,803.5 Z"/></g>
<g><path style="opacity:1" fill="#d7dce9" d="M 436.5,819.5 C 434.389,820.968 432.556,820.635 431,818.5C 430.059,820.061 428.892,821.395 427.5,822.5C 426.081,821.995 425.415,820.995 425.5,819.5C 426.525,818.626 427.192,817.459 427.5,816C 425.628,814.026 425.295,811.859 426.5,809.5C 427.814,810.313 428.981,811.313 430,812.5C 435.247,805.761 436.413,806.594 433.5,815C 434.315,816.643 435.315,818.143 436.5,819.5 Z"/></g>
<g><path style="opacity:1" fill="#1c64fa" d="M 331.5,807.5 C 330.842,806.602 330.176,805.602 329.5,804.5C 315.842,810.182 303.509,817.849 292.5,827.5C 284.35,826.507 276.017,826.174 267.5,826.5C 279.311,814.205 292.977,804.372 308.5,797C 315.126,794.069 321.792,791.236 328.5,788.5C 329.609,794.822 330.609,801.156 331.5,807.5 Z"/></g>
<g><path style="opacity:1" fill="#045afb" d="M 331.5,807.5 C 333.303,816.107 335.97,824.441 339.5,832.5C 339.587,835.598 339.087,835.932 338,833.5C 337.333,836.167 336.667,836.167 336,833.5C 335.333,836.167 334.667,836.167 334,833.5C 333.333,836.167 332.667,836.167 332,833.5C 331.333,836.167 330.667,836.167 330,833.5C 329.333,836.167 328.667,836.167 328,833.5C 327.333,836.167 326.667,836.167 326,833.5C 325.333,836.167 324.667,836.167 324,833.5C 323.333,836.167 322.667,836.167 322,833.5C 321.333,836.167 320.667,836.167 320,833.5C 319.333,836.167 318.667,836.167 318,833.5C 317.333,836.167 316.667,836.167 316,833.5C 315.333,836.167 314.667,836.167 314,833.5C 313.333,836.167 312.667,836.167 312,833.5C 311.333,836.167 310.667,836.167 310,833.5C 309.333,836.167 308.667,836.167 308,833.5C 307.333,836.167 306.667,836.167 306,833.5C 305.333,836.167 304.667,836.167 304,833.5C 303.333,836.167 302.667,836.167 302,833.5C 301.333,836.167 300.667,836.167 300,833.5C 299.333,836.167 298.667,836.167 298,833.5C 297.333,836.167 296.667,836.167 296,833.5C 295.333,836.167 294.667,836.167 294,833.5C 293.333,836.167 292.667,836.167 292,833.5C 291.333,836.167 290.667,836.167 290,833.5C 289.333,836.167 288.667,836.167 288,833.5C 287.221,836.097 286.721,836.097 286.5,833.5C 288.167,831.167 290.167,829.167 292.5,827.5C 303.509,817.849 315.842,810.182 329.5,804.5C 330.176,805.602 330.842,806.602 331.5,807.5 Z"/></g>
<g><path style="opacity:1" fill="#085bfb" d="M 402.5,807.5 C 403.483,811.298 403.817,815.298 403.5,819.5C 410.833,819.5 418.167,819.5 425.5,819.5C 425.415,820.995 426.081,821.995 427.5,822.5C 428.892,821.395 430.059,820.061 431,818.5C 432.556,820.635 434.389,820.968 436.5,819.5C 449.5,819.5 462.5,819.5 475.5,819.5C 479.281,823.624 482.281,828.291 484.5,833.5C 483.778,833.918 483.278,834.584 483,835.5C 482.333,832.833 481.667,832.833 481,835.5C 480.333,832.833 479.667,832.833 479,835.5C 478.333,832.833 477.667,832.833 477,835.5C 476.333,832.833 475.667,832.833 475,835.5C 474.333,832.833 473.667,832.833 473,835.5C 472.333,832.833 471.667,832.833 471,835.5C 470.333,832.833 469.667,832.833 469,835.5C 468.333,832.833 467.667,832.833 467,835.5C 466.333,832.833 465.667,832.833 465,835.5C 464.333,832.833 463.667,832.833 463,835.5C 462.333,832.833 461.667,832.833 461,835.5C 460.333,832.833 459.667,832.833 459,835.5C 458.333,832.833 457.667,832.833 457,835.5C 456.333,832.833 455.667,832.833 455,835.5C 454.333,832.833 453.667,832.833 453,835.5C 452.333,832.833 451.667,832.833 451,835.5C 450.333,832.833 449.667,832.833 449,835.5C 448.333,832.833 447.667,832.833 447,835.5C 446.333,832.833 445.667,832.833 445,835.5C 444.333,832.833 443.667,832.833 443,835.5C 442.333,832.833 441.667,832.833 441,835.5C 440.333,832.833 439.667,832.833 439,835.5C 438.333,832.833 437.667,832.833 437,835.5C 436.333,832.833 435.667,832.833 435,835.5C 434.333,832.833 433.667,832.833 433,835.5C 432.333,832.833 431.667,832.833 431,835.5C 430.333,832.833 429.667,832.833 429,835.5C 428.333,832.833 427.667,832.833 427,835.5C 426.333,832.833 425.667,832.833 425,835.5C 424.333,832.833 423.667,832.833 423,835.5C 422.333,832.833 421.667,832.833 421,835.5C 420.333,832.833 419.667,832.833 419,835.5C 418.333,832.833 417.667,832.833 417,835.5C 416.333,832.833 415.667,832.833 415,835.5C 414.333,832.833 413.667,832.833 413,835.5C 412.333,832.833 411.667,832.833 411,835.5C 410.333,832.833 409.667,832.833 409,835.5C 408.333,832.833 407.667,832.833 407,835.5C 406.333,832.833 405.667,832.833 405,835.5C 404.333,832.833 403.667,832.833 403,835.5C 402.333,832.833 401.667,832.833 401,835.5C 400.517,834.552 400.351,833.552 400.5,832.5C 402.284,824.294 402.95,815.961 402.5,807.5 Z"/></g>
<g><path style="opacity:1" fill="#0261fa" d="M 339.5,832.5 C 343.106,838.438 347.439,843.771 352.5,848.5C 344.599,849.813 336.599,849.813 328.5,848.5C 326.736,847.288 325.07,847.621 323.5,849.5C 322.52,848.019 321.353,846.685 320,845.5C 319.617,846.056 319.117,846.389 318.5,846.5C 317.596,847.209 317.263,848.209 317.5,849.5C 302.496,849.667 287.496,849.5 272.5,849C 275.123,845.588 277.623,842.088 280,838.5C 281.777,836.21 283.944,834.543 286.5,833.5C 286.721,836.097 287.221,836.097 288,833.5C 288.667,836.167 289.333,836.167 290,833.5C 290.667,836.167 291.333,836.167 292,833.5C 292.667,836.167 293.333,836.167 294,833.5C 294.667,836.167 295.333,836.167 296,833.5C 296.667,836.167 297.333,836.167 298,833.5C 298.667,836.167 299.333,836.167 300,833.5C 300.667,836.167 301.333,836.167 302,833.5C 302.667,836.167 303.333,836.167 304,833.5C 304.667,836.167 305.333,836.167 306,833.5C 306.667,836.167 307.333,836.167 308,833.5C 308.667,836.167 309.333,836.167 310,833.5C 310.667,836.167 311.333,836.167 312,833.5C 312.667,836.167 313.333,836.167 314,833.5C 314.667,836.167 315.333,836.167 316,833.5C 316.667,836.167 317.333,836.167 318,833.5C 318.667,836.167 319.333,836.167 320,833.5C 320.667,836.167 321.333,836.167 322,833.5C 322.667,836.167 323.333,836.167 324,833.5C 324.667,836.167 325.333,836.167 326,833.5C 326.667,836.167 327.333,836.167 328,833.5C 328.667,836.167 329.333,836.167 330,833.5C 330.667,836.167 331.333,836.167 332,833.5C 332.667,836.167 333.333,836.167 334,833.5C 334.667,836.167 335.333,836.167 336,833.5C 336.667,836.167 337.333,836.167 338,833.5C 339.087,835.932 339.587,835.598 339.5,832.5 Z"/></g>
<g><path style="opacity:1" fill="#0361fa" d="M 400.5,832.5 C 400.351,833.552 400.517,834.552 401,835.5C 401.667,832.833 402.333,832.833 403,835.5C 403.667,832.833 404.333,832.833 405,835.5C 405.667,832.833 406.333,832.833 407,835.5C 407.667,832.833 408.333,832.833 409,835.5C 409.667,832.833 410.333,832.833 411,835.5C 411.667,832.833 412.333,832.833 413,835.5C 413.667,832.833 414.333,832.833 415,835.5C 415.667,832.833 416.333,832.833 417,835.5C 417.667,832.833 418.333,832.833 419,835.5C 419.667,832.833 420.333,832.833 421,835.5C 421.667,832.833 422.333,832.833 423,835.5C 423.667,832.833 424.333,832.833 425,835.5C 425.667,832.833 426.333,832.833 427,835.5C 427.667,832.833 428.333,832.833 429,835.5C 429.667,832.833 430.333,832.833 431,835.5C 431.667,832.833 432.333,832.833 433,835.5C 433.667,832.833 434.333,832.833 435,835.5C 435.667,832.833 436.333,832.833 437,835.5C 437.667,832.833 438.333,832.833 439,835.5C 439.667,832.833 440.333,832.833 441,835.5C 441.667,832.833 442.333,832.833 443,835.5C 443.667,832.833 444.333,832.833 445,835.5C 445.667,832.833 446.333,832.833 447,835.5C 447.667,832.833 448.333,832.833 449,835.5C 449.667,832.833 450.333,832.833 451,835.5C 451.667,832.833 452.333,832.833 453,835.5C 453.667,832.833 454.333,832.833 455,835.5C 455.667,832.833 456.333,832.833 457,835.5C 457.667,832.833 458.333,832.833 459,835.5C 459.667,832.833 460.333,832.833 461,835.5C 461.667,832.833 462.333,832.833 463,835.5C 463.667,832.833 464.333,832.833 465,835.5C 465.667,832.833 466.333,832.833 467,835.5C 467.667,832.833 468.333,832.833 469,835.5C 469.667,832.833 470.333,832.833 471,835.5C 471.667,832.833 472.333,832.833 473,835.5C 473.667,832.833 474.333,832.833 475,835.5C 475.667,832.833 476.333,832.833 477,835.5C 477.667,832.833 478.333,832.833 479,835.5C 479.667,832.833 480.333,832.833 481,835.5C 481.667,832.833 482.333,832.833 483,835.5C 483.278,834.584 483.778,833.918 484.5,833.5C 487.585,838.353 489.585,843.686 490.5,849.5C 456.329,849.832 422.329,849.498 388.5,848.5C 393.683,843.993 397.683,838.66 400.5,832.5 Z"/></g>
<g><path style="opacity:1" fill="#dadfe9" d="M 328.5,848.5 C 328.315,850.196 327.481,851.529 326,852.5C 325.506,854.134 325.34,855.801 325.5,857.5C 323.857,857.52 322.524,856.853 321.5,855.5C 319.827,857.086 317.827,857.753 315.5,857.5C 316.437,855.162 317.77,852.995 319.5,851C 318.852,849.56 318.519,848.06 318.5,846.5C 319.117,846.389 319.617,846.056 320,845.5C 321.353,846.685 322.52,848.019 323.5,849.5C 325.07,847.621 326.736,847.288 328.5,848.5 Z"/></g>
<g><path style="opacity:1" fill="#1d75f7" d="M 251.5,848.5 C 257.645,849.49 263.978,849.823 270.5,849.5C 267.265,854.966 264.265,860.632 261.5,866.5C 259.425,870.139 256.759,873.305 253.5,876C 250.305,876.181 247.305,876.681 244.5,877.5C 243.053,876.866 242.387,875.699 242.5,874C 243.644,864.728 246.644,856.228 251.5,848.5 Z"/></g>
<g><path style="opacity:1" fill="#0c69f9" d="M 267.5,826.5 C 276.017,826.174 284.35,826.507 292.5,827.5C 290.167,829.167 288.167,831.167 286.5,833.5C 283.944,834.543 281.777,836.21 280,838.5C 277.623,842.088 275.123,845.588 272.5,849C 287.496,849.5 302.496,849.667 317.5,849.5C 317.263,848.209 317.596,847.209 318.5,846.5C 318.519,848.06 318.852,849.56 319.5,851C 317.77,852.995 316.437,855.162 315.5,857.5C 317.827,857.753 319.827,857.086 321.5,855.5C 322.524,856.853 323.857,857.52 325.5,857.5C 325.34,855.801 325.506,854.134 326,852.5C 327.481,851.529 328.315,850.196 328.5,848.5C 336.599,849.813 344.599,849.813 352.5,848.5C 355.646,850.575 358.979,852.408 362.5,854C 365.817,854.498 369.15,854.665 372.5,854.5C 372.5,857.5 372.5,860.5 372.5,863.5C 371.965,867.334 370.465,868.001 368,865.5C 366.667,868.167 365.333,868.167 364,865.5C 362.667,868.167 361.333,868.167 360,865.5C 358.667,868.167 357.333,868.167 356,865.5C 354.667,868.167 353.333,868.167 352,865.5C 350.667,868.167 349.333,868.167 348,865.5C 346.667,868.167 345.333,868.167 344,865.5C 342.667,868.167 341.333,868.167 340,865.5C 338.667,868.167 337.333,868.167 336,865.5C 334.667,868.167 333.333,868.167 332,865.5C 330.667,868.167 329.333,868.167 328,865.5C 326.667,868.167 325.333,868.167 324,865.5C 322.667,868.167 321.333,868.167 320,865.5C 318.667,868.167 317.333,868.167 316,865.5C 314.667,868.167 313.333,868.167 312,865.5C 310.667,868.167 309.333,868.167 308,865.5C 306.667,868.167 305.333,868.167 304,865.5C 302.667,868.167 301.333,868.167 300,865.5C 298.667,868.167 297.333,868.167 296,865.5C 294.667,868.167 293.333,868.167 292,865.5C 290.667,868.167 289.333,868.167 288,865.5C 286.667,868.167 285.333,868.167 284,865.5C 282.908,867.931 281.741,867.931 280.5,865.5C 280.047,864.542 279.381,863.708 278.5,863C 280.155,861.556 280.822,859.722 280.5,857.5C 278.857,857.48 277.524,858.147 276.5,859.5C 275.15,858.05 273.484,857.383 271.5,857.5C 271.586,859.677 272.253,861.677 273.5,863.5C 272.37,864.622 271.703,865.956 271.5,867.5C 269.876,867.64 268.71,866.973 268,865.5C 266.667,868.167 265.333,868.167 264,865.5C 263.399,867.359 262.566,867.692 261.5,866.5C 264.265,860.632 267.265,854.966 270.5,849.5C 263.978,849.823 257.645,849.49 251.5,848.5C 255.68,840.321 261.013,832.988 267.5,826.5 Z"/></g>
<g><path style="opacity:1" fill="#0468f9" d="M 388.5,848.5 C 422.329,849.498 456.329,849.832 490.5,849.5C 493.231,855.151 494.564,861.151 494.5,867.5C 493.25,867.423 492.417,866.756 492,865.5C 490.667,868.167 489.333,868.167 488,865.5C 486.667,868.167 485.333,868.167 484,865.5C 482.667,868.167 481.333,868.167 480,865.5C 478.667,868.167 477.333,868.167 476,865.5C 474.667,868.167 473.333,868.167 472,865.5C 470.667,868.167 469.333,868.167 468,865.5C 466.667,868.167 465.333,868.167 464,865.5C 462.667,868.167 461.333,868.167 460,865.5C 458.667,868.167 457.333,868.167 456,865.5C 455.076,867.495 453.91,867.828 452.5,866.5C 451.952,864.606 450.952,862.94 449.5,861.5C 450.747,859.677 451.414,857.677 451.5,855.5C 448.708,855.452 446.875,856.785 446,859.5C 444.89,857.963 443.39,857.297 441.5,857.5C 441.393,859.903 442.393,861.736 444.5,863C 443.117,864.271 442.117,865.771 441.5,867.5C 440.778,867.082 440.278,866.416 440,865.5C 438.667,868.167 437.333,868.167 436,865.5C 434.667,868.167 433.333,868.167 432,865.5C 430.667,868.167 429.333,868.167 428,865.5C 426.667,868.167 425.333,868.167 424,865.5C 422.667,868.167 421.333,868.167 420,865.5C 418.667,868.167 417.333,868.167 416,865.5C 414.667,868.167 413.333,868.167 412,865.5C 410.667,868.167 409.333,868.167 408,865.5C 406.667,868.167 405.333,868.167 404,865.5C 402.667,868.167 401.333,868.167 400,865.5C 398.667,868.167 397.333,868.167 396,865.5C 394.667,868.167 393.333,868.167 392,865.5C 390.667,868.167 389.333,868.167 388,865.5C 386.667,868.167 385.333,868.167 384,865.5C 382.667,868.167 381.333,868.167 380,865.5C 379.296,867.727 378.129,868.06 376.5,866.5C 376.176,862.445 376.509,858.445 377.5,854.5C 381.451,852.864 385.118,850.864 388.5,848.5 Z"/></g>
<g><path style="opacity:1" fill="#d8dee9" d="M 452.5,866.5 C 450.632,867.757 448.965,867.424 447.5,865.5C 445.889,866.32 445.222,867.654 445.5,869.5C 443.62,869.771 442.287,869.104 441.5,867.5C 442.117,865.771 443.117,864.271 444.5,863C 442.393,861.736 441.393,859.903 441.5,857.5C 443.39,857.297 444.89,857.963 446,859.5C 446.875,856.785 448.708,855.452 451.5,855.5C 451.414,857.677 450.747,859.677 449.5,861.5C 450.952,862.94 451.952,864.606 452.5,866.5 Z"/></g>
<g><path style="opacity:1" fill="#dadfe9" d="M 280.5,865.5 C 280.53,866.497 280.03,867.164 279,867.5C 276.37,867.427 273.87,867.427 271.5,867.5C 271.703,865.956 272.37,864.622 273.5,863.5C 272.253,861.677 271.586,859.677 271.5,857.5C 273.484,857.383 275.15,858.05 276.5,859.5C 277.524,858.147 278.857,857.48 280.5,857.5C 280.822,859.722 280.155,861.556 278.5,863C 279.381,863.708 280.047,864.542 280.5,865.5 Z"/></g>
<g><path style="opacity:1" fill="#036ef8" d="M 372.5,863.5 C 373.487,868.305 373.821,873.305 373.5,878.5C 373.5,879.5 373.5,880.5 373.5,881.5C 332.5,881.5 291.5,881.5 250.5,881.5C 248.205,880.525 246.205,879.192 244.5,877.5C 247.305,876.681 250.305,876.181 253.5,876C 256.759,873.305 259.425,870.139 261.5,866.5C 262.566,867.692 263.399,867.359 264,865.5C 265.333,868.167 266.667,868.167 268,865.5C 268.71,866.973 269.876,867.64 271.5,867.5C 273.87,867.427 276.37,867.427 279,867.5C 280.03,867.164 280.53,866.497 280.5,865.5C 281.741,867.931 282.908,867.931 284,865.5C 285.333,868.167 286.667,868.167 288,865.5C 289.333,868.167 290.667,868.167 292,865.5C 293.333,868.167 294.667,868.167 296,865.5C 297.333,868.167 298.667,868.167 300,865.5C 301.333,868.167 302.667,868.167 304,865.5C 305.333,868.167 306.667,868.167 308,865.5C 309.333,868.167 310.667,868.167 312,865.5C 313.333,868.167 314.667,868.167 316,865.5C 317.333,868.167 318.667,868.167 320,865.5C 321.333,868.167 322.667,868.167 324,865.5C 325.333,868.167 326.667,868.167 328,865.5C 329.333,868.167 330.667,868.167 332,865.5C 333.333,868.167 334.667,868.167 336,865.5C 337.333,868.167 338.667,868.167 340,865.5C 341.333,868.167 342.667,868.167 344,865.5C 345.333,868.167 346.667,868.167 348,865.5C 349.333,868.167 350.667,868.167 352,865.5C 353.333,868.167 354.667,868.167 356,865.5C 357.333,868.167 358.667,868.167 360,865.5C 361.333,868.167 362.667,868.167 364,865.5C 365.333,868.167 366.667,868.167 368,865.5C 370.465,868.001 371.965,867.334 372.5,863.5 Z"/></g>
<g><path style="opacity:1" fill="#016df8" d="M 441.5,867.5 C 442.287,869.104 443.62,869.771 445.5,869.5C 445.222,867.654 445.889,866.32 447.5,865.5C 448.965,867.424 450.632,867.757 452.5,866.5C 453.91,867.828 455.076,867.495 456,865.5C 457.333,868.167 458.667,868.167 460,865.5C 461.333,868.167 462.667,868.167 464,865.5C 465.333,868.167 466.667,868.167 468,865.5C 469.333,868.167 470.667,868.167 472,865.5C 473.333,868.167 474.667,868.167 476,865.5C 477.333,868.167 478.667,868.167 480,865.5C 481.333,868.167 482.667,868.167 484,865.5C 485.333,868.167 486.667,868.167 488,865.5C 489.333,868.167 490.667,868.167 492,865.5C 492.417,866.756 493.25,867.423 494.5,867.5C 489.44,872.892 483.774,877.559 477.5,881.5C 444.5,881.5 411.5,881.5 378.5,881.5C 377.639,876.567 376.972,871.567 376.5,866.5C 378.129,868.06 379.296,867.727 380,865.5C 381.333,868.167 382.667,868.167 384,865.5C 385.333,868.167 386.667,868.167 388,865.5C 389.333,868.167 390.667,868.167 392,865.5C 393.333,868.167 394.667,868.167 396,865.5C 397.333,868.167 398.667,868.167 400,865.5C 401.333,868.167 402.667,868.167 404,865.5C 405.333,868.167 406.667,868.167 408,865.5C 409.333,868.167 410.667,868.167 412,865.5C 413.333,868.167 414.667,868.167 416,865.5C 417.333,868.167 418.667,868.167 420,865.5C 421.333,868.167 422.667,868.167 424,865.5C 425.333,868.167 426.667,868.167 428,865.5C 429.333,868.167 430.667,868.167 432,865.5C 433.333,868.167 434.667,868.167 436,865.5C 437.333,868.167 438.667,868.167 440,865.5C 440.278,866.416 440.778,867.082 441.5,867.5 Z"/></g>
<g><path style="opacity:1" fill="#0473f7" d="M 373.5,878.5 C 374.489,883.975 374.822,889.642 374.5,895.5C 367.978,895.823 361.645,895.49 355.5,894.5C 356.666,892.834 356.666,891.167 355.5,889.5C 353.142,891.024 351.309,893.024 350,895.5C 348.649,893.981 347.149,892.648 345.5,891.5C 344.081,892.005 343.415,893.005 343.5,894.5C 320.006,895.498 296.339,895.831 272.5,895.5C 264.453,891.818 257.12,887.152 250.5,881.5C 291.5,881.5 332.5,881.5 373.5,881.5C 373.5,880.5 373.5,879.5 373.5,878.5 Z"/></g>
<g><path style="opacity:1" fill="#0473f7" d="M 378.5,881.5 C 411.5,881.5 444.5,881.5 477.5,881.5C 470.164,887.173 462.164,891.839 453.5,895.5C 440.5,895.5 427.5,895.5 414.5,895.5C 413.952,893.606 412.952,891.94 411.5,890.5C 412.248,888.668 413.248,887.001 414.5,885.5C 414.167,884.5 413.5,883.833 412.5,883.5C 410.831,884.671 409.331,886.004 408,887.5C 402.062,885.026 401.229,886.359 405.5,891.5C 404.82,892.86 404.153,894.193 403.5,895.5C 394.897,896.088 386.564,895.422 378.5,893.5C 378.5,889.5 378.5,885.5 378.5,881.5 Z"/></g>
<g><path style="opacity:1" fill="#d3dce9" d="M 414.5,895.5 C 412.516,896.619 410.683,896.286 409,894.5C 407.832,895.509 406.665,896.509 405.5,897.5C 404.478,897.145 403.811,896.478 403.5,895.5C 404.153,894.193 404.82,892.86 405.5,891.5C 401.229,886.359 402.062,885.026 408,887.5C 409.331,886.004 410.831,884.671 412.5,883.5C 413.5,883.833 414.167,884.5 414.5,885.5C 413.248,887.001 412.248,888.668 411.5,890.5C 412.952,891.94 413.952,893.606 414.5,895.5 Z"/></g>
<g><path style="opacity:1" fill="#dce2e8" d="M 355.5,894.5 C 354.521,895.765 353.521,897.099 352.5,898.5C 353.48,899.981 354.647,901.315 356,902.5C 356.601,903.965 356.101,904.965 354.5,905.5C 352.851,904.352 351.351,903.019 350,901.5C 348.316,903.351 346.483,905.018 344.5,906.5C 343.386,905.277 343.219,903.944 344,902.5C 348.684,899.534 348.518,896.867 343.5,894.5C 343.415,893.005 344.081,892.005 345.5,891.5C 347.149,892.648 348.649,893.981 350,895.5C 351.309,893.024 353.142,891.024 355.5,889.5C 356.666,891.167 356.666,892.834 355.5,894.5 Z"/></g>
<g><path style="opacity:1" fill="#0c7bf5" d="M 343.5,894.5 C 348.518,896.867 348.684,899.534 344,902.5C 343.219,903.944 343.386,905.277 344.5,906.5C 346.483,905.018 348.316,903.351 350,901.5C 351.351,903.019 352.851,904.352 354.5,905.5C 356.101,904.965 356.601,903.965 356,902.5C 354.647,901.315 353.48,899.981 352.5,898.5C 353.521,897.099 354.521,895.765 355.5,894.5C 361.645,895.49 367.978,895.823 374.5,895.5C 375.282,902.778 375.949,910.111 376.5,917.5C 339.542,920.236 304.876,912.903 272.5,895.5C 296.339,895.831 320.006,895.498 343.5,894.5 Z"/></g>
<g><path style="opacity:1" fill="#097af6" d="M 378.5,893.5 C 386.564,895.422 394.897,896.088 403.5,895.5C 403.811,896.478 404.478,897.145 405.5,897.5C 406.665,896.509 407.832,895.509 409,894.5C 410.683,896.286 412.516,896.619 414.5,895.5C 427.5,895.5 440.5,895.5 453.5,895.5C 430.483,907.987 405.817,915.32 379.5,917.5C 379.698,909.466 379.365,901.466 378.5,893.5 Z"/></g>
</svg>
