<?xml version="1.0" encoding="UTF-8"?>
<!DOCTYPE svg PUBLIC "-//W3C//DTD SVG 1.1//EN" "http://www.w3.org/Graphics/SVG/1.1/DTD/svg11.dtd">
<svg xmlns="http://www.w3.org/2000/svg" version="1.1" width="960px" height="960px" style="shape-rendering:geometricPrecision; text-rendering:geometricPrecision; image-rendering:optimizeQuality; fill-rule:evenodd; clip-rule:evenodd" xmlns:xlink="http://www.w3.org/1999/xlink">
<g><path style="opacity:0.806" fill="#e8e8e8" d="M 672.5,15.5 C 686.202,31.2171 699.202,47.5504 711.5,64.5C 710.965,66.1013 709.965,66.6013 708.5,66C 695.593,50.1819 682.926,34.1819 670.5,18C 671.381,17.2917 672.047,16.4584 672.5,15.5 Z"/></g>
<g><path style="opacity:0.83" fill="#e8e8e8" d="M 731.5,32.5 C 732.833,32.5 734.167,32.5 735.5,32.5C 735.5,43.1667 735.5,53.8333 735.5,64.5C 734.5,64.5 733.5,64.5 732.5,64.5C 731.57,53.872 731.237,43.2053 731.5,32.5 Z"/></g>
<g><path style="opacity:0.898" fill="#e7e7e8" d="M 357.5,351.5 C 357.5,350.833 357.5,350.167 357.5,349.5C 364.086,348.374 370.753,348.208 377.5,349C 398.431,351.678 419.431,353.511 440.5,354.5C 441.833,355.167 443.167,355.833 444.5,356.5C 440.154,356.334 435.821,356.501 431.5,357C 424.76,363.07 418.76,369.737 413.5,377C 426.561,376.753 439.561,375.586 452.5,373.5C 470.473,376.356 488.307,379.689 506,383.5C 502.364,425.864 498.197,468.197 493.5,510.5C 501.216,510.816 508.882,511.65 516.5,513C 522.167,513.667 527.833,513.667 533.5,513C 544.4,510.088 550.234,502.921 551,491.5C 550.513,448.643 547.346,405.976 541.5,363.5C 537.652,363.76 533.985,363.094 530.5,361.5C 528.938,358.386 529.271,355.553 531.5,353C 545.879,348.822 560.213,344.488 574.5,340C 577.553,336.055 580.22,331.888 582.5,327.5C 583.881,328 584.547,329 584.5,330.5C 584.113,332.274 583.447,333.941 582.5,335.5C 583,335.833 583.5,336.167 584,336.5C 599.735,330.542 614.901,323.542 629.5,315.5C 651.343,306.332 671.176,293.999 689,278.5C 697.884,268.401 703.884,256.734 707,243.5C 707.887,240.377 709.721,238.043 712.5,236.5C 707.108,222.966 697.108,216.8 682.5,218C 678.673,219.746 675.007,221.746 671.5,224C 657.099,240.403 641.432,255.403 624.5,269C 596.574,288.535 565.574,300.202 531.5,304C 509.514,305.033 487.514,305.867 465.5,306.5C 461.083,312.543 455.083,315.71 447.5,316C 447.201,317.32 447.034,318.82 447,320.5C 445.257,322.321 443.757,324.321 442.5,326.5C 441.311,327.429 439.978,327.762 438.5,327.5C 439.4,323.419 441.4,319.919 444.5,317C 429.935,318.356 416.601,323.189 404.5,331.5C 405.325,332.386 406.325,332.719 407.5,332.5C 407.167,333.167 406.833,333.833 406.5,334.5C 401.532,333.341 396.532,332.341 391.5,331.5C 388.358,330.21 385.025,329.21 381.5,328.5C 381.5,327.833 381.5,327.167 381.5,326.5C 382.93,326.421 384.264,326.754 385.5,327.5C 404.877,311.488 427.21,302.655 452.5,301C 453.719,289.949 459.719,283.116 470.5,280.5C 471.192,279.975 471.692,279.308 472,278.5C 472.5,267.505 472.667,256.505 472.5,245.5C 464.334,246.998 460.667,243.664 461.5,235.5C 453.834,236.332 451.001,232.998 453,225.5C 456.333,219.5 459.667,213.5 463,207.5C 464.083,199.528 465.083,191.528 466,183.5C 467.912,175.923 472.746,171.423 480.5,170C 486.67,168.645 492.837,168.478 499,169.5C 505.12,168.358 510.286,165.524 514.5,161C 518.833,157.498 523.5,156.832 528.5,159C 529.147,160.609 529.98,162.109 531,163.5C 535.431,157.533 541.265,155.367 548.5,157C 550.357,158.182 551.357,159.849 551.5,162C 550.813,165.043 549.98,167.876 549,170.5C 552.843,166.687 557.343,165.687 562.5,167.5C 565.64,172.804 564.64,177.304 559.5,181C 552.64,183.631 545.64,185.798 538.5,187.5C 538.167,188.667 537.833,189.833 537.5,191C 540.918,208.395 540.084,225.562 535,242.5C 532.839,247.492 530.172,252.159 527,256.5C 520.539,261.955 515.206,268.288 511,275.5C 510.502,278.482 510.335,281.482 510.5,284.5C 520.297,283.346 528.464,286.346 535,293.5C 535.36,295.608 536.027,297.608 537,299.5C 591.091,290.387 634.925,264.22 668.5,221C 673.029,217.611 678.029,215.444 683.5,214.5C 683.663,212.143 683.497,209.81 683,207.5C 679.873,203.081 677.707,198.248 676.5,193C 676.943,186.724 680.277,183.224 686.5,182.5C 687.171,168.15 694.338,158.817 708,154.5C 713.822,134.211 719.489,113.878 725,93.5C 729.747,81.2837 738.747,75.617 752,76.5C 766.975,76.9124 781.475,79.7458 795.5,85C 815.543,93.1863 834.543,103.186 852.5,115C 854.357,116.182 855.357,117.849 855.5,120C 841.563,170.475 827.229,220.808 812.5,271C 811.167,271.667 809.833,271.667 808.5,271C 781.652,256.909 754.319,243.909 726.5,232C 722.505,230.639 718.505,230.473 714.5,231.5C 719.617,242.758 719.784,254.092 715,265.5C 712.423,271.66 709.09,277.327 705,282.5C 682.106,306.871 655.272,325.704 624.5,339C 599.028,349.269 572.861,357.103 546,362.5C 548.475,386.782 550.809,411.115 553,435.5C 553.99,450.325 554.823,465.158 555.5,480C 556.081,489.686 554.248,498.853 550,507.5C 547.214,510.888 543.881,513.554 540,515.5C 538.746,522.465 538.413,529.465 539,536.5C 573.333,625.833 607.667,715.167 642,804.5C 644.367,810.801 645.867,817.301 646.5,824C 646.302,829.335 644.968,834.335 642.5,839C 647.098,841.736 652.098,843.403 657.5,844C 668.242,844.259 678.909,845.259 689.5,847C 710.298,853.064 716.465,865.897 708,885.5C 697.655,896.746 684.822,901.412 669.5,899.5C 635.182,897.459 600.849,896.959 566.5,898C 562.594,897.027 560.427,894.527 560,890.5C 559.667,878.167 559.333,865.833 559,853.5C 546.674,846.84 538.341,836.84 534,823.5C 526.216,788.133 518.216,752.799 510,717.5C 501.311,686.764 490.644,656.764 478,627.5C 468.774,683.146 437.607,720.312 384.5,739C 340.383,751.754 295.383,756.42 249.5,753C 237.172,752.234 224.839,751.567 212.5,751C 201.922,750.421 195.756,744.921 194,734.5C 182.122,739.855 170.289,745.355 158.5,751C 152.731,752.368 148.231,750.534 145,745.5C 140.169,739.174 135.835,732.508 132,725.5C 131.183,722.036 131.517,718.702 133,715.5C 149.142,699.026 165.642,682.859 182.5,667C 187.543,662.288 192.877,657.955 198.5,654C 203.15,652.091 207.816,652.091 212.5,654C 217.1,656.215 221.266,659.048 225,662.5C 230.012,658.718 235.678,656.718 242,656.5C 259.498,660.249 276.998,664.082 294.5,668C 350.171,674.644 387.005,651.478 405,598.5C 410.259,584.074 414.259,569.407 417,554.5C 411.248,551.04 405.415,547.707 399.5,544.5C 396.591,547.577 393.258,550.077 389.5,552C 382.476,553.002 375.476,554.169 368.5,555.5C 361.846,555.172 356.18,552.672 351.5,548C 342.319,547.501 335.819,543.001 332,534.5C 330.96,528.217 330.127,521.884 329.5,515.5C 326.528,513.694 323.695,511.694 321,509.5C 320.936,505.097 320.769,500.764 320.5,496.5C 312.252,500.586 309.585,498.253 312.5,489.5C 310.5,489.5 308.5,489.5 306.5,489.5C 310.497,451.346 316.163,413.512 323.5,376C 333.563,370.554 344.23,368.387 355.5,369.5C 357.929,362.806 361.262,356.64 365.5,351C 362.881,351.083 360.214,351.25 357.5,351.5 Z M 748.5,80.5 C 765.465,80.4706 781.799,83.6373 797.5,90C 816.33,98.1952 834.163,108.028 851,119.5C 837.67,168.479 824.17,217.479 810.5,266.5C 787.955,256.228 765.622,245.395 743.5,234C 733.305,229.451 722.638,226.785 711.5,226C 706.98,221.26 701.98,217.26 696.5,214C 697.461,209.449 698.628,204.949 700,200.5C 703.529,199.869 707.029,199.036 710.5,198C 713.658,194.528 714.158,190.694 712,186.5C 709.655,184.598 707.489,182.598 705.5,180.5C 713.333,151.833 721.167,123.167 729,94.5C 732.319,85.3405 738.819,80.6738 748.5,80.5 Z M 705.5,159.5 C 706.124,159.917 706.457,160.584 706.5,161.5C 704.667,168.167 702.833,174.833 701,181.5C 697.565,180.534 694.065,180.534 690.5,181.5C 691.558,171.358 696.558,164.025 705.5,159.5 Z M 694.5,184.5 C 697.91,184.457 701.243,184.957 704.5,186C 710.596,188.992 710.93,192.325 705.5,196C 701.445,196.232 697.445,196.732 693.5,197.5C 693.167,197.833 692.833,198.167 692.5,198.5C 693.491,199.665 694.491,200.832 695.5,202C 694.207,206.132 693.04,210.299 692,214.5C 690.644,213.62 689.144,213.286 687.5,213.5C 687.663,211.143 687.497,208.81 687,206.5C 684.746,202.993 682.746,199.327 681,195.5C 679.621,191.525 680.787,188.691 684.5,187C 687.952,186.115 691.286,185.282 694.5,184.5 Z M 505.5,188.5 C 514.833,189.833 524.167,189.833 533.5,188.5C 536.152,204.211 535.985,219.877 533,235.5C 531.136,241.56 528.47,247.226 525,252.5C 519.667,258.5 514.333,264.5 509,270.5C 506.896,274.922 506.063,279.588 506.5,284.5C 499.159,284.666 491.826,284.5 484.5,284C 485.264,281.931 485.764,279.764 486,277.5C 486.333,267.833 486.667,258.167 487,248.5C 489.841,250.504 493.007,251.004 496.5,250C 497.833,249 497.833,248 496.5,247C 494.5,246.667 492.5,246.333 490.5,246C 489.458,244.082 488.292,242.249 487,240.5C 486.584,230.485 486.917,220.485 488,210.5C 491.302,206.429 494.135,206.762 496.5,211.5C 497.72,211.113 498.387,210.28 498.5,209C 497.095,204.628 494.095,202.795 489.5,203.5C 490.555,194.612 495.555,190.112 504.5,190C 505.056,189.617 505.389,189.117 505.5,188.5 Z M 481.5,288.5 C 495.884,288.089 510.217,288.589 524.5,290C 529.625,291.632 531.958,294.965 531.5,300C 510.2,302.355 488.866,302.855 467.5,301.5C 467.081,298.675 468.081,296.509 470.5,295C 475.146,294.349 478.813,292.182 481.5,288.5 Z M 380.5,351.5 C 395.523,352.919 410.523,354.586 425.5,356.5C 410.178,371.137 400.012,388.803 395,409.5C 392.859,417.064 391.192,424.731 390,432.5C 387.333,453.167 384.667,473.833 382,494.5C 380.538,506.293 374.038,513.126 362.5,515C 356.201,516.418 349.868,516.252 343.5,514.5C 343.703,506.429 344.537,498.429 346,490.5C 349.025,486.976 351.858,483.309 354.5,479.5C 353.652,477.717 352.319,477.217 350.5,478C 348.951,479.214 347.785,480.714 347,482.5C 350.961,456.693 355.961,431.026 362,405.5C 363.404,403.606 364.57,401.606 365.5,399.5C 365.182,398.353 364.516,397.519 363.5,397C 366.892,380.992 372.559,365.825 380.5,351.5 Z M 340.5,373.5 C 345.248,373.275 349.915,373.775 354.5,375C 354,375.5 353.5,376 353,376.5C 342.527,374.407 335.194,378.407 331,388.5C 324.33,421.017 318.497,453.684 313.5,486.5C 312.325,486.719 311.325,486.386 310.5,485.5C 315.406,449.827 320.406,414.161 325.5,378.5C 330.529,376.666 335.529,374.999 340.5,373.5 Z M 344.5,379.5 C 346.857,379.337 349.19,379.503 351.5,380C 342.401,416.989 334.735,454.489 328.5,492.5C 324.466,492.505 320.466,492.838 316.5,493.5C 321.675,460.784 327.175,428.118 333,395.5C 334.666,388.463 338.499,383.13 344.5,379.5 Z M 475.5,390.5 C 486.628,391.089 489.795,396.422 485,406.5C 478.838,411.134 473.838,410.134 470,403.5C 468.571,397.7 470.404,393.367 475.5,390.5 Z M 405.5,391.5 C 410.518,392.504 415.518,393.671 420.5,395C 416.818,395.222 413.152,394.889 409.5,394C 407.563,393.878 406.23,393.045 405.5,391.5 Z M 403.5,397.5 C 412.552,398.509 421.552,399.842 430.5,401.5C 425.581,442.52 420.414,483.52 415,524.5C 403.755,518.794 392.588,512.961 381.5,507C 383.589,503.068 385.089,498.901 386,494.5C 388.842,470.427 392.176,446.427 396,422.5C 397.802,413.929 400.302,405.595 403.5,397.5 Z M 422.5,500.5 C 426.19,466.307 430.857,432.307 436.5,398.5C 437.736,399.246 439.07,399.579 440.5,399.5C 434.805,433.347 428.805,467.014 422.5,500.5 Z M 462.5,426.5 C 471.22,426.626 479.887,427.293 488.5,428.5C 483.728,469.119 479.394,509.786 475.5,550.5C 466.833,550.5 458.167,550.5 449.5,550.5C 453.687,509.152 458.02,467.819 462.5,426.5 Z M 367.5,517.5 C 368.873,517.343 370.207,517.51 371.5,518C 377.784,523.592 383.118,529.926 387.5,537C 385.798,541.126 382.798,542.46 378.5,541C 375.396,537.425 373.729,533.258 373.5,528.5C 372.167,528.5 370.833,528.5 369.5,528.5C 369.69,534.378 371.69,539.545 375.5,544C 381.62,546.761 386.787,545.594 391,540.5C 392.434,540.93 393.601,541.764 394.5,543C 383.836,552.764 373.67,551.93 364,540.5C 361.924,537.107 360.758,533.44 360.5,529.5C 359.167,529.5 357.833,529.5 356.5,529.5C 357.343,539.173 362.01,546.34 370.5,551C 361.845,551.588 355.345,548.088 351,540.5C 349.059,536.952 347.393,533.286 346,529.5C 345,528.167 344,528.167 343,529.5C 341.562,526.179 341.395,522.846 342.5,519.5C 343.333,519.167 344.167,518.833 345,518.5C 352.735,520.087 360.235,519.754 367.5,517.5 Z M 393.5,518.5 C 400.266,521.382 406.933,524.549 413.5,528C 414.793,528.49 416.127,528.657 417.5,528.5C 417.852,531.073 417.352,533.406 416,535.5C 408.316,529.97 400.816,524.303 393.5,518.5 Z M 529.5,550.5 C 532.815,555.796 535.648,561.462 538,567.5C 572.221,650.49 603.887,734.49 633,819.5C 634.15,821.754 634.484,824.087 634,826.5C 616.54,777.79 598.874,729.124 581,680.5C 564.091,637.023 546.924,593.689 529.5,550.5 Z M 665.5,851.5 C 665.167,852.5 664.5,853.167 663.5,853.5C 659.762,854.079 656.096,854.079 652.5,853.5C 656.717,852.088 661.05,851.421 665.5,851.5 Z M 669.5,852.5 C 678.115,853.372 686.115,856.038 693.5,860.5C 693,860.833 692.5,861.167 692,861.5C 684.822,857.052 676.988,854.719 668.5,854.5C 668.833,853.833 669.167,853.167 669.5,852.5 Z"/></g>
<g><path style="opacity:0.806" fill="#e8e8e8" d="M 673.5,80.5 C 681.547,82.0113 689.547,83.8446 697.5,86C 700.251,86.516 702.584,87.6827 704.5,89.5C 704,90.8805 703,91.5472 701.5,91.5C 692.544,88.8444 683.544,86.3444 674.5,84C 673.663,82.9887 673.33,81.8221 673.5,80.5 Z"/></g>
<g><path style="opacity:0.804" fill="#e8e8e8" d="M 574.5,88.5 C 575.833,88.5 577.167,88.5 578.5,88.5C 578.335,91.8499 578.502,95.1832 579,98.5C 581.461,97.7819 583.961,97.1153 586.5,96.5C 587.429,97.6888 587.762,99.0222 587.5,100.5C 584.834,100.933 582.168,101.433 579.5,102C 578.712,105.076 578.212,108.242 578,111.5C 576.989,112.337 575.822,112.67 574.5,112.5C 574.82,109.102 574.487,105.768 573.5,102.5C 570.579,103.407 567.579,103.74 564.5,103.5C 564.281,102.325 564.614,101.325 565.5,100.5C 568.167,99.8333 570.833,99.1667 573.5,98.5C 574.487,95.2317 574.82,91.8984 574.5,88.5 Z"/></g>
<g><path style="opacity:0.818" fill="#e8e8e8" d="M 742.5,102.5 C 773.556,104.305 803.056,111.972 831,125.5C 831.483,126.448 831.649,127.448 831.5,128.5C 817.654,123.384 803.654,118.551 789.5,114C 774.392,110.037 759.058,107.371 743.5,106C 741.273,105.296 740.94,104.129 742.5,102.5 Z"/></g>
<g><path style="opacity:0.808" fill="#e9e9e9" d="M 516.5,117.5 C 518.903,117.393 520.736,118.393 522,120.5C 523.46,117.79 525.46,117.124 528,118.5C 527.41,120.814 526.243,122.981 524.5,125C 525.62,126.737 526.62,128.571 527.5,130.5C 526.537,132.49 525.204,132.823 523.5,131.5C 522.469,130.3 521.635,128.966 521,127.5C 519.323,128.516 517.657,129.516 516,130.5C 514.941,130.37 514.108,129.87 513.5,129C 515.167,127.167 516.833,125.333 518.5,123.5C 516.914,121.827 516.247,119.827 516.5,117.5 Z"/></g>
<g><path style="opacity:0.829" fill="#e8e8e8" d="M 737.5,127.5 C 766.205,130.013 793.538,137.513 819.5,150C 821.037,151.11 821.703,152.61 821.5,154.5C 807.61,148.258 793.277,143.091 778.5,139C 764.706,135.312 750.706,132.812 736.5,131.5C 736.433,130.041 736.766,128.708 737.5,127.5 Z"/></g>
<g><path style="opacity:0.79" fill="#e8e8e8" d="M 595.5,145.5 C 597.346,145.222 598.68,145.889 599.5,147.5C 598.696,148.941 598.029,150.441 597.5,152C 599.894,153.551 601.227,155.718 601.5,158.5C 599.278,158.822 597.444,158.155 596,156.5C 595.125,159.215 593.292,160.548 590.5,160.5C 590.318,158.409 590.652,156.409 591.5,154.5C 590.167,152.833 588.833,151.167 587.5,149.5C 589.359,146.981 591.359,146.981 593.5,149.5C 594.705,148.423 595.372,147.09 595.5,145.5 Z"/></g>
<g><path style="opacity:0.813" fill="#e8e8e8" d="M 344.5,154.5 C 355.641,154.138 362.141,159.472 364,170.5C 365.645,185.234 361.145,197.734 350.5,208C 346.547,210.81 342.213,212.81 337.5,214C 327.897,232.223 312.73,241.057 292,240.5C 280.836,239.475 269.669,238.475 258.5,237.5C 245.574,236.859 234.741,241.192 226,250.5C 222.155,256.273 220.655,262.607 221.5,269.5C 220.178,269.67 219.011,269.337 218,268.5C 216.956,261.676 218.289,255.343 222,249.5C 231.021,238.108 242.854,232.774 257.5,233.5C 271.791,235.33 286.124,236.163 300.5,236C 314.615,234.626 324.948,227.793 331.5,215.5C 321.483,212.462 317.316,205.795 319,195.5C 324.095,188.864 330.095,187.864 337,192.5C 337.667,193.833 338.333,195.167 339,196.5C 339.271,200.954 339.437,205.287 339.5,209.5C 358.452,199.142 364.285,183.809 357,163.5C 353.161,159.164 348.328,157.497 342.5,158.5C 342.527,156.801 343.194,155.467 344.5,154.5 Z M 326.5,193.5 C 332.844,192.675 335.844,195.508 335.5,202C 335.238,204.547 334.738,207.047 334,209.5C 329.641,209.909 325.975,208.243 323,204.5C 321.663,199.916 322.829,196.249 326.5,193.5 Z"/></g>
<g><path style="opacity:0.8" fill="#e8e8e8" d="M 729.5,154.5 C 750.01,154.044 769.676,157.878 788.5,166C 794.247,168.605 799.581,171.771 804.5,175.5C 804.113,176.72 803.28,177.387 802,177.5C 779.651,164.33 755.484,157.996 729.5,158.5C 729.5,157.167 729.5,155.833 729.5,154.5 Z"/></g>
<g><path style="opacity:0.844" fill="#e8e8e8" d="M 510.5,196.5 C 515.874,196.523 521.207,197.023 526.5,198C 527.337,199.011 527.67,200.178 527.5,201.5C 521.599,200.586 515.765,200.586 510,201.5C 510.416,210.993 511.25,220.493 512.5,230C 510.992,236.425 506.992,238.758 500.5,237C 498.503,235.847 498.17,234.347 499.5,232.5C 503.977,234.665 506.977,233.498 508.5,229C 506.866,218.894 506.366,208.728 507,198.5C 508.302,197.915 509.469,197.249 510.5,196.5 Z"/></g>
<g><path style="opacity:0.787" fill="#eaeaea" d="M 518.5,205.5 C 523.264,205.089 525.764,207.089 526,211.5C 525.586,211.957 525.086,212.291 524.5,212.5C 523.167,211.5 521.833,210.5 520.5,209.5C 518.929,211.415 516.929,212.415 514.5,212.5C 514.187,209.163 515.52,206.829 518.5,205.5 Z"/></g>
<g><path style="opacity:0.79" fill="#e8e8e8" d="M 681.5,261.5 C 683.346,261.222 684.68,261.889 685.5,263.5C 684.179,267.784 683.012,272.117 682,276.5C 680.627,280.132 679.127,280.299 677.5,277C 678.916,271.836 680.249,266.669 681.5,261.5 Z"/></g>
<g><path style="opacity:0.834" fill="#e8e8e8" d="M 644.5,262.5 C 648.319,262.605 651.986,263.438 655.5,265C 656.337,266.011 656.67,267.178 656.5,268.5C 651.566,268.468 647.233,266.968 643.5,264C 644.056,263.617 644.389,263.117 644.5,262.5 Z"/></g>
<g><path style="opacity:0.774" fill="#e8e8e8" d="M 828.5,270.5 C 830.346,270.222 831.68,270.889 832.5,272.5C 827.611,285.611 818.277,290.945 804.5,288.5C 804.222,286.654 804.889,285.32 806.5,284.5C 817.988,286.42 825.321,281.753 828.5,270.5 Z"/></g>
<g><path style="opacity:0.8" fill="#e9e9e9" d="M 593.5,298.5 C 598.049,298.461 602.049,299.794 605.5,302.5C 605,303.881 604,304.547 602.5,304.5C 599.633,303.226 596.633,302.393 593.5,302C 592.316,300.855 592.316,299.688 593.5,298.5 Z"/></g>
<g><path style="opacity:0.788" fill="#e8e8e8" d="M 629.5,315.5 C 628.167,315.5 626.833,315.5 625.5,315.5C 626.589,310.65 628.255,305.983 630.5,301.5C 631.689,300.571 633.022,300.238 634.5,300.5C 633.12,305.594 631.453,310.594 629.5,315.5 Z"/></g>
<g><path style="opacity:0.913" fill="#dde0e9" d="M 444.5,356.5 C 443.167,355.833 441.833,355.167 440.5,354.5C 453.473,355.447 466.14,353.947 478.5,350C 481.756,348.884 484.422,347.051 486.5,344.5C 490.689,340.45 493.023,335.45 493.5,329.5C 494.986,325.863 496.986,322.53 499.5,319.5C 500.912,317.02 502.578,314.687 504.5,312.5C 496.5,311.167 488.5,311.167 480.5,312.5C 481.702,314.78 482.702,317.114 483.5,319.5C 484.653,321.807 485.82,324.14 487,326.5C 488.399,327.227 489.899,327.727 491.5,328C 489.618,328.198 487.952,328.698 486.5,329.5C 477.795,336.353 467.795,339.853 456.5,340C 439.443,341.395 422.776,339.562 406.5,334.5C 406.833,333.833 407.167,333.167 407.5,332.5C 428.949,339.148 450.615,339.982 472.5,335C 476.929,333.76 480.596,331.426 483.5,328C 480.114,321.737 477.447,315.237 475.5,308.5C 487.328,308.023 498.995,308.523 510.5,310C 506.052,316.782 501.219,323.282 496,329.5C 494.087,342.748 486.587,350.915 473.5,354C 463.939,356.023 454.273,356.857 444.5,356.5 Z"/></g>
<g><path style="opacity:1" fill="#075afb" d="M 499.5,319.5 C 494.167,319.5 488.833,319.5 483.5,319.5C 482.702,317.114 481.702,314.78 480.5,312.5C 488.5,311.167 496.5,311.167 504.5,312.5C 502.578,314.687 500.912,317.02 499.5,319.5 Z"/></g>
<g><path style="opacity:0.754" fill="#e8e8e8" d="M 539.5,317.5 C 544.479,318.157 548.813,320.157 552.5,323.5C 552.113,324.72 551.28,325.387 550,325.5C 546.634,323.73 543.134,322.397 539.5,321.5C 539.5,320.167 539.5,318.833 539.5,317.5 Z"/></g>
<g><path style="opacity:1" fill="#2471f7" d="M 483.5,319.5 C 488.833,319.5 494.167,319.5 499.5,319.5C 496.986,322.53 494.986,325.863 493.5,329.5C 491.167,329.5 488.833,329.5 486.5,329.5C 487.952,328.698 489.618,328.198 491.5,328C 489.899,327.727 488.399,327.227 487,326.5C 485.82,324.14 484.653,321.807 483.5,319.5 Z"/></g>
<g><path style="opacity:0.923" fill="#094ffd" d="M 381.5,328.5 C 385.025,329.21 388.358,330.21 391.5,331.5C 392.29,332.794 393.29,333.961 394.5,335C 389.177,335.499 383.844,335.666 378.5,335.5C 350.34,326.8 321.84,325.467 293,331.5C 291.392,331.974 291.226,332.641 292.5,333.5C 316.944,327.915 341.278,328.249 365.5,334.5C 334.5,335.833 303.5,335.833 272.5,334.5C 290.42,321.855 310.42,317.021 332.5,320C 349.073,321.615 365.406,324.449 381.5,328.5 Z"/></g>
<g><path style="opacity:0.797" fill="#e8e8e8" d="M 681.5,325.5 C 684.076,325.722 684.91,327.055 684,329.5C 664.818,350.177 641.318,363.177 613.5,368.5C 613.33,367.178 613.663,366.011 614.5,365C 641.004,358.612 663.337,345.446 681.5,325.5 Z"/></g>
<g><path style="opacity:0.99" fill="#0355fc" d="M 486.5,329.5 C 488.833,329.5 491.167,329.5 493.5,329.5C 493.023,335.45 490.689,340.45 486.5,344.5C 412.303,344.559 337.969,344.225 263.5,343.5C 266.167,340.167 269.167,337.167 272.5,334.5C 303.5,335.833 334.5,335.833 365.5,334.5C 373.205,336.124 380.705,338.457 388,341.5C 390,340.833 390,340.167 388,339.5C 384.692,338.239 381.525,336.906 378.5,335.5C 383.844,335.666 389.177,335.499 394.5,335C 393.29,333.961 392.29,332.794 391.5,331.5C 396.532,332.341 401.532,333.341 406.5,334.5C 422.776,339.562 439.443,341.395 456.5,340C 467.795,339.853 477.795,336.353 486.5,329.5 Z"/></g>
<g><path style="opacity:1" fill="#055bfb" d="M 263.5,343.5 C 337.969,344.225 412.303,344.559 486.5,344.5C 484.422,347.051 481.756,348.884 478.5,350C 466.14,353.947 453.473,355.447 440.5,354.5C 419.431,353.511 398.431,351.678 377.5,349C 370.753,348.208 364.086,348.374 357.5,349.5C 349.343,349.932 341.343,351.265 333.5,353.5C 307.661,353.831 281.995,353.498 256.5,352.5C 257.694,348.637 260.027,345.637 263.5,343.5 Z"/></g>
<g><path style="opacity:0.784" fill="#e9e9e9" d="M 511.5,343.5 C 513.346,343.222 514.68,343.889 515.5,345.5C 512.772,348.899 510.439,352.566 508.5,356.5C 506.796,357.823 505.463,357.49 504.5,355.5C 506.34,351.144 508.674,347.144 511.5,343.5 Z"/></g>
<g><path style="opacity:0.739" fill="#e7e7e7" d="M 452.5,361.5 C 455.959,362.436 458.793,364.436 461,367.5C 461.925,370.134 461.091,371.301 458.5,371C 455.02,368.703 453.02,365.536 452.5,361.5 Z"/></g>
<g><path style="opacity:0.838" fill="#e8e8e8" d="M 730.5,364.5 C 732.903,364.393 734.736,365.393 736,367.5C 744.051,379.517 746.051,392.517 742,406.5C 739.576,411.686 736.409,416.353 732.5,420.5C 731.911,441.192 721.911,455.025 702.5,462C 698.863,462.717 695.196,463.217 691.5,463.5C 682.016,462.35 672.516,461.35 663,460.5C 644.38,461.953 634.214,471.953 632.5,490.5C 630.052,490.915 628.719,489.915 628.5,487.5C 632.593,466.901 645.093,456.901 666,457.5C 677.166,458.376 688.333,458.876 699.5,459C 717.497,454.205 726.497,442.705 726.5,424.5C 716.128,429.534 707.961,427.201 702,417.5C 700.347,404.211 706.181,399.044 719.5,402C 725.825,404.799 729.659,409.632 731,416.5C 743.976,399.306 743.476,382.472 729.5,366C 730.056,365.617 730.389,365.117 730.5,364.5 Z M 712.5,404.5 C 721.712,405.865 726.379,411.032 726.5,420C 715.95,425.869 708.617,423.203 704.5,412C 705.754,407.91 708.421,405.41 712.5,404.5 Z"/></g>
<g><path style="opacity:0.816" fill="#e9e9e9" d="M 391.5,365.5 C 393.411,365.574 394.578,366.574 395,368.5C 396.043,371.757 396.543,375.09 396.5,378.5C 395.178,378.67 394.011,378.337 393,377.5C 391.477,373.481 390.977,369.481 391.5,365.5 Z"/></g>
<g><path style="opacity:1" fill="#114ffd" d="M 500.5,409.5 C 496.298,409.817 492.298,409.483 488.5,408.5C 493.784,397.075 490.451,389.742 478.5,386.5C 466.45,389.93 463.117,397.263 468.5,408.5C 463.36,409.488 458.026,409.821 452.5,409.5C 452.5,407.5 452.5,405.5 452.5,403.5C 452.653,394.79 453.32,386.123 454.5,377.5C 470.484,380.449 486.484,383.116 502.5,385.5C 501.833,393.5 501.167,401.5 500.5,409.5 Z M 475.5,390.5 C 470.404,393.367 468.571,397.7 470,403.5C 473.838,410.134 478.838,411.134 485,406.5C 489.795,396.422 486.628,391.089 475.5,390.5 Z"/></g>
<g><path style="opacity:1" fill="#124ffd" d="M 448.5,411.5 C 446.718,410.28 444.718,409.614 442.5,409.5C 442.844,405.947 443.511,402.447 444.5,399C 444.355,398.228 444.022,397.561 443.5,397C 431.411,394.478 419.411,391.644 407.5,388.5C 407.373,384.296 409.373,381.963 413.5,381.5C 426.175,379.431 438.842,378.431 451.5,378.5C 450.226,389.455 449.226,400.455 448.5,411.5 Z"/></g>
<g><path style="opacity:0.892" fill="#dee1e9" d="M 488.5,408.5 C 481.803,413.765 475.137,413.765 468.5,408.5C 463.117,397.263 466.45,389.93 478.5,386.5C 490.451,389.742 493.784,397.075 488.5,408.5 Z M 475.5,390.5 C 470.404,393.367 468.571,397.7 470,403.5C 473.838,410.134 478.838,411.134 485,406.5C 489.795,396.422 486.628,391.089 475.5,390.5 Z"/></g>
<g><path style="opacity:0.723" fill="#dde1e9" d="M 381.5,326.5 C 381.5,327.167 381.5,327.833 381.5,328.5C 365.406,324.449 349.073,321.615 332.5,320C 310.42,317.021 290.42,321.855 272.5,334.5C 269.167,337.167 266.167,340.167 263.5,343.5C 260.027,345.637 257.694,348.637 256.5,352.5C 254.336,354.822 252.669,357.489 251.5,360.5C 250.883,360.611 250.383,360.944 250,361.5C 249.498,364.513 248.998,367.513 248.5,370.5C 246.857,375.982 245.523,381.649 244.5,387.5C 243.115,392.517 241.782,397.684 240.5,403C 240.833,403.833 241.167,404.667 241.5,405.5C 250.45,402.846 259.45,400.346 268.5,398C 269.999,395.672 271.666,393.505 273.5,391.5C 279.894,385.101 286.561,379.101 293.5,373.5C 298.523,370.133 303.523,366.8 308.5,363.5C 316.618,359.356 324.951,356.022 333.5,353.5C 341.343,351.265 349.343,349.932 357.5,349.5C 357.5,350.167 357.5,350.833 357.5,351.5C 321.236,355.458 291.903,371.625 269.5,400C 259.785,402.345 250.118,404.845 240.5,407.5C 239.009,406.652 238.342,405.319 238.5,403.5C 241.509,389.799 244.675,376.132 248,362.5C 263.138,331.833 287.972,316.833 322.5,317.5C 342.519,318.448 362.186,321.448 381.5,326.5 Z"/></g>
<g><path style="opacity:1" fill="#0d73f7" d="M 248.5,370.5 C 248.5,371.5 248.5,372.5 248.5,373.5C 263.709,373.459 278.709,373.459 293.5,373.5C 286.561,379.101 279.894,385.101 273.5,391.5C 263.833,391.5 254.167,391.5 244.5,391.5C 244.5,390.167 244.5,388.833 244.5,387.5C 245.523,381.649 246.857,375.982 248.5,370.5 Z"/></g>
<g><path style="opacity:1" fill="#0568f9" d="M 251.5,360.5 C 252.159,363.408 252.993,363.742 254,361.5C 256,362.833 258,362.833 260,361.5C 260.667,364.167 261.333,364.167 262,361.5C 264,362.833 266,362.833 268,361.5C 268.667,364.167 269.333,364.167 270,361.5C 272,362.833 274,362.833 276,361.5C 276.667,364.167 277.333,364.167 278,361.5C 280,362.833 282,362.833 284,361.5C 284.667,364.167 285.333,364.167 286,361.5C 288,362.833 290,362.833 292,361.5C 292.667,364.167 293.333,364.167 294,361.5C 296,362.833 298,362.833 300,361.5C 300.667,364.167 301.333,364.167 302,361.5C 304,362.833 306,362.833 308,361.5C 308.464,362.094 308.631,362.761 308.5,363.5C 303.523,366.8 298.523,370.133 293.5,373.5C 278.709,373.459 263.709,373.459 248.5,373.5C 248.5,372.5 248.5,371.5 248.5,370.5C 248.998,367.513 249.498,364.513 250,361.5C 250.383,360.944 250.883,360.611 251.5,360.5 Z"/></g>
<g><path style="opacity:1" fill="#0561fa" d="M 256.5,352.5 C 281.995,353.498 307.661,353.831 333.5,353.5C 324.951,356.022 316.618,359.356 308.5,363.5C 308.631,362.761 308.464,362.094 308,361.5C 306,362.833 304,362.833 302,361.5C 301.333,364.167 300.667,364.167 300,361.5C 298,362.833 296,362.833 294,361.5C 293.333,364.167 292.667,364.167 292,361.5C 290,362.833 288,362.833 286,361.5C 285.333,364.167 284.667,364.167 284,361.5C 282,362.833 280,362.833 278,361.5C 277.333,364.167 276.667,364.167 276,361.5C 274,362.833 272,362.833 270,361.5C 269.333,364.167 268.667,364.167 268,361.5C 266,362.833 264,362.833 262,361.5C 261.333,364.167 260.667,364.167 260,361.5C 258,362.833 256,362.833 254,361.5C 252.993,363.742 252.159,363.408 251.5,360.5C 252.669,357.489 254.336,354.822 256.5,352.5 Z"/></g>
<g><path style="opacity:1" fill="#167df5" d="M 244.5,387.5 C 244.5,388.833 244.5,390.167 244.5,391.5C 254.167,391.5 263.833,391.5 273.5,391.5C 271.666,393.505 269.999,395.672 268.5,398C 259.45,400.346 250.45,402.846 241.5,405.5C 241.167,404.667 240.833,403.833 240.5,403C 241.782,397.684 243.115,392.517 244.5,387.5 Z"/></g>
<g><path style="opacity:0.74" fill="#e8e8e8" d="M 522.5,392.5 C 526.127,393.28 529.46,394.78 532.5,397C 533.93,398.88 533.596,400.38 531.5,401.5C 527.996,399.582 524.663,397.416 521.5,395C 522.252,394.329 522.586,393.496 522.5,392.5 Z"/></g>
<g><path style="opacity:0.816" fill="#e8e8e8" d="M 151.5,394.5 C 152.5,394.5 153.5,394.5 154.5,394.5C 154.33,395.822 154.663,396.989 155.5,398C 161.67,401.919 168.003,405.586 174.5,409C 182.909,411.248 191.409,412.748 200,413.5C 199.954,420.363 198.62,427.03 196,433.5C 193.069,440.126 190.236,446.792 187.5,453.5C 171.778,452.981 157.444,448.148 144.5,439C 140.727,435.282 137.56,431.116 135,426.5C 134.333,424.833 134.333,423.167 135,421.5C 140.511,412.472 146.011,403.472 151.5,394.5 Z M 152.5,400.5 C 165.056,411.437 179.723,416.77 196.5,416.5C 193.593,428.055 189.593,439.222 184.5,450C 168.016,448.507 153.849,442.007 142,430.5C 140.953,428.238 139.787,426.071 138.5,424C 142.979,416.029 147.646,408.195 152.5,400.5 Z"/></g>
<g><path style="opacity:1" fill="#0f56fc" d="M 452.5,403.5 C 452.5,405.5 452.5,407.5 452.5,409.5C 458.026,409.821 463.36,409.488 468.5,408.5C 475.137,413.765 481.803,413.765 488.5,408.5C 492.298,409.483 496.298,409.817 500.5,409.5C 499.179,416.095 498.512,422.761 498.5,429.5C 496.5,429.5 494.5,429.5 492.5,429.5C 492.768,427.901 492.434,426.568 491.5,425.5C 482.172,424.278 472.672,423.278 463,422.5C 459.078,423.102 457.578,425.435 458.5,429.5C 455.833,429.5 453.167,429.5 450.5,429.5C 450.419,420.628 451.085,411.961 452.5,403.5 Z"/></g>
<g><path style="opacity:0.8" fill="#e8e8e8" d="M 404.5,412.5 C 405.5,412.5 406.5,412.5 407.5,412.5C 404.717,433.196 401.717,453.863 398.5,474.5C 397.167,474.5 395.833,474.5 394.5,474.5C 397.407,453.728 400.74,433.062 404.5,412.5 Z"/></g>
<g><path style="opacity:0.822" fill="#e9e9e9" d="M 160.5,413.5 C 162.346,413.222 163.68,413.889 164.5,415.5C 159.997,421.679 156.331,428.345 153.5,435.5C 151.796,436.823 150.463,436.49 149.5,434.5C 152.4,427.031 156.066,420.031 160.5,413.5 Z"/></g>
<g><path style="opacity:0.809" fill="#e8e8e8" d="M 417.5,413.5 C 419.89,413.685 420.89,415.018 420.5,417.5C 416,445.833 411.5,474.167 407,502.5C 405.926,507.154 404.426,507.487 402.5,503.5C 407.505,473.454 412.505,443.454 417.5,413.5 Z"/></g>
<g><path style="opacity:0.885" fill="#e0e2e9" d="M 491.5,425.5 C 490.794,438.855 489.794,452.189 488.5,465.5C 486.408,479.314 484.742,493.314 483.5,507.5C 481.117,522.616 479.45,537.949 478.5,553.5C 467.5,553.5 456.5,553.5 445.5,553.5C 446.386,546.189 447.053,538.856 447.5,531.5C 449.539,510.818 451.872,490.152 454.5,469.5C 455.927,456.177 457.26,442.844 458.5,429.5C 457.578,425.435 459.078,423.102 463,422.5C 472.672,423.278 482.172,424.278 491.5,425.5 Z M 462.5,426.5 C 458.02,467.819 453.687,509.152 449.5,550.5C 458.167,550.5 466.833,550.5 475.5,550.5C 479.394,509.786 483.728,469.119 488.5,428.5C 479.887,427.293 471.22,426.626 462.5,426.5 Z"/></g>
<g><path style="opacity:0.757" fill="#e9e9e9" d="M 513.5,423.5 C 516.076,423.722 516.91,425.055 516,427.5C 514.515,431.824 511.682,434.491 507.5,435.5C 508.954,431.259 510.954,427.259 513.5,423.5 Z"/></g>
<g><path style="opacity:0.783" fill="#e8e8e8" d="M 165.5,427.5 C 167.103,427.312 168.437,427.812 169.5,429C 167.014,432.137 165.181,435.637 164,439.5C 162.989,440.337 161.822,440.67 160.5,440.5C 160.408,435.437 162.074,431.103 165.5,427.5 Z"/></g>
<g><path style="opacity:0.792" fill="#e7e7e7" d="M 373.5,432.5 C 374.496,432.414 375.329,432.748 376,433.5C 378.474,437.771 380.641,442.104 382.5,446.5C 377.02,444.805 373.686,440.972 372.5,435C 372.743,434.098 373.077,433.265 373.5,432.5 Z"/></g>
<g><path style="opacity:0.813" fill="#e8e8e8" d="M 476.5,440.5 C 478.346,440.222 479.68,440.889 480.5,442.5C 475.191,473.636 471.358,504.969 469,536.5C 468.902,538.619 468.069,540.286 466.5,541.5C 465.119,541 464.453,540 464.5,538.5C 467.351,505.69 471.351,473.023 476.5,440.5 Z"/></g>
<g><path style="opacity:1" fill="#1761fa" d="M 442.5,409.5 C 444.718,409.614 446.718,410.28 448.5,411.5C 446.833,430.831 445.167,450.165 443.5,469.5C 439.351,470.08 435.684,469.414 432.5,467.5C 435.187,448.045 438.52,428.712 442.5,409.5 Z"/></g>
<g><path style="opacity:1" fill="#1261fa" d="M 450.5,429.5 C 453.167,429.5 455.833,429.5 458.5,429.5C 457.26,442.844 455.927,456.177 454.5,469.5C 448.498,470.196 446.165,467.529 447.5,461.5C 447.863,450.63 448.863,439.964 450.5,429.5 Z"/></g>
<g><path style="opacity:1" fill="#0f61fa" d="M 491.5,425.5 C 492.434,426.568 492.768,427.901 492.5,429.5C 494.5,429.5 496.5,429.5 498.5,429.5C 496.573,442.433 495.24,455.433 494.5,468.5C 492.621,469.341 490.621,469.675 488.5,469.5C 488.5,468.167 488.5,466.833 488.5,465.5C 489.794,452.189 490.794,438.855 491.5,425.5 Z"/></g>
<g><path style="opacity:0.799" fill="#e8e8e8" d="M 532.5,458.5 C 536.642,460.12 540.142,462.786 543,466.5C 543.301,469.091 542.134,469.925 539.5,469C 535.652,466.353 533.319,462.853 532.5,458.5 Z"/></g>
<g><path style="opacity:0.879" fill="#dfe2e8" d="M 248.5,466.5 C 249.458,466.953 250.292,467.619 251,468.5C 259.288,484.742 267.288,501.075 275,517.5C 276.041,522.44 275.374,527.106 273,531.5C 270.131,534.704 266.965,537.537 263.5,540C 236.618,554.553 207.951,562.553 177.5,564C 174.208,546.38 170.208,528.88 165.5,511.5C 165.833,510.833 166.167,510.167 166.5,509.5C 171.971,506.843 177.638,504.676 183.5,503C 198.519,500.245 213.186,496.245 227.5,491C 232.633,488.346 237.133,484.846 241,480.5C 243.782,475.934 246.282,471.267 248.5,466.5 Z"/></g>
<g><path style="opacity:0.814" fill="#e8e8e8" d="M 367.5,469.5 C 371.733,471.062 374.067,474.062 374.5,478.5C 369.37,477.399 367.037,474.399 367.5,469.5 Z"/></g>
<g><path style="opacity:0.814" fill="#e8e8e8" d="M 508.5,488.5 C 510.346,488.222 511.68,488.889 512.5,490.5C 510.183,494.146 507.516,497.48 504.5,500.5C 503.28,500.113 502.613,499.28 502.5,498C 504.34,494.675 506.34,491.508 508.5,488.5 Z"/></g>
<g><path style="opacity:1" fill="#116ef8" d="M 432.5,467.5 C 435.684,469.414 439.351,470.08 443.5,469.5C 442.434,482.495 441.434,495.495 440.5,508.5C 439.596,509.209 439.263,510.209 439.5,511.5C 434.833,511.5 430.167,511.5 425.5,511.5C 425.5,510.167 425.5,508.833 425.5,507.5C 427.205,493.932 429.538,480.598 432.5,467.5 Z"/></g>
<g><path style="opacity:1" fill="#1971f7" d="M 447.5,461.5 C 446.165,467.529 448.498,470.196 454.5,469.5C 451.872,490.152 449.539,510.818 447.5,531.5C 445.833,531.5 444.167,531.5 442.5,531.5C 442.5,527.833 442.5,524.167 442.5,520.5C 443.682,500.653 445.348,480.986 447.5,461.5 Z"/></g>
<g><path style="opacity:1" fill="#126ef8" d="M 488.5,465.5 C 488.5,466.833 488.5,468.167 488.5,469.5C 490.621,469.675 492.621,469.341 494.5,468.5C 492.948,481.793 491.614,495.126 490.5,508.5C 489.596,509.209 489.263,510.209 489.5,511.5C 487.5,511.5 485.5,511.5 483.5,511.5C 483.5,510.167 483.5,508.833 483.5,507.5C 484.742,493.314 486.408,479.314 488.5,465.5 Z"/></g>
<g><path style="opacity:1" fill="#0e5afb" d="M 264.5,503.5 C 252.686,504.832 240.519,505.499 228,505.5C 215.662,505.5 203.495,505.167 191.5,504.5C 205.745,502.153 219.411,497.987 232.5,492C 240.537,487.631 246.037,481.131 249,472.5C 254.689,482.545 259.856,492.879 264.5,503.5 Z"/></g>
<g><path style="opacity:0.82" fill="#e8e8e8" d="M 88.5,499.5 C 90.7834,499.608 92.7834,500.441 94.5,502C 100.333,507.833 106.167,513.667 112,519.5C 114,522.167 114,524.833 112,527.5C 106.958,531.94 102.625,536.94 99,542.5C 94.9199,550.329 90.5865,557.996 86,565.5C 85.1074,566.081 84.1074,566.415 83,566.5C 77.2801,563.795 71.7801,560.628 66.5,557C 60.5183,551.213 59.0183,544.379 62,536.5C 67.9821,522.034 76.8155,509.701 88.5,499.5 Z M 89.5,504.5 C 96.7835,510.115 103.45,516.448 109.5,523.5C 105.145,528.354 100.978,533.354 97,538.5C 92.418,546.666 87.5847,554.666 82.5,562.5C 76.8941,559.448 71.7274,555.781 67,551.5C 64.123,547.024 63.7896,542.357 66,537.5C 71.4004,524.673 79.2337,513.673 89.5,504.5 Z"/></g>
<g><path style="opacity:1" fill="#3371f8" d="M 325.5,495.5 C 326.5,495.5 327.5,495.5 328.5,495.5C 328.335,499.182 328.501,502.848 329,506.5C 330.301,508.402 330.968,510.402 331,512.5C 328.667,510.833 326.333,509.167 324,507.5C 324.162,503.499 324.662,499.499 325.5,495.5 Z"/></g>
<g><path style="opacity:1" fill="#0661fa" d="M 264.5,503.5 C 266.674,506.515 268.341,509.849 269.5,513.5C 236.85,515.493 203.85,516.16 170.5,515.5C 169.374,514.142 169.374,512.808 170.5,511.5C 177.197,508.157 184.197,505.823 191.5,504.5C 203.495,505.167 215.662,505.5 228,505.5C 240.519,505.499 252.686,504.832 264.5,503.5 Z"/></g>
<g><path style="opacity:1" fill="#0369f8" d="M 269.5,513.5 C 274.564,524.731 271.231,532.731 259.5,537.5C 246.087,537.814 232.754,537.481 219.5,536.5C 218.528,530.808 217.361,525.141 216,519.5C 215.29,518.027 214.124,517.36 212.5,517.5C 213.705,524.194 215.039,530.86 216.5,537.5C 210.833,537.5 205.167,537.5 199.5,537.5C 198.952,535.468 197.619,534.468 195.5,534.5C 195.5,535.5 195.5,536.5 195.5,537.5C 193.5,537.5 191.5,537.5 189.5,537.5C 188.205,531.224 186.538,525.058 184.5,519C 183.4,518.568 182.733,519.068 182.5,520.5C 183.394,525.535 184.394,530.535 185.5,535.5C 182.663,537.402 179.329,538.069 175.5,537.5C 173.833,530.167 172.167,522.833 170.5,515.5C 203.85,516.16 236.85,515.493 269.5,513.5 Z"/></g>
<g><path style="opacity:0.772" fill="#e8e8e8" d="M 86.5,516.5 C 92.0387,519.033 96.372,523.033 99.5,528.5C 98.9653,530.101 97.9653,530.601 96.5,530C 93,526.5 89.5,523 86,519.5C 85.5304,518.423 85.6971,517.423 86.5,516.5 Z"/></g>
<g><path style="opacity:1" fill="#0659fb" d="M 535.5,521.5 C 521.005,521.073 506.672,521.073 492.5,521.5C 492.5,520.833 492.5,520.167 492.5,519.5C 492.5,517.833 492.5,516.167 492.5,514.5C 503.57,514.684 514.57,515.684 525.5,517.5C 528.867,517.355 532.201,517.022 535.5,516.5C 535.5,518.167 535.5,519.833 535.5,521.5 Z"/></g>
<g><path style="opacity:1" fill="#cdd7ea" d="M 219.5,536.5 C 220.262,538.956 220.929,541.456 221.5,544C 221.491,545.404 220.991,546.57 220,547.5C 218.224,544.403 217.057,541.07 216.5,537.5C 215.039,530.86 213.705,524.194 212.5,517.5C 214.124,517.36 215.29,518.027 216,519.5C 217.361,525.141 218.528,530.808 219.5,536.5 Z"/></g>
<g><path style="opacity:1" fill="#d2dbe9" d="M 189.5,537.5 C 190.393,542.523 191.393,547.523 192.5,552.5C 190.876,552.64 189.71,551.973 189,550.5C 187.957,545.336 186.79,540.336 185.5,535.5C 184.394,530.535 183.394,525.535 182.5,520.5C 182.733,519.068 183.4,518.568 184.5,519C 186.538,525.058 188.205,531.224 189.5,537.5 Z"/></g>
<g><path style="opacity:1" fill="#016af8" d="M 535.5,521.5 C 535.675,523.621 535.341,525.621 534.5,527.5C 520.615,527.597 506.782,527.93 493,528.5C 492.503,526.19 492.337,523.857 492.5,521.5C 506.672,521.073 521.005,521.073 535.5,521.5 Z"/></g>
<g><path style="opacity:1" fill="#207af6" d="M 492.5,519.5 C 492.5,520.167 492.5,520.833 492.5,521.5C 492.337,523.857 492.503,526.19 493,528.5C 506.782,527.93 520.615,527.597 534.5,527.5C 534.5,529.167 534.5,530.833 534.5,532.5C 520.153,532.092 505.82,531.425 491.5,530.5C 491.185,526.629 491.518,522.962 492.5,519.5 Z"/></g>
<g><path style="opacity:0.756" fill="#e9e9e9" d="M 86.5,529.5 C 91.1089,529.995 93.4422,532.661 93.5,537.5C 89.3356,536.541 87.0023,533.874 86.5,529.5 Z"/></g>
<g><path style="opacity:1" fill="#147af6" d="M 425.5,507.5 C 425.5,508.833 425.5,510.167 425.5,511.5C 430.167,511.5 434.833,511.5 439.5,511.5C 439.263,510.209 439.596,509.209 440.5,508.5C 439.143,525.522 437.476,542.522 435.5,559.5C 420.957,551.798 406.29,544.298 391.5,537C 387.32,529.161 381.82,522.328 375,516.5C 374.978,513.53 376.478,512.364 379.5,513C 389.833,520.667 400.167,528.333 410.5,536C 413.286,538.06 416.286,539.56 419.5,540.5C 421.061,529.29 423.061,518.29 425.5,507.5 Z M 393.5,518.5 C 400.816,524.303 408.316,529.97 416,535.5C 417.352,533.406 417.852,531.073 417.5,528.5C 416.127,528.657 414.793,528.49 413.5,528C 406.933,524.549 400.266,521.382 393.5,518.5 Z"/></g>
<g><path style="opacity:1" fill="#d4dde9" d="M 199.5,537.5 C 199.641,541.093 200.308,544.593 201.5,548C 201.491,549.404 200.991,550.57 200,551.5C 198.379,546.805 196.879,542.139 195.5,537.5C 195.5,536.5 195.5,535.5 195.5,534.5C 197.619,534.468 198.952,535.468 199.5,537.5 Z"/></g>
<g><path style="opacity:1" fill="#0d78f6" d="M 185.5,535.5 C 186.79,540.336 187.957,545.336 189,550.5C 189.71,551.973 190.876,552.64 192.5,552.5C 191.393,547.523 190.393,542.523 189.5,537.5C 191.5,537.5 193.5,537.5 195.5,537.5C 196.879,542.139 198.379,546.805 200,551.5C 200.991,550.57 201.491,549.404 201.5,548C 200.308,544.593 199.641,541.093 199.5,537.5C 205.167,537.5 210.833,537.5 216.5,537.5C 217.057,541.07 218.224,544.403 220,547.5C 220.991,546.57 221.491,545.404 221.5,544C 220.929,541.456 220.262,538.956 219.5,536.5C 232.754,537.481 246.087,537.814 259.5,537.5C 234.565,550.897 207.898,558.897 179.5,561.5C 178.806,553.392 177.473,545.392 175.5,537.5C 179.329,538.069 182.663,537.402 185.5,535.5 Z"/></g>
<g><path style="opacity:1" fill="#2181f5" d="M 483.5,507.5 C 483.5,508.833 483.5,510.167 483.5,511.5C 485.5,511.5 487.5,511.5 489.5,511.5C 489.263,510.209 489.596,509.209 490.5,508.5C 488.687,525.15 487.02,541.817 485.5,558.5C 470.157,558.967 454.823,559.634 439.5,560.5C 439.63,546.954 440.63,533.621 442.5,520.5C 442.5,524.167 442.5,527.833 442.5,531.5C 444.167,531.5 445.833,531.5 447.5,531.5C 447.053,538.856 446.386,546.189 445.5,553.5C 456.5,553.5 467.5,553.5 478.5,553.5C 479.45,537.949 481.117,522.616 483.5,507.5 Z"/></g>
<g><path style="opacity:1" fill="#295bfb" d="M 175.5,681.5 C 174.833,681.5 174.167,681.5 173.5,681.5C 181.666,671.492 191.166,663.158 202,656.5C 202.833,656.667 203.667,656.833 204.5,657C 194.961,665.377 185.294,673.544 175.5,681.5 Z"/></g>
<g><path style="opacity:1" fill="#0954fc" d="M 209.5,682.5 C 200.043,683.079 190.876,683.412 182,683.5C 180.97,683.164 180.47,682.497 180.5,681.5C 187.295,675.875 193.962,670.042 200.5,664C 203.765,661.451 207.265,659.284 211,657.5C 215.193,659.166 218.693,661.666 221.5,665C 216.904,670.429 212.904,676.262 209.5,682.5 Z"/></g>
<g><path style="opacity:1" fill="#0561fa" d="M 180.5,681.5 C 180.47,682.497 180.97,683.164 182,683.5C 190.876,683.412 200.043,683.079 209.5,682.5C 204.969,690.896 200.969,699.563 197.5,708.5C 182.324,708.829 167.324,708.496 152.5,707.5C 161.506,698.494 170.84,689.827 180.5,681.5 Z"/></g>
<g><path style="opacity:1" fill="#086cf8" d="M 152.5,707.5 C 167.324,708.496 182.324,708.829 197.5,708.5C 195.237,715.617 194.071,722.95 194,730.5C 188.409,735.41 184.409,734.41 182,727.5C 180.197,722.318 179.364,716.984 179.5,711.5C 177.821,711.285 176.821,711.952 176.5,713.5C 167.255,714.343 157.921,714.343 148.5,713.5C 148.845,710.802 150.178,708.802 152.5,707.5 Z"/></g>
<g><path style="opacity:1" fill="#2776f7" d="M 173.5,681.5 C 174.167,681.5 174.833,681.5 175.5,681.5C 166.531,690.3 157.365,698.967 148,707.5C 139.31,722.608 141.476,736.108 154.5,748C 152.837,748.265 151.337,747.765 150,746.5C 145.333,739.833 140.667,733.167 136,726.5C 135.333,723.5 135.333,720.5 136,717.5C 148.013,704.987 160.513,692.987 173.5,681.5 Z"/></g>
<g><path style="opacity:1" fill="#0b73f7" d="M 148.5,713.5 C 157.921,714.343 167.255,714.343 176.5,713.5C 176.336,716.187 176.503,718.854 177,721.5C 178.518,726.398 180.184,731.065 182,735.5C 179,737.167 176,738.833 173,740.5C 170.8,738.385 168.8,736.051 167,733.5C 166.012,730.576 165.346,727.576 165,724.5C 164.586,724.043 164.086,723.709 163.5,723.5C 161.803,730.707 163.803,736.707 169.5,741.5C 165.993,743.754 162.327,745.754 158.5,747.5C 148.496,739.838 144.33,729.838 146,717.5C 146.2,715.68 147.034,714.347 148.5,713.5 Z"/></g>
<g><path style="opacity:0.836" fill="#e8e8e8" d="M 404.5,747.5 C 405.5,747.5 406.5,747.5 407.5,747.5C 407.714,749.144 407.38,750.644 406.5,752C 386.997,765.665 365.33,771.498 341.5,769.5C 341.085,767.052 342.085,765.719 344.5,765.5C 366.962,767.343 386.962,761.343 404.5,747.5 Z"/></g>
<g><path style="opacity:0.789" fill="#e8e8e8" d="M 389.5,771.5 C 393.652,771.631 394.318,773.131 391.5,776C 385.777,779.033 379.777,781.199 373.5,782.5C 373.33,781.178 373.663,780.011 374.5,779C 379.735,776.768 384.735,774.268 389.5,771.5 Z"/></g>
<g><path style="opacity:1" fill="#0a60fa" d="M 629.5,863.5 C 607.673,864.497 585.673,864.831 563.5,864.5C 562.945,860.988 563.612,857.988 565.5,855.5C 589.061,860.492 611.728,857.658 633.5,847C 635.677,845.485 637.844,843.985 640,842.5C 643.141,843.743 646.308,844.91 649.5,846C 644.365,852.462 638.032,857.462 630.5,861C 629.748,861.671 629.414,862.504 629.5,863.5 Z"/></g>
<g><path style="opacity:1" fill="#0c5ffa" d="M 665.5,851.5 C 661.05,851.421 656.717,852.088 652.5,853.5C 656.096,854.079 659.762,854.079 663.5,853.5C 661.967,857.704 659.3,861.037 655.5,863.5C 649.284,862.402 643.117,862.402 637,863.5C 636.536,862.906 636.369,862.239 636.5,861.5C 642.911,857.926 648.244,853.092 652.5,847C 657.495,847 662.495,847.5 667.5,848.5C 667.058,849.739 666.391,850.739 665.5,851.5 Z"/></g>
<g><path style="opacity:0.967" fill="#055efa" d="M 705.5,861.5 C 705.631,862.239 705.464,862.906 705,863.5C 691,862.167 677,862.167 663,863.5C 662.536,862.906 662.369,862.239 662.5,861.5C 664.273,858.94 666.273,856.607 668.5,854.5C 676.988,854.719 684.822,857.052 692,861.5C 692.5,861.167 693,860.833 693.5,860.5C 686.115,856.038 678.115,853.372 669.5,852.5C 669.801,849.641 671.467,848.307 674.5,848.5C 687.157,847.671 697.491,852.005 705.5,861.5 Z"/></g>
<g><path style="opacity:1" fill="#92b9ee" d="M 565.5,855.5 C 563.612,857.988 562.945,860.988 563.5,864.5C 563.5,867.5 563.5,870.5 563.5,873.5C 563.5,874.833 563.5,876.167 563.5,877.5C 563.5,879.167 563.5,880.833 563.5,882.5C 562.506,873.348 562.173,864.015 562.5,854.5C 563.791,854.263 564.791,854.596 565.5,855.5 Z"/></g>
<g><path style="opacity:1" fill="#036bf8" d="M 636.5,861.5 C 636.369,862.239 636.536,862.906 637,863.5C 643.117,862.402 649.284,862.402 655.5,863.5C 654.859,864.482 654.193,865.482 653.5,866.5C 654,866.833 654.5,867.167 655,867.5C 657.652,865.68 660.152,863.68 662.5,861.5C 662.369,862.239 662.536,862.906 663,863.5C 677,862.167 691,862.167 705,863.5C 705.464,862.906 705.631,862.239 705.5,861.5C 706.005,866.438 704.005,870.438 699.5,873.5C 654.167,873.5 608.833,873.5 563.5,873.5C 563.5,870.5 563.5,867.5 563.5,864.5C 585.673,864.831 607.673,864.497 629.5,863.5C 631.873,863.862 634.207,863.195 636.5,861.5 Z"/></g>
<g><path style="opacity:1" fill="#0173f7" d="M 563.5,873.5 C 608.833,873.5 654.167,873.5 699.5,873.5C 697.853,875.326 695.853,876.66 693.5,877.5C 650.167,877.5 606.833,877.5 563.5,877.5C 563.5,876.167 563.5,874.833 563.5,873.5 Z"/></g>
<g><path style="opacity:1" fill="#0d7bf5" d="M 563.5,877.5 C 606.833,877.5 650.167,877.5 693.5,877.5C 690.613,879.083 687.613,880.583 684.5,882C 680.833,882.333 677.167,882.667 673.5,883C 636.829,883.637 600.162,883.471 563.5,882.5C 563.5,880.833 563.5,879.167 563.5,877.5 Z"/></g>
<g><path style="opacity:1" fill="#1374f7" d="M 691.5,892.5 C 649.167,892.5 606.833,892.5 564.5,892.5C 563.631,890.283 563.298,887.95 563.5,885.5C 600.829,886.465 638.162,886.632 675.5,886C 689.279,885.423 700.113,879.59 708,868.5C 709.001,880.995 703.501,888.995 691.5,892.5 Z"/></g>
<g><path style="opacity:1" fill="#2480f5" d="M 564.5,892.5 C 606.833,892.5 649.167,892.5 691.5,892.5C 683.541,895.306 675.208,896.639 666.5,896.5C 633.196,894.844 599.862,894.011 566.5,894C 565.584,893.722 564.918,893.222 564.5,892.5 Z"/></g>
</svg>
