<?xml version="1.0" encoding="UTF-8"?>
<!DOCTYPE svg PUBLIC "-//W3C//DTD SVG 1.1//EN" "http://www.w3.org/Graphics/SVG/1.1/DTD/svg11.dtd">
<svg xmlns="http://www.w3.org/2000/svg" version="1.1" width="960px" height="960px" style="shape-rendering:geometricPrecision; text-rendering:geometricPrecision; image-rendering:optimizeQuality; fill-rule:evenodd; clip-rule:evenodd" xmlns:xlink="http://www.w3.org/1999/xlink">
<g><path style="opacity:0.908" fill="#e1e3e8" d="M 663.5,83.5 C 679.556,82.7164 688.389,90.3831 690,106.5C 700.526,101.42 709.859,103.087 718,111.5C 726.252,129.057 721.085,140.89 702.5,147C 697.868,147.828 693.202,148.328 688.5,148.5C 659.364,147.297 630.364,144.797 601.5,141C 593.061,136.279 589.894,129.113 592,119.5C 597.728,101.154 610.061,90.8205 629,88.5C 637.615,88.5979 643.782,92.5979 647.5,100.5C 650.839,92.7172 656.172,87.0505 663.5,83.5 Z"/></g>
<g><path style="opacity:1" fill="#0b54fc" d="M 684.5,103.5 C 673.448,104.143 662.781,103.476 652.5,101.5C 657.131,87.9024 665.797,84.4024 678.5,91C 682.6,94.2371 684.6,98.4037 684.5,103.5 Z"/></g>
<g><path style="opacity:1" fill="#0659fb" d="M 644.5,108.5 C 630.343,109.496 616.01,109.829 601.5,109.5C 610.22,95.9577 622.22,91.1244 637.5,95C 641.561,98.6231 643.895,103.123 644.5,108.5 Z"/></g>
<g><path style="opacity:1" fill="#035ffa" d="M 652.5,101.5 C 662.781,103.476 673.448,104.143 684.5,103.5C 685.114,108.032 684.114,112.032 681.5,115.5C 653.833,115.5 626.167,115.5 598.5,115.5C 598.992,113.181 599.992,111.181 601.5,109.5C 616.01,109.829 630.343,109.496 644.5,108.5C 645.302,109.952 645.802,111.618 646,113.5C 647.049,114.517 648.216,114.684 649.5,114C 650.03,109.628 651.03,105.462 652.5,101.5 Z"/></g>
<g><path style="opacity:1" fill="#0767f9" d="M 717.5,123.5 C 677.167,123.5 636.833,123.5 596.5,123.5C 596.5,122.5 596.5,121.5 596.5,120.5C 596.402,118.447 597.069,116.78 598.5,115.5C 626.167,115.5 653.833,115.5 681.5,115.5C 681.418,117.252 682.251,118.252 684,118.5C 691.632,106.424 701.299,104.424 713,112.5C 716.161,115.489 717.661,119.156 717.5,123.5 Z"/></g>
<g><path style="opacity:1" fill="#026ef8" d="M 596.5,120.5 C 596.5,121.5 596.5,122.5 596.5,123.5C 636.833,123.5 677.167,123.5 717.5,123.5C 717.795,125.735 717.461,127.735 716.5,129.5C 676.5,129.5 636.5,129.5 596.5,129.5C 595.225,126.396 595.225,123.396 596.5,120.5 Z"/></g>
<g><path style="opacity:1" fill="#0273f7" d="M 596.5,129.5 C 636.5,129.5 676.5,129.5 716.5,129.5C 716.346,131.97 715.346,133.97 713.5,135.5C 676.167,135.5 638.833,135.5 601.5,135.5C 598.923,134.394 597.256,132.394 596.5,129.5 Z"/></g>
<g><path style="opacity:1" fill="#147cf5" d="M 601.5,135.5 C 638.833,135.5 676.167,135.5 713.5,135.5C 710.148,139.515 705.815,142.015 700.5,143C 695,143.167 689.5,143.333 684,143.5C 659.47,142.434 634.97,140.934 610.5,139C 606.958,138.879 603.958,137.713 601.5,135.5 Z"/></g>
<g><path style="opacity:0.849" fill="#0150fd" d="M 228.5,217.5 C 226.833,217.5 225.167,217.5 223.5,217.5C 223.742,208.387 220.409,200.887 213.5,195C 202.279,190.497 194.445,193.997 190,205.5C 188.412,211.438 187.079,217.438 186,223.5C 183.887,225.884 182.387,225.384 181.5,222C 181.248,212.829 177.581,205.495 170.5,200C 161.12,197.553 152.953,199.72 146,206.5C 145.243,208.315 144.41,209.981 143.5,211.5C 142.027,210.929 140.36,210.929 138.5,211.5C 142.738,199.773 151.238,193.773 164,193.5C 173.738,194.372 180.404,199.372 184,208.5C 188.504,190.336 199.337,184.503 216.5,191C 224.698,197.898 228.698,206.731 228.5,217.5 Z"/></g>
<g><path style="opacity:0.845" fill="#e8e8e8" d="M 710.5,206.5 C 711.833,206.5 713.167,206.5 714.5,206.5C 714.384,222.538 713.551,238.538 712,254.5C 709.463,255.507 707.963,254.507 707.5,251.5C 708.533,236.495 709.533,221.495 710.5,206.5 Z"/></g>
<g><path style="opacity:0.971" fill="#e7e7e8" d="M 488.5,213.5 C 493.358,213.854 496.192,216.521 497,221.5C 500.324,233.619 502.157,245.952 502.5,258.5C 519.444,260.929 530.944,270.262 537,286.5C 552.947,334.575 555.781,383.408 545.5,433C 545.833,433.5 546.167,434 546.5,434.5C 569.772,427.599 593.438,422.433 617.5,419C 614.456,404.927 620.122,398.427 634.5,399.5C 635.515,384.843 636.015,370.176 636,355.5C 632.34,356.902 629.006,356.235 626,353.5C 622.663,347.469 621.496,341.135 622.5,334.5C 608.4,335.65 604.9,329.984 612,317.5C 613.771,316.696 615.271,315.529 616.5,314C 614.667,312.167 612.833,310.333 611,308.5C 609.817,304.726 610.651,301.559 613.5,299C 620.755,297.775 628.089,297.108 635.5,297C 641.517,293.994 647.851,291.994 654.5,291C 665.559,290.437 676.559,290.77 687.5,292C 688.833,291.333 690.167,290.667 691.5,290C 696.167,285 700.833,280 705.5,275C 712.873,273.378 716.039,276.212 715,283.5C 719.351,280.944 723.851,280.444 728.5,282C 730.537,285.516 730.203,289.016 727.5,292.5C 737.692,293.899 740.858,299.233 737,308.5C 732.168,313.332 726.335,316.165 719.5,317C 714.177,317.499 708.844,317.666 703.5,317.5C 703.005,336.451 700.505,355.118 696,373.5C 694.657,377.51 692.491,381.01 689.5,384C 679.292,385.375 674.292,391.208 674.5,401.5C 680.598,401.679 686.598,402.512 692.5,404C 693.667,405.167 694.833,406.333 696,407.5C 696.499,412.489 696.666,417.489 696.5,422.5C 739.575,429.869 773.742,415.869 799,380.5C 804.417,370.997 808.75,360.997 812,350.5C 813.972,333.562 815.306,316.562 816,299.5C 816.835,292.498 819.335,286.165 823.5,280.5C 818.509,276.342 814.009,271.675 810,266.5C 802.654,252.835 806.487,248.669 821.5,254C 824.603,255.439 827.436,257.273 830,259.5C 828.348,249.417 826.848,239.251 825.5,229C 825.048,224.35 826.548,220.517 830,217.5C 833.91,219.407 837.244,222.073 840,225.5C 840.821,215.751 844.821,214.085 852,220.5C 853.852,223.711 855.519,227.044 857,230.5C 857.187,226.961 858.354,223.795 860.5,221C 864.274,219.817 867.441,220.651 870,223.5C 875.035,238.592 875.868,253.925 872.5,269.5C 889.257,273.445 897.091,284.112 896,301.5C 898.828,358.003 878.994,404.836 836.5,442C 800.482,472.516 758.815,489.682 711.5,493.5C 707.623,519.691 705.456,546.025 705,572.5C 776.347,596.727 847.847,620.56 919.5,644C 920.833,645.333 920.833,646.667 919.5,648C 720.579,701.141 521.579,753.974 322.5,806.5C 321.228,806.43 320.062,806.097 319,805.5C 317.14,783.491 315.307,761.491 313.5,739.5C 224.859,752.687 136.193,765.687 47.5,778.5C 47.3433,777.127 47.51,775.793 48,774.5C 121.5,721 195,667.5 268.5,614C 272.048,612.911 275.715,612.411 279.5,612.5C 287.491,613.099 295.491,613.433 303.5,613.5C 298.46,601.082 293.127,588.749 287.5,576.5C 289.833,574.5 292.167,572.5 294.5,570.5C 269.156,559.327 247.156,543.493 228.5,523C 219.946,526.939 211.279,530.939 202.5,535C 180.15,542.277 157.817,542.277 135.5,535C 122.492,528.992 112.325,519.826 105,507.5C 103.587,504.339 101.92,501.339 100,498.5C 98.9207,495.937 98.4207,493.271 98.5,490.5C 99.552,490.351 100.552,490.517 101.5,491C 119.97,508.928 140.303,511.262 162.5,498C 171.265,488.973 178.432,478.806 184,467.5C 186.312,464.354 188.812,461.354 191.5,458.5C 188.26,448.058 187.093,437.391 188,426.5C 190.189,421.288 193.023,416.455 196.5,412C 187.434,403.681 179.934,394.181 174,383.5C 172.157,373.684 175.99,369.517 185.5,371C 182.66,365.986 180.66,360.653 179.5,355C 181.327,347.945 185.327,346.612 191.5,351C 195.422,354.251 198.588,358.084 201,362.5C 200.495,357.218 200.495,351.884 201,346.5C 205.78,343.528 209.78,344.528 213,349.5C 216.538,356.782 218.871,364.449 220,372.5C 222.283,366.992 224.95,361.658 228,356.5C 230.76,354.297 233.76,353.964 237,355.5C 239.463,366.505 237.963,377.005 232.5,387C 236.906,387.119 240.406,388.953 243,392.5C 245.307,405.397 249.307,417.731 255,429.5C 257.128,432.63 259.628,435.463 262.5,438C 284.53,439.909 300.364,431.076 310,411.5C 314.643,397.217 320.643,383.55 328,370.5C 334.848,360.313 344.015,353.146 355.5,349C 367.462,345.938 378.462,347.938 388.5,355C 389.701,355.903 390.535,357.069 391,358.5C 409.718,345.169 426.385,347.502 441,365.5C 447.96,377.638 450.294,390.638 448,404.5C 447.004,409.492 445.171,414.159 442.5,418.5C 453.388,427.615 458.221,439.281 457,453.5C 464.804,443.788 470.137,432.788 473,420.5C 477.438,394.14 477.105,367.806 472,341.5C 466.715,327.932 461.715,314.265 457,300.5C 456.057,294.515 455.224,288.515 454.5,282.5C 454.486,280.407 455.152,278.574 456.5,277C 452.12,275.822 447.787,274.488 443.5,273C 434.76,269.621 434.76,265.621 443.5,261C 448.151,260.101 452.818,259.268 457.5,258.5C 453.031,251.262 450.031,243.429 448.5,235C 449.438,229.395 452.438,228.062 457.5,231C 461.333,234.833 465.167,238.667 469,242.5C 468.93,238.504 468.43,234.504 467.5,230.5C 468.041,227.792 468.708,225.126 469.5,222.5C 471.996,220.047 474.662,219.88 477.5,222C 480.106,223.938 481.939,226.438 483,229.5C 483.774,225.853 484.441,222.186 485,218.5C 485.697,216.416 486.864,214.749 488.5,213.5 Z M 489.5,219.5 C 491.41,220.975 492.576,222.975 493,225.5C 495.397,236.288 497.23,247.122 498.5,258C 492.116,258.742 485.949,260.242 480,262.5C 480.008,258.763 479.008,255.097 477,251.5C 475.025,244.6 473.525,237.6 472.5,230.5C 472.587,225.157 474.087,224.491 477,228.5C 480.959,236.378 483.293,244.711 484,253.5C 485.356,254.38 486.856,254.714 488.5,254.5C 488.23,242.796 488.564,231.129 489.5,219.5 Z M 845.5,222.5 C 846.496,222.414 847.329,222.748 848,223.5C 849.711,225.956 851.044,228.623 852,231.5C 853.596,240.796 854.93,250.129 856,259.5C 857.333,260.833 858.667,260.833 860,259.5C 860.408,249.815 861.075,240.148 862,230.5C 862.36,228.392 863.027,226.392 864,224.5C 864.667,225.167 865.333,225.833 866,226.5C 869.946,239.978 870.613,253.645 868,267.5C 860.228,268.402 852.395,269.236 844.5,270C 838.251,270.967 832.751,273.467 828,277.5C 821.426,271.596 815.592,265.096 810.5,258C 813.056,256.282 815.722,256.282 818.5,258C 823.936,261.102 829.102,264.602 834,268.5C 834.772,268.355 835.439,268.022 836,267.5C 834.735,256.162 833.069,244.829 831,233.5C 830.333,230.167 830.333,226.833 831,223.5C 835.448,226.728 838.115,231.061 839,236.5C 840.578,244.79 841.911,253.123 843,261.5C 846.017,262.717 847.517,261.55 847.5,258C 845.865,246.224 845.198,234.391 845.5,222.5 Z M 609.5,227.5 C 609.335,230.518 609.502,233.518 610,236.5C 611.925,237.88 613.759,239.38 615.5,241C 612.833,241.667 610.167,242.333 607.5,243C 606.663,244.011 606.33,245.178 606.5,246.5C 605.442,247.6 604.608,248.934 604,250.5C 603.623,249.058 602.79,248.058 601.5,247.5C 601.489,245.983 600.823,244.816 599.5,244C 591.254,244.277 590.087,242.11 596,237.5C 596.301,234.493 596.135,231.493 595.5,228.5C 597.928,229.212 600.261,230.212 602.5,231.5C 604.85,230.139 607.184,228.806 609.5,227.5 Z M 453.5,234.5 C 463.502,242.354 471.502,251.854 477.5,263C 471.02,265.405 465.02,268.572 459.5,272.5C 453.888,271.352 448.555,269.519 443.5,267C 444.623,265.956 445.956,265.29 447.5,265C 455.493,264.5 463.493,264.334 471.5,264.5C 471.5,263.167 471.5,261.833 471.5,260.5C 467.66,260.579 464.493,259.246 462,256.5C 457.881,249.641 455.048,242.308 453.5,234.5 Z M 666.5,315.5 C 677.556,315.926 688.556,316.926 699.5,318.5C 698.031,331.148 696.531,343.814 695,356.5C 694.082,364.587 691.582,372.087 687.5,379C 675.868,382.117 670.201,389.617 670.5,401.5C 664.178,400.986 657.845,400.653 651.5,400.5C 652.223,392.496 653.056,384.496 654,376.5C 658.261,379.481 662.095,379.148 665.5,375.5C 665.291,374.914 664.957,374.414 664.5,374C 659.59,374.657 656.09,372.824 654,368.5C 653.705,357.398 652.538,346.398 650.5,335.5C 654.869,333.576 659.369,332.91 664,333.5C 664.865,331.112 664.032,329.612 661.5,329C 657.171,327.849 653.338,328.682 650,331.5C 649.419,320.424 654.586,316.258 665.5,319C 666.337,317.989 666.67,316.822 666.5,315.5 Z M 205.5,349.5 C 208.621,352.138 210.788,355.472 212,359.5C 215.041,369.048 216.208,378.714 215.5,388.5C 216.978,388.762 218.311,388.429 219.5,387.5C 222.939,377.291 227.439,367.624 233,358.5C 234.416,362.415 234.416,366.415 233,370.5C 231.526,376.756 229.359,382.756 226.5,388.5C 222.024,391.24 217.357,393.74 212.5,396C 208.018,399.647 203.685,403.481 199.5,407.5C 191.374,400.209 184.54,391.876 179,382.5C 178.333,380.5 178.333,378.5 179,376.5C 180.049,375.483 181.216,375.316 182.5,376C 187.5,381.667 192.5,387.333 197.5,393C 199.473,393.538 200.473,392.704 200.5,390.5C 194.362,379.222 189.028,367.555 184.5,355.5C 184.833,354.833 185.167,354.167 185.5,353.5C 188.77,355.267 191.603,357.6 194,360.5C 198.28,366.725 201.78,373.391 204.5,380.5C 205.689,381.429 207.022,381.762 208.5,381.5C 207.313,370.854 206.313,360.187 205.5,349.5 Z M 370.5,407.5 C 380.983,405.085 389.316,399.418 395.5,390.5C 406.396,397.92 412.563,408.254 414,421.5C 414.667,426.167 414.667,430.833 414,435.5C 411.257,447.22 408.424,458.887 405.5,470.5C 405.141,474.553 406.141,478.22 408.5,481.5C 410.371,482.767 412.204,482.767 414,481.5C 413.681,491.794 408.681,498.794 399,502.5C 391.976,501.583 386.809,498.083 383.5,492C 385.062,484.368 384.562,476.868 382,469.5C 374.424,454.003 365.591,439.337 355.5,425.5C 359.793,420.291 362.127,414.291 362.5,407.5C 365.167,407.5 367.833,407.5 370.5,407.5 Z M 419.5,481.5 C 421.144,481.286 422.644,481.62 424,482.5C 425.372,490.125 425.706,497.792 425,505.5C 420.475,520.675 410.975,524.842 396.5,518C 389.167,513.333 383.167,507.333 378.5,500C 379.025,499.308 379.692,498.808 380.5,498.5C 396.991,511.675 409.491,508.675 418,489.5C 419.079,486.937 419.579,484.271 419.5,481.5 Z M 578.5,492.5 C 579.649,492.791 580.316,493.624 580.5,495C 578.862,505.696 576.528,516.196 573.5,526.5C 565.346,524.132 557.346,521.466 549.5,518.5C 551.64,515.193 553.974,512.026 556.5,509C 563.451,502.867 570.785,497.367 578.5,492.5 Z M 547.5,523.5 C 556.175,526.225 564.842,529.058 573.5,532C 570.392,543.702 567.726,555.535 565.5,567.5C 550.282,556.496 544.282,541.829 547.5,523.5 Z M 299.5,573.5 C 302.947,573.814 306.28,574.648 309.5,576C 305.496,576.144 301.496,575.811 297.5,575C 298.416,574.722 299.082,574.222 299.5,573.5 Z M 882.5,637.5 C 823.127,628.327 763.794,618.827 704.5,609C 703.523,598.556 703.69,588.056 705,577.5C 764.285,597.428 823.452,617.428 882.5,637.5 Z M 618.5,595.5 C 620.655,595.372 622.655,595.872 624.5,597C 619.574,602.298 613.574,605.798 606.5,607.5C 605.548,609.045 605.215,610.712 605.5,612.5C 618.575,611.215 630.908,613.715 642.5,620C 641.234,620.309 640.067,620.809 639,621.5C 628.822,620.109 618.656,618.443 608.5,616.5C 608.286,618.144 608.62,619.644 609.5,621C 619.726,624.766 629.06,629.933 637.5,636.5C 634.703,637.567 631.869,637.567 629,636.5C 620.121,634.261 611.288,631.928 602.5,629.5C 602.286,631.144 602.62,632.644 603.5,634C 613.36,638.76 622.36,644.76 630.5,652C 613.344,651.919 599.011,645.586 587.5,633C 593.473,623.884 597.973,614.051 601,603.5C 606.59,600.119 612.423,597.452 618.5,595.5 Z M 271.5,617.5 C 310.179,619.139 348.679,621.139 387,623.5C 389.026,625.097 391.359,626.097 394,626.5C 397.712,625.149 401.546,624.482 405.5,624.5C 445.178,626.852 484.845,629.352 524.5,632C 536.128,640.816 549.128,646.316 563.5,648.5C 571.564,647.466 578.231,643.799 583.5,637.5C 591.498,643.987 600.165,649.487 609.5,654C 617.046,656.844 624.713,657.51 632.5,656C 635.902,654.214 636.402,651.714 634,648.5C 631.463,645.628 628.63,643.128 625.5,641C 629.445,641.543 633.445,641.877 637.5,642C 641.118,641.871 642.785,640.038 642.5,636.5C 724.59,639.714 806.59,643.547 888.5,648C 612.144,689.622 335.811,730.955 59.5,772C 130.349,720.637 201.015,669.137 271.5,617.5 Z"/></g>
<g><path style="opacity:0.881" fill="#0063fa" d="M 143.5,211.5 C 142.497,219.14 144.164,226.14 148.5,232.5C 147.652,234.283 146.319,234.783 144.5,234C 139.551,228.855 133.551,226.522 126.5,227C 118.419,228.919 113.085,233.753 110.5,241.5C 109.041,241.433 107.708,241.766 106.5,242.5C 107.553,232.603 112.887,226.103 122.5,223C 128.218,222.484 133.885,222.484 139.5,223C 138.54,219.27 138.207,215.437 138.5,211.5C 140.36,210.929 142.027,210.929 143.5,211.5 Z"/></g>
<g><path style="opacity:0.875" fill="#0064fa" d="M 223.5,217.5 C 225.167,217.5 226.833,217.5 228.5,217.5C 228.335,220.518 228.502,223.518 229,226.5C 237.644,217.901 247.144,216.734 257.5,223C 261.863,228.388 263.529,234.555 262.5,241.5C 260.833,241.5 259.167,241.5 257.5,241.5C 259.474,231.48 255.474,225.48 245.5,223.5C 241.762,223.579 238.428,224.746 235.5,227C 230.742,231.367 226.575,236.2 223,241.5C 221.701,240.91 220.868,239.91 220.5,238.5C 222.876,231.699 223.876,224.699 223.5,217.5 Z"/></g>
<g><path style="opacity:0.886" fill="#004dfe" d="M 614.5,228.5 C 612.708,228.634 611.042,228.301 609.5,227.5C 607.184,228.806 604.85,230.139 602.5,231.5C 600.261,230.212 597.928,229.212 595.5,228.5C 593.833,228.5 592.167,228.5 590.5,228.5C 589.766,227.122 589.099,225.622 588.5,224C 589.09,222.701 590.09,221.868 591.5,221.5C 594.94,222.969 598.44,224.302 602,225.5C 605.91,223.918 609.576,221.918 613,219.5C 615.801,222.048 616.301,225.048 614.5,228.5 Z"/></g>
<g><path style="opacity:0.838" fill="#e8e8e8" d="M 677.5,240.5 C 679.144,240.286 680.644,240.62 682,241.5C 685.165,247.834 688.831,253.834 693,259.5C 693.49,260.793 693.657,262.127 693.5,263.5C 691.278,263.822 689.444,263.155 688,261.5C 682.894,255.287 679.394,248.287 677.5,240.5 Z"/></g>
<g><path style="opacity:0.851" fill="#e8e8e8" d="M 734.5,241.5 C 735.833,241.5 737.167,241.5 738.5,241.5C 738.54,244.425 737.707,247.091 736,249.5C 733.417,252.997 731.084,256.664 729,260.5C 726.885,263.318 725.052,263.151 723.5,260C 727.052,253.723 730.719,247.556 734.5,241.5 Z"/></g>
<g><path style="opacity:0.881" fill="#0168f9" d="M 590.5,228.5 C 592.167,228.5 593.833,228.5 595.5,228.5C 596.135,231.493 596.301,234.493 596,237.5C 590.087,242.11 591.254,244.277 599.5,244C 600.823,244.816 601.489,245.983 601.5,247.5C 599.5,247.5 597.5,247.5 595.5,247.5C 592.15,247.665 588.817,247.498 585.5,247C 584.572,246.612 583.905,245.945 583.5,245C 585.392,241.397 587.892,238.23 591,235.5C 591.018,233.203 590.851,230.869 590.5,228.5 Z"/></g>
<g><path style="opacity:0.871" fill="#0167f9" d="M 609.5,227.5 C 611.042,228.301 612.708,228.634 614.5,228.5C 614.201,230.604 614.534,232.604 615.5,234.5C 618.527,236.86 621.194,239.527 623.5,242.5C 622.91,243.799 621.91,244.632 620.5,245C 617.053,245.529 613.719,246.362 610.5,247.5C 609.245,247.499 607.912,247.166 606.5,246.5C 606.33,245.178 606.663,244.011 607.5,243C 610.167,242.333 612.833,241.667 615.5,241C 613.759,239.38 611.925,237.88 610,236.5C 609.502,233.518 609.335,230.518 609.5,227.5 Z"/></g>
<g><path style="opacity:0.926" fill="#0078f6" d="M 606.5,246.5 C 607.912,247.166 609.245,247.499 610.5,247.5C 609.613,251.875 607.613,255.541 604.5,258.5C 601.263,255.026 598.263,251.359 595.5,247.5C 597.5,247.5 599.5,247.5 601.5,247.5C 602.79,248.058 603.623,249.058 604,250.5C 604.608,248.934 605.442,247.6 606.5,246.5 Z"/></g>
<g><path style="opacity:0.832" fill="#007cf5" d="M 110.5,241.5 C 110.22,244.272 110.887,246.772 112.5,249C 118.389,252.389 124.722,254.389 131.5,255C 163.866,255.263 196.199,256.43 228.5,258.5C 238.404,259.906 246.904,257.239 254,250.5C 255.741,247.691 256.908,244.691 257.5,241.5C 259.167,241.5 260.833,241.5 262.5,241.5C 260.946,252.222 254.946,259.055 244.5,262C 239.889,262.979 235.223,263.479 230.5,263.5C 195.177,261.488 159.844,259.988 124.5,259C 119.272,257.59 114.272,255.59 109.5,253C 106.494,249.847 105.494,246.347 106.5,242.5C 107.708,241.766 109.041,241.433 110.5,241.5 Z"/></g>
<g><path style="opacity:1" fill="#124cfe" d="M 475.5,283.5 C 473.593,279.381 470.926,275.714 467.5,272.5C 483.793,262.53 500.793,261.03 518.5,268C 521.333,270.833 524.167,273.667 527,276.5C 527.667,277.167 527.667,277.833 527,278.5C 509.014,272.065 491.848,273.731 475.5,283.5 Z"/></g>
<g><path style="opacity:1" fill="#275ffb" d="M 467.5,272.5 C 470.926,275.714 473.593,279.381 475.5,283.5C 470.485,287.361 465.818,291.695 461.5,296.5C 457.574,286.871 459.574,278.871 467.5,272.5 Z"/></g>
<g><path style="opacity:1" fill="#084ffd" d="M 542.5,327.5 C 538.833,327.5 535.167,327.5 531.5,327.5C 529.534,326.559 527.534,325.559 525.5,324.5C 524.478,324.855 523.811,325.522 523.5,326.5C 511.247,327.479 498.913,327.813 486.5,327.5C 486.5,326.5 486.5,325.5 486.5,324.5C 489.919,320.002 492.585,315.002 494.5,309.5C 494.292,306.815 493.125,306.149 491,307.5C 489.426,311.646 487.593,315.646 485.5,319.5C 481.8,309.397 478.467,299.064 475.5,288.5C 493.035,277.247 511.369,275.747 530.5,284C 533.098,287.783 534.932,291.95 536,296.5C 538.966,306.692 541.132,317.025 542.5,327.5 Z"/></g>
<g><path style="opacity:0.862" fill="#e8e8e8" d="M 373.5,288.5 C 374.552,288.351 375.552,288.517 376.5,289C 381,293.5 385.5,298 390,302.5C 392.5,299.333 395,296.167 397.5,293C 400.667,292.167 401.833,293.333 401,296.5C 398.5,299.667 396,302.833 393.5,306C 396.4,308.397 398.733,311.23 400.5,314.5C 399.725,316.475 398.391,317.309 396.5,317C 394.65,314.982 392.65,313.149 390.5,311.5C 387.976,313.19 385.976,315.357 384.5,318C 382.294,318.732 380.628,318.065 379.5,316C 382.026,312.974 384.36,309.807 386.5,306.5C 382.182,301.681 377.682,297.015 373,292.5C 372.805,291.181 372.972,289.847 373.5,288.5 Z"/></g>
<g><path style="opacity:1" fill="#d5daea" d="M 486.5,324.5 C 484.31,323.252 483.977,321.586 485.5,319.5C 487.593,315.646 489.426,311.646 491,307.5C 493.125,306.149 494.292,306.815 494.5,309.5C 492.585,315.002 489.919,320.002 486.5,324.5 Z"/></g>
<g><path style="opacity:0.838" fill="#e8e8e8" d="M 671.5,319.5 C 678.342,319.039 685.009,319.872 691.5,322C 692.93,323.88 692.596,325.38 690.5,326.5C 685.936,325.072 681.269,324.072 676.5,323.5C 674.626,323.39 673.126,324.056 672,325.5C 673.664,334.832 675.664,344.166 678,353.5C 678.667,355.833 678.667,358.167 678,360.5C 675.341,361.935 672.508,362.935 669.5,363.5C 668.155,362.653 667.155,361.487 666.5,360C 668.569,358.477 670.903,357.643 673.5,357.5C 671.585,347.417 669.252,337.417 666.5,327.5C 666.71,323.805 668.377,321.138 671.5,319.5 Z"/></g>
<g><path style="opacity:1" fill="#dadee9" d="M 531.5,327.5 C 533.355,329.033 535.188,330.7 537,332.5C 537.601,333.965 537.101,334.965 535.5,335.5C 531.432,332.479 527.432,329.479 523.5,326.5C 523.811,325.522 524.478,324.855 525.5,324.5C 527.534,325.559 529.534,326.559 531.5,327.5 Z"/></g>
<g><path style="opacity:1" fill="#0455fc" d="M 523.5,326.5 C 527.432,329.479 531.432,332.479 535.5,335.5C 537.101,334.965 537.601,333.965 537,332.5C 535.188,330.7 533.355,329.033 531.5,327.5C 535.167,327.5 538.833,327.5 542.5,327.5C 543.761,330.258 544.594,333.258 545,336.5C 545.556,342.835 546.056,349.168 546.5,355.5C 546.5,359.5 546.5,363.5 546.5,367.5C 540.833,367.5 535.167,367.5 529.5,367.5C 529.853,365.365 529.02,364.032 527,363.5C 524.993,364.344 523.493,365.677 522.5,367.5C 512.5,367.5 502.5,367.5 492.5,367.5C 490.934,354.102 488.934,340.768 486.5,327.5C 498.913,327.813 511.247,327.479 523.5,326.5 Z"/></g>
<g><path style="opacity:1" fill="#1860fa" d="M 866.5,334.5 C 865.609,335.11 864.609,335.443 863.5,335.5C 861.833,334.833 860.167,334.167 858.5,333.5C 859.141,332.518 859.807,331.518 860.5,330.5C 858.096,326.718 856.596,322.718 856,318.5C 856.893,317.289 857.726,317.289 858.5,318.5C 860.167,321.167 861.833,323.833 863.5,326.5C 866.86,323.806 869.86,320.806 872.5,317.5C 874.283,318.348 874.783,319.681 874,321.5C 871.333,324.167 868.667,326.833 866,329.5C 865.616,331.197 865.782,332.863 866.5,334.5 Z"/></g>
<g><path style="opacity:0.833" fill="#e8e8e8" d="M 678.5,329.5 C 681.518,329.335 684.518,329.502 687.5,330C 689.919,331.509 690.919,333.675 690.5,336.5C 687.482,336.494 684.816,335.494 682.5,333.5C 680.929,334.309 679.262,334.643 677.5,334.5C 677.366,332.708 677.699,331.042 678.5,329.5 Z"/></g>
<g><path style="opacity:1" fill="#2a81f5" d="M 858.5,333.5 C 860.167,334.167 861.833,334.833 863.5,335.5C 860.252,337.403 857.252,339.737 854.5,342.5C 853.5,342.167 852.833,341.5 852.5,340.5C 854.281,337.909 856.281,335.575 858.5,333.5 Z"/></g>
<g><path style="opacity:1" fill="#2981f5" d="M 866.5,334.5 C 868.527,337.384 870.194,340.55 871.5,344C 871.387,345.28 870.72,346.113 869.5,346.5C 866.729,343.295 864.729,339.628 863.5,335.5C 864.609,335.443 865.609,335.11 866.5,334.5 Z"/></g>
<g><path style="opacity:1" fill="#d3d9ea" d="M 494.5,353.5 C 498.458,356.285 502.291,359.285 506,362.5C 506.301,365.091 505.134,365.925 502.5,365C 500.129,362.294 497.463,359.961 494.5,358C 493.272,356.51 493.272,355.01 494.5,353.5 Z"/></g>
<g><path style="opacity:1" fill="#d4d9ea" d="M 529.5,367.5 C 528.357,367.908 527.357,368.575 526.5,369.5C 524.901,373.796 523.401,378.129 522,382.5C 520.627,386.132 519.127,386.299 517.5,383C 519.673,377.98 521.34,372.814 522.5,367.5C 523.493,365.677 524.993,364.344 527,363.5C 529.02,364.032 529.853,365.365 529.5,367.5 Z"/></g>
<g><path style="opacity:1" fill="#045bfb" d="M 546.5,355.5 C 547.603,372.697 547.27,390.03 545.5,407.5C 527.833,407.5 510.167,407.5 492.5,407.5C 492.5,394.167 492.5,380.833 492.5,367.5C 502.5,367.5 512.5,367.5 522.5,367.5C 521.34,372.814 519.673,377.98 517.5,383C 519.127,386.299 520.627,386.132 522,382.5C 523.401,378.129 524.901,373.796 526.5,369.5C 527.357,368.575 528.357,367.908 529.5,367.5C 535.167,367.5 540.833,367.5 546.5,367.5C 546.5,363.5 546.5,359.5 546.5,355.5 Z"/></g>
<g><path style="opacity:1" fill="#1b57fc" d="M 865.5,373.5 C 865.879,376.567 864.879,377.567 862.5,376.5C 861.618,372.857 859.284,371.69 855.5,373C 853.859,374.129 852.859,375.629 852.5,377.5C 851.596,378.209 851.263,379.209 851.5,380.5C 850.5,380.5 849.5,380.5 848.5,380.5C 849.005,372.154 853.338,368.321 861.5,369C 863.635,369.876 864.969,371.376 865.5,373.5 Z"/></g>
<g><path style="opacity:1" fill="#e0e3e8" d="M 862.5,376.5 C 861.094,381.269 858.094,382.936 853.5,381.5C 852.571,380.311 852.238,378.978 852.5,377.5C 852.859,375.629 853.859,374.129 855.5,373C 859.284,371.69 861.618,372.857 862.5,376.5 Z"/></g>
<g><path style="opacity:1" fill="#2380f5" d="M 865.5,373.5 C 866.731,381.778 863.064,385.944 854.5,386C 851.359,385.285 849.359,383.452 848.5,380.5C 849.5,380.5 850.5,380.5 851.5,380.5C 851.263,379.209 851.596,378.209 852.5,377.5C 852.238,378.978 852.571,380.311 853.5,381.5C 858.094,382.936 861.094,381.269 862.5,376.5C 864.879,377.567 865.879,376.567 865.5,373.5 Z"/></g>
<g><path style="opacity:1" fill="#235afb" d="M 814.5,385.5 C 812.2,387.202 809.533,387.868 806.5,387.5C 803.516,387.213 802.183,385.546 802.5,382.5C 804.787,382.724 806.953,383.391 809,384.5C 810.854,382.977 812.354,381.144 813.5,379C 814.448,378.517 815.448,378.351 816.5,378.5C 816.6,381.108 815.933,383.442 814.5,385.5 Z"/></g>
<g><path style="opacity:1" fill="#2179f6" d="M 814.5,385.5 C 817.137,387.491 819.804,389.491 822.5,391.5C 822.113,392.72 821.28,393.387 820,393.5C 817.65,392.496 815.316,391.496 813,390.5C 811.477,392.569 810.643,394.903 810.5,397.5C 809.167,397.5 807.833,397.5 806.5,397.5C 806.462,394.819 807.129,392.319 808.5,390C 807.944,388.989 807.278,388.156 806.5,387.5C 809.533,387.868 812.2,387.202 814.5,385.5 Z"/></g>
<g><path style="opacity:1" fill="#2557fc" d="M 217.5,401.5 C 216.209,401.737 215.209,401.404 214.5,400.5C 220.894,395.133 228.227,392.299 236.5,392C 237.357,392.689 238.023,393.522 238.5,394.5C 231.222,396.068 224.222,398.401 217.5,401.5 Z"/></g>
<g><path style="opacity:0.858" fill="#0152fd" d="M 104.5,401.5 C 101.947,400.745 99.2804,400.078 96.5,399.5C 95.5208,396.439 94.8541,393.273 94.5,390C 94.8318,384.905 96.3318,384.405 99,388.5C 99.3925,391.633 100.226,394.633 101.5,397.5C 105.167,395.667 108.833,393.833 112.5,392C 116.167,391.333 117.167,392.667 115.5,396C 111.78,397.86 108.114,399.693 104.5,401.5 Z"/></g>
<g><path style="opacity:0.824" fill="#e8e8e8" d="M 391.5,397.5 C 394.187,397.336 396.854,397.503 399.5,398C 400.517,399.049 400.684,400.216 400,401.5C 395.312,400.63 392.145,402.63 390.5,407.5C 388.453,408.904 386.786,408.571 385.5,406.5C 386.766,402.955 388.766,399.955 391.5,397.5 Z"/></g>
<g><path style="opacity:1" fill="#356ef9" d="M 214.5,400.5 C 215.209,401.404 216.209,401.737 217.5,401.5C 206.265,408.911 198.098,418.911 193,431.5C 193.265,425.615 195.265,420.282 199,415.5C 203.374,409.625 208.541,404.625 214.5,400.5 Z"/></g>
<g><path style="opacity:0.818" fill="#0470f8" d="M 96.5,399.5 C 99.2804,400.078 101.947,400.745 104.5,401.5C 103.071,402.234 102.071,403.401 101.5,405C 102.412,409.446 102.745,413.946 102.5,418.5C 100.856,418.714 99.3561,418.38 98,417.5C 97.5014,413.848 97.3347,410.182 97.5,406.5C 92.9521,408.107 88.6188,410.274 84.5,413C 82.8659,413.494 81.1992,413.66 79.5,413.5C 79.2865,411.856 79.6198,410.356 80.5,409C 86.0618,406.059 91.3951,402.892 96.5,399.5 Z"/></g>
<g><path style="opacity:0.785" fill="#e8e8e8" d="M 370.5,407.5 C 372.655,407.372 374.655,407.872 376.5,409C 377.647,411.085 376.98,412.585 374.5,413.5C 373.549,412.674 372.549,412.508 371.5,413C 369.787,414.378 368.453,416.045 367.5,418C 363.29,418.089 362.457,416.256 365,412.5C 366.73,410.598 368.563,408.931 370.5,407.5 Z"/></g>
<g><path style="opacity:1" fill="#0e62fa" d="M 475.5,288.5 C 478.467,299.064 481.8,309.397 485.5,319.5C 483.977,321.586 484.31,323.252 486.5,324.5C 486.5,325.5 486.5,326.5 486.5,327.5C 488.934,340.768 490.934,354.102 492.5,367.5C 492.5,380.833 492.5,394.167 492.5,407.5C 510.167,407.5 527.833,407.5 545.5,407.5C 544.543,417.117 542.877,426.617 540.5,436C 535.121,439.073 529.788,442.239 524.5,445.5C 513.167,445.5 501.833,445.5 490.5,445.5C 491.75,442.994 492.416,440.327 492.5,437.5C 489.2,438.029 487.2,440.029 486.5,443.5C 485.508,443.672 484.842,443.338 484.5,442.5C 489.255,429.303 491.421,415.636 491,401.5C 487.55,400.402 484.05,400.402 480.5,401.5C 481.805,379.209 479.971,357.209 475,335.5C 470.553,324.94 466.386,314.273 462.5,303.5C 465.207,297.082 469.54,292.082 475.5,288.5 Z"/></g>
<g><path style="opacity:1" fill="#0c5afb" d="M 243.5,413.5 C 239.971,415.423 235.971,416.089 231.5,415.5C 229.031,414.431 226.698,413.098 224.5,411.5C 222.889,412.32 222.222,413.654 222.5,415.5C 217.637,415.819 212.97,415.486 208.5,414.5C 217.109,405.197 227.775,400.197 240.5,399.5C 241.755,404.106 242.755,408.772 243.5,413.5 Z"/></g>
<g><path style="opacity:0.849" fill="#e8e8e8" d="M 394.5,408.5 C 396.527,408.338 398.527,408.505 400.5,409C 403.081,410.841 403.081,412.674 400.5,414.5C 399.264,413.754 397.93,413.421 396.5,413.5C 396.65,417.161 395.15,418.161 392,416.5C 391.388,413.389 392.221,410.723 394.5,408.5 Z"/></g>
<g><path style="opacity:1" fill="#075bfb" d="M 627.5,404.5 C 629.402,407.337 630.069,410.671 629.5,414.5C 626.833,414.5 624.167,414.5 621.5,414.5C 621.5,413.167 621.5,411.833 621.5,410.5C 621.735,406.676 623.735,404.676 627.5,404.5 Z"/></g>
<g><path style="opacity:1" fill="#0760fa" d="M 648.5,420.5 C 643.52,421.015 638.854,420.348 634.5,418.5C 634.5,413.833 634.5,409.167 634.5,404.5C 639.5,404.5 644.5,404.5 649.5,404.5C 649.02,409.822 648.687,415.155 648.5,420.5 Z"/></g>
<g><path style="opacity:1" fill="#015bfb" d="M 667.5,410.5 C 666.566,411.568 666.232,412.901 666.5,414.5C 662.167,414.5 657.833,414.5 653.5,414.5C 653.5,411.833 653.5,409.167 653.5,406.5C 657.97,405.514 662.637,405.181 667.5,405.5C 667.5,407.167 667.5,408.833 667.5,410.5 Z"/></g>
<g><path style="opacity:1" fill="#0863fa" d="M 692.5,419.5 C 690.621,420.341 688.621,420.675 686.5,420.5C 686.5,419.167 686.5,417.833 686.5,416.5C 686.5,413.5 686.5,410.5 686.5,407.5C 688.582,407.472 690.416,408.139 692,409.5C 692.498,412.817 692.665,416.15 692.5,419.5 Z"/></g>
<g><path style="opacity:1" fill="#d9dee9" d="M 231.5,415.5 C 232.508,417.339 234.008,418.672 236,419.5C 236.49,420.793 236.657,422.127 236.5,423.5C 235.448,423.649 234.448,423.483 233.5,423C 230.226,419.888 226.56,417.388 222.5,415.5C 222.222,413.654 222.889,412.32 224.5,411.5C 226.698,413.098 229.031,414.431 231.5,415.5 Z"/></g>
<g><path style="opacity:1" fill="#0360fa" d="M 671.5,406.5 C 675.167,406.5 678.833,406.5 682.5,406.5C 682.756,410.269 682.423,413.936 681.5,417.5C 678.167,417.5 674.833,417.5 671.5,417.5C 671.5,413.833 671.5,410.167 671.5,406.5 Z"/></g>
<g><path style="opacity:1" fill="#d9dee9" d="M 517.5,414.5 C 522.851,415.674 527.351,418.341 531,422.5C 531.49,423.793 531.657,425.127 531.5,426.5C 530.448,426.649 529.448,426.483 528.5,426C 526.072,422.902 523.072,420.569 519.5,419C 517.963,417.89 517.297,416.39 517.5,414.5 Z"/></g>
<g><path style="opacity:0.829" fill="#e8e8e8" d="M 371.5,417.5 C 373.527,417.338 375.527,417.505 377.5,418C 380.922,419.406 381.255,421.239 378.5,423.5C 374.26,421.437 372.094,422.77 372,427.5C 369.833,429 368.333,428.5 367.5,426C 367.869,422.637 369.203,419.804 371.5,417.5 Z"/></g>
<g><path style="opacity:1" fill="#1e71f7" d="M 627.5,404.5 C 628.209,403.596 629.209,403.263 630.5,403.5C 630.391,410.196 630.724,416.863 631.5,423.5C 624.288,424.456 620.622,421.289 620.5,414C 620.514,412.615 620.848,411.449 621.5,410.5C 621.5,411.833 621.5,413.167 621.5,414.5C 624.167,414.5 626.833,414.5 629.5,414.5C 630.069,410.671 629.402,407.337 627.5,404.5 Z"/></g>
<g><path style="opacity:1" fill="#2875f7" d="M 653.5,406.5 C 653.5,409.167 653.5,411.833 653.5,414.5C 657.833,414.5 662.167,414.5 666.5,414.5C 666.232,412.901 666.566,411.568 667.5,410.5C 667.5,415.5 667.5,420.5 667.5,425.5C 662.5,425.5 657.5,425.5 652.5,425.5C 652.177,418.978 652.51,412.645 653.5,406.5 Z"/></g>
<g><path style="opacity:1" fill="#2a7cf6" d="M 634.5,418.5 C 638.854,420.348 643.52,421.015 648.5,420.5C 648.5,421.833 648.5,423.167 648.5,424.5C 644.154,424.666 639.821,424.499 635.5,424C 634.594,422.301 634.261,420.467 634.5,418.5 Z"/></g>
<g><path style="opacity:1" fill="#1c77f6" d="M 671.5,406.5 C 671.5,410.167 671.5,413.833 671.5,417.5C 674.833,417.5 678.167,417.5 681.5,417.5C 681.5,420.167 681.5,422.833 681.5,425.5C 677.833,425.5 674.167,425.5 670.5,425.5C 670.177,418.978 670.51,412.645 671.5,406.5 Z"/></g>
<g><path style="opacity:1" fill="#237bf6" d="M 686.5,416.5 C 686.5,417.833 686.5,419.167 686.5,420.5C 688.621,420.675 690.621,420.341 692.5,419.5C 692.146,423.846 689.813,425.513 685.5,424.5C 685.194,421.615 685.527,418.948 686.5,416.5 Z"/></g>
<g><path style="opacity:1" fill="#d6dde9" d="M 210.5,426.5 C 208.415,428.684 207.415,431.351 207.5,434.5C 206.167,434.5 204.833,434.5 203.5,434.5C 203.56,431.659 204.226,428.993 205.5,426.5C 206.34,424.147 207.674,422.147 209.5,420.5C 210.72,420.887 211.387,421.72 211.5,423C 211.011,424.138 210.678,425.305 210.5,426.5 Z"/></g>
<g><path style="opacity:1" fill="#0d65f9" d="M 243.5,413.5 C 245.062,416.982 246.395,420.648 247.5,424.5C 235.545,426.48 223.212,427.146 210.5,426.5C 210.678,425.305 211.011,424.138 211.5,423C 211.387,421.72 210.72,420.887 209.5,420.5C 207.674,422.147 206.34,424.147 205.5,426.5C 203.596,426.262 202.262,425.262 201.5,423.5C 203.482,420.19 205.815,417.19 208.5,414.5C 212.97,415.486 217.637,415.819 222.5,415.5C 226.56,417.388 230.226,419.888 233.5,423C 234.448,423.483 235.448,423.649 236.5,423.5C 236.657,422.127 236.49,420.793 236,419.5C 234.008,418.672 232.508,417.339 231.5,415.5C 235.971,416.089 239.971,415.423 243.5,413.5 Z"/></g>
<g><path style="opacity:0.88" fill="#e8e8e8" d="M 389.5,426.5 C 392.216,426.678 394.883,427.178 397.5,428C 400.311,431.294 399.978,434.294 396.5,437C 394.19,437.497 391.857,437.663 389.5,437.5C 389.351,436.448 389.517,435.448 390,434.5C 395.98,432.369 395.646,431.035 389,430.5C 388.421,429.072 388.588,427.738 389.5,426.5 Z"/></g>
<g><path style="opacity:1" fill="#076df8" d="M 247.5,424.5 C 249.902,428.965 252.568,433.298 255.5,437.5C 239.83,437.667 224.163,437.5 208.5,437C 207.748,436.329 207.414,435.496 207.5,434.5C 207.415,431.351 208.415,428.684 210.5,426.5C 223.212,427.146 235.545,426.48 247.5,424.5 Z"/></g>
<g><path style="opacity:1" fill="#1b7af6" d="M 201.5,423.5 C 202.262,425.262 203.596,426.262 205.5,426.5C 204.226,428.993 203.56,431.659 203.5,434.5C 204.833,434.5 206.167,434.5 207.5,434.5C 207.414,435.496 207.748,436.329 208.5,437C 224.163,437.5 239.83,437.667 255.5,437.5C 256.289,437.783 256.956,438.283 257.5,439C 236.011,436.061 216.344,440.561 198.5,452.5C 195.709,449.638 194.376,446.138 194.5,442C 195.57,435.282 197.903,429.115 201.5,423.5 Z"/></g>
<g><path style="opacity:1" fill="#d8dde9" d="M 490.5,445.5 C 488.206,448.37 486.872,451.703 486.5,455.5C 485.167,455.5 483.833,455.5 482.5,455.5C 483.238,451.285 484.572,447.285 486.5,443.5C 487.2,440.029 489.2,438.029 492.5,437.5C 492.416,440.327 491.75,442.994 490.5,445.5 Z"/></g>
<g><path style="opacity:1" fill="#1c72f7" d="M 484.5,442.5 C 477.544,457.295 466.877,468.795 452.5,477C 447.728,477.983 443.062,478.817 438.5,479.5C 437.218,478.292 437.218,476.958 438.5,475.5C 444.833,472.5 449.5,467.833 452.5,461.5C 462.059,456.083 468.559,448.083 472,437.5C 476.361,425.725 479.194,413.725 480.5,401.5C 484.05,400.402 487.55,400.402 491,401.5C 491.421,415.636 489.255,429.303 484.5,442.5 Z"/></g>
<g><path style="opacity:1" fill="#1a5bfb" d="M 664.5,451.5 C 663.5,451.5 662.5,451.5 661.5,451.5C 661.737,450.209 661.404,449.209 660.5,448.5C 658.543,445.941 656.877,446.274 655.5,449.5C 654.533,450.806 653.199,451.473 651.5,451.5C 651.218,446.45 653.552,443.45 658.5,442.5C 663.232,443.622 665.232,446.622 664.5,451.5 Z"/></g>
<g><path style="opacity:1" fill="#dde1e8" d="M 660.5,448.5 C 660.853,450.635 660.02,451.968 658,452.5C 656.251,452.252 655.418,451.252 655.5,449.5C 656.877,446.274 658.543,445.941 660.5,448.5 Z"/></g>
<g><path style="opacity:1" fill="#195bfb" d="M 614.5,449.5 C 612.5,450.833 610.5,450.833 608.5,449.5C 606.295,447.637 604.961,445.303 604.5,442.5C 605.873,442.343 607.207,442.51 608.5,443C 609.119,444.757 610.286,445.924 612,446.5C 614.112,445.392 615.946,443.892 617.5,442C 619.667,441.5 620.5,442.333 620,444.5C 618.296,446.373 616.463,448.04 614.5,449.5 Z"/></g>
<g><path style="opacity:0.86" fill="#e7e7e7" d="M 380.5,449.5 C 383.269,449.8 385.769,450.8 388,452.5C 390.227,451.637 392.393,450.637 394.5,449.5C 397.123,451.875 396.789,454.041 393.5,456C 387.252,459.027 382.586,457.527 379.5,451.5C 379.863,450.817 380.196,450.15 380.5,449.5 Z"/></g>
<g><path style="opacity:1" fill="#1e79f6" d="M 608.5,449.5 C 610.5,450.833 612.5,450.833 614.5,449.5C 616.023,452.345 617.023,455.345 617.5,458.5C 616.448,458.649 615.448,458.483 614.5,458C 611.668,452.348 609.001,452.682 606.5,459C 603.909,459.301 603.075,458.134 604,455.5C 606.127,453.886 607.627,451.886 608.5,449.5 Z"/></g>
<g><path style="opacity:1" fill="#2e85f4" d="M 660.5,448.5 C 661.404,449.209 661.737,450.209 661.5,451.5C 662.5,451.5 663.5,451.5 664.5,451.5C 660.024,458.053 655.691,458.053 651.5,451.5C 653.199,451.473 654.533,450.806 655.5,449.5C 655.418,451.252 656.251,452.252 658,452.5C 660.02,451.968 660.853,450.635 660.5,448.5 Z"/></g>
<g><path style="opacity:1" fill="#135cfb" d="M 755.5,458.5 C 754.167,459.167 752.833,459.833 751.5,460.5C 750.167,460.5 748.833,460.5 747.5,460.5C 748.028,459.279 748.695,458.113 749.5,457C 746.436,454.793 744.436,451.959 743.5,448.5C 744.552,448.351 745.552,448.517 746.5,449C 748.017,450.685 749.684,452.185 751.5,453.5C 752.981,452.52 754.315,451.353 755.5,450C 756.965,449.399 757.965,449.899 758.5,451.5C 756.973,453.193 755.64,455.027 754.5,457C 755.056,457.383 755.389,457.883 755.5,458.5 Z"/></g>
<g><path style="opacity:1" fill="#1558fc" d="M 710.5,465.5 C 709.5,465.5 708.5,465.5 707.5,465.5C 707.737,464.209 707.404,463.209 706.5,462.5C 704.641,459.981 702.641,459.981 700.5,462.5C 699.596,463.209 699.263,464.209 699.5,465.5C 698.5,465.5 697.5,465.5 696.5,465.5C 696.032,460.133 698.532,457.466 704,457.5C 709.223,457.592 711.39,460.259 710.5,465.5 Z"/></g>
<g><path style="opacity:1" fill="#287df5" d="M 755.5,458.5 C 758.472,460.778 760.139,463.778 760.5,467.5C 757.271,465.622 754.271,463.288 751.5,460.5C 752.833,459.833 754.167,459.167 755.5,458.5 Z"/></g>
<g><path style="opacity:1" fill="#d9dfe9" d="M 706.5,462.5 C 706.463,466.225 704.796,467.558 701.5,466.5C 700.571,465.311 700.238,463.978 700.5,462.5C 702.641,459.981 704.641,459.981 706.5,462.5 Z"/></g>
<g><path style="opacity:1" fill="#2280f5" d="M 747.5,460.5 C 748.833,460.5 750.167,460.5 751.5,460.5C 749.536,464.073 746.869,467.073 743.5,469.5C 742.817,465.781 744.151,462.781 747.5,460.5 Z"/></g>
<g><path style="opacity:1" fill="#2480f5" d="M 700.5,462.5 C 700.238,463.978 700.571,465.311 701.5,466.5C 704.796,467.558 706.463,466.225 706.5,462.5C 707.404,463.209 707.737,464.209 707.5,465.5C 708.5,465.5 709.5,465.5 710.5,465.5C 708.275,470.109 704.609,471.609 699.5,470C 698.117,468.729 697.117,467.229 696.5,465.5C 697.5,465.5 698.5,465.5 699.5,465.5C 699.263,464.209 699.596,463.209 700.5,462.5 Z"/></g>
<g><path style="opacity:1" fill="#0468f9" d="M 484.5,442.5 C 484.842,443.338 485.508,443.672 486.5,443.5C 484.572,447.285 483.238,451.285 482.5,455.5C 483.833,455.5 485.167,455.5 486.5,455.5C 486.872,451.703 488.206,448.37 490.5,445.5C 501.833,445.5 513.167,445.5 524.5,445.5C 508.092,457.016 495.425,471.683 486.5,489.5C 483.5,489.5 480.5,489.5 477.5,489.5C 477.962,487.243 478.962,485.243 480.5,483.5C 480.113,482.28 479.28,481.613 478,481.5C 475.92,483.992 474.087,486.658 472.5,489.5C 461.833,489.5 451.167,489.5 440.5,489.5C 439.833,486.167 439.167,482.833 438.5,479.5C 443.062,478.817 447.728,477.983 452.5,477C 466.877,468.795 477.544,457.295 484.5,442.5 Z"/></g>
<g><path style="opacity:1" fill="#225bfb" d="M 574.5,478.5 C 574.5,479.5 574.5,480.5 574.5,481.5C 573.5,481.5 572.5,481.5 571.5,481.5C 571.359,478.52 569.859,476.52 567,475.5C 564.926,476.072 563.76,477.405 563.5,479.5C 562.596,480.209 562.263,481.209 562.5,482.5C 561.5,482.5 560.5,482.5 559.5,482.5C 559.681,474.13 563.681,470.963 571.5,473C 573.16,474.488 574.16,476.321 574.5,478.5 Z"/></g>
<g><path style="opacity:1" fill="#dadfe9" d="M 571.5,481.5 C 569.22,483.223 566.553,483.889 563.5,483.5C 563.5,482.167 563.5,480.833 563.5,479.5C 563.76,477.405 564.926,476.072 567,475.5C 569.859,476.52 571.359,478.52 571.5,481.5 Z"/></g>
<g><path style="opacity:1" fill="#d7dee9" d="M 477.5,489.5 C 475.858,492.102 474.192,494.769 472.5,497.5C 471.28,497.113 470.613,496.28 470.5,495C 471.077,493.1 471.744,491.267 472.5,489.5C 474.087,486.658 475.92,483.992 478,481.5C 479.28,481.613 480.113,482.28 480.5,483.5C 478.962,485.243 477.962,487.243 477.5,489.5 Z"/></g>
<g><path style="opacity:1" fill="#2380f5" d="M 574.5,478.5 C 576.268,482.973 574.601,485.807 569.5,487C 564.581,488.682 561.248,487.182 559.5,482.5C 560.5,482.5 561.5,482.5 562.5,482.5C 562.263,481.209 562.596,480.209 563.5,479.5C 563.5,480.833 563.5,482.167 563.5,483.5C 566.553,483.889 569.22,483.223 571.5,481.5C 572.5,481.5 573.5,481.5 574.5,481.5C 574.5,480.5 574.5,479.5 574.5,478.5 Z"/></g>
<g><path style="opacity:1" fill="#1057fc" d="M 437.5,495.5 C 437.5,496.833 437.5,498.167 437.5,499.5C 435.167,499.5 432.833,499.5 430.5,499.5C 430.806,496.615 430.473,493.948 429.5,491.5C 429.184,487.475 429.017,483.475 429,479.5C 431.022,478.009 432.688,478.342 434,480.5C 435.614,485.407 436.781,490.407 437.5,495.5 Z"/></g>
<g><path style="opacity:1" fill="#1757fc" d="M 517.5,493.5 C 515.585,493.784 513.919,493.451 512.5,492.5C 511.061,490.412 510.394,488.079 510.5,485.5C 512.973,485.736 514.64,487.069 515.5,489.5C 517.258,488.872 518.758,487.872 520,486.5C 521.365,487.593 521.699,488.926 521,490.5C 519.855,491.636 518.688,492.636 517.5,493.5 Z"/></g>
<g><path style="opacity:1" fill="#056ef8" d="M 440.5,489.5 C 451.167,489.5 461.833,489.5 472.5,489.5C 471.744,491.267 471.077,493.1 470.5,495C 470.613,496.28 471.28,497.113 472.5,497.5C 474.192,494.769 475.858,492.102 477.5,489.5C 480.5,489.5 483.5,489.5 486.5,489.5C 480.37,501.47 476.37,514.137 474.5,527.5C 461.989,527.829 449.655,527.495 437.5,526.5C 442.827,514.58 443.827,502.247 440.5,489.5 Z"/></g>
<g><path style="opacity:1" fill="#086ff7" d="M 380.5,526.5 C 360.34,527.497 340.007,527.83 319.5,527.5C 317.541,523.019 314.541,519.185 310.5,516C 309.552,515.517 308.552,515.351 307.5,515.5C 307.351,516.552 307.517,517.552 308,518.5C 310.758,520.751 312.925,523.418 314.5,526.5C 299.009,527.496 283.342,527.83 267.5,527.5C 266.5,527.167 265.833,526.5 265.5,525.5C 267.452,521.713 270.286,518.713 274,516.5C 274.757,513.086 273.59,512.086 270.5,513.5C 267.812,516.854 264.812,519.854 261.5,522.5C 255.479,518.479 250.479,513.479 246.5,507.5C 266.122,492.673 287.788,488.84 311.5,496C 321.771,499.535 332.105,502.868 342.5,506C 350.148,507.619 357.815,507.952 365.5,507C 369.246,514.565 374.246,521.065 380.5,526.5 Z"/></g>
<g><path style="opacity:0.88" fill="#e8e8e8" d="M 890.5,491.5 C 891.812,492.145 892.812,493.145 893.5,494.5C 891.078,498.344 888.411,502.01 885.5,505.5C 889.004,509.504 892.837,513.17 897,516.5C 897.49,517.793 897.657,519.127 897.5,520.5C 894.774,520.736 892.441,519.903 890.5,518C 887.667,515.167 884.833,512.333 882,509.5C 878.287,514.424 874.454,519.258 870.5,524C 868.359,524.884 866.693,524.384 865.5,522.5C 869.705,517.465 873.705,512.299 877.5,507C 874.699,503.032 871.366,499.532 867.5,496.5C 866.167,495.5 866.167,494.5 867.5,493.5C 868.723,492.386 870.056,492.219 871.5,493C 874.38,496.217 877.547,499.05 881,501.5C 884.33,498.336 887.497,495.003 890.5,491.5 Z"/></g>
<g><path style="opacity:1" fill="#207ff5" d="M 512.5,492.5 C 513.919,493.451 515.585,493.784 517.5,493.5C 519.312,495.461 520.312,497.794 520.5,500.5C 517.718,500.227 515.551,498.894 514,496.5C 512.3,497.927 510.467,498.76 508.5,499C 507.978,498.439 507.645,497.772 507.5,497C 509.017,495.316 510.683,493.816 512.5,492.5 Z"/></g>
<g><path style="opacity:1" fill="#dee2e8" d="M 280.5,500.5 C 281.552,500.351 282.552,500.517 283.5,501C 286.572,503.951 289.739,506.784 293,509.5C 293.601,510.965 293.101,511.965 291.5,512.5C 286.363,509.703 282.697,505.703 280.5,500.5 Z"/></g>
<g><path style="opacity:1" fill="#d6dde9" d="M 449.5,500.5 C 453.391,503.886 457.224,507.553 461,511.5C 461.301,514.091 460.134,514.925 457.5,514C 454.315,511.116 451.482,507.949 449,504.5C 448.421,503.072 448.588,501.738 449.5,500.5 Z"/></g>
<g><path style="opacity:1" fill="#d4dce9" d="M 344.5,508.5 C 348.933,511.084 353.266,513.918 357.5,517C 359.037,518.11 359.703,519.61 359.5,521.5C 353.142,519.5 347.809,515.833 343.5,510.5C 343.863,509.817 344.196,509.15 344.5,508.5 Z"/></g>
<g><path style="opacity:1" fill="#1e5cfb" d="M 674.5,515.5 C 672.741,515.954 670.741,515.954 668.5,515.5C 668.804,514.85 669.137,514.183 669.5,513.5C 667.673,511.513 666.673,509.179 666.5,506.5C 669.272,506.595 671.272,507.929 672.5,510.5C 674.5,509.167 676.5,507.833 678.5,506.5C 680.101,507.035 680.601,508.035 680,509.5C 677.668,511.203 675.835,513.203 674.5,515.5 Z"/></g>
<g><path style="opacity:1" fill="#dce1e8" d="M 265.5,525.5 C 262.6,526.954 261.267,525.954 261.5,522.5C 264.812,519.854 267.812,516.854 270.5,513.5C 273.59,512.086 274.757,513.086 274,516.5C 270.286,518.713 267.452,521.713 265.5,525.5 Z"/></g>
<g><path style="opacity:1" fill="#dbe0e9" d="M 319.5,527.5 C 317.602,528.734 315.935,528.401 314.5,526.5C 312.925,523.418 310.758,520.751 308,518.5C 307.517,517.552 307.351,516.552 307.5,515.5C 308.552,515.351 309.552,515.517 310.5,516C 314.541,519.185 317.541,523.019 319.5,527.5 Z"/></g>
<g><path style="opacity:1" fill="#247df6" d="M 668.5,515.5 C 670.741,515.954 672.741,515.954 674.5,515.5C 676.873,517.579 678.206,520.246 678.5,523.5C 677.448,523.649 676.448,523.483 675.5,523C 674.12,521.075 672.62,519.241 671,517.5C 669.285,520.397 666.785,521.731 663.5,521.5C 663.712,518.288 665.379,516.288 668.5,515.5 Z"/></g>
<g><path style="opacity:1" fill="#1572f7" d="M 429.5,491.5 C 430.473,493.948 430.806,496.615 430.5,499.5C 432.833,499.5 435.167,499.5 437.5,499.5C 437.5,498.167 437.5,496.833 437.5,495.5C 439.714,505.976 438.214,515.976 433,525.5C 432.292,526.381 431.458,527.047 430.5,527.5C 417.121,527.308 403.788,527.308 390.5,527.5C 381.569,523.07 374.736,516.404 370,507.5C 369.251,506.365 369.417,505.365 370.5,504.5C 371.833,503.833 373.167,503.167 374.5,502.5C 381.431,513.605 391.097,521.105 403.5,525C 417.879,526.956 426.379,520.789 429,506.5C 429.499,501.511 429.666,496.511 429.5,491.5 Z"/></g>
<g><path style="opacity:1" fill="#1d81f5" d="M 246.5,507.5 C 250.479,513.479 255.479,518.479 261.5,522.5C 261.267,525.954 262.6,526.954 265.5,525.5C 265.833,526.5 266.5,527.167 267.5,527.5C 278.145,537.327 290.479,544.327 304.5,548.5C 301.558,550.779 299.891,553.779 299.5,557.5C 300.552,557.649 301.552,557.483 302.5,557C 304.639,554.522 306.639,552.022 308.5,549.5C 308.577,550.75 309.244,551.583 310.5,552C 323.476,556.994 336.81,559.494 350.5,559.5C 350.5,560.5 350.5,561.5 350.5,562.5C 352.199,562.473 353.533,561.806 354.5,560.5C 358.653,561.166 362.987,561.499 367.5,561.5C 378.158,560.533 388.824,560.033 399.5,560C 402.142,561.468 403.809,563.635 404.5,566.5C 405.353,571.47 406.02,576.47 406.5,581.5C 405.365,579.992 403.365,578.992 400.5,578.5C 402.176,577.817 402.843,576.483 402.5,574.5C 368.617,581.414 335.617,578.58 303.5,566C 282.414,557.296 263.08,545.796 245.5,531.5C 241.126,527.128 237.126,522.461 233.5,517.5C 237.828,514.174 242.161,510.84 246.5,507.5 Z"/></g>
<g><path style="opacity:1" fill="#0373f7" d="M 314.5,526.5 C 315.935,528.401 317.602,528.734 319.5,527.5C 340.007,527.83 360.34,527.497 380.5,526.5C 391.961,535.564 404.961,539.398 419.5,538C 427.018,536.415 433.018,532.582 437.5,526.5C 449.655,527.495 461.989,527.829 474.5,527.5C 472.873,540.629 473.54,553.629 476.5,566.5C 472.03,567.486 467.363,567.819 462.5,567.5C 461.833,567.5 461.167,567.5 460.5,567.5C 452.414,567.801 444.414,567.467 436.5,566.5C 433.828,563.169 430.495,560.835 426.5,559.5C 426.969,562.643 428.636,564.977 431.5,566.5C 422.598,567.815 413.598,567.815 404.5,566.5C 403.809,563.635 402.142,561.468 399.5,560C 388.824,560.033 378.158,560.533 367.5,561.5C 362.987,561.499 358.653,561.166 354.5,560.5C 357.64,555.885 359.974,550.885 361.5,545.5C 359.61,545.297 358.11,545.963 357,547.5C 355.075,551.687 352.908,555.687 350.5,559.5C 336.81,559.494 323.476,556.994 310.5,552C 309.244,551.583 308.577,550.75 308.5,549.5C 311.24,547.415 311.073,545.748 308,544.5C 306.598,545.645 305.431,546.978 304.5,548.5C 290.479,544.327 278.145,537.327 267.5,527.5C 283.342,527.83 299.009,527.496 314.5,526.5 Z"/></g>
<g><path style="opacity:1" fill="#1a7df5" d="M 430.5,527.5 C 425.575,532.387 419.575,535.054 412.5,535.5C 406.773,534.32 401.106,532.82 395.5,531C 393.416,530.303 391.749,529.136 390.5,527.5C 403.788,527.308 417.121,527.308 430.5,527.5 Z"/></g>
<g><path style="opacity:0.845" fill="#e8e8e8" d="M 775.5,532.5 C 791.872,533.349 798.705,541.682 796,557.5C 790.292,563.715 784.292,564.048 778,558.5C 776.578,555.97 776.245,553.303 777,550.5C 778.356,549.62 779.856,549.286 781.5,549.5C 780.418,554.093 782.085,557.093 786.5,558.5C 792.646,555.484 794.146,550.817 791,544.5C 781.204,534.71 772.204,535.377 764,546.5C 761.274,556.237 764.108,564.07 772.5,570C 775.833,571.667 779.167,573.333 782.5,575C 828.167,590 873.833,605 919.5,620C 923.574,622.012 923.407,623.512 919,624.5C 874.045,610.404 829.212,595.904 784.5,581C 774.702,578.187 766.869,572.687 761,564.5C 754.376,548.514 759.209,537.847 775.5,532.5 Z"/></g>
<g><path style="opacity:1" fill="#dae0e9" d="M 308.5,549.5 C 306.639,552.022 304.639,554.522 302.5,557C 301.552,557.483 300.552,557.649 299.5,557.5C 299.891,553.779 301.558,550.779 304.5,548.5C 305.431,546.978 306.598,545.645 308,544.5C 311.073,545.748 311.24,547.415 308.5,549.5 Z"/></g>
<g><path style="opacity:1" fill="#d9dfe9" d="M 421.5,543.5 C 422.5,543.5 423.5,543.5 424.5,543.5C 423.428,548.31 421.262,552.643 418,556.5C 417.092,558.439 415.592,559.439 413.5,559.5C 413.343,558.127 413.51,556.793 414,555.5C 416.725,551.615 419.225,547.615 421.5,543.5 Z"/></g>
<g><path style="opacity:1" fill="#dae0e9" d="M 354.5,560.5 C 353.533,561.806 352.199,562.473 350.5,562.5C 350.5,561.5 350.5,560.5 350.5,559.5C 352.908,555.687 355.075,551.687 357,547.5C 358.11,545.963 359.61,545.297 361.5,545.5C 359.974,550.885 357.64,555.885 354.5,560.5 Z"/></g>
<g><path style="opacity:0.856" fill="#e8e8e8" d="M 99.5,550.5 C 108.865,548.843 115.198,552.343 118.5,561C 117.413,567.424 113.746,569.757 107.5,568C 106.313,566.981 105.313,565.814 104.5,564.5C 106.485,562.067 108.652,562.067 111,564.5C 114.367,561.21 113.867,558.377 109.5,556C 100.661,553.253 95.3278,556.42 93.5,565.5C 93.2079,569.725 94.8746,572.891 98.5,575C 108.89,578.295 119.557,580.295 130.5,581C 168.813,583.653 207.146,583.82 245.5,581.5C 245.773,583.451 245.107,584.951 243.5,586C 212.181,587.486 180.847,587.82 149.5,587C 134.063,586.256 118.729,584.59 103.5,582C 89.8154,578.131 85.6488,569.631 91,556.5C 93.3218,553.605 96.1552,551.605 99.5,550.5 Z"/></g>
<g><path style="opacity:1" fill="#1a58fc" d="M 648.5,552.5 C 648.179,554.048 647.179,554.715 645.5,554.5C 643.185,551.811 641.185,552.145 639.5,555.5C 638.596,556.209 638.263,557.209 638.5,558.5C 637.5,558.5 636.5,558.5 635.5,558.5C 635.155,551.343 638.488,548.176 645.5,549C 647.426,549.422 648.426,550.589 648.5,552.5 Z"/></g>
<g><path style="opacity:1" fill="#d9dfe9" d="M 645.5,554.5 C 644.945,556.729 643.611,558.395 641.5,559.5C 639.889,558.68 639.222,557.346 639.5,555.5C 641.185,552.145 643.185,551.811 645.5,554.5 Z"/></g>
<g><path style="opacity:1" fill="#265efb" d="M 604.5,560.5 C 602.708,560.366 601.042,560.699 599.5,561.5C 597.887,558.868 596.22,556.202 594.5,553.5C 594.833,552.5 595.5,551.833 596.5,551.5C 598.483,552.982 600.316,554.649 602,556.5C 605.101,552.242 606.768,552.576 607,557.5C 605.955,558.373 605.122,559.373 604.5,560.5 Z"/></g>
<g><path style="opacity:1" fill="#1c59fb" d="M 531.5,559.5 C 529.359,559.888 527.359,559.888 525.5,559.5C 522.482,558.145 521.149,555.812 521.5,552.5C 523.813,553.668 526.146,555.002 528.5,556.5C 530.133,554.497 532.133,553.164 534.5,552.5C 534.85,555.453 533.85,557.787 531.5,559.5 Z"/></g>
<g><path style="opacity:1" fill="#dfe3e8" d="M 436.5,566.5 C 436.53,567.497 436.03,568.164 435,568.5C 433.697,568.022 432.531,567.355 431.5,566.5C 428.636,564.977 426.969,562.643 426.5,559.5C 430.495,560.835 433.828,563.169 436.5,566.5 Z"/></g>
<g><path style="opacity:1" fill="#2a7ef5" d="M 648.5,552.5 C 649.501,557.01 647.834,560.51 643.5,563C 639.497,563.833 636.83,562.333 635.5,558.5C 636.5,558.5 637.5,558.5 638.5,558.5C 638.263,557.209 638.596,556.209 639.5,555.5C 639.222,557.346 639.889,558.68 641.5,559.5C 643.611,558.395 644.945,556.729 645.5,554.5C 647.179,554.715 648.179,554.048 648.5,552.5 Z"/></g>
<g><path style="opacity:1" fill="#1e76f7" d="M 525.5,559.5 C 527.359,559.888 529.359,559.888 531.5,559.5C 532.458,560.962 533.624,562.295 535,563.5C 535.783,565.319 535.283,566.652 533.5,567.5C 531.851,566.352 530.351,565.019 529,563.5C 527.257,565.321 525.757,567.321 524.5,569.5C 523.675,570.386 522.675,570.719 521.5,570.5C 522.001,566.505 523.334,562.838 525.5,559.5 Z"/></g>
<g><path style="opacity:1" fill="#1779f6" d="M 604.5,560.5 C 605.74,561.973 606.74,563.64 607.5,565.5C 605.009,567.968 603.176,567.302 602,563.5C 600.66,564.868 599.326,566.201 598,567.5C 596.054,567.237 595.388,566.237 596,564.5C 597.039,563.29 598.206,562.29 599.5,561.5C 601.042,560.699 602.708,560.366 604.5,560.5 Z"/></g>
<g><path style="opacity:1" fill="#057af6" d="M 404.5,566.5 C 413.598,567.815 422.598,567.815 431.5,566.5C 432.531,567.355 433.697,568.022 435,568.5C 436.03,568.164 436.53,567.497 436.5,566.5C 444.414,567.467 452.414,567.801 460.5,567.5C 457.255,573.317 454.588,579.317 452.5,585.5C 453.552,585.649 454.552,585.483 455.5,585C 458.82,580.194 461.487,575.027 463.5,569.5C 463.137,568.817 462.804,568.15 462.5,567.5C 467.363,567.819 472.03,567.486 476.5,566.5C 481.02,580.873 487.686,594.206 496.5,606.5C 493.021,607.99 489.688,607.657 486.5,605.5C 482.553,601.548 477.886,598.881 472.5,597.5C 472.351,598.552 472.517,599.552 473,600.5C 475.988,602.399 478.821,604.399 481.5,606.5C 456.672,607.498 431.672,607.831 406.5,607.5C 406.337,605.143 406.503,602.81 407,600.5C 407.383,599.944 407.883,599.611 408.5,599.5C 410.754,600.415 412.754,601.748 414.5,603.5C 415.72,603.113 416.387,602.28 416.5,601C 413.313,597.92 409.98,595.086 406.5,592.5C 406.5,588.833 406.5,585.167 406.5,581.5C 406.02,576.47 405.353,571.47 404.5,566.5 Z"/></g>
<g><path style="opacity:1" fill="#d9e0e9" d="M 460.5,567.5 C 461.167,567.5 461.833,567.5 462.5,567.5C 462.804,568.15 463.137,568.817 463.5,569.5C 461.487,575.027 458.82,580.194 455.5,585C 454.552,585.483 453.552,585.649 452.5,585.5C 454.588,579.317 457.255,573.317 460.5,567.5 Z"/></g>
<g><path style="opacity:1" fill="#1a5dfb" d="M 681.5,583.5 C 679.402,584.484 677.402,584.151 675.5,582.5C 674.007,579.86 672.84,577.193 672,574.5C 674.865,573.959 676.865,575.293 678,578.5C 679.644,575.689 681.81,573.356 684.5,571.5C 685.5,571.833 686.167,572.5 686.5,573.5C 684.667,575.833 682.833,578.167 681,580.5C 680.53,581.577 680.697,582.577 681.5,583.5 Z"/></g>
<g><path style="opacity:1" fill="#1e87f4" d="M 400.5,578.5 C 403.365,578.992 405.365,579.992 406.5,581.5C 406.5,585.167 406.5,588.833 406.5,592.5C 403.658,591.828 401.158,590.494 399,588.5C 398.13,589.108 397.63,589.941 397.5,591C 401.008,594.004 404.674,596.837 408.5,599.5C 407.883,599.611 407.383,599.944 407,600.5C 406.503,602.81 406.337,605.143 406.5,607.5C 405.835,611.137 405.168,614.803 404.5,618.5C 405.602,619.176 406.602,619.842 407.5,620.5C 400.609,619.977 393.775,619.31 387,618.5C 385.614,606.184 384.447,593.85 383.5,581.5C 389.195,580.66 394.861,579.66 400.5,578.5 Z"/></g>
<g><path style="opacity:1" fill="#227ef5" d="M 675.5,582.5 C 677.402,584.151 679.402,584.484 681.5,583.5C 682.429,584.936 683.595,586.269 685,587.5C 685.925,590.134 685.091,591.301 682.5,591C 681.12,589.075 679.62,587.241 678,585.5C 675.824,587.875 673.657,590.208 671.5,592.5C 669.717,591.652 669.217,590.319 670,588.5C 672.068,586.604 673.901,584.604 675.5,582.5 Z"/></g>
<g><path style="opacity:1" fill="#d8e0e9" d="M 406.5,592.5 C 409.98,595.086 413.313,597.92 416.5,601C 416.387,602.28 415.72,603.113 414.5,603.5C 412.754,601.748 410.754,600.415 408.5,599.5C 404.674,596.837 401.008,594.004 397.5,591C 397.63,589.941 398.13,589.108 399,588.5C 401.158,590.494 403.658,591.828 406.5,592.5 Z"/></g>
<g><path style="opacity:1" fill="#d6dfe9" d="M 486.5,605.5 C 486.719,606.675 486.386,607.675 485.5,608.5C 484.14,607.82 482.807,607.153 481.5,606.5C 478.821,604.399 475.988,602.399 473,600.5C 472.517,599.552 472.351,598.552 472.5,597.5C 477.886,598.881 482.553,601.548 486.5,605.5 Z"/></g>
<g><path style="opacity:1" fill="#1855fc" d="M 555.5,607.5 C 555.306,611.005 554.306,611.338 552.5,608.5C 550.543,605.941 548.877,606.274 547.5,609.5C 545.821,609.715 544.821,609.048 544.5,607.5C 548.413,600.914 552.08,600.914 555.5,607.5 Z"/></g>
<g><path style="opacity:1" fill="#0c7ff5" d="M 486.5,605.5 C 489.688,607.657 493.021,607.99 496.5,606.5C 502.636,613.468 509.302,619.968 516.5,626C 480.177,624.265 443.844,622.432 407.5,620.5C 406.602,619.842 405.602,619.176 404.5,618.5C 405.168,614.803 405.835,611.137 406.5,607.5C 431.672,607.831 456.672,607.498 481.5,606.5C 482.807,607.153 484.14,607.82 485.5,608.5C 486.386,607.675 486.719,606.675 486.5,605.5 Z"/></g>
<g><path style="opacity:1" fill="#d4dbe9" d="M 552.5,608.5 C 553,612.493 551.5,614.16 548,613.5C 547.51,612.207 547.343,610.873 547.5,609.5C 548.877,606.274 550.543,605.941 552.5,608.5 Z"/></g>
<g><path style="opacity:0.837" fill="#e8e8e8" d="M 152.5,612.5 C 173.169,612.333 193.836,612.5 214.5,613C 216.394,614.079 216.727,615.413 215.5,617C 191.169,617.5 166.836,617.667 142.5,617.5C 142.33,616.178 142.663,615.011 143.5,614C 146.695,613.819 149.695,613.319 152.5,612.5 Z"/></g>
<g><path style="opacity:1" fill="#1b78f6" d="M 544.5,607.5 C 544.821,609.048 545.821,609.715 547.5,609.5C 547.343,610.873 547.51,612.207 548,613.5C 551.5,614.16 553,612.493 552.5,608.5C 554.306,611.338 555.306,611.005 555.5,607.5C 556.472,610.52 555.972,613.52 554,616.5C 545.66,618.658 542.493,615.658 544.5,607.5 Z"/></g>
<g><path style="opacity:0.858" fill="#e7e7e7" d="M 151.5,647.5 C 158.167,647.5 164.833,647.5 171.5,647.5C 171.5,648.833 171.5,650.167 171.5,651.5C 144.182,652.53 116.849,653.363 89.5,654C 77.6779,654.603 66.0113,656.269 54.5,659C 47.7817,660.385 43.7817,664.385 42.5,671C 44.6292,678.354 49.6292,681.854 57.5,681.5C 62.6676,681.161 66.3343,678.661 68.5,674C 66.6104,668.388 62.9438,666.555 57.5,668.5C 57.4273,664.519 59.4273,662.853 63.5,663.5C 72.1016,665.709 74.6016,671.042 71,679.5C 63.1951,687.436 54.3618,688.603 44.5,683C 37.2885,677.879 35.7885,671.379 40,663.5C 43.2102,659.813 47.0435,656.979 51.5,655C 60.6741,652.471 70.0075,650.804 79.5,650C 103.653,648.994 127.653,648.161 151.5,647.5 Z"/></g>
<g><path style="opacity:0.854" fill="#e8e8e8" d="M 754.5,715.5 C 757.487,715.948 758.487,717.448 757.5,720C 676.9,731.98 598.9,753.313 523.5,784C 514.063,788.13 505.563,793.63 498,800.5C 489.383,811.242 488.383,822.575 495,834.5C 507.978,845.454 520.645,845.121 533,833.5C 537.768,826.731 537.601,820.231 532.5,814C 522.803,809.68 516.47,812.68 513.5,823C 511.609,823.309 510.275,822.475 509.5,820.5C 514.287,807.313 522.954,803.813 535.5,810C 543.266,818.89 543.433,828.057 536,837.5C 523.038,848.91 509.205,850.077 494.5,841C 483.381,828.314 482.547,814.814 492,800.5C 501.003,790.41 511.837,782.91 524.5,778C 598.801,748.094 675.467,727.26 754.5,715.5 Z"/></g>
<g><path style="opacity:0.865" fill="#e7e7e7" d="M 784.5,795.5 C 797.582,796.077 805.749,802.744 809,815.5C 810.378,821.196 810.712,826.862 810,832.5C 819.347,823.171 828.68,823.171 838,832.5C 844.619,846.742 843.452,860.409 834.5,873.5C 825.586,874.996 816.586,875.829 807.5,876C 789.167,876.667 770.833,876.667 752.5,876C 732.029,874.259 721.029,863.092 719.5,842.5C 720.752,825.751 729.585,815.751 746,812.5C 754.124,812.949 759.79,816.949 763,824.5C 764.485,814.361 768.985,805.861 776.5,799C 779.158,797.522 781.825,796.355 784.5,795.5 Z M 784.5,800.5 C 798.463,802.143 805.463,810.143 805.5,824.5C 804.716,831.872 803.716,839.205 802.5,846.5C 803.873,846.657 805.207,846.49 806.5,846C 809.061,840.105 813.061,835.439 818.5,832C 830.86,829.512 837.193,834.679 837.5,847.5C 837.065,855.132 835.398,862.466 832.5,869.5C 804.854,871.881 777.188,872.381 749.5,871C 733.567,868.23 725.233,858.73 724.5,842.5C 724.952,830.22 730.952,822.053 742.5,818C 749.665,816.332 754.832,818.832 758,825.5C 759.802,830.375 761.135,835.375 762,840.5C 763.079,842.394 764.413,842.727 766,841.5C 766.837,830.469 769.17,819.803 773,809.5C 776.045,805.406 779.878,802.406 784.5,800.5 Z"/></g>
</svg>
