<?xml version="1.0" encoding="UTF-8"?>
<!DOCTYPE svg PUBLIC "-//W3C//DTD SVG 1.1//EN" "http://www.w3.org/Graphics/SVG/1.1/DTD/svg11.dtd">
<svg xmlns="http://www.w3.org/2000/svg" version="1.1" width="960px" height="960px" style="shape-rendering:geometricPrecision; text-rendering:geometricPrecision; image-rendering:optimizeQuality; fill-rule:evenodd; clip-rule:evenodd" xmlns:xlink="http://www.w3.org/1999/xlink">
<g><path style="opacity:0.793" fill="#e8e8e8" d="M 391.5,52.5 C 392.239,52.369 392.906,52.5357 393.5,53C 386.841,61.1448 385.008,70.3115 388,80.5C 395.53,98.5601 403.864,116.227 413,133.5C 416.44,144.917 416.106,156.251 412,167.5C 406.757,178.325 400.757,188.658 394,198.5C 387.443,209.505 383.276,221.339 381.5,234C 381.725,246.129 387.058,255.129 397.5,261C 391.091,259.958 386.258,256.458 383,250.5C 380.059,244.843 378.225,238.843 377.5,232.5C 379.681,223.109 382.181,213.776 385,204.5C 392.919,191.665 400.585,178.665 408,165.5C 412.975,152.24 412.309,139.24 406,126.5C 402,119.833 398,113.167 394,106.5C 385.954,94.3174 382.621,80.984 384,66.5C 385.735,61.3606 388.235,56.694 391.5,52.5 Z"/></g>
<g><path style="opacity:0.882" fill="#e7e7e8" d="M 175.5,342.5 C 172.301,347.566 169.634,352.899 167.5,358.5C 179.55,360.343 189.716,365.676 198,374.5C 200.219,378.271 201.885,382.271 203,386.5C 204.228,399.244 205.894,411.91 208,424.5C 207.31,405.24 212.644,387.907 224,372.5C 237.564,356.272 253.564,342.939 272,332.5C 271.283,323.537 270.449,314.537 269.5,305.5C 268.985,291.208 273.318,278.708 282.5,268C 299.684,257.581 314.851,260.081 328,275.5C 333.125,282.246 337.625,289.412 341.5,297C 344.502,296.842 347.502,296.342 350.5,295.5C 352.492,279.308 347.825,265.474 336.5,254C 331.828,251.163 326.828,249.163 321.5,248C 310.833,247.667 300.167,247.333 289.5,247C 280.307,244.653 273.14,239.486 268,231.5C 257.786,213.066 254.452,193.4 258,172.5C 261.731,147.19 273.565,126.69 293.5,111C 300.638,106.447 308.305,104.281 316.5,104.5C 310.582,115.931 309.082,127.931 312,140.5C 315.782,157.747 320.449,174.747 326,191.5C 341.72,223.697 356.053,256.363 369,289.5C 398.058,279.503 422.724,285.836 443,308.5C 440.961,301.06 438.294,293.726 435,286.5C 434.304,282.095 434.637,277.761 436,273.5C 447.481,252.538 459.481,231.871 472,211.5C 475.327,205.693 479.494,200.526 484.5,196C 493.917,190.576 501.751,192.409 508,201.5C 525.643,231.786 540.31,263.453 552,296.5C 561.627,333.539 560.294,370.206 548,406.5C 541.934,418.9 533.934,429.9 524,439.5C 523.764,444.898 521.264,447.564 516.5,447.5C 539.294,489.749 558.794,533.416 575,578.5C 579.941,592.989 584.274,607.655 588,622.5C 588.035,614.25 589.368,606.25 592,598.5C 597.044,589.377 601.711,580.044 606,570.5C 616.719,556.781 627.052,542.781 637,528.5C 646.969,508.188 646.969,487.854 637,467.5C 630.157,455.816 623.824,443.816 618,431.5C 612.116,418.019 611.449,404.353 616,390.5C 618.027,385.785 621.027,381.785 625,378.5C 624.253,380.976 622.919,383.309 621,385.5C 616.252,398.899 616.585,412.233 622,425.5C 630,442.833 638,460.167 646,477.5C 652.34,493.77 651.673,509.77 644,525.5C 639.838,533.828 635.171,541.828 630,549.5C 617.012,564.795 606.012,581.462 597,599.5C 591.072,614.957 590.072,630.623 594,646.5C 598.946,633.942 604.946,621.942 612,610.5C 627.277,587.558 642.943,564.891 659,542.5C 667.192,528.117 674.858,513.45 682,498.5C 688.525,476.036 689.192,453.369 684,430.5C 677.518,405.87 668.518,382.204 657,359.5C 634.808,325.622 613.808,290.956 594,255.5C 575.408,220.798 567.074,183.798 569,144.5C 573.368,104.601 589.868,70.7672 618.5,43C 619.167,42.3333 619.833,42.3333 620.5,43C 583.609,83.3795 570.443,130.546 581,184.5C 589.828,216.152 603.494,245.485 622,272.5C 636.422,293.01 651.088,313.343 666,333.5C 683.594,362.27 696.927,392.937 706,425.5C 711.157,450.26 713.491,475.26 713,500.5C 711.846,508.935 710.18,517.269 708,525.5C 695.899,532.605 684.066,540.105 672.5,548C 662.387,555.567 656.721,565.567 655.5,578C 655.582,581.235 656.082,584.402 657,587.5C 661.41,597.32 666.077,606.986 671,616.5C 671.988,623.668 671.322,630.668 669,637.5C 666.081,643.677 662.414,649.344 658,654.5C 644.653,667.681 631.486,681.014 618.5,694.5C 627.498,694.786 636.498,695.12 645.5,695.5C 648.376,700.086 651.376,704.586 654.5,709C 662.754,712.529 671.087,715.862 679.5,719C 683.825,728.451 687.158,738.284 689.5,748.5C 697.793,746.507 706.127,745.007 714.5,744C 719.333,748.833 724.167,753.667 729,758.5C 735.368,775.273 741.535,792.107 747.5,809C 794.559,811.366 841.559,814.533 888.5,818.5C 888.67,819.822 888.337,820.989 887.5,822C 827.407,817.857 767.24,814.691 707,812.5C 704.111,812.547 701.278,812.88 698.5,813.5C 657.511,812.025 616.511,811.025 575.5,810.5C 575.167,810.833 574.833,811.167 574.5,811.5C 575.752,813.001 576.752,814.668 577.5,816.5C 572.167,818.167 566.833,819.833 561.5,821.5C 563.02,823.662 564.02,825.995 564.5,828.5C 555.055,831.556 545.388,832.723 535.5,832C 523.98,830.951 512.646,829.117 501.5,826.5C 501.709,825.914 502.043,825.414 502.5,825C 501.333,824.833 500.167,824.667 499,824.5C 494.52,825.432 490.02,825.599 485.5,825C 479.947,822.39 474.281,820.057 468.5,818C 462.148,817.346 455.815,817.512 449.5,818.5C 440.52,816.671 431.52,815.004 422.5,813.5C 420.5,813.833 418.5,814.167 416.5,814.5C 411.148,820.969 405.482,821.135 399.5,815C 290.391,817.995 181.891,826.162 74,839.5C 71.7486,838.937 70.7486,837.603 71,835.5C 102.056,831.216 133.223,827.549 164.5,824.5C 165.09,816.149 165.924,807.816 167,799.5C 172.167,790.5 177.333,781.5 182.5,772.5C 191.776,770.837 201.109,770.337 210.5,771C 215.041,777.245 219.208,783.745 223,790.5C 224.912,789.308 226.912,788.308 229,787.5C 232.76,767.605 236.094,747.605 239,727.5C 245.654,720.679 252.488,714.013 259.5,707.5C 242.785,688.409 228.285,667.742 216,645.5C 208.053,628.38 203.553,610.38 202.5,591.5C 174.326,577.654 162.326,555.154 166.5,524C 149.936,512.103 136.103,497.603 125,480.5C 119.106,467.608 112.772,454.941 106,442.5C 97.0577,417.522 90.8911,391.855 87.5,365.5C 87.2918,359.417 89.6251,354.584 94.5,351C 104.263,345.991 114.596,344.324 125.5,346C 138.201,348.178 150.534,351.678 162.5,356.5C 166.855,351.813 171.188,347.146 175.5,342.5 Z M 526.5,267.5 C 537.063,287.523 542.729,308.857 543.5,331.5C 544.621,342.477 544.288,353.477 542.5,364.5C 541.5,364.5 540.5,364.5 539.5,364.5C 540.2,360.202 540.533,355.869 540.5,351.5C 541.166,347.514 541.499,343.347 541.5,339C 541.592,331.614 540.926,324.448 539.5,317.5C 538.782,309.296 537.115,301.296 534.5,293.5C 531.56,284.29 527.56,275.623 522.5,267.5C 521.111,264.393 519.445,261.393 517.5,258.5C 518,258.167 518.5,257.833 519,257.5C 521.755,260.692 524.255,264.025 526.5,267.5 Z M 383.5,290.5 C 400.09,287.632 415.09,291.132 428.5,301C 434.199,306.365 439.533,312.031 444.5,318C 420.662,313.181 396.829,313.347 373,318.5C 371.713,310.778 370.213,303.111 368.5,295.5C 368.709,294.914 369.043,294.414 369.5,294C 374.341,293.005 379.008,291.838 383.5,290.5 Z M 340.5,325.5 C 340.068,326.71 339.401,327.71 338.5,328.5C 336.008,322.182 333.008,316.182 329.5,310.5C 327.164,304.329 324.164,298.495 320.5,293C 321.424,291.511 322.424,291.344 323.5,292.5C 329.467,303.436 335.133,314.436 340.5,325.5 Z M 347.5,300.5 C 348.552,300.351 349.552,300.517 350.5,301C 349.44,303.737 348.606,306.57 348,309.5C 346.833,307.167 345.667,304.833 344.5,302.5C 345.602,301.824 346.602,301.158 347.5,300.5 Z M 588.5,649.5 C 576.999,649.167 565.666,650.334 554.5,653C 554.206,669.075 555.039,685.241 557,701.5C 567.745,700.751 578.578,700.751 589.5,701.5C 589.5,703.167 589.5,704.833 589.5,706.5C 514.689,703.274 447.689,724.274 388.5,769.5C 371.276,747.406 355.776,724.073 342,699.5C 319.769,658.975 299.936,617.309 282.5,574.5C 289.685,566.737 298.352,561.237 308.5,558C 309.059,557.275 309.392,556.442 309.5,555.5C 299.768,535.868 290.434,516.035 281.5,496C 293.076,484.428 303.909,472.262 314,459.5C 323.494,478.501 334.494,496.501 347,513.5C 353.278,521.126 361.111,526.293 370.5,529C 382.581,531.209 391.748,527.042 398,516.5C 404.618,504.886 406.285,492.552 403,479.5C 393.524,437.927 382.024,396.927 368.5,356.5C 370.733,345.271 372.066,333.938 372.5,322.5C 398.18,317.975 423.68,318.641 449,324.5C 470.257,368.847 492.423,412.68 515.5,456C 495.469,456.233 477.303,462.066 461,473.5C 460.516,475.913 460.85,478.246 462,480.5C 472.776,505.385 484.61,529.718 497.5,553.5C 498.167,553.833 498.833,554.167 499.5,554.5C 516.637,545.234 534.97,540.234 554.5,539.5C 570.164,574.819 581.497,611.485 588.5,649.5 Z M 271.5,337.5 C 272.496,337.414 273.329,337.748 274,338.5C 275.518,344.89 276.851,351.223 278,357.5C 260.51,369.98 244.51,384.314 230,400.5C 230.375,387.377 234.708,375.71 243,365.5C 243.333,363.167 243.667,360.833 244,358.5C 253.067,351.253 262.234,344.253 271.5,337.5 Z M 278.5,362.5 C 279.586,362.62 280.253,363.287 280.5,364.5C 286.437,387.644 293.77,410.311 302.5,432.5C 300.265,436.63 297.765,440.63 295,444.5C 287.239,454.351 279.239,464.018 271,473.5C 263.113,477.528 255.613,482.194 248.5,487.5C 237.235,463.54 230.568,438.373 228.5,412C 229.329,410.184 230.163,408.351 231,406.5C 245.174,389.818 261.008,375.151 278.5,362.5 Z M 361.5,380.5 C 370.358,405.265 377.025,430.599 381.5,456.5C 382.127,463.889 383.127,471.223 384.5,478.5C 383.5,478.5 382.5,478.5 381.5,478.5C 380.609,470.819 379.609,463.152 378.5,455.5C 373.753,431.177 367.753,407.177 360.5,383.5C 360.557,382.391 360.89,381.391 361.5,380.5 Z M 513.5,460.5 C 515.288,460.215 516.955,460.548 518.5,461.5C 530.584,485.833 542.251,510.333 553.5,535C 536.648,535.38 520.648,539.213 505.5,546.5C 504.491,543.663 502.491,542.33 499.5,542.5C 499.657,543.873 499.49,545.207 499,546.5C 487.54,525.115 477.04,503.282 467.5,481C 472.988,479.881 473.654,477.548 469.5,474C 483.068,465.53 497.735,461.03 513.5,460.5 Z M 255.5,489.5 C 254.252,491.649 252.752,493.649 251,495.5C 250.713,492.273 252.213,490.273 255.5,489.5 Z M 300.5,549.5 C 295.449,548.091 294.449,549.591 297.5,554C 298.793,554.49 300.127,554.657 301.5,554.5C 301.5,553.5 301.5,552.5 301.5,551.5C 302.954,552.52 303.287,553.687 302.5,555C 294.364,558.233 287.031,562.733 280.5,568.5C 273.161,552.649 266.494,536.482 260.5,520C 265.579,512.915 271.413,506.415 278,500.5C 285.788,516.696 293.288,533.03 300.5,549.5 Z M 171.5,527.5 C 185.65,534.406 199.983,541.073 214.5,547.5C 208.974,559.935 205.474,572.935 204,586.5C 182.233,572.974 171.4,553.308 171.5,527.5 Z M 236.5,552.5 C 241.7,553.449 246.866,554.449 252,555.5C 259.704,574.406 267.538,593.239 275.5,612C 257.404,608.892 239.737,604.058 222.5,597.5C 223.952,581.479 228.619,566.479 236.5,552.5 Z M 422.5,554.5 C 453.226,551.783 477.059,563.116 494,588.5C 512.212,627.125 504.379,659.291 470.5,685C 436.724,701.905 406.557,697.072 380,670.5C 359.956,643.286 358.289,614.953 375,585.5C 386.824,569.006 402.657,558.673 422.5,554.5 Z M 460.5,581.5 C 477.356,592.888 484.856,608.888 483,629.5C 482.616,633.653 481.616,637.653 480,641.5C 479.29,642.973 478.124,643.64 476.5,643.5C 483.88,620.15 478.38,600.483 460,584.5C 459.53,583.423 459.697,582.423 460.5,581.5 Z M 410.5,589.5 C 411.152,590.449 411.486,591.615 411.5,593C 410.97,598.539 410.303,604.039 409.5,609.5C 416.147,610.392 422.814,610.392 429.5,609.5C 428.074,603.548 427.241,597.548 427,591.5C 428.757,597.624 430.257,603.791 431.5,610C 424.192,611.104 416.858,611.937 409.5,612.5C 409.5,614.833 409.5,617.167 409.5,619.5C 416.237,621.302 422.904,623.302 429.5,625.5C 426.399,633.164 428.566,638.497 436,641.5C 444.906,634.701 445.406,635.201 437.5,643C 434.246,642.303 431.246,640.803 428.5,638.5C 427.226,641.367 426.393,644.367 426,647.5C 425.977,640.482 426.477,633.482 427.5,626.5C 423.573,625.469 419.739,624.135 416,622.5C 415.171,626.161 413.671,629.495 411.5,632.5C 405.536,634.432 399.536,636.266 393.5,638C 392.978,638.561 392.645,639.228 392.5,640C 394.101,644.179 394.767,648.345 394.5,652.5C 392.539,647.321 391.205,641.988 390.5,636.5C 397.316,635.463 403.982,633.796 410.5,631.5C 412.119,628.812 413.453,625.979 414.5,623C 412.431,621.477 410.097,620.643 407.5,620.5C 408.277,614.178 408.444,607.845 408,601.5C 405.914,599.751 403.581,598.417 401,597.5C 398.37,599.406 395.537,600.573 392.5,601C 395.166,598.665 398.166,596.831 401.5,595.5C 404.086,597.043 406.586,598.709 409,600.5C 409.24,596.748 409.74,593.081 410.5,589.5 Z M 222.5,603.5 C 239.901,608.213 257.567,611.713 275.5,614C 278.686,619.895 280.853,626.062 282,632.5C 274.587,637.79 267.087,642.957 259.5,648C 258.196,648.804 257.529,649.971 257.5,651.5C 261.129,666.814 264.296,682.147 267,697.5C 253.331,680.179 241.664,661.512 232,641.5C 226.736,629.342 223.569,616.675 222.5,603.5 Z M 578.5,653.5 C 582.434,654.36 586.434,654.693 590.5,654.5C 588.71,668.423 588.044,682.423 588.5,696.5C 580.58,696.185 572.747,696.518 565,697.5C 565.266,694.099 563.766,692.433 560.5,692.5C 559.452,682.494 559.452,672.494 560.5,662.5C 562.694,660.685 563.028,658.518 561.5,656C 567.303,655.109 572.97,654.275 578.5,653.5 Z M 627.5,699.5 C 632.875,699.172 638.208,699.505 643.5,700.5C 645.969,704.801 648.636,708.967 651.5,713C 659.54,716.069 667.54,719.235 675.5,722.5C 679.123,731.2 682.456,740.033 685.5,749C 682.56,750.152 679.56,751.152 676.5,752C 669.333,758.5 662.167,765 655,771.5C 654.5,783.162 654.333,794.829 654.5,806.5C 653.167,806.5 651.833,806.5 650.5,806.5C 649.236,793.814 647.736,781.147 646,768.5C 641.516,761.344 637.016,754.177 632.5,747C 633.968,738.221 634.468,729.388 634,720.5C 629.532,713.732 624.699,707.232 619.5,701C 622.365,700.817 625.031,700.317 627.5,699.5 Z M 323.5,717.5 C 325.592,717.561 327.092,718.561 328,720.5C 332.125,727.919 336.625,735.086 341.5,742C 333.864,745.818 326.198,749.651 318.5,753.5C 308.13,744.798 298.797,735.131 290.5,724.5C 301.647,722.259 312.647,719.925 323.5,717.5 Z M 585.5,739.5 C 585.004,748.31 583.67,756.976 581.5,765.5C 579.298,773.769 576.298,781.769 572.5,789.5C 571.692,789.192 571.025,788.692 570.5,788C 571.267,786.53 571.933,785.03 572.5,783.5C 576.089,775.812 578.756,767.812 580.5,759.5C 581.315,752.794 582.315,746.127 583.5,739.5C 583.5,735.5 583.5,731.5 583.5,727.5C 583.369,726.624 583.702,725.957 584.5,725.5C 585.493,730.12 585.827,734.786 585.5,739.5 Z M 524.5,742.5 C 532.437,750.938 540.604,759.272 549,767.5C 551.489,776.457 553.823,785.457 556,794.5C 560.448,801.282 565.281,807.782 570.5,814C 566.524,815.197 562.524,815.864 558.5,816C 555.08,810.493 551.414,805.159 547.5,800C 542.876,797.737 538.209,795.57 533.5,793.5C 526.825,796.172 520.158,798.839 513.5,801.5C 510.56,807.046 507.894,812.713 505.5,818.5C 501.305,820.233 496.972,820.733 492.5,820C 498.333,811.5 504.167,803 510,794.5C 513.168,783.665 515.168,772.665 516,761.5C 512.625,755.915 509.125,750.415 505.5,745C 512.029,744.552 518.363,743.718 524.5,742.5 Z M 342.5,746.5 C 343.675,746.281 344.675,746.614 345.5,747.5C 351.134,755.933 357.134,764.1 363.5,772C 357.646,774.299 351.646,775.632 345.5,776C 339.041,771.21 332.874,766.043 327,760.5C 326.293,758.919 325.46,757.419 324.5,756C 330.688,753.074 336.688,749.907 342.5,746.5 Z M 301.5,749.5 C 306.007,753.168 310.673,756.668 315.5,760C 317.869,762.938 318.036,766.104 316,769.5C 312.667,772.167 309.333,774.833 306,777.5C 303.33,774.813 301.164,771.813 299.5,768.5C 300.126,762.115 300.793,755.782 301.5,749.5 Z M 615.5,765.5 C 617.375,771.148 619.041,776.982 620.5,783C 626.363,788.186 632.53,793.02 639,797.5C 639.498,800.482 639.665,803.482 639.5,806.5C 629.494,806.666 619.494,806.5 609.5,806C 610.852,803.706 611.519,801.206 611.5,798.5C 610.646,791.204 609.313,784.038 607.5,777C 610.802,773.544 613.469,769.711 615.5,765.5 Z M 467.5,772.5 C 474.438,775.035 481.438,777.368 488.5,779.5C 488.66,781.199 488.494,782.866 488,784.5C 481,793.5 474,802.5 467,811.5C 463.249,812.655 459.415,813.155 455.5,813C 461.316,808.351 466.649,803.184 471.5,797.5C 468.14,793.473 464.473,789.806 460.5,786.5C 462.847,781.807 465.18,777.14 467.5,772.5 Z M 189.5,775.5 C 195.842,775.334 202.175,775.5 208.5,776C 211.583,781.502 214.916,786.835 218.5,792C 216.532,793.544 214.365,794.711 212,795.5C 205.577,804.678 198.911,813.678 192,822.5C 189.991,808.566 188.491,794.566 187.5,780.5C 187.724,778.545 188.391,776.879 189.5,775.5 Z M 314.5,776.5 C 314.604,779.265 314.771,782.265 315,785.5C 320.668,789.673 326.168,794.007 331.5,798.5C 331.192,799.308 330.692,799.975 330,800.5C 329.025,816.019 327.525,815.685 325.5,799.5C 321.038,798.847 316.705,797.68 312.5,796C 309.465,792.63 306.132,789.63 302.5,787C 306.759,783.718 310.759,780.218 314.5,776.5 Z M 336.5,776.5 C 338.027,776.427 339.027,777.094 339.5,778.5C 337.973,778.573 336.973,777.906 336.5,776.5 Z M 386.5,802.5 C 374.716,796.105 363.383,788.938 352.5,781C 356.85,778.438 361.516,777.104 366.5,777C 373,785.662 379.666,794.162 386.5,802.5 Z M 339.5,778.5 C 341.686,778.511 342.519,779.511 342,781.5C 340.955,780.627 340.122,779.627 339.5,778.5 Z M 351.5,785.5 C 364.813,793.827 378.48,801.661 392.5,809C 388.25,810.703 383.917,810.87 379.5,809.5C 377.694,806.528 375.694,803.695 373.5,801C 367.459,798.598 361.459,796.098 355.5,793.5C 353.628,791.09 352.295,788.423 351.5,785.5 Z M 241.5,786.5 C 248.41,791.904 254.91,797.904 261,804.5C 261.827,808.541 261.66,812.541 260.5,816.5C 249.69,817.523 238.857,818.523 228,819.5C 227.167,819.167 226.333,818.833 225.5,818.5C 222.833,812.167 220.167,805.833 217.5,799.5C 225.239,794.631 233.239,790.298 241.5,786.5 Z"/></g>
<g><path style="opacity:0.864" fill="#e8e8e8" d="M 470.5,121.5 C 471.768,123.905 472.435,126.572 472.5,129.5C 481.706,129.948 482.373,131.948 474.5,135.5C 473.682,138.107 473.182,140.774 473,143.5C 470.815,142.072 468.815,140.405 467,138.5C 464.808,139.399 462.642,140.399 460.5,141.5C 460.167,141.167 459.833,140.833 459.5,140.5C 460.637,138.393 461.637,136.227 462.5,134C 461.299,131.766 459.965,129.599 458.5,127.5C 458.833,127.167 459.167,126.833 459.5,126.5C 461.709,127.106 463.876,127.773 466,128.5C 467.511,126.138 469.011,123.805 470.5,121.5 Z"/></g>
<g><path style="opacity:0.933" fill="#0252fd" d="M 524.5,126.5 C 521.796,125.286 519.129,125.286 516.5,126.5C 514.891,125.102 514.058,123.435 514,121.5C 516.267,120.065 518.267,120.398 520,122.5C 521.314,120.188 522.981,118.188 525,116.5C 526.5,116.667 527.333,117.5 527.5,119C 526.917,121.499 525.584,123.499 523.5,125C 524.056,125.383 524.389,125.883 524.5,126.5 Z"/></g>
<g><path style="opacity:0.869" fill="#0473f7" d="M 524.5,126.5 C 527.711,127.823 528.711,129.99 527.5,133C 524.72,133.269 522.554,132.102 521,129.5C 519.54,131.466 517.873,133.132 516,134.5C 514.5,134.333 513.667,133.5 513.5,132C 514.124,129.915 515.124,128.082 516.5,126.5C 519.129,125.286 521.796,125.286 524.5,126.5 Z"/></g>
<g><path style="opacity:0.833" fill="#e8e8e8" d="M 455.5,169.5 C 457.635,169.147 458.968,169.98 459.5,172C 458.049,174.953 456.382,177.787 454.5,180.5C 456.833,183.167 459.167,185.833 461.5,188.5C 460.833,189.833 459.833,190.833 458.5,191.5C 456.167,189.5 453.833,187.5 451.5,185.5C 449.461,187.742 447.795,190.242 446.5,193C 443.333,193.833 442.167,192.667 443,189.5C 444.123,186.751 445.623,184.251 447.5,182C 444.603,180.285 443.269,177.785 443.5,174.5C 446.325,174.081 448.491,175.081 450,177.5C 452.09,174.978 453.924,172.312 455.5,169.5 Z"/></g>
<g><path style="opacity:0.047" fill="#e9eae9" d="M 228.5,194.5 C 229.833,195.167 229.833,195.167 228.5,194.5 Z"/></g>
<g><path style="opacity:1" fill="#074ffd" d="M 523.5,240.5 C 502.5,241.833 481.5,241.833 460.5,240.5C 466.806,228.56 473.639,216.893 481,205.5C 488.757,195.335 496.757,195.002 505,204.5C 511.448,216.397 517.615,228.397 523.5,240.5 Z"/></g>
<g><path style="opacity:0.721" fill="#e8e8e8" d="M 228.5,195.5 C 226.65,199.645 226.15,203.979 227,208.5C 230.966,216.48 234.966,224.48 239,232.5C 242.489,238.912 243.155,245.579 241,252.5C 235.592,262.136 231.759,272.303 229.5,283C 230.809,295.125 236.143,304.959 245.5,312.5C 233.347,306.139 227.014,295.972 226.5,282C 227.206,278.138 228.039,274.305 229,270.5C 234.595,262.48 238.095,253.647 239.5,244C 239.435,241.409 238.935,238.909 238,236.5C 233.397,228.293 229.063,219.959 225,211.5C 224.333,207.833 224.333,204.167 225,200.5C 225.223,198.119 226.39,196.453 228.5,195.5 Z"/></g>
<g><path style="opacity:0.995" fill="#0455fc" d="M 460.5,240.5 C 481.5,241.833 502.5,241.833 523.5,240.5C 528.563,248.629 532.563,257.296 535.5,266.5C 532.713,267.477 529.713,267.81 526.5,267.5C 524.255,264.025 521.755,260.692 519,257.5C 518.5,257.833 518,258.167 517.5,258.5C 519.445,261.393 521.111,264.393 522.5,267.5C 496.328,267.831 470.328,267.498 444.5,266.5C 449.346,257.463 454.679,248.796 460.5,240.5 Z"/></g>
<g><path style="opacity:0.89" fill="#e8e8e8" d="M 675.5,253.5 C 677.951,255.123 679.951,257.289 681.5,260C 684.951,260.473 688.285,259.973 691.5,258.5C 691.833,258.833 692.167,259.167 692.5,259.5C 690.618,262.213 688.951,265.047 687.5,268C 688.91,270.818 690.577,273.485 692.5,276C 688.833,275.667 685.167,275.333 681.5,275C 679.288,277.043 677.288,279.209 675.5,281.5C 674.676,278.215 674.176,274.882 674,271.5C 671.059,270.188 668.226,268.688 665.5,267C 668.008,265.55 670.675,264.383 673.5,263.5C 675.183,260.398 675.849,257.064 675.5,253.5 Z"/></g>
<g><path style="opacity:0.854" fill="#e9e9e9" d="M 162.5,255.5 C 164.346,255.222 165.68,255.889 166.5,257.5C 165.543,259.918 164.209,262.084 162.5,264C 165.167,265.333 167.833,266.667 170.5,268C 171.93,269.88 171.596,271.38 169.5,272.5C 166.382,271.441 163.382,270.108 160.5,268.5C 158.461,270.742 156.795,273.242 155.5,276C 154.207,276.49 152.873,276.657 151.5,276.5C 151.851,272.631 153.184,269.131 155.5,266C 153.654,264.22 151.987,262.22 150.5,260C 152.5,256.667 154.5,256.667 156.5,260C 157.5,260.667 158.5,260.667 159.5,260C 160.386,258.385 161.386,256.885 162.5,255.5 Z"/></g>
<g><path style="opacity:0.994" fill="#005afb" d="M 444.5,266.5 C 470.328,267.498 496.328,267.831 522.5,267.5C 527.56,275.623 531.56,284.29 534.5,293.5C 531.402,293.413 531.068,293.913 533.5,295C 531.833,295.667 530.167,295.667 528.5,295C 530.595,294.444 530.762,293.944 529,293.5C 526.394,295.317 523.56,295.817 520.5,295C 522.595,294.444 522.762,293.944 521,293.5C 518.394,295.317 515.56,295.817 512.5,295C 514.595,294.444 514.762,293.944 513,293.5C 510.394,295.317 507.56,295.817 504.5,295C 506.595,294.444 506.762,293.944 505,293.5C 502.394,295.317 499.56,295.817 496.5,295C 498.595,294.444 498.762,293.944 497,293.5C 494.394,295.317 491.56,295.817 488.5,295C 490.595,294.444 490.762,293.944 489,293.5C 486.394,295.317 483.56,295.817 480.5,295C 482.595,294.444 482.762,293.944 481,293.5C 478.394,295.317 475.56,295.817 472.5,295C 474.595,294.444 474.762,293.944 473,293.5C 470.394,295.317 467.56,295.817 464.5,295C 466.595,294.444 466.762,293.944 465,293.5C 463.48,294.507 461.813,295.173 460,295.5C 458.119,295.07 456.619,294.404 455.5,293.5C 453.297,288.768 450.797,284.101 448,279.5C 446.306,276.642 444.139,274.309 441.5,272.5C 441.654,270.03 442.654,268.03 444.5,266.5 Z"/></g>
<g><path style="opacity:0.987" fill="#054efd" d="M 340.5,325.5 C 335.133,314.436 329.467,303.436 323.5,292.5C 322.424,291.344 321.424,291.511 320.5,293C 324.164,298.495 327.164,304.329 329.5,310.5C 315.01,311.496 300.343,311.829 285.5,311.5C 284.272,305.073 283.272,298.573 282.5,292C 283.083,287.663 284.25,283.496 286,279.5C 288.357,274.768 291.19,270.435 294.5,266.5C 302.414,265.097 309.747,266.597 316.5,271C 324.118,277.287 330.285,284.787 335,293.5C 339.224,300.781 343.057,308.281 346.5,316C 344.856,319.468 342.856,322.635 340.5,325.5 Z"/></g>
<g><path style="opacity:0.933" fill="#015ffa" d="M 121.5,289.5 C 118.044,289.305 114.378,289.305 110.5,289.5C 109.04,287.537 107.373,285.704 105.5,284C 107.833,283.667 110.167,283.333 112.5,283C 113.708,280.75 115.041,278.583 116.5,276.5C 117.598,278.632 118.598,280.798 119.5,283C 121.9,283.186 124.234,283.686 126.5,284.5C 124.994,286.401 123.327,288.068 121.5,289.5 Z"/></g>
<g><path style="opacity:0.799" fill="#0273f7" d="M 121.5,289.5 C 124.081,298.958 122.247,299.958 116,292.5C 113.75,293.708 111.583,295.041 109.5,296.5C 109.167,296.167 108.833,295.833 108.5,295.5C 109.372,293.55 110.039,291.55 110.5,289.5C 114.378,289.305 118.044,289.305 121.5,289.5 Z"/></g>
<g><path style="opacity:1" fill="#1a6df8" d="M 441.5,272.5 C 444.139,274.309 446.306,276.642 448,279.5C 450.797,284.101 453.297,288.768 455.5,293.5C 458.794,302.398 462.46,311.065 466.5,319.5C 464.8,319.626 463.3,320.293 462,321.5C 460.238,321.056 460.405,320.556 462.5,320C 459.547,319.108 456.881,319.608 454.5,321.5C 453.828,320.051 453.161,318.718 452.5,317.5C 452.186,314.053 451.352,310.72 450,307.5C 445.806,300.446 442.139,293.112 439,285.5C 437.969,280.696 438.802,276.363 441.5,272.5 Z"/></g>
<g><path style="opacity:0.997" fill="#0060fa" d="M 455.5,293.5 C 456.619,294.404 458.119,295.07 460,295.5C 461.813,295.173 463.48,294.507 465,293.5C 466.762,293.944 466.595,294.444 464.5,295C 467.56,295.817 470.394,295.317 473,293.5C 474.762,293.944 474.595,294.444 472.5,295C 475.56,295.817 478.394,295.317 481,293.5C 482.762,293.944 482.595,294.444 480.5,295C 483.56,295.817 486.394,295.317 489,293.5C 490.762,293.944 490.595,294.444 488.5,295C 491.56,295.817 494.394,295.317 497,293.5C 498.762,293.944 498.595,294.444 496.5,295C 499.56,295.817 502.394,295.317 505,293.5C 506.762,293.944 506.595,294.444 504.5,295C 507.56,295.817 510.394,295.317 513,293.5C 514.762,293.944 514.595,294.444 512.5,295C 515.56,295.817 518.394,295.317 521,293.5C 522.762,293.944 522.595,294.444 520.5,295C 523.56,295.817 526.394,295.317 529,293.5C 530.762,293.944 530.595,294.444 528.5,295C 530.167,295.667 531.833,295.667 533.5,295C 531.068,293.913 531.402,293.413 534.5,293.5C 537.115,301.296 538.782,309.296 539.5,317.5C 538.076,319.155 536.243,320.488 534,321.5C 532.238,321.056 532.405,320.556 534.5,320C 531.44,319.183 528.606,319.683 526,321.5C 524.238,321.056 524.405,320.556 526.5,320C 523.44,319.183 520.606,319.683 518,321.5C 516.238,321.056 516.405,320.556 518.5,320C 515.44,319.183 512.606,319.683 510,321.5C 508.238,321.056 508.405,320.556 510.5,320C 507.44,319.183 504.606,319.683 502,321.5C 500.238,321.056 500.405,320.556 502.5,320C 499.44,319.183 496.606,319.683 494,321.5C 492.238,321.056 492.405,320.556 494.5,320C 491.44,319.183 488.606,319.683 486,321.5C 484.238,321.056 484.405,320.556 486.5,320C 483.44,319.183 480.606,319.683 478,321.5C 476.238,321.056 476.405,320.556 478.5,320C 477.333,319.833 476.167,319.667 475,319.5C 472.761,320.091 470.594,320.758 468.5,321.5C 467.833,320.833 467.167,320.167 466.5,319.5C 462.46,311.065 458.794,302.398 455.5,293.5 Z"/></g>
<g><path style="opacity:0.975" fill="#1262fa" d="M 535.5,266.5 C 544.694,284.418 550.694,303.418 553.5,323.5C 553.5,326.167 553.5,328.833 553.5,331.5C 550.167,331.5 546.833,331.5 543.5,331.5C 542.729,308.857 537.063,287.523 526.5,267.5C 529.713,267.81 532.713,267.477 535.5,266.5 Z"/></g>
<g><path style="opacity:1" fill="#1f61fb" d="M 294.5,266.5 C 291.19,270.435 288.357,274.768 286,279.5C 284.25,283.496 283.083,287.663 282.5,292C 283.272,298.573 284.272,305.073 285.5,311.5C 287.03,316.093 288.364,320.76 289.5,325.5C 286.744,327.212 283.744,327.712 280.5,327C 282.595,326.444 282.762,325.944 281,325.5C 279.989,326.056 279.156,326.722 278.5,327.5C 275.148,313.652 274.648,299.652 277,285.5C 279.922,276.414 285.755,270.081 294.5,266.5 Z"/></g>
<g><path style="opacity:0.857" fill="#e8e8e8" d="M 719.5,300.5 C 721.196,300.685 722.529,301.519 723.5,303C 721.494,306.017 719.494,309.017 717.5,312C 719.433,314.732 721.933,316.899 725,318.5C 725.854,320.607 725.188,321.941 723,322.5C 719.738,320.907 716.738,318.907 714,316.5C 712.5,318 711,319.5 709.5,321C 708.551,321.617 707.718,321.451 707,320.5C 706.333,319.167 706.333,317.833 707,316.5C 708.236,315.601 709.07,314.434 709.5,313C 707.727,310.41 706.727,307.577 706.5,304.5C 709.808,303.974 711.974,305.307 713,308.5C 715.415,305.986 717.581,303.319 719.5,300.5 Z"/></g>
<g><path style="opacity:0.993" fill="#0054fc" d="M 329.5,310.5 C 333.008,316.182 336.008,322.182 338.5,328.5C 336.378,331.957 334.711,335.623 333.5,339.5C 320.087,339.814 306.754,339.481 293.5,338.5C 292.171,334.178 290.837,329.845 289.5,325.5C 288.364,320.76 287.03,316.093 285.5,311.5C 300.343,311.829 315.01,311.496 329.5,310.5 Z"/></g>
<g><path style="opacity:0.078" fill="#e5e6e5" d="M 245.5,312.5 C 246.833,313.167 246.833,313.167 245.5,312.5 Z"/></g>
<g><path style="opacity:1" fill="#1866f9" d="M 289.5,325.5 C 290.837,329.845 292.171,334.178 293.5,338.5C 296.309,345.262 298.309,352.262 299.5,359.5C 294.073,359.782 288.74,359.449 283.5,358.5C 281.702,348.18 280.036,337.847 278.5,327.5C 279.156,326.722 279.989,326.056 281,325.5C 282.762,325.944 282.595,326.444 280.5,327C 283.744,327.712 286.744,327.212 289.5,325.5 Z"/></g>
<g><path style="opacity:0.993" fill="#0067f9" d="M 539.5,317.5 C 540.926,324.448 541.592,331.614 541.5,339C 541.499,343.347 541.166,347.514 540.5,351.5C 520.833,351.5 501.167,351.5 481.5,351.5C 476.61,341.722 472.277,331.722 468.5,321.5C 470.594,320.758 472.761,320.091 475,319.5C 476.167,319.667 477.333,319.833 478.5,320C 476.405,320.556 476.238,321.056 478,321.5C 480.606,319.683 483.44,319.183 486.5,320C 484.405,320.556 484.238,321.056 486,321.5C 488.606,319.683 491.44,319.183 494.5,320C 492.405,320.556 492.238,321.056 494,321.5C 496.606,319.683 499.44,319.183 502.5,320C 500.405,320.556 500.238,321.056 502,321.5C 504.606,319.683 507.44,319.183 510.5,320C 508.405,320.556 508.238,321.056 510,321.5C 512.606,319.683 515.44,319.183 518.5,320C 516.405,320.556 516.238,321.056 518,321.5C 520.606,319.683 523.44,319.183 526.5,320C 524.405,320.556 524.238,321.056 526,321.5C 528.606,319.683 531.44,319.183 534.5,320C 532.405,320.556 532.238,321.056 534,321.5C 536.243,320.488 538.076,319.155 539.5,317.5 Z"/></g>
<g><path style="opacity:1" fill="#025afb" d="M 293.5,338.5 C 306.754,339.481 320.087,339.814 333.5,339.5C 333.662,348.916 332.995,358.25 331.5,367.5C 321.833,367.5 312.167,367.5 302.5,367.5C 302.267,364.458 301.267,361.792 299.5,359.5C 298.309,352.262 296.309,345.262 293.5,338.5 Z"/></g>
<g><path style="opacity:0.016" fill="#fefffe" d="M 175.5,341.5 C 176.833,342.167 176.833,342.167 175.5,341.5 Z"/></g>
<g><path style="opacity:1" fill="#1a77f6" d="M 452.5,317.5 C 453.161,318.718 453.828,320.051 454.5,321.5C 456.881,319.608 459.547,319.108 462.5,320C 460.405,320.556 460.238,321.056 462,321.5C 463.3,320.293 464.8,319.626 466.5,319.5C 467.167,320.167 467.833,320.833 468.5,321.5C 472.277,331.722 476.61,341.722 481.5,351.5C 485.306,360.446 489.639,369.112 494.5,377.5C 494.5,378.167 494.5,378.833 494.5,379.5C 493.952,378.225 492.619,377.558 490.5,377.5C 488.865,377.878 487.365,378.544 486,379.5C 484.238,379.056 484.405,378.556 486.5,378C 484.866,377.506 483.199,377.34 481.5,377.5C 473.049,358.597 463.549,340.263 453,322.5C 452.506,320.866 452.34,319.199 452.5,317.5 Z"/></g>
<g><path style="opacity:0.996" fill="#036df8" d="M 553.5,323.5 C 555.027,341.143 554.36,358.81 551.5,376.5C 547.775,377.402 544.108,378.235 540.5,379C 541.167,378.667 541.833,378.333 542.5,378C 539.44,377.183 536.606,377.683 534,379.5C 532.238,379.056 532.405,378.556 534.5,378C 531.44,377.183 528.606,377.683 526,379.5C 524.238,379.056 524.405,378.556 526.5,378C 523.44,377.183 520.606,377.683 518,379.5C 516.238,379.056 516.405,378.556 518.5,378C 515.44,377.183 512.606,377.683 510,379.5C 508.238,379.056 508.405,378.556 510.5,378C 507.44,377.183 504.606,377.683 502,379.5C 500.238,379.056 500.405,378.556 502.5,378C 499.854,377.503 497.187,377.336 494.5,377.5C 489.639,369.112 485.306,360.446 481.5,351.5C 501.167,351.5 520.833,351.5 540.5,351.5C 540.533,355.869 540.2,360.202 539.5,364.5C 540.5,364.5 541.5,364.5 542.5,364.5C 544.288,353.477 544.621,342.477 543.5,331.5C 546.833,331.5 550.167,331.5 553.5,331.5C 553.5,328.833 553.5,326.167 553.5,323.5 Z"/></g>
<g><path style="opacity:1" fill="#064dfd" d="M 147.5,385.5 C 133.255,386.122 119.255,385.455 105.5,383.5C 103.704,373.189 102.038,362.856 100.5,352.5C 108.151,349.683 116.151,348.849 124.5,350C 137.155,352.164 149.155,355.997 160.5,361.5C 155.108,368.952 150.775,376.952 147.5,385.5 Z"/></g>
<g><path style="opacity:1" fill="#1c6ef8" d="M 283.5,358.5 C 288.74,359.449 294.073,359.782 299.5,359.5C 301.267,361.792 302.267,364.458 302.5,367.5C 305.921,376.761 308.921,386.094 311.5,395.5C 305.833,395.5 300.167,395.5 294.5,395.5C 290.389,383.408 286.722,371.075 283.5,358.5 Z"/></g>
<g><path style="opacity:1" fill="#0461fa" d="M 302.5,367.5 C 312.167,367.5 321.833,367.5 331.5,367.5C 328.803,382.305 324.47,396.639 318.5,410.5C 317.503,410.53 316.836,410.03 316.5,409C 315.506,404.179 313.84,399.679 311.5,395.5C 308.921,386.094 305.921,376.761 302.5,367.5 Z"/></g>
<g><path style="opacity:0.801" fill="#004bfe" d="M 745.5,405.5 C 743.876,405.64 742.71,404.973 742,403.5C 741.601,403.728 741.435,404.062 741.5,404.5C 739.682,393.02 740.849,381.687 745,370.5C 750.088,360.376 758.255,355.542 769.5,356C 771.335,356.928 771.668,358.094 770.5,359.5C 755.869,361.299 747.702,369.633 746,384.5C 745.5,391.492 745.334,398.492 745.5,405.5 Z"/></g>
<g><path style="opacity:1" fill="#195ffb" d="M 100.5,352.5 C 102.038,362.856 103.704,373.189 105.5,383.5C 106.659,388.468 107.659,393.468 108.5,398.5C 107.596,397.791 107.263,396.791 107.5,395.5C 104.5,395.5 101.5,395.5 98.5,395.5C 93.8479,383.587 92.0146,371.254 93,358.5C 95.0865,355.906 97.5865,353.906 100.5,352.5 Z"/></g>
<g><path style="opacity:1" fill="#1a82f5" d="M 481.5,377.5 C 483.199,377.34 484.866,377.506 486.5,378C 484.405,378.556 484.238,379.056 486,379.5C 487.365,378.544 488.865,377.878 490.5,377.5C 492.619,377.558 493.952,378.225 494.5,379.5C 499.532,387.893 504.199,396.56 508.5,405.5C 512.431,413.462 516.264,421.462 520,429.5C 521.444,431.155 523.278,431.822 525.5,431.5C 521.87,435.631 518.037,439.631 514,443.5C 502.881,421.597 492.048,399.597 481.5,377.5 Z"/></g>
<g><path style="opacity:1" fill="#0273f7" d="M 551.5,376.5 C 550.233,386.57 547.566,396.237 543.5,405.5C 540.402,405.587 540.068,405.087 542.5,404C 540.801,403.607 539.301,404.107 538,405.5C 536.238,405.056 536.405,404.556 538.5,404C 536.801,403.607 535.301,404.107 534,405.5C 532.238,405.056 532.405,404.556 534.5,404C 532.801,403.607 531.301,404.107 530,405.5C 528.238,405.056 528.405,404.556 530.5,404C 528.801,403.607 527.301,404.107 526,405.5C 524.238,405.056 524.405,404.556 526.5,404C 524.801,403.607 523.301,404.107 522,405.5C 520.238,405.056 520.405,404.556 522.5,404C 520.801,403.607 519.301,404.107 518,405.5C 516.238,405.056 516.405,404.556 518.5,404C 516.801,403.607 515.301,404.107 514,405.5C 512.238,405.056 512.405,404.556 514.5,404C 514,403.833 513.5,403.667 513,403.5C 511.7,404.707 510.2,405.374 508.5,405.5C 504.199,396.56 499.532,387.893 494.5,379.5C 494.5,378.833 494.5,378.167 494.5,377.5C 497.187,377.336 499.854,377.503 502.5,378C 500.405,378.556 500.238,379.056 502,379.5C 504.606,377.683 507.44,377.183 510.5,378C 508.405,378.556 508.238,379.056 510,379.5C 512.606,377.683 515.44,377.183 518.5,378C 516.405,378.556 516.238,379.056 518,379.5C 520.606,377.683 523.44,377.183 526.5,378C 524.405,378.556 524.238,379.056 526,379.5C 528.606,377.683 531.44,377.183 534.5,378C 532.405,378.556 532.238,379.056 534,379.5C 536.606,377.683 539.44,377.183 542.5,378C 541.833,378.333 541.167,378.667 540.5,379C 544.108,378.235 547.775,377.402 551.5,376.5 Z"/></g>
<g><path style="opacity:1" fill="#0054fc" d="M 105.5,383.5 C 119.255,385.455 133.255,386.122 147.5,385.5C 145.09,392.623 143.757,399.957 143.5,407.5C 132.833,407.5 122.167,407.5 111.5,407.5C 110.304,404.579 109.304,401.579 108.5,398.5C 107.659,393.468 106.659,388.468 105.5,383.5 Z"/></g>
<g><path style="opacity:1" fill="#0854fc" d="M 200.5,401.5 C 200.5,403.5 200.5,405.5 200.5,407.5C 183.833,407.5 167.167,407.5 150.5,407.5C 150.145,390.571 154.811,375.238 164.5,361.5C 172.778,363.981 180.778,367.148 188.5,371C 197.574,379.093 201.574,389.26 200.5,401.5 Z"/></g>
<g><path style="opacity:0.832" fill="#0057fc" d="M 639.5,395.5 C 635.702,396.483 631.702,396.817 627.5,396.5C 625.272,395.678 624.605,394.345 625.5,392.5C 628.166,393.738 630.832,393.738 633.5,392.5C 634.174,390.483 635.341,388.817 637,387.5C 637.943,390.251 638.776,392.917 639.5,395.5 Z"/></g>
<g><path style="opacity:1" fill="#1b74f7" d="M 294.5,395.5 C 300.167,395.5 305.833,395.5 311.5,395.5C 313.84,399.679 315.506,404.179 316.5,409C 316.836,410.03 317.503,410.53 318.5,410.5C 314.556,416.951 310.389,423.284 306,429.5C 301.464,418.391 297.631,407.058 294.5,395.5 Z"/></g>
<g><path style="opacity:0.989" fill="#0169f9" d="M 639.5,395.5 C 648.603,396.768 648.769,398.768 640,401.5C 639.949,404.277 639.782,406.943 639.5,409.5C 637.5,407.833 635.5,406.167 633.5,404.5C 630.826,405.69 628.16,406.524 625.5,407C 626.833,404.667 628.167,402.333 629.5,400C 628.177,399.184 627.511,398.017 627.5,396.5C 631.702,396.817 635.702,396.483 639.5,395.5 Z"/></g>
<g><path style="opacity:1" fill="#0579f6" d="M 543.5,405.5 C 538.967,415.25 532.967,423.916 525.5,431.5C 523.278,431.822 521.444,431.155 520,429.5C 516.264,421.462 512.431,413.462 508.5,405.5C 510.2,405.374 511.7,404.707 513,403.5C 513.5,403.667 514,403.833 514.5,404C 512.405,404.556 512.238,405.056 514,405.5C 515.301,404.107 516.801,403.607 518.5,404C 516.405,404.556 516.238,405.056 518,405.5C 519.301,404.107 520.801,403.607 522.5,404C 520.405,404.556 520.238,405.056 522,405.5C 523.301,404.107 524.801,403.607 526.5,404C 524.405,404.556 524.238,405.056 526,405.5C 527.301,404.107 528.801,403.607 530.5,404C 528.405,404.556 528.238,405.056 530,405.5C 531.301,404.107 532.801,403.607 534.5,404C 532.405,404.556 532.238,405.056 534,405.5C 535.301,404.107 536.801,403.607 538.5,404C 536.405,404.556 536.238,405.056 538,405.5C 539.301,404.107 540.801,403.607 542.5,404C 540.068,405.087 540.402,405.587 543.5,405.5 Z"/></g>
<g><path style="opacity:0.958" fill="#126af8" d="M 392.5,455.5 C 388.629,455.185 384.962,455.518 381.5,456.5C 377.025,430.599 370.358,405.265 361.5,380.5C 362.685,374.773 364.185,369.106 366,363.5C 376.699,393.627 385.532,424.294 392.5,455.5 Z"/></g>
<g><path style="opacity:1" fill="#015afb" d="M 111.5,407.5 C 122.167,407.5 132.833,407.5 143.5,407.5C 143.39,414.291 144.056,420.958 145.5,427.5C 144.25,427.577 143.417,428.244 143,429.5C 140.333,426.833 137.667,426.833 135,429.5C 132.333,426.833 129.667,426.833 127,429.5C 124.544,427.679 121.711,427.012 118.5,427.5C 116.167,420.833 113.833,414.167 111.5,407.5 Z"/></g>
<g><path style="opacity:1" fill="#045bfb" d="M 200.5,401.5 C 201.234,409.406 202.234,417.406 203.5,425.5C 202.198,426.926 200.698,428.259 199,429.5C 196.333,426.833 193.667,426.833 191,429.5C 188.333,426.833 185.667,426.833 183,429.5C 180.333,426.833 177.667,426.833 175,429.5C 172.333,426.833 169.667,426.833 167,429.5C 164.333,426.833 161.667,426.833 159,429.5C 156.816,427.825 154.316,426.825 151.5,426.5C 150.74,420.196 150.407,413.863 150.5,407.5C 167.167,407.5 183.833,407.5 200.5,407.5C 200.5,405.5 200.5,403.5 200.5,401.5 Z"/></g>
<g><path style="opacity:1" fill="#196bf8" d="M 98.5,395.5 C 101.5,395.5 104.5,395.5 107.5,395.5C 107.263,396.791 107.596,397.791 108.5,398.5C 109.304,401.579 110.304,404.579 111.5,407.5C 113.833,414.167 116.167,420.833 118.5,427.5C 121.789,435.044 125.456,442.377 129.5,449.5C 125.5,449.5 121.5,449.5 117.5,449.5C 110.612,431.718 104.279,413.718 98.5,395.5 Z"/></g>
<g><path style="opacity:1" fill="#0561fa" d="M 118.5,427.5 C 121.711,427.012 124.544,427.679 127,429.5C 129.667,426.833 132.333,426.833 135,429.5C 137.667,426.833 140.333,426.833 143,429.5C 143.417,428.244 144.25,427.577 145.5,427.5C 149.129,435.408 153.795,442.741 159.5,449.5C 149.5,449.5 139.5,449.5 129.5,449.5C 125.456,442.377 121.789,435.044 118.5,427.5 Z"/></g>
<g><path style="opacity:1" fill="#0661fa" d="M 203.5,425.5 C 205.017,428.535 207.183,431.201 210,433.5C 211.16,438.453 211.993,443.453 212.5,448.5C 197.342,449.496 182.009,449.83 166.5,449.5C 158.754,443.687 153.754,436.021 151.5,426.5C 154.316,426.825 156.816,427.825 159,429.5C 161.667,426.833 164.333,426.833 167,429.5C 169.667,426.833 172.333,426.833 175,429.5C 177.667,426.833 180.333,426.833 183,429.5C 185.667,426.833 188.333,426.833 191,429.5C 193.667,426.833 196.333,426.833 199,429.5C 200.698,428.259 202.198,426.926 203.5,425.5 Z"/></g>
<g><path style="opacity:0.992" fill="#036cf8" d="M 360.5,383.5 C 367.753,407.177 373.753,431.177 378.5,455.5C 364.088,455.816 349.755,455.482 335.5,454.5C 333.5,449.5 331.5,444.5 329.5,439.5C 335.171,430.985 340.671,422.318 346,413.5C 350.95,403.44 355.784,393.44 360.5,383.5 Z"/></g>
<g><path style="opacity:0.853" fill="#005afb" d="M 745.5,405.5 C 746.807,417.924 750.974,429.258 758,439.5C 768.082,432.941 778.082,432.941 788,439.5C 793.167,451.395 789.167,458.395 776,460.5C 767.171,459.017 760.505,454.35 756,446.5C 745.923,456.898 741.756,469.232 743.5,483.5C 742.046,484.52 741.713,485.687 742.5,487C 742,487.167 741.5,487.333 741,487.5C 740.793,486.427 739.96,485.427 738.5,484.5C 736.774,468.005 741.774,454.005 753.5,442.5C 746.104,430.92 742.104,418.253 741.5,404.5C 741.435,404.062 741.601,403.728 742,403.5C 742.71,404.973 743.876,405.64 745.5,405.5 Z M 768.5,439.5 C 773.777,438.931 778.777,439.765 783.5,442C 788.081,449.993 785.581,454.493 776,455.5C 768.885,454.023 763.385,450.189 759.5,444C 762.592,442.454 765.592,440.954 768.5,439.5 Z"/></g>
<g><path style="opacity:0.846" fill="#e8e8e8" d="M 588.5,441.5 C 590.196,441.685 591.529,442.519 592.5,444C 590.206,447.957 587.539,451.624 584.5,455C 586.912,458.354 588.745,461.854 590,465.5C 588.951,466.517 587.784,466.684 586.5,466C 584.607,463.697 582.607,461.53 580.5,459.5C 577.978,462.188 575.644,465.021 573.5,468C 572.207,468.49 570.873,468.657 569.5,468.5C 569.372,466.345 569.872,464.345 571,462.5C 573.54,460.295 575.707,457.795 577.5,455C 574.447,451.613 571.78,447.947 569.5,444C 570.93,442.56 572.597,442.226 574.5,443C 576.31,445.644 578.31,448.144 580.5,450.5C 583.869,448.073 586.536,445.073 588.5,441.5 Z"/></g>
<g><path style="opacity:1" fill="#1a80f5" d="M 329.5,439.5 C 331.5,444.5 333.5,449.5 335.5,454.5C 340.06,464.622 345.393,474.288 351.5,483.5C 353.193,486.184 354.86,488.851 356.5,491.5C 355.527,492.984 354.193,493.484 352.5,493C 354.595,492.444 354.762,491.944 353,491.5C 351.699,492.893 350.199,493.393 348.5,493C 350.595,492.444 350.762,491.944 349,491.5C 347.699,492.893 346.199,493.393 344.5,493C 346.595,492.444 346.762,491.944 345,491.5C 343.699,492.893 342.199,493.393 340.5,493C 342.595,492.444 342.762,491.944 341,491.5C 340.098,491.743 339.265,492.077 338.5,492.5C 330.634,480.612 323.634,468.112 317.5,455C 321.35,449.659 325.35,444.492 329.5,439.5 Z"/></g>
<g><path style="opacity:0.987" fill="#0373f7" d="M 335.5,454.5 C 349.755,455.482 364.088,455.816 378.5,455.5C 379.609,463.152 380.609,470.819 381.5,478.5C 382.5,478.5 383.5,478.5 384.5,478.5C 383.127,471.223 382.127,463.889 381.5,456.5C 384.962,455.518 388.629,455.185 392.5,455.5C 395.125,463.332 397.125,471.332 398.5,479.5C 398.5,480.833 398.5,482.167 398.5,483.5C 382.833,483.5 367.167,483.5 351.5,483.5C 345.393,474.288 340.06,464.622 335.5,454.5 Z"/></g>
<g><path style="opacity:1" fill="#0368f9" d="M 129.5,449.5 C 139.5,449.5 149.5,449.5 159.5,449.5C 169.913,456.036 178.579,464.369 185.5,474.5C 173.345,475.495 161.011,475.829 148.5,475.5C 141.201,467.581 134.868,458.914 129.5,449.5 Z"/></g>
<g><path style="opacity:1" fill="#0a68f9" d="M 212.5,448.5 C 215.875,456.954 218.875,465.621 221.5,474.5C 212.014,475.494 202.348,475.827 192.5,475.5C 190.593,472.025 188.426,468.691 186,465.5C 179.889,459.55 173.389,454.217 166.5,449.5C 182.009,449.83 197.342,449.496 212.5,448.5 Z"/></g>
<g><path style="opacity:1" fill="#1a78f6" d="M 117.5,449.5 C 121.5,449.5 125.5,449.5 129.5,449.5C 134.868,458.914 141.201,467.581 148.5,475.5C 154.158,482.825 160.492,489.491 167.5,495.5C 167.631,496.239 167.464,496.906 167,497.5C 164.333,494.833 161.667,494.833 159,497.5C 156.333,494.833 153.667,494.833 151,497.5C 149.991,496.342 148.658,495.675 147,495.5C 145.319,495.608 144.152,496.275 143.5,497.5C 136.804,491.13 131.304,483.796 127,475.5C 123.137,467.078 119.971,458.411 117.5,449.5 Z"/></g>
<g><path style="opacity:1" fill="#086ef8" d="M 185.5,474.5 C 186.222,474.918 186.722,475.584 187,476.5C 187.502,486.499 184.335,495.165 177.5,502.5C 174.167,500.167 170.833,497.833 167.5,495.5C 160.492,489.491 154.158,482.825 148.5,475.5C 161.011,475.829 173.345,475.495 185.5,474.5 Z"/></g>
<g><path style="opacity:1" fill="#0a6ef8" d="M 221.5,474.5 C 224.353,480.22 226.686,486.22 228.5,492.5C 228.5,493.5 228.5,494.5 228.5,495.5C 226.234,495.141 224.401,495.808 223,497.5C 220.333,494.833 217.667,494.833 215,497.5C 212.333,494.833 209.667,494.833 207,497.5C 204.333,494.833 201.667,494.833 199,497.5C 196.333,494.833 193.667,494.833 191,497.5C 190.487,496.473 189.987,495.473 189.5,494.5C 192.09,488.464 193.09,482.13 192.5,475.5C 202.348,475.827 212.014,475.494 221.5,474.5 Z"/></g>
<g><path style="opacity:1" fill="#057af6" d="M 398.5,479.5 C 402.683,493.177 400.517,505.844 392,517.5C 390.223,519.79 388.056,521.457 385.5,522.5C 383.779,517.609 380.446,514.109 375.5,512C 368.565,505.571 362.232,498.738 356.5,491.5C 354.86,488.851 353.193,486.184 351.5,483.5C 367.167,483.5 382.833,483.5 398.5,483.5C 398.5,482.167 398.5,480.833 398.5,479.5 Z"/></g>
<g><path style="opacity:1" fill="#1e88f4" d="M 356.5,491.5 C 362.232,498.738 368.565,505.571 375.5,512C 380.446,514.109 383.779,517.609 385.5,522.5C 377.952,526.522 370.285,526.355 362.5,522C 352.454,513.792 344.454,503.958 338.5,492.5C 339.265,492.077 340.098,491.743 341,491.5C 342.762,491.944 342.595,492.444 340.5,493C 342.199,493.393 343.699,492.893 345,491.5C 346.762,491.944 346.595,492.444 344.5,493C 346.199,493.393 347.699,492.893 349,491.5C 350.762,491.944 350.595,492.444 348.5,493C 350.199,493.393 351.699,492.893 353,491.5C 354.762,491.944 354.595,492.444 352.5,493C 354.193,493.484 355.527,492.984 356.5,491.5 Z"/></g>
<g><path style="opacity:1" fill="#0674f7" d="M 228.5,492.5 C 231.533,498.575 234.2,504.909 236.5,511.5C 232.918,518.076 228.585,524.076 223.5,529.5C 208.854,522.847 194.854,515.18 181.5,506.5C 183.808,502.205 186.474,498.205 189.5,494.5C 189.987,495.473 190.487,496.473 191,497.5C 193.667,494.833 196.333,494.833 199,497.5C 201.667,494.833 204.333,494.833 207,497.5C 209.667,494.833 212.333,494.833 215,497.5C 217.667,494.833 220.333,494.833 223,497.5C 224.401,495.808 226.234,495.141 228.5,495.5C 228.5,494.5 228.5,493.5 228.5,492.5 Z"/></g>
<g><path style="opacity:1" fill="#1d7ff5" d="M 167.5,495.5 C 170.833,497.833 174.167,500.167 177.5,502.5C 174.178,507.805 170.844,513.139 167.5,518.5C 158.245,512.91 150.245,505.91 143.5,497.5C 144.152,496.275 145.319,495.608 147,495.5C 148.658,495.675 149.991,496.342 151,497.5C 153.667,494.833 156.333,494.833 159,497.5C 161.667,494.833 164.333,494.833 167,497.5C 167.464,496.906 167.631,496.239 167.5,495.5 Z"/></g>
<g><path style="opacity:0.847" fill="#006bf8" d="M 743.5,483.5 C 743.588,488.536 744.088,493.536 745,498.5C 750.21,513.965 755.71,529.298 761.5,544.5C 760.005,544.989 758.671,545.655 757.5,546.5C 748.32,526.781 741.987,506.114 738.5,484.5C 739.96,485.427 740.793,486.427 741,487.5C 741.5,487.333 742,487.167 742.5,487C 741.713,485.687 742.046,484.52 743.5,483.5 Z"/></g>
<g><path style="opacity:1" fill="#2085f4" d="M 181.5,506.5 C 194.854,515.18 208.854,522.847 223.5,529.5C 221.963,533.711 219.963,537.711 217.5,541.5C 216.833,541.833 216.167,542.167 215.5,542.5C 200.039,537.582 185.706,530.582 172.5,521.5C 174.758,515.971 177.758,510.971 181.5,506.5 Z"/></g>
<g><path style="opacity:1" fill="#2e88f4" d="M 245.5,537.5 C 248.035,541.018 250.035,545.018 251.5,549.5C 247.133,550.404 242.8,550.071 238.5,548.5C 240.594,544.636 242.928,540.969 245.5,537.5 Z"/></g>
<g><path style="opacity:0.741" fill="#e8e8e8" d="M 300.5,549.5 C 300.328,550.492 300.662,551.158 301.5,551.5C 301.5,552.5 301.5,553.5 301.5,554.5C 300.127,554.657 298.793,554.49 297.5,554C 294.449,549.591 295.449,548.091 300.5,549.5 Z"/></g>
<g><path style="opacity:0.837" fill="#e8e8e8" d="M 426.5,549.5 C 461.85,548.586 487.35,563.92 503,595.5C 516.629,639.634 503.129,672.468 462.5,694C 422.724,706.853 391.224,696.02 368,661.5C 351.491,626.386 356.991,595.22 384.5,568C 396.762,557.698 410.762,551.532 426.5,549.5 Z M 422.5,554.5 C 402.657,558.673 386.824,569.006 375,585.5C 358.289,614.953 359.956,643.286 380,670.5C 406.557,697.072 436.724,701.905 470.5,685C 504.379,659.291 512.212,627.125 494,588.5C 477.059,563.116 453.226,551.783 422.5,554.5 Z M 460.5,581.5 C 459.697,582.423 459.53,583.423 460,584.5C 478.38,600.483 483.88,620.15 476.5,643.5C 478.124,643.64 479.29,642.973 480,641.5C 481.616,637.653 482.616,633.653 483,629.5C 484.856,608.888 477.356,592.888 460.5,581.5 Z M 410.5,589.5 C 409.74,593.081 409.24,596.748 409,600.5C 406.586,598.709 404.086,597.043 401.5,595.5C 398.166,596.831 395.166,598.665 392.5,601C 395.537,600.573 398.37,599.406 401,597.5C 403.581,598.417 405.914,599.751 408,601.5C 408.444,607.845 408.277,614.178 407.5,620.5C 410.097,620.643 412.431,621.477 414.5,623C 413.453,625.979 412.119,628.812 410.5,631.5C 403.982,633.796 397.316,635.463 390.5,636.5C 391.205,641.988 392.539,647.321 394.5,652.5C 394.767,648.345 394.101,644.179 392.5,640C 392.645,639.228 392.978,638.561 393.5,638C 399.536,636.266 405.536,634.432 411.5,632.5C 413.671,629.495 415.171,626.161 416,622.5C 419.739,624.135 423.573,625.469 427.5,626.5C 426.477,633.482 425.977,640.482 426,647.5C 426.393,644.367 427.226,641.367 428.5,638.5C 431.246,640.803 434.246,642.303 437.5,643C 445.406,635.201 444.906,634.701 436,641.5C 428.566,638.497 426.399,633.164 429.5,625.5C 422.904,623.302 416.237,621.302 409.5,619.5C 409.5,617.167 409.5,614.833 409.5,612.5C 416.858,611.937 424.192,611.104 431.5,610C 430.257,603.791 428.757,597.624 427,591.5C 427.241,597.548 428.074,603.548 429.5,609.5C 422.814,610.392 416.147,610.392 409.5,609.5C 410.303,604.039 410.97,598.539 411.5,593C 411.486,591.615 411.152,590.449 410.5,589.5 Z"/></g>
<g><path style="opacity:0.849" fill="#e8e8e8" d="M 107.5,554.5 C 125.286,553.976 139.786,560.642 151,574.5C 160.287,586.744 166.62,600.411 170,615.5C 170.764,621.04 170.597,626.54 169.5,632C 176.029,645.342 177.196,659.175 173,673.5C 168.727,681.712 164.727,690.045 161,698.5C 158.061,713.788 163.561,724.955 177.5,732C 182.151,732.899 186.818,733.732 191.5,734.5C 192.668,735.906 192.335,737.072 190.5,738C 173.393,738.581 161.893,730.748 156,714.5C 155.182,708.098 155.516,701.765 157,695.5C 160.41,687.681 164.077,680.014 168,672.5C 172.979,660.979 172.646,649.645 167,638.5C 161.58,647.292 153.747,650.792 143.5,649C 130.426,646.051 119.926,639.218 112,628.5C 111.233,615.744 117.399,609.411 130.5,609.5C 144.666,610.083 156.332,615.75 165.5,626.5C 163.937,602.207 153.937,582.041 135.5,566C 126.852,560.238 117.519,557.904 107.5,559C 106.272,557.51 106.272,556.01 107.5,554.5 Z M 124.5,614.5 C 141.233,613.367 154.566,619.534 164.5,633C 158.833,643.783 150.166,647.116 138.5,643C 129.932,639.646 122.765,634.479 117,627.5C 116.598,626.128 116.098,624.795 115.5,623.5C 116.885,618.782 119.885,615.782 124.5,614.5 Z"/></g>
<g><path style="opacity:0.974" fill="#e8e8e8" d="M 423.5,562.5 C 455.51,559.729 478.344,572.729 492,601.5C 501.665,632.168 493.832,657.335 468.5,677C 439.318,693.115 412.485,689.949 388,667.5C 373.32,650.782 368.32,631.449 373,609.5C 381.079,584.249 397.912,568.582 423.5,562.5 Z M 460.5,581.5 C 459.697,582.423 459.53,583.423 460,584.5C 478.38,600.483 483.88,620.15 476.5,643.5C 478.124,643.64 479.29,642.973 480,641.5C 481.616,637.653 482.616,633.653 483,629.5C 484.856,608.888 477.356,592.888 460.5,581.5 Z M 410.5,589.5 C 409.74,593.081 409.24,596.748 409,600.5C 406.586,598.709 404.086,597.043 401.5,595.5C 398.166,596.831 395.166,598.665 392.5,601C 395.537,600.573 398.37,599.406 401,597.5C 403.581,598.417 405.914,599.751 408,601.5C 408.444,607.845 408.277,614.178 407.5,620.5C 410.097,620.643 412.431,621.477 414.5,623C 413.453,625.979 412.119,628.812 410.5,631.5C 403.982,633.796 397.316,635.463 390.5,636.5C 391.205,641.988 392.539,647.321 394.5,652.5C 394.767,648.345 394.101,644.179 392.5,640C 392.645,639.228 392.978,638.561 393.5,638C 399.536,636.266 405.536,634.432 411.5,632.5C 413.671,629.495 415.171,626.161 416,622.5C 419.739,624.135 423.573,625.469 427.5,626.5C 426.477,633.482 425.977,640.482 426,647.5C 426.393,644.367 427.226,641.367 428.5,638.5C 431.246,640.803 434.246,642.303 437.5,643C 445.406,635.201 444.906,634.701 436,641.5C 428.566,638.497 426.399,633.164 429.5,625.5C 422.904,623.302 416.237,621.302 409.5,619.5C 409.5,617.167 409.5,614.833 409.5,612.5C 416.858,611.937 424.192,611.104 431.5,610C 430.257,603.791 428.757,597.624 427,591.5C 427.241,597.548 428.074,603.548 429.5,609.5C 422.814,610.392 416.147,610.392 409.5,609.5C 410.303,604.039 410.97,598.539 411.5,593C 411.486,591.615 411.152,590.449 410.5,589.5 Z"/></g>
<g><path style="opacity:0.858" fill="#0357fc" d="M 729.5,571.5 C 726.946,571.581 724.28,571.915 721.5,572.5C 720.107,570.716 719.607,568.716 720,566.5C 721.25,565.427 722.584,565.427 724,566.5C 725.86,564.625 727.36,562.458 728.5,560C 729.793,559.51 731.127,559.343 732.5,559.5C 732.159,563.354 730.826,566.854 728.5,570C 729.056,570.383 729.389,570.883 729.5,571.5 Z"/></g>
<g><path style="opacity:0.831" fill="#0077f6" d="M 761.5,544.5 C 766.096,560.037 766.596,575.704 763,591.5C 761.726,594.391 760.226,597.058 758.5,599.5C 756.833,599.5 755.167,599.5 753.5,599.5C 758.585,591.242 761.252,582.242 761.5,572.5C 760.814,563.719 759.481,555.053 757.5,546.5C 758.671,545.655 760.005,544.989 761.5,544.5 Z"/></g>
<g><path style="opacity:0.891" fill="#0177f6" d="M 729.5,571.5 C 735.158,574.972 734.825,576.805 728.5,577C 727.667,576.167 726.833,575.333 726,574.5C 725.218,577.076 723.718,579.076 721.5,580.5C 720.119,580 719.453,579 719.5,577.5C 719.902,575.7 720.569,574.033 721.5,572.5C 724.28,571.915 726.946,571.581 729.5,571.5 Z"/></g>
<g><path style="opacity:0.888" fill="#0351fc" d="M 106.5,598.5 C 103.873,597.908 101.206,597.575 98.5,597.5C 96.0246,596.313 95.0246,594.313 95.5,591.5C 97.7224,591.178 99.5557,591.845 101,593.5C 102.544,591.532 103.711,589.365 104.5,587C 105.793,586.51 107.127,586.343 108.5,586.5C 108.443,590.505 107.11,594.005 104.5,597C 105.416,597.278 106.082,597.778 106.5,598.5 Z"/></g>
<g><path style="opacity:0.897" fill="#0573f7" d="M 98.5,597.5 C 101.206,597.575 103.873,597.908 106.5,598.5C 109.267,599.638 109.934,601.472 108.5,604C 106.023,604.24 103.856,603.406 102,601.5C 100.356,604.311 98.1897,606.644 95.5,608.5C 93.6163,607.307 93.1163,605.641 94,603.5C 96.1019,601.905 97.6019,599.905 98.5,597.5 Z"/></g>
<g><path style="opacity:0.824" fill="#007ef5" d="M 753.5,599.5 C 755.167,599.5 756.833,599.5 758.5,599.5C 749.243,613.794 736.243,619.294 719.5,616C 717.963,614.89 717.297,613.39 717.5,611.5C 727.537,613.97 736.871,612.47 745.5,607C 748.036,604.295 750.703,601.795 753.5,599.5 Z"/></g>
<g><path style="opacity:0.858" fill="#e8e8e8" d="M 89.5,630.5 C 90.1174,630.611 90.6174,630.944 91,631.5C 91.3333,633.5 91.6667,635.5 92,637.5C 94.456,638.574 96.956,639.574 99.5,640.5C 97.1743,642.331 94.8409,644.165 92.5,646C 93.6454,648.199 93.6454,650.365 92.5,652.5C 90.5,650.833 88.5,649.167 86.5,647.5C 78.7822,652.129 77.4488,650.462 82.5,642.5C 80.8333,640.5 79.1667,638.5 77.5,636.5C 80.3873,636.587 83.3873,636.254 86.5,635.5C 87.7629,633.971 88.7629,632.305 89.5,630.5 Z"/></g>
<g><path style="opacity:1" fill="#0d51fd" d="M 305.5,679.5 C 304.516,682.869 303.016,683.536 301,681.5C 300.055,681.905 299.388,682.572 299,683.5C 297.667,680.833 296.333,680.833 295,683.5C 293.667,680.833 292.333,680.833 291,683.5C 290.722,682.584 290.222,681.918 289.5,681.5C 280.482,671.815 271.816,661.815 263.5,651.5C 270.361,645.813 277.527,640.48 285,635.5C 292.102,650.037 298.935,664.704 305.5,679.5 Z"/></g>
<g><path style="opacity:1" fill="#0c60fa" d="M 305.5,679.5 C 311.726,690.278 317.726,701.278 323.5,712.5C 311.09,715.541 298.59,718.208 286,720.5C 284.338,719.003 282.838,717.337 281.5,715.5C 283.669,712.505 285.169,709.171 286,705.5C 287.494,697.539 288.661,689.539 289.5,681.5C 290.222,681.918 290.722,682.584 291,683.5C 292.333,680.833 293.667,680.833 295,683.5C 296.333,680.833 297.667,680.833 299,683.5C 299.388,682.572 300.055,681.905 301,681.5C 303.016,683.536 304.516,682.869 305.5,679.5 Z"/></g>
<g><path style="opacity:0.997" fill="#0c50fd" d="M 593.5,737.5 C 592.25,737.577 591.417,738.244 591,739.5C 590.333,736.833 589.667,736.833 589,739.5C 588.667,738.833 588.333,738.167 588,737.5C 587.583,738.756 586.75,739.423 585.5,739.5C 585.827,734.786 585.493,730.12 584.5,725.5C 583.702,725.957 583.369,726.624 583.5,727.5C 547.996,727.832 512.663,727.498 477.5,726.5C 511.293,714.231 546.293,709.064 582.5,711C 586.009,710.979 589.175,711.812 592,713.5C 594.759,721.35 595.259,729.35 593.5,737.5 Z"/></g>
<g><path style="opacity:0.995" fill="#0455fc" d="M 477.5,726.5 C 512.663,727.498 547.996,727.832 583.5,727.5C 583.5,731.5 583.5,735.5 583.5,739.5C 582.778,739.082 582.278,738.416 582,737.5C 581.333,740.167 580.667,740.167 580,737.5C 579.333,740.167 578.667,740.167 578,737.5C 577.333,740.167 576.667,740.167 576,737.5C 575.333,740.167 574.667,740.167 574,737.5C 573.333,740.167 572.667,740.167 572,737.5C 571.333,740.167 570.667,740.167 570,737.5C 569.333,740.167 568.667,740.167 568,737.5C 567.333,740.167 566.667,740.167 566,737.5C 565.333,740.167 564.667,740.167 564,737.5C 563.333,740.167 562.667,740.167 562,737.5C 561.333,740.167 560.667,740.167 560,737.5C 559.333,740.167 558.667,740.167 558,737.5C 557.333,740.167 556.667,740.167 556,737.5C 555.333,740.167 554.667,740.167 554,737.5C 553.333,740.167 552.667,740.167 552,737.5C 551.333,740.167 550.667,740.167 550,737.5C 549.333,740.167 548.667,740.167 548,737.5C 547.333,740.167 546.667,740.167 546,737.5C 545.333,740.167 544.667,740.167 544,737.5C 543.333,740.167 542.667,740.167 542,737.5C 541.333,740.167 540.667,740.167 540,737.5C 539.333,740.167 538.667,740.167 538,737.5C 537.333,740.167 536.667,740.167 536,737.5C 535.333,740.167 534.667,740.167 534,737.5C 533.333,740.167 532.667,740.167 532,737.5C 531.333,740.167 530.667,740.167 530,737.5C 529.722,738.416 529.222,739.082 528.5,739.5C 523.239,738.649 517.906,738.649 512.5,739.5C 509.921,739.917 507.754,739.25 506,737.5C 505.333,740.167 504.667,740.167 504,737.5C 503.333,740.167 502.667,740.167 502,737.5C 501.333,740.167 500.667,740.167 500,737.5C 499.333,740.167 498.667,740.167 498,737.5C 497.333,740.167 496.667,740.167 496,737.5C 495.333,740.167 494.667,740.167 494,737.5C 493.333,740.167 492.667,740.167 492,737.5C 491.333,740.167 490.667,740.167 490,737.5C 489.333,740.167 488.667,740.167 488,737.5C 487.333,740.167 486.667,740.167 486,737.5C 485.333,740.167 484.667,740.167 484,737.5C 483.333,740.167 482.667,740.167 482,737.5C 481.333,740.167 480.667,740.167 480,737.5C 479.333,740.167 478.667,740.167 478,737.5C 477.333,740.167 476.667,740.167 476,737.5C 475.333,740.167 474.667,740.167 474,737.5C 473.333,740.167 472.667,740.167 472,737.5C 471.333,740.167 470.667,740.167 470,737.5C 469.333,740.167 468.667,740.167 468,737.5C 467.333,740.167 466.667,740.167 466,737.5C 465.333,740.167 464.667,740.167 464,737.5C 463.333,740.167 462.667,740.167 462,737.5C 461.333,740.167 460.667,740.167 460,737.5C 459.333,740.167 458.667,740.167 458,737.5C 457.333,740.167 456.667,740.167 456,737.5C 455.333,740.167 454.667,740.167 454,737.5C 452.993,739.742 452.159,739.408 451.5,736.5C 459.782,732.184 468.448,728.85 477.5,726.5 Z"/></g>
<g><path style="opacity:0.853" fill="#e9e9e9" d="M 762.5,726.5 C 764.635,726.147 765.968,726.98 766.5,729C 765.236,732.186 763.236,734.852 760.5,737C 762.898,738.636 764.065,740.802 764,743.5C 763.439,744.022 762.772,744.355 762,744.5C 760.374,743.711 758.874,742.711 757.5,741.5C 755.639,742.528 754.305,744.028 753.5,746C 752.167,746.667 750.833,746.667 749.5,746C 748.549,745.282 748.383,744.449 749,743.5C 750.715,741.241 752.548,739.074 754.5,737C 750.726,734.605 750.726,732.439 754.5,730.5C 755.62,731.833 756.953,732.333 758.5,732C 760.439,730.568 761.772,728.735 762.5,726.5 Z"/></g>
<g><path style="opacity:0.994" fill="#075dfb" d="M 583.5,739.5 C 582.315,746.127 581.315,752.794 580.5,759.5C 569.5,759.5 558.5,759.5 547.5,759.5C 540.464,753.465 534.131,746.798 528.5,739.5C 529.222,739.082 529.722,738.416 530,737.5C 530.667,740.167 531.333,740.167 532,737.5C 532.667,740.167 533.333,740.167 534,737.5C 534.667,740.167 535.333,740.167 536,737.5C 536.667,740.167 537.333,740.167 538,737.5C 538.667,740.167 539.333,740.167 540,737.5C 540.667,740.167 541.333,740.167 542,737.5C 542.667,740.167 543.333,740.167 544,737.5C 544.667,740.167 545.333,740.167 546,737.5C 546.667,740.167 547.333,740.167 548,737.5C 548.667,740.167 549.333,740.167 550,737.5C 550.667,740.167 551.333,740.167 552,737.5C 552.667,740.167 553.333,740.167 554,737.5C 554.667,740.167 555.333,740.167 556,737.5C 556.667,740.167 557.333,740.167 558,737.5C 558.667,740.167 559.333,740.167 560,737.5C 560.667,740.167 561.333,740.167 562,737.5C 562.667,740.167 563.333,740.167 564,737.5C 564.667,740.167 565.333,740.167 566,737.5C 566.667,740.167 567.333,740.167 568,737.5C 568.667,740.167 569.333,740.167 570,737.5C 570.667,740.167 571.333,740.167 572,737.5C 572.667,740.167 573.333,740.167 574,737.5C 574.667,740.167 575.333,740.167 576,737.5C 576.667,740.167 577.333,740.167 578,737.5C 578.667,740.167 579.333,740.167 580,737.5C 580.667,740.167 581.333,740.167 582,737.5C 582.278,738.416 582.778,739.082 583.5,739.5 Z"/></g>
<g><path style="opacity:1" fill="#0c6ef8" d="M 262.5,765.5 C 261.521,768.625 261.187,771.958 261.5,775.5C 258.918,775.975 256.918,775.308 255.5,773.5C 257.15,758.822 258.983,744.156 261,729.5C 265.01,726.818 269.01,724.152 273,721.5C 276.688,725.02 280.188,728.687 283.5,732.5C 282.794,739.511 281.961,746.511 281,753.5C 274.95,757.723 268.784,761.723 262.5,765.5 Z"/></g>
<g><path style="opacity:0.939" fill="#0460fa" d="M 593.5,737.5 C 592.296,746.187 590.963,754.854 589.5,763.5C 586.833,764.167 584.167,764.833 581.5,765.5C 583.67,756.976 585.004,748.31 585.5,739.5C 586.75,739.423 587.583,738.756 588,737.5C 588.333,738.167 588.667,738.833 589,739.5C 589.667,736.833 590.333,736.833 591,739.5C 591.417,738.244 592.25,737.577 593.5,737.5 Z"/></g>
<g><path style="opacity:1" fill="#055ffa" d="M 451.5,736.5 C 452.159,739.408 452.993,739.742 454,737.5C 454.667,740.167 455.333,740.167 456,737.5C 456.667,740.167 457.333,740.167 458,737.5C 458.667,740.167 459.333,740.167 460,737.5C 460.667,740.167 461.333,740.167 462,737.5C 462.667,740.167 463.333,740.167 464,737.5C 464.667,740.167 465.333,740.167 466,737.5C 466.667,740.167 467.333,740.167 468,737.5C 468.667,740.167 469.333,740.167 470,737.5C 470.667,740.167 471.333,740.167 472,737.5C 472.667,740.167 473.333,740.167 474,737.5C 474.667,740.167 475.333,740.167 476,737.5C 476.667,740.167 477.333,740.167 478,737.5C 478.667,740.167 479.333,740.167 480,737.5C 480.667,740.167 481.333,740.167 482,737.5C 482.667,740.167 483.333,740.167 484,737.5C 484.667,740.167 485.333,740.167 486,737.5C 486.667,740.167 487.333,740.167 488,737.5C 488.667,740.167 489.333,740.167 490,737.5C 490.667,740.167 491.333,740.167 492,737.5C 492.667,740.167 493.333,740.167 494,737.5C 494.667,740.167 495.333,740.167 496,737.5C 496.667,740.167 497.333,740.167 498,737.5C 498.667,740.167 499.333,740.167 500,737.5C 500.667,740.167 501.333,740.167 502,737.5C 502.667,740.167 503.333,740.167 504,737.5C 504.667,740.167 505.333,740.167 506,737.5C 507.754,739.25 509.921,739.917 512.5,739.5C 508.688,740.324 504.688,740.824 500.5,741C 497.734,747.133 495.068,753.299 492.5,759.5C 465.328,759.831 438.328,759.498 411.5,758.5C 424.223,750.137 437.556,742.804 451.5,736.5 Z"/></g>
<g><path style="opacity:1" fill="#0b54fc" d="M 726.5,763.5 C 726.217,764.289 725.717,764.956 725,765.5C 712.882,765.264 700.715,765.264 688.5,765.5C 686.552,762.379 684.385,759.379 682,756.5C 681.312,755.668 681.479,755.002 682.5,754.5C 691.979,752.114 701.479,749.781 711,747.5C 717.051,752.049 722.217,757.383 726.5,763.5 Z"/></g>
<g><path style="opacity:1" fill="#0768f9" d="M 411.5,758.5 C 438.328,759.498 465.328,759.831 492.5,759.5C 489.832,764.448 488.832,769.781 489.5,775.5C 481.59,773.141 473.757,770.474 466,767.5C 461.93,769.745 457.764,771.745 453.5,773.5C 433.169,773.386 412.836,773.053 392.5,772.5C 398.617,767.601 404.951,762.934 411.5,758.5 Z"/></g>
<g><path style="opacity:0.989" fill="#0769f8" d="M 547.5,759.5 C 558.5,759.5 569.5,759.5 580.5,759.5C 578.756,767.812 576.089,775.812 572.5,783.5C 567.5,783.5 562.5,783.5 557.5,783.5C 556.469,777.711 554.969,772.045 553,766.5C 551.334,764.004 549.5,761.671 547.5,759.5 Z"/></g>
<g><path style="opacity:1" fill="#0a60fa" d="M 726.5,763.5 C 728.935,767.799 730.602,772.466 731.5,777.5C 730.828,778.267 729.995,778.934 729,779.5C 717,778.167 705,778.167 693,779.5C 691.961,778.756 691.461,777.756 691.5,776.5C 691.519,774.94 691.852,773.44 692.5,772C 691.287,769.738 689.954,767.571 688.5,765.5C 700.715,765.264 712.882,765.264 725,765.5C 725.717,764.956 726.217,764.289 726.5,763.5 Z"/></g>
<g><path style="opacity:1" fill="#026df8" d="M 392.5,772.5 C 412.836,773.053 433.169,773.386 453.5,773.5C 450.898,775.81 447.898,777.643 444.5,779C 443.117,780.271 442.117,781.771 441.5,783.5C 427.167,783.5 412.833,783.5 398.5,783.5C 396.567,781.063 394.4,778.729 392,776.5C 391.517,775.552 391.351,774.552 391.5,773.5C 391.5,772.833 391.833,772.5 392.5,772.5 Z"/></g>
<g><path style="opacity:1" fill="#1c80f5" d="M 262.5,765.5 C 262.667,776.838 262.5,788.172 262,799.5C 259.333,796.833 256.667,794.167 254,791.5C 253.76,785.316 254.26,779.316 255.5,773.5C 256.918,775.308 258.918,775.975 261.5,775.5C 261.187,771.958 261.521,768.625 262.5,765.5 Z"/></g>
<g><path style="opacity:1" fill="#0273f7" d="M 398.5,783.5 C 412.833,783.5 427.167,783.5 441.5,783.5C 440.01,787.813 438.01,791.813 435.5,795.5C 434.603,794.402 433.77,794.402 433,795.5C 432.333,792.833 431.667,792.833 431,795.5C 430.333,794.167 429.667,794.167 429,795.5C 428.333,792.833 427.667,792.833 427,795.5C 426.333,794.167 425.667,794.167 425,795.5C 424.333,792.833 423.667,792.833 423,795.5C 422.333,794.167 421.667,794.167 421,795.5C 420.333,792.833 419.667,792.833 419,795.5C 418.333,794.167 417.667,794.167 417,795.5C 416.333,792.833 415.667,792.833 415,795.5C 414.333,794.167 413.667,794.167 413,795.5C 412.333,792.833 411.667,792.833 411,795.5C 410.333,794.167 409.667,794.167 409,795.5C 407.348,794.932 405.682,793.599 404,791.5C 401.92,788.935 400.087,786.268 398.5,783.5 Z"/></g>
<g><path style="opacity:0.977" fill="#1075f7" d="M 589.5,763.5 C 586.533,778.235 581.866,792.402 575.5,806C 573.231,806.758 571.064,806.591 569,805.5C 566.385,801.217 563.385,797.217 560,793.5C 559.162,790.148 558.329,786.815 557.5,783.5C 562.5,783.5 567.5,783.5 572.5,783.5C 571.933,785.03 571.267,786.53 570.5,788C 571.025,788.692 571.692,789.192 572.5,789.5C 576.298,781.769 579.298,773.769 581.5,765.5C 584.167,764.833 586.833,764.167 589.5,763.5 Z"/></g>
<g><path style="opacity:1" fill="#076cf8" d="M 691.5,776.5 C 691.461,777.756 691.961,778.756 693,779.5C 705,778.167 717,778.167 729,779.5C 729.995,778.934 730.828,778.267 731.5,777.5C 733.541,781.952 735.208,786.618 736.5,791.5C 720.868,793.485 704.868,794.151 688.5,793.5C 687.418,792.406 686.752,791.073 686.5,789.5C 687.605,784.838 689.271,780.504 691.5,776.5 Z"/></g>
<g><path style="opacity:1" fill="#107cf5" d="M 391.5,773.5 C 391.351,774.552 391.517,775.552 392,776.5C 394.4,778.729 396.567,781.063 398.5,783.5C 400.087,786.268 401.92,788.935 404,791.5C 405.682,793.599 407.348,794.932 409,795.5C 409.667,794.167 410.333,794.167 411,795.5C 411.667,792.833 412.333,792.833 413,795.5C 413.667,794.167 414.333,794.167 415,795.5C 415.667,792.833 416.333,792.833 417,795.5C 417.667,794.167 418.333,794.167 419,795.5C 419.667,792.833 420.333,792.833 421,795.5C 421.667,794.167 422.333,794.167 423,795.5C 423.667,792.833 424.333,792.833 425,795.5C 425.667,794.167 426.333,794.167 427,795.5C 427.667,792.833 428.333,792.833 429,795.5C 429.667,794.167 430.333,794.167 431,795.5C 431.667,792.833 432.333,792.833 433,795.5C 433.77,794.402 434.603,794.402 435.5,795.5C 434.718,799.063 433.384,802.397 431.5,805.5C 425.824,805.666 420.157,805.499 414.5,805C 412.66,802.331 410.66,799.831 408.5,797.5C 407.459,799.991 406.626,799.991 406,797.5C 405.333,800.167 404.667,800.167 404,797.5C 403.333,800.167 402.667,800.167 402,797.5C 401.333,798.833 400.667,798.833 400,797.5C 399.333,800.167 398.667,800.167 398,797.5C 397.333,800.167 396.667,800.167 396,797.5C 395.333,800.167 394.667,800.167 394,797.5C 393.617,798.056 393.117,798.389 392.5,798.5C 388.019,793.85 383.686,789.016 379.5,784C 383.013,779.99 387.013,776.49 391.5,773.5 Z"/></g>
<g><path style="opacity:1" fill="#1785f4" d="M 431.5,805.5 C 430.972,806.721 430.305,807.887 429.5,809C 420.5,809.667 411.5,809.667 402.5,809C 398.963,805.631 395.629,802.131 392.5,798.5C 393.117,798.389 393.617,798.056 394,797.5C 394.667,800.167 395.333,800.167 396,797.5C 396.667,800.167 397.333,800.167 398,797.5C 398.667,800.167 399.333,800.167 400,797.5C 400.667,798.833 401.333,798.833 402,797.5C 402.667,800.167 403.333,800.167 404,797.5C 404.667,800.167 405.333,800.167 406,797.5C 406.626,799.991 407.459,799.991 408.5,797.5C 410.66,799.831 412.66,802.331 414.5,805C 420.157,805.499 425.824,805.666 431.5,805.5 Z"/></g>
<g><path style="opacity:1" fill="#0f79f6" d="M 736.5,791.5 C 739.092,797.277 741.092,803.277 742.5,809.5C 728.137,809.77 713.804,809.27 699.5,808C 695.946,803.047 692.279,798.214 688.5,793.5C 704.868,794.151 720.868,793.485 736.5,791.5 Z"/></g>
<g><path style="opacity:1" fill="#0b5dfb" d="M 550.5,812.5 C 545.025,813.489 539.358,813.822 533.5,813.5C 528.978,810.406 524.644,807.073 520.5,803.5C 533.581,796.034 543.581,799.034 550.5,812.5 Z"/></g>
<g><path style="opacity:1" fill="#0e70f7" d="M 550.5,812.5 C 553.267,816.517 555.934,820.684 558.5,825C 554.051,826.372 549.551,827.539 545,828.5C 540.593,823.928 536.76,818.928 533.5,813.5C 539.358,813.822 545.025,813.489 550.5,812.5 Z"/></g>
<g><path style="opacity:0.942" fill="#e8e8e8" d="M 587.5,827.5 C 599.556,829.343 611.556,831.509 623.5,834C 630.752,845.836 637.752,857.836 644.5,870C 623.561,871.658 602.895,874.991 582.5,880C 575.137,880.537 567.804,880.203 560.5,879C 558.582,877.23 558.082,875.063 559,872.5C 561.944,863.835 564.777,855.168 567.5,846.5C 571.188,846.219 574.855,845.719 578.5,845C 581.641,839.218 584.641,833.385 587.5,827.5 Z M 593.5,833.5 C 602.547,834.674 611.547,836.174 620.5,838C 626.086,847.171 631.42,856.504 636.5,866C 623.422,867.006 610.588,869.173 598,872.5C 598.67,866.807 599.837,861.14 601.5,855.5C 598.816,848.14 596.149,840.807 593.5,833.5 Z"/></g>
<g><path style="opacity:0.914" fill="#e8e8e8" d="M 370.5,829.5 C 378.119,831.472 385.452,834.305 392.5,838C 394.743,840.488 396.743,843.154 398.5,846C 396.884,846.615 395.551,847.615 394.5,849C 382.838,849.5 371.171,849.667 359.5,849.5C 359.335,845.818 359.501,842.152 360,838.5C 364.037,836.074 367.537,833.074 370.5,829.5 Z M 374.5,835.5 C 379.479,837.654 384.479,839.821 389.5,842C 390.357,842.689 391.023,843.522 391.5,844.5C 386.198,845.663 380.864,845.829 375.5,845C 373.52,841.953 373.186,838.787 374.5,835.5 Z"/></g>
<g><path style="opacity:0.939" fill="#e8e8e8" d="M 469.5,830.5 C 477.461,831.809 484.794,834.809 491.5,839.5C 492.806,845.054 492.806,850.554 491.5,856C 488.27,858.073 484.937,859.906 481.5,861.5C 467.151,860.832 452.818,859.832 438.5,858.5C 440.76,851.287 443.093,844.12 445.5,837C 453.606,834.809 461.606,832.642 469.5,830.5 Z M 468.5,835.5 C 475.202,836.262 481.369,838.595 487,842.5C 487.667,845.833 487.667,849.167 487,852.5C 482.917,856.142 478.084,857.475 472.5,856.5C 473.011,853.972 473.678,851.472 474.5,849C 472.601,844.548 469.934,840.548 466.5,837C 467.416,836.722 468.082,836.222 468.5,835.5 Z"/></g>
<g><path style="opacity:0.943" fill="#e5e6e8" d="M 309.5,859.5 C 316.995,866.162 323.995,873.329 330.5,881C 326.5,885 322.5,889 318.5,893C 304.5,893.667 290.5,893.667 276.5,893C 272.244,891.193 267.911,889.693 263.5,888.5C 266.823,881.027 270.823,873.861 275.5,867C 286.981,864.593 298.314,862.093 309.5,859.5 Z"/></g>
<g><path style="opacity:0.909" fill="#e8e8e8" d="M 691.5,863.5 C 705.586,868.81 719.419,874.81 733,881.5C 735.658,884.802 738.325,888.135 741,891.5C 741.667,892.5 741.667,893.5 741,894.5C 738.5,896.333 736,898.167 733.5,900C 711.761,899.614 690.094,899.448 668.5,899.5C 668.701,893.428 669.201,887.094 670,880.5C 677.684,875.296 684.851,869.629 691.5,863.5 Z M 694.5,869.5 C 706.367,874.682 718.2,880.015 730,885.5C 732.307,887.439 734.14,889.772 735.5,892.5C 734.5,893.333 733.5,894.167 732.5,895C 720.486,895.833 708.486,895.666 696.5,894.5C 694.553,890.273 692.886,885.939 691.5,881.5C 692.817,877.565 693.817,873.565 694.5,869.5 Z"/></g>
<g><path style="opacity:1" fill="#165dfb" d="M 321.5,878.5 C 312.5,878.5 303.5,878.5 294.5,878.5C 290.68,875.53 286.68,872.696 282.5,870C 290.559,868.053 298.726,866.22 307,864.5C 312.95,867.949 317.784,872.616 321.5,878.5 Z"/></g>
<g><path style="opacity:0.964" fill="#e4e6e8" d="M 480.5,867.5 C 487.9,872.722 494.9,878.555 501.5,885C 506.418,885.195 511.251,885.695 516,886.5C 520.371,896.741 524.871,906.907 529.5,917C 510.213,919.253 490.88,920.586 471.5,921C 462.807,917.57 454.307,913.736 446,909.5C 452.252,897.688 459.085,886.021 466.5,874.5C 471.227,872.136 475.894,869.803 480.5,867.5 Z"/></g>
<g><path style="opacity:1" fill="#0771f7" d="M 294.5,878.5 C 303.5,878.5 312.5,878.5 321.5,878.5C 322.627,879.122 323.627,879.955 324.5,881C 321.833,883.667 319.167,886.333 316.5,889C 309.174,889.5 301.841,889.666 294.5,889.5C 294.5,885.833 294.5,882.167 294.5,878.5 Z"/></g>
<g><path style="opacity:0.908" fill="#e8e8e8" d="M 427.5,887.5 C 429.792,887.244 431.959,887.577 434,888.5C 436,893.833 438,899.167 440,904.5C 439.822,909.045 438.322,913.212 435.5,917C 420.4,916.359 405.4,914.693 390.5,912C 393.046,908.41 395.213,904.577 397,900.5C 400.869,896.966 404.369,893.133 407.5,889C 414.346,888.828 421.013,888.328 427.5,887.5 Z M 421.5,892.5 C 424.572,892.183 427.572,892.516 430.5,893.5C 439.305,909.881 434.638,915.881 416.5,911.5C 417.285,905.148 415.952,899.314 412.5,894C 415.695,893.819 418.695,893.319 421.5,892.5 Z"/></g>
<g><path style="opacity:1" fill="#0c60fa" d="M 514.5,894.5 C 505.144,895.555 495.477,895.555 485.5,894.5C 479.13,888.965 478.297,882.299 483,874.5C 488.5,879.333 494,884.167 499.5,889C 504.155,889.499 508.821,889.666 513.5,889.5C 513.629,891.216 513.962,892.883 514.5,894.5 Z"/></g>
<g><path style="opacity:1" fill="#066cf8" d="M 485.5,894.5 C 495.477,895.555 505.144,895.555 514.5,894.5C 516.204,897.256 517.537,900.256 518.5,903.5C 518.539,904.756 518.039,905.756 517,906.5C 507,905.167 497,905.167 487,906.5C 486.283,905.956 485.783,905.289 485.5,904.5C 486.242,902.574 487.242,900.741 488.5,899C 487.614,897.385 486.614,895.885 485.5,894.5 Z"/></g>
<g><path style="opacity:1" fill="#0876f6" d="M 518.5,903.5 C 520.352,906.551 521.686,909.884 522.5,913.5C 507.85,915.243 493.184,915.91 478.5,915.5C 480.499,911.525 482.832,907.859 485.5,904.5C 485.783,905.289 486.283,905.956 487,906.5C 497,905.167 507,905.167 517,906.5C 518.039,905.756 518.539,904.756 518.5,903.5 Z"/></g>
</svg>
