<?xml version="1.0" encoding="UTF-8"?>
<!DOCTYPE svg PUBLIC "-//W3C//DTD SVG 1.1//EN" "http://www.w3.org/Graphics/SVG/1.1/DTD/svg11.dtd">
<svg xmlns="http://www.w3.org/2000/svg" version="1.1" width="960px" height="960px" style="shape-rendering:geometricPrecision; text-rendering:geometricPrecision; image-rendering:optimizeQuality; fill-rule:evenodd; clip-rule:evenodd" xmlns:xlink="http://www.w3.org/1999/xlink">
<g><path style="opacity:0.847" fill="#e7e7e8" d="M 582.5,455.5 C 582.5,456.167 582.5,456.833 582.5,457.5C 581.5,458.167 580.5,458.833 579.5,459.5C 573.902,458.873 568.402,457.873 563,456.5C 560.565,461.038 558.398,465.704 556.5,470.5C 554.736,471.326 553.402,472.659 552.5,474.5C 549.5,479.5 545.5,483.5 540.5,486.5C 538.539,488.312 536.206,489.312 533.5,489.5C 533.622,486.708 534.956,484.708 537.5,483.5C 541.833,481.167 545.167,477.833 547.5,473.5C 548.167,473.5 548.5,473.167 548.5,472.5C 548.5,472.167 548.5,471.833 548.5,471.5C 549.167,471.5 549.5,471.167 549.5,470.5C 551.727,469.599 552.727,467.933 552.5,465.5C 555.441,462.81 556.775,459.643 556.5,456C 544.229,454.091 531.896,452.924 519.5,452.5C 519.796,450.597 520.463,448.93 521.5,447.5C 534.184,448.669 546.85,450.002 559.5,451.5C 562.998,436.13 561.832,421.13 556,406.5C 546.2,388.566 537.2,370.233 529,351.5C 513.226,300.839 525.393,258.339 565.5,224C 586.079,208.088 603.913,189.588 619,168.5C 637.15,136.984 640.483,103.984 629,69.5C 621.479,50.6619 607.645,41.8286 587.5,43C 575.185,47.4434 569.185,56.2767 569.5,69.5C 568.094,70.6682 566.928,70.3348 566,68.5C 566.551,46.9566 577.718,36.7899 599.5,38C 611.432,40.8875 620.932,47.3875 628,57.5C 639.477,79.1623 643.144,102.162 639,126.5C 635.406,149.015 626.406,169.015 612,186.5C 593.302,204.866 574.302,222.866 555,240.5C 529.823,268.671 521.49,301.338 530,338.5C 532.606,346.986 535.606,355.319 539,363.5C 545.667,376.167 552.333,388.833 559,401.5C 565.078,414.887 567.411,428.887 566,443.5C 565.394,446.43 564.56,449.263 563.5,452C 569.853,453.17 576.187,454.336 582.5,455.5 Z"/></g>
<g><path style="opacity:0.842" fill="#e8e8e8" d="M 410.5,137.5 C 412.346,137.222 413.68,137.889 414.5,139.5C 410.475,144.358 406.642,149.358 403,154.5C 398.951,162.96 397.451,171.793 398.5,181C 397.806,183.748 396.306,184.582 394,183.5C 391.684,165.276 397.184,149.942 410.5,137.5 Z"/></g>
<g><path style="opacity:0.853" fill="#e8e8e8" d="M 463.5,137.5 C 469.5,138.167 475.5,138.833 481.5,139.5C 481.728,143.39 481.394,147.224 480.5,151C 487.707,155.545 492.374,162.045 494.5,170.5C 493.585,172.98 492.085,173.647 490,172.5C 488.664,164.503 484.331,158.836 477,155.5C 476.501,151.514 476.334,147.514 476.5,143.5C 472.548,142.728 468.548,142.395 464.5,142.5C 464.5,144.833 464.5,147.167 464.5,149.5C 463.167,149.5 461.833,149.5 460.5,149.5C 459.671,146.531 459.505,143.531 460,140.5C 461.145,139.364 462.312,138.364 463.5,137.5 Z"/></g>
<g><path style="opacity:0.837" fill="#e8e8e8" d="M 566.5,142.5 C 567.833,142.5 569.167,142.5 570.5,142.5C 570.491,144.308 570.991,145.975 572,147.5C 573.858,144.588 576.358,143.088 579.5,143C 579.957,143.414 580.291,143.914 580.5,144.5C 578.733,147.77 576.4,150.603 573.5,153C 576.765,157.022 578.765,161.522 579.5,166.5C 577.097,166.607 575.264,165.607 574,163.5C 572.414,161.33 571.08,158.996 570,156.5C 568.043,160.643 564.876,162.976 560.5,163.5C 561.145,159.322 563.312,155.989 567,153.5C 567.062,149.852 566.895,146.185 566.5,142.5 Z"/></g>
<g><path style="opacity:0.859" fill="#e8e8e8" d="M 685.5,143.5 C 688.238,142.965 690.072,143.965 691,146.5C 691.903,152.095 693.07,157.595 694.5,163C 718.499,165.465 719.499,171.298 697.5,180.5C 697.167,181.333 696.833,182.167 696.5,183C 697.107,188.016 697.774,193.016 698.5,198C 698.334,200.164 697.167,201.331 695,201.5C 692.968,201.142 691.134,200.308 689.5,199C 686.318,195.651 682.985,192.484 679.5,189.5C 674.058,191.971 668.558,194.304 663,196.5C 660.942,195.942 659.775,194.609 659.5,192.5C 661.693,187.279 664.027,182.112 666.5,177C 662.514,171.677 658.514,166.344 654.5,161C 655.21,158.456 656.876,157.289 659.5,157.5C 665.186,158.757 670.853,159.091 676.5,158.5C 679.26,153.307 682.26,148.307 685.5,143.5 Z M 686.5,150.5 C 687.867,155.321 689.034,160.321 690,165.5C 694.912,167.724 700.079,169.391 705.5,170.5C 700.914,173.376 696.414,176.376 692,179.5C 692.405,184.816 692.738,190.149 693,195.5C 689.251,191.244 685.084,187.578 680.5,184.5C 675.485,186.092 670.652,188.092 666,190.5C 667.633,185.709 669.466,180.876 671.5,176C 668.671,171.373 665.337,167.04 661.5,163C 666.864,163.172 672.198,163.505 677.5,164C 681.117,159.938 684.117,155.438 686.5,150.5 Z"/></g>
<g><path style="opacity:0.857" fill="#e8e8e8" d="M 447.5,146.5 C 448.833,146.5 450.167,146.5 451.5,146.5C 451.714,148.144 451.38,149.644 450.5,151C 442.601,153.727 436.267,158.56 431.5,165.5C 428.235,162.738 425.068,159.738 422,156.5C 419.045,160.244 416.211,164.078 413.5,168C 416.667,170.5 419.833,173 423,175.5C 423.884,177.641 423.384,179.307 421.5,180.5C 416.335,176.832 411.669,172.666 407.5,168C 410.388,164.778 412.888,161.278 415,157.5C 416.976,155.123 419.143,153.123 421.5,151.5C 425.344,152.834 428.511,155.168 431,158.5C 435.864,153.447 441.364,149.447 447.5,146.5 Z"/></g>
<g><path style="opacity:0.851" fill="#e8e8e8" d="M 455.5,154.5 C 477.275,153.937 488.942,164.603 490.5,186.5C 489.255,201.592 481.589,212.092 467.5,218C 443.771,224.634 429.771,215.8 425.5,191.5C 427.52,172.499 437.52,160.165 455.5,154.5 Z M 458.5,158.5 C 475.375,160.041 484.709,169.375 486.5,186.5C 482.56,203.939 471.727,213.939 454,216.5C 434.393,211.518 427.393,199.185 433,179.5C 438.43,168.553 446.93,161.553 458.5,158.5 Z"/></g>
<g><path style="opacity:0.82" fill="#e8e8e8" d="M 515.5,166.5 C 517.411,166.574 518.578,167.574 519,169.5C 524.19,183.07 523.357,196.237 516.5,209C 515.207,209.49 513.873,209.657 512.5,209.5C 513.984,204.521 515.484,199.521 517,194.5C 518.065,186.132 517.231,177.965 514.5,170C 514.648,168.744 514.982,167.577 515.5,166.5 Z"/></g>
<g><path style="opacity:0.844" fill="#e8e8e8" d="M 504.5,171.5 C 506.017,171.511 507.184,172.177 508,173.5C 508.667,181.167 508.667,188.833 508,196.5C 504.541,197.133 501.041,197.8 497.5,198.5C 495.033,208.773 488.866,215.773 479,219.5C 477.72,219.387 476.887,218.72 476.5,217.5C 479.828,214.342 483.328,211.342 487,208.5C 489.777,203.116 492.944,197.949 496.5,193C 499.099,192.231 501.599,192.398 504,193.5C 504.022,188.182 503.855,182.849 503.5,177.5C 500.762,177.851 498.096,178.518 495.5,179.5C 493.404,178.38 493.07,176.88 494.5,175C 498.052,174.122 501.386,172.956 504.5,171.5 Z"/></g>
<g><path style="opacity:0.843" fill="#e8e8e8" d="M 416.5,181.5 C 417.833,181.5 419.167,181.5 420.5,181.5C 421.068,187.834 421.234,194.167 421,200.5C 420.034,203.965 417.868,206.298 414.5,207.5C 413.417,208.365 413.251,209.365 414,210.5C 415.673,213.001 417.507,215.334 419.5,217.5C 422.43,215.119 425.597,213.119 429,211.5C 430.169,212.009 431.002,212.842 431.5,214C 427.875,217.722 423.708,220.555 419,222.5C 416.849,222.357 415.182,221.357 414,219.5C 411.7,215.732 409.533,211.898 407.5,208C 409.576,204.701 412.409,202.201 416,200.5C 416.5,194.175 416.666,187.842 416.5,181.5 Z"/></g>
<g><path style="opacity:0.834" fill="#e8e8e8" d="M 431.5,216.5 C 435.723,219.442 440.39,221.609 445.5,223C 449.548,223.434 453.548,223.434 457.5,223C 458.954,227.009 459.621,231.175 459.5,235.5C 464.832,235.251 469.832,233.918 474.5,231.5C 473.03,228.727 471.697,225.894 470.5,223C 471.985,220.133 473.985,219.799 476.5,222C 475.932,224.755 476.765,227.255 479,229.5C 479.991,231.447 480.325,233.447 480,235.5C 472.093,238.351 463.926,240.018 455.5,240.5C 455.261,236.158 454.927,231.824 454.5,227.5C 445.569,228.913 437.736,226.579 431,220.5C 430.421,219.072 430.588,217.738 431.5,216.5 Z"/></g>
<g><path style="opacity:0.911" fill="#0651fd" d="M 357.5,232.5 C 354.873,231.908 352.206,231.575 349.5,231.5C 346.87,229.372 344.37,227.039 342,224.5C 340.968,219.858 342.468,218.692 346.5,221C 348.35,223.018 350.35,224.851 352.5,226.5C 354.846,223.129 357.179,219.796 359.5,216.5C 360.902,216.865 361.902,217.699 362.5,219C 361.305,222.56 359.471,225.726 357,228.5C 356.421,229.928 356.588,231.262 357.5,232.5 Z"/></g>
<g><path style="opacity:0.873" fill="#e5e6e8" d="M 646.5,226.5 C 658.221,226.113 669.887,226.613 681.5,228C 712.047,237.593 724.213,258.093 718,289.5C 714.223,300.39 708.89,310.39 702,319.5C 689.582,331.518 677.249,343.518 665,355.5C 661.806,360.554 659.139,365.888 657,371.5C 655.71,373.792 654.043,375.792 652,377.5C 652.649,382.275 651.983,386.941 650,391.5C 647.57,394.214 644.57,395.881 641,396.5C 640.121,401.136 638.455,405.469 636,409.5C 632.689,412.819 628.689,414.152 624,413.5C 617.453,413.041 610.953,412.208 604.5,411C 600.873,410.436 597.707,408.936 595,406.5C 594.244,401.057 594.744,395.723 596.5,390.5C 595.611,388.102 594.111,386.102 592,384.5C 590.015,380.758 590.182,377.091 592.5,373.5C 591.757,371.362 591.09,369.196 590.5,367C 595.335,354.134 596.502,340.967 594,327.5C 590.255,314.934 586.922,302.268 584,289.5C 582.099,276.215 585.099,264.215 593,253.5C 600.322,244.925 609.155,238.425 619.5,234C 628.494,231.005 637.494,228.505 646.5,226.5 Z M 653.5,230.5 C 673.703,228.251 691.203,233.917 706,247.5C 717.805,265.003 718.472,283.003 708,301.5C 700.681,313.494 691.847,324.327 681.5,334C 675,339.833 668.5,345.667 662,351.5C 657.36,359.284 652.86,367.117 648.5,375C 646.419,375.869 644.253,376.369 642,376.5C 627.461,375.781 612.961,374.615 598.5,373C 596.185,371.704 595.185,369.704 595.5,367C 599.216,355.099 600.383,342.932 599,330.5C 595.392,314.9 591.558,299.4 587.5,284C 587.665,266.334 595.332,253 610.5,244C 624.036,236.541 638.37,232.041 653.5,230.5 Z"/></g>
<g><path style="opacity:0.824" fill="#0271f7" d="M 349.5,231.5 C 352.206,231.575 354.873,231.908 357.5,232.5C 360.129,235.631 362.962,238.631 366,241.5C 366.301,244.091 365.134,244.925 362.5,244C 359.651,240.984 356.651,238.15 353.5,235.5C 351.084,238.663 348.918,241.996 347,245.5C 345.644,246.38 344.144,246.714 342.5,246.5C 344.001,241.162 346.335,236.162 349.5,231.5 Z"/></g>
<g><path style="opacity:0.806" fill="#004cfe" d="M 499.5,271.5 C 497.901,271.768 496.568,271.434 495.5,270.5C 501.877,260.924 507.71,250.924 513,240.5C 515.28,234.661 516.947,228.661 518,222.5C 520.215,221.18 521.715,221.847 522.5,224.5C 518.279,241.94 510.612,257.607 499.5,271.5 Z"/></g>
<g><path style="opacity:0.827" fill="#e8e8e8" d="M 726.5,244.5 C 728.144,244.286 729.644,244.62 731,245.5C 735.044,260.1 735.377,274.767 732,289.5C 730.022,290.816 728.522,290.316 727.5,288C 728.925,282.132 729.592,276.132 729.5,270C 729.215,261.41 728.215,252.91 726.5,244.5 Z"/></g>
<g><path style="opacity:0.825" fill="#e8e8e8" d="M 739.5,254.5 C 741.124,254.36 742.29,255.027 743,256.5C 744.248,263.479 744.915,270.479 745,277.5C 743.286,278.925 741.953,278.592 741,276.5C 740.307,270.48 739.473,264.48 738.5,258.5C 738.623,257.075 738.957,255.742 739.5,254.5 Z"/></g>
<g><path style="opacity:0.971" fill="#e6e7e8" d="M 516.5,447.5 C 516.567,448.959 516.234,450.292 515.5,451.5C 481.163,450.334 446.83,450.167 412.5,451C 411.273,449.413 411.606,448.079 413.5,447C 417.211,446.825 420.878,446.325 424.5,445.5C 425.843,438.386 422.843,434.219 415.5,433C 410.628,432.754 405.795,432.254 401,431.5C 380.856,432.369 360.689,433.202 340.5,434C 334.223,436.389 332.057,440.889 334,447.5C 334.346,449.218 334.846,450.885 335.5,452.5C 338.785,453.324 342.118,453.824 345.5,454C 346.833,455.333 346.833,456.667 345.5,458C 295.71,454.618 249.71,465.951 207.5,492C 146.959,538.352 131.125,597.185 160,668.5C 166.333,683.166 176.5,694.333 190.5,702C 204.421,706.825 218.755,708.992 233.5,708.5C 264.716,708.093 295.716,705.427 326.5,700.5C 325.968,673.917 324.968,647.251 323.5,620.5C 299.908,623.231 276.242,624.064 252.5,623C 237.387,618.966 231.221,609.133 234,593.5C 240.434,568.127 254.601,548.294 276.5,534C 277.793,533.51 279.127,533.343 280.5,533.5C 280.607,535.903 279.607,537.736 277.5,539C 258.146,552.038 245.313,569.872 239,592.5C 235.762,607.559 241.595,616.392 256.5,619C 280.249,619.537 303.915,618.37 327.5,615.5C 327.238,616.978 327.571,618.311 328.5,619.5C 337.485,612.34 343.985,603.34 348,592.5C 350.575,589.362 353.742,588.362 357.5,589.5C 357.833,588.833 358.167,588.167 358.5,587.5C 362.47,552.239 366.804,517.072 371.5,482C 375.39,481.759 379.223,482.259 383,483.5C 386.851,481.826 390.684,479.992 394.5,478C 396.833,477.333 399.167,477.333 401.5,478C 451.428,490.482 501.428,502.649 551.5,514.5C 578.067,500.881 604.4,486.715 630.5,472C 615.359,467.339 600.026,463.506 584.5,460.5C 584.833,459.833 585.167,459.167 585.5,458.5C 586.29,457.599 587.29,456.932 588.5,456.5C 604.496,459.791 620.33,463.791 636,468.5C 651.897,460.135 667.73,451.635 683.5,443C 685.167,442.333 686.833,442.333 688.5,443C 694.055,445.463 699.722,447.629 705.5,449.5C 710.174,446.662 715.174,444.662 720.5,443.5C 718,463.166 714.666,482.666 710.5,502C 714.489,504.813 716.156,508.646 715.5,513.5C 713.279,533.63 712.945,553.796 714.5,574C 715.469,590.091 711.303,604.591 702,617.5C 697.869,621.639 693.202,624.972 688,627.5C 684.4,645.766 681.234,664.099 678.5,682.5C 692.522,676.495 707.188,673.161 722.5,672.5C 744.281,673.12 759.781,683.12 769,702.5C 771.864,715.609 770.531,728.276 765,740.5C 756.737,756.704 746.737,771.704 735,785.5C 724.833,795.667 714.667,805.833 704.5,816C 695.062,824.106 685.062,831.439 674.5,838C 697.894,845.29 708.394,861.124 706,885.5C 702.247,899.59 693.747,909.757 680.5,916C 674.668,918.277 668.668,919.944 662.5,921C 619.826,923.333 579.993,913.833 543,892.5C 500.874,902.182 458.207,907.516 415,908.5C 385.575,909.881 357.409,904.714 330.5,893C 317.089,885.933 308.589,875.1 305,860.5C 304.502,857.518 304.335,854.518 304.5,851.5C 254.143,851.329 205.143,843.163 157.5,827C 138.718,819.562 127.218,806.062 123,786.5C 120.237,755.434 130.404,729.601 153.5,709C 160.276,704.279 167.609,700.612 175.5,698C 160.015,681.866 150.182,662.699 146,640.5C 132.617,571.787 155.451,518.953 214.5,482C 250.625,462.469 289.291,452.969 330.5,453.5C 325.49,436.516 331.823,428.182 349.5,428.5C 348.936,407.825 348.103,387.158 347,366.5C 344.3,374.356 339.3,376.689 332,373.5C 330.491,370.671 330.325,367.838 331.5,365C 327.429,365.866 323.929,364.699 321,361.5C 320.833,360.333 320.667,359.167 320.5,358C 323.266,349.036 326.433,340.203 330,331.5C 331.916,322.256 333.25,312.923 334,303.5C 335.654,293.511 341.487,288.011 351.5,287C 363.874,286.87 376.208,286.203 388.5,285C 392.286,283.607 395.952,281.941 399.5,280C 404.199,274.966 409.199,270.3 414.5,266C 424.655,263.814 427.988,267.48 424.5,277C 424.833,277.167 425.167,277.333 425.5,277.5C 434.103,273.166 442.77,272.833 451.5,276.5C 453.395,278.867 453.895,281.534 453,284.5C 450.833,288 448,290.833 444.5,293C 450.07,293.093 454.903,294.926 459,298.5C 460.378,302.898 459.212,306.398 455.5,309C 445.78,314.34 435.447,316.173 424.5,314.5C 424.164,339.229 422.998,363.895 421,388.5C 417.052,395.781 411.218,400.947 403.5,404C 396.475,410.435 394.475,418.102 397.5,427C 402.833,427.333 408.167,427.667 413.5,428C 424.792,429.12 430.125,435.286 429.5,446.5C 458.529,444.961 487.529,445.294 516.5,447.5 Z M 373.5,307.5 C 389.335,308.667 405.001,311 420.5,314.5C 419.599,338.187 418.433,361.853 417,385.5C 416.3,389.066 414.467,391.9 411.5,394C 402.308,397.859 395.808,404.359 392,413.5C 391.501,418.155 391.334,422.821 391.5,427.5C 378.844,428.153 366.177,428.486 353.5,428.5C 352.54,392.502 352.04,356.502 352,320.5C 353.089,316.814 355.255,313.981 358.5,312C 363.482,310.01 368.482,308.51 373.5,307.5 Z M 515.5,451.5 C 511.99,462.852 506.157,472.852 498,481.5C 497.217,483.319 497.717,484.652 499.5,485.5C 509.991,476.856 516.658,465.856 519.5,452.5C 531.896,452.924 544.229,454.091 556.5,456C 556.775,459.643 555.441,462.81 552.5,465.5C 551.206,464.71 550.039,463.71 549,462.5C 544.142,468.878 540.309,475.878 537.5,483.5C 534.956,484.708 533.622,486.708 533.5,489.5C 531.295,493.574 529.962,497.907 529.5,502.5C 544.179,500.832 558.845,498.998 573.5,497C 574.517,495.951 574.684,494.784 574,493.5C 572.383,491.237 570.55,489.237 568.5,487.5C 564.525,481.851 560.525,476.185 556.5,470.5C 558.398,465.704 560.565,461.038 563,456.5C 568.402,457.873 573.902,458.873 579.5,459.5C 574.754,467.617 573.42,476.283 575.5,485.5C 576.833,485.5 578.167,485.5 579.5,485.5C 578.033,476.656 579.7,468.322 584.5,460.5C 600.026,463.506 615.359,467.339 630.5,472C 604.4,486.715 578.067,500.881 551.5,514.5C 501.428,502.649 451.428,490.482 401.5,478C 399.167,477.333 396.833,477.333 394.5,478C 390.684,479.992 386.851,481.826 383,483.5C 379.223,482.259 375.39,481.759 371.5,482C 366.804,517.072 362.47,552.239 358.5,587.5C 358.167,588.167 357.833,588.833 357.5,589.5C 353.742,588.362 350.575,589.362 348,592.5C 343.985,603.34 337.485,612.34 328.5,619.5C 327.571,618.311 327.238,616.978 327.5,615.5C 303.915,618.37 280.249,619.537 256.5,619C 241.595,616.392 235.762,607.559 239,592.5C 245.313,569.872 258.146,552.038 277.5,539C 279.607,537.736 280.607,535.903 280.5,533.5C 279.127,533.343 277.793,533.51 276.5,534C 254.601,548.294 240.434,568.127 234,593.5C 231.221,609.133 237.387,618.966 252.5,623C 276.242,624.064 299.908,623.231 323.5,620.5C 324.968,647.251 325.968,673.917 326.5,700.5C 295.716,705.427 264.716,708.093 233.5,708.5C 218.755,708.992 204.421,706.825 190.5,702C 176.5,694.333 166.333,683.166 160,668.5C 131.125,597.185 146.959,538.352 207.5,492C 249.71,465.951 295.71,454.618 345.5,458C 346.833,456.667 346.833,455.333 345.5,454C 342.118,453.824 338.785,453.324 335.5,452.5C 334.846,450.885 334.346,449.218 334,447.5C 332.057,440.889 334.223,436.389 340.5,434C 360.689,433.202 380.856,432.369 401,431.5C 405.795,432.254 410.628,432.754 415.5,433C 422.843,434.219 425.843,438.386 424.5,445.5C 420.878,446.325 417.211,446.825 413.5,447C 411.606,448.079 411.273,449.413 412.5,451C 446.83,450.167 481.163,450.334 515.5,451.5 Z M 683.5,447.5 C 689.205,448.235 694.539,450.069 699.5,453C 657.995,476.587 616.328,499.92 574.5,523C 573.446,532.713 567.946,537.547 558,537.5C 555.268,537.385 552.768,536.552 550.5,535C 547.607,531.316 545.274,527.316 543.5,523C 492.688,510.63 442.021,497.964 391.5,485C 393.336,483.581 395.336,482.414 397.5,481.5C 448.897,494.558 500.397,507.224 552,519.5C 556.33,518.086 560.497,516.253 564.5,514C 604.552,492.313 644.219,470.146 683.5,447.5 Z M 380.5,453.5 C 382.839,456.506 385.506,459.173 388.5,461.5C 382.553,462.862 376.553,463.362 370.5,463C 372.829,460.174 374.496,457.008 375.5,453.5C 376.222,453.082 376.722,452.416 377,451.5C 377.816,452.823 378.983,453.489 380.5,453.5 Z M 467.5,469.5 C 465.542,472.792 463.209,475.792 460.5,478.5C 458.493,476.467 456.493,474.467 454.5,472.5C 452.757,469.25 450.423,466.416 447.5,464C 455.779,462.503 464.112,462.169 472.5,463C 470.946,465.287 469.279,467.454 467.5,469.5 Z M 552.5,474.5 C 555.929,479.019 559.596,483.352 563.5,487.5C 564.702,489.392 566.035,491.226 567.5,493C 556.71,494.852 546.044,496.018 535.5,496.5C 537.705,493.423 539.372,490.09 540.5,486.5C 545.5,483.5 549.5,479.5 552.5,474.5 Z M 330.5,488.5 C 329.071,494.128 327.571,499.795 326,505.5C 319.342,501.002 312.842,496.336 306.5,491.5C 305.571,490.685 304.571,489.852 303.5,489C 312.765,485.357 321.932,481.524 331,477.5C 331.062,481.148 330.895,484.815 330.5,488.5 Z M 706.5,506.5 C 707.675,506.281 708.675,506.614 709.5,507.5C 710.366,509.432 711.033,511.432 711.5,513.5C 709.512,524.072 708.512,534.739 708.5,545.5C 709.345,559.829 709.511,574.163 709,588.5C 707.104,608.384 696.604,620.884 677.5,626C 670.651,628.137 663.651,629.303 656.5,629.5C 656.622,625.853 658.288,623.019 661.5,621C 673.89,613.952 686.723,607.786 700,602.5C 700.854,600.393 700.188,599.059 698,598.5C 685.158,603.088 672.825,608.755 661,615.5C 654.69,613.874 653.023,610.207 656,604.5C 663.127,598.016 671.293,593.182 680.5,590C 687.345,588.081 694.178,586.248 701,584.5C 701.557,582.414 700.724,581.081 698.5,580.5C 685.014,582.658 672.514,587.325 661,594.5C 657.167,593.333 654.667,590.833 653.5,587C 656.234,579.934 661.234,575.267 668.5,573C 679.668,567.958 691.335,564.624 703.5,563C 704.833,561.667 704.833,560.333 703.5,559C 700.223,559.201 696.889,559.368 693.5,559.5C 693.956,544.055 696.789,529.055 702,514.5C 703.259,511.644 704.759,508.977 706.5,506.5 Z M 248.5,533.5 C 242.878,537.282 237.378,541.282 232,545.5C 231.536,544.906 231.369,544.239 231.5,543.5C 231.757,537.368 232.757,531.368 234.5,525.5C 238.714,527.774 243.047,529.774 247.5,531.5C 248.298,531.957 248.631,532.624 248.5,533.5 Z M 555.5,603.5 C 553.5,622.834 551.5,642.168 549.5,661.5C 545.971,681.341 542.638,701.341 539.5,721.5C 536.677,738.615 533.344,755.615 529.5,772.5C 529.167,771.333 528.833,770.167 528.5,769C 531.363,753.188 534.029,737.355 536.5,721.5C 540.005,701.315 543.338,680.982 546.5,660.5C 548.425,642.099 550.758,623.766 553.5,605.5C 554.776,586.404 556.776,567.404 559.5,548.5C 560.308,548.808 560.975,549.308 561.5,550C 559.467,567.831 557.467,585.664 555.5,603.5 Z M 317.5,579.5 C 318.6,580.558 319.934,581.392 321.5,582C 315.089,586.955 308.589,591.789 302,596.5C 301.452,589.165 300.952,581.831 300.5,574.5C 300.34,572.801 300.506,571.134 301,569.5C 306.386,573.059 311.886,576.392 317.5,579.5 Z M 352.5,593.5 C 353.833,593.5 355.167,593.5 356.5,593.5C 356.518,601.851 356.185,610.184 355.5,618.5C 352.09,618.384 350.756,620.05 351.5,623.5C 364.821,620.504 378.154,617.504 391.5,614.5C 400.474,617.28 400.807,621.113 392.5,626C 377.46,631.05 362.293,635.55 347,639.5C 346.517,640.448 346.351,641.448 346.5,642.5C 360.187,640.912 373.52,637.745 386.5,633C 390.572,632.044 394.405,632.544 398,634.5C 398.667,636.833 398.667,639.167 398,641.5C 396.442,643.359 394.609,644.859 392.5,646C 378.94,651.39 364.94,655.224 350.5,657.5C 346.554,659.124 346.554,660.791 350.5,662.5C 364.885,659.695 379.051,656.029 393,651.5C 399.236,653.073 400.903,656.74 398,662.5C 392.636,667.935 386.136,671.435 378.5,673C 362.746,676.969 346.746,679.136 330.5,679.5C 330.198,663.653 329.531,647.82 328.5,632C 328.833,629.5 329.167,627 329.5,624.5C 340.619,616.716 348.286,606.383 352.5,593.5 Z M 197.5,637.5 C 195.49,645.874 193.323,654.207 191,662.5C 183.833,654.667 176.667,646.833 169.5,639C 172.014,636.585 174.681,634.419 177.5,632.5C 185.546,626.054 193.713,619.721 202,613.5C 201.151,621.574 199.651,629.574 197.5,637.5 Z M 273.5,668.5 C 272.771,672.319 271.604,675.986 270,679.5C 263.631,672.964 257.131,666.631 250.5,660.5C 249.426,659.115 248.093,657.949 246.5,657C 256.523,655.164 266.523,654.33 276.5,654.5C 275.183,659.102 274.183,663.769 273.5,668.5 Z M 330.5,684.5 C 336.013,683.184 341.68,683.184 347.5,684.5C 345.92,698.221 344.087,711.888 342,725.5C 321.565,720.545 301.065,715.712 280.5,711C 297.267,709.452 313.934,707.286 330.5,704.5C 331.818,697.678 331.818,691.011 330.5,684.5 Z M 754.5,702.5 C 755.5,702.5 756.5,702.5 757.5,702.5C 760.588,723.751 755.754,743.084 743,760.5C 737.989,766.342 732.823,772.009 727.5,777.5C 726.417,776.635 726.251,775.635 727,774.5C 742.662,760.181 752.328,742.514 756,721.5C 756.673,715.071 756.173,708.738 754.5,702.5 Z M 482.5,823.5 C 498.16,834.838 504.494,850.171 501.5,869.5C 487.941,873.241 474.274,876.574 460.5,879.5C 463.633,861.648 460.299,844.982 450.5,829.5C 457.489,828.591 464.489,827.757 471.5,827C 475.491,826.502 479.158,825.335 482.5,823.5 Z M 318.5,876.5 C 308.892,865.717 306.392,853.384 311,839.5C 314.99,831.162 321.49,826.329 330.5,825C 314.899,839.428 310.899,856.595 318.5,876.5 Z M 402.5,827.5 C 407.875,827.172 413.208,827.505 418.5,828.5C 428.55,846.264 429.05,864.264 420,882.5C 412.348,882.011 404.848,880.511 397.5,878C 403.514,861.555 402.514,845.555 394.5,830C 397.251,829.057 399.917,828.224 402.5,827.5 Z M 423.5,828.5 C 430.424,827.157 437.424,827.491 444.5,829.5C 456.028,844.81 459.362,861.81 454.5,880.5C 444.866,881.797 435.2,882.297 425.5,882C 433.921,863.755 433.254,845.922 423.5,828.5 Z M 388.5,830.5 C 392.428,835.418 394.928,841.084 396,847.5C 397.093,856.658 396.426,865.658 394,874.5C 393.612,875.428 392.945,876.095 392,876.5C 383.263,874.468 375.93,870.135 370,863.5C 365.823,854.624 367.156,846.624 374,839.5C 378.646,836.099 383.479,833.099 388.5,830.5 Z M 648.5,853.5 C 659.428,855.674 664.261,862.341 663,873.5C 658.422,884.988 650.256,890.822 638.5,891C 639.57,879.509 641.57,868.175 644.5,857C 645.686,855.588 647.019,854.421 648.5,853.5 Z M 684.5,870.5 C 685.403,873.391 685.736,876.391 685.5,879.5C 684.5,879.5 683.5,879.5 682.5,879.5C 682.813,875.958 682.479,872.625 681.5,869.5C 680.415,864.005 677.749,859.338 673.5,855.5C 673.833,855.167 674.167,854.833 674.5,854.5C 679.905,858.565 683.238,863.898 684.5,870.5 Z M 693.5,855.5 C 697.454,859.313 699.954,863.979 701,869.5C 703.414,893.988 692.581,908.988 668.5,914.5C 679.809,908.023 688.643,899.023 695,887.5C 698.598,876.636 698.098,865.969 693.5,855.5 Z M 638.5,859.5 C 636.231,870.384 634.898,881.384 634.5,892.5C 627.132,892.683 619.799,892.35 612.5,891.5C 613.525,884.156 614.692,876.823 616,869.5C 623.465,866.068 630.965,862.735 638.5,859.5 Z M 608.5,871.5 C 609.649,871.791 610.316,872.624 610.5,874C 609.411,879.455 608.744,884.955 608.5,890.5C 601.699,889.799 595.033,888.466 588.5,886.5C 588.756,884.063 589.423,881.729 590.5,879.5C 596.675,877.006 602.675,874.34 608.5,871.5 Z M 581.5,881.5 C 582.5,881.5 583.5,881.5 584.5,881.5C 584.719,882.675 584.386,883.675 583.5,884.5C 582.205,883.902 580.872,883.402 579.5,883C 580.416,882.722 581.082,882.222 581.5,881.5 Z"/></g>
<g><path style="opacity:0.846" fill="#e8e8e8" d="M 617.5,285.5 C 620.518,285.335 623.518,285.502 626.5,286C 627.872,287.242 628.872,288.742 629.5,290.5C 629.113,291.72 628.28,292.387 627,292.5C 625.333,291.5 623.667,290.5 622,289.5C 620.72,289.613 619.887,290.28 619.5,291.5C 621.413,293.291 623.08,295.291 624.5,297.5C 620.55,322.081 615.384,346.415 609,370.5C 607.951,372.107 606.451,372.773 604.5,372.5C 610.464,348.179 615.464,323.679 619.5,299C 615.139,294.97 614.472,290.47 617.5,285.5 Z"/></g>
<g><path style="opacity:0.846" fill="#e8e8e8" d="M 674.5,287.5 C 686.825,288.81 690.325,295.143 685,306.5C 680.162,312.116 673.996,314.616 666.5,314C 657.028,332.901 648.028,352.068 639.5,371.5C 638.311,372.429 636.978,372.762 635.5,372.5C 635.523,370.073 636.023,367.74 637,365.5C 644.608,349.285 651.941,332.952 659,316.5C 660.458,314.04 662.291,311.873 664.5,310C 671.712,310.384 677.545,307.884 682,302.5C 683.895,296.993 682.228,293.326 677,291.5C 675.028,292.305 673.528,293.639 672.5,295.5C 674.023,298.188 675.357,298.022 676.5,295C 677.167,294.333 677.833,294.333 678.5,295C 680.104,298.927 678.771,301.427 674.5,302.5C 668.909,301.349 667.075,298.016 669,292.5C 670.352,290.251 672.185,288.584 674.5,287.5 Z"/></g>
<g><path style="opacity:0.865" fill="#e7e7e7" d="M 632.5,289.5 C 633.496,289.414 634.329,289.748 635,290.5C 636.414,296.63 640.247,298.796 646.5,297C 650.811,295.729 655.144,294.563 659.5,293.5C 663.226,294.09 663.892,295.59 661.5,298C 654.841,299.498 648.174,300.998 641.5,302.5C 633.247,301.605 630.247,297.272 632.5,289.5 Z"/></g>
<g><path style="opacity:0.822" fill="#0058fc" d="M 495.5,270.5 C 496.568,271.434 497.901,271.768 499.5,271.5C 491.086,282.645 483.92,294.645 478,307.5C 475.57,313.285 474.07,319.285 473.5,325.5C 472.127,325.343 470.793,325.51 469.5,326C 471.932,327.087 471.598,327.587 468.5,327.5C 471.89,305.724 480.89,286.724 495.5,270.5 Z"/></g>
<g><path style="opacity:0.835" fill="#024ffd" d="M 304.5,308.5 C 302.052,307.527 299.385,307.194 296.5,307.5C 294.919,305.858 294.253,303.858 294.5,301.5C 297.808,300.974 299.974,302.307 301,305.5C 302.802,301.665 305.635,299.498 309.5,299C 310.517,300.049 310.684,301.216 310,302.5C 307.932,304.396 306.099,306.396 304.5,308.5 Z"/></g>
<g><path style="opacity:0.872" fill="#0152fd" d="M 766.5,314.5 C 763.14,314.616 759.807,314.949 756.5,315.5C 754.022,311.878 752.689,307.878 752.5,303.5C 753.552,303.351 754.552,303.517 755.5,304C 757.389,306.959 759.389,309.792 761.5,312.5C 765.256,309.854 769.256,308.021 773.5,307C 774.517,308.049 774.684,309.216 774,310.5C 771.843,312.495 769.343,313.828 766.5,314.5 Z"/></g>
<g><path style="opacity:0.823" fill="#0675f8" d="M 296.5,307.5 C 299.385,307.194 302.052,307.527 304.5,308.5C 305.412,310.595 306.579,312.595 308,314.5C 308.49,315.793 308.657,317.127 308.5,318.5C 307.448,318.649 306.448,318.483 305.5,318C 303.983,316.315 302.316,314.815 300.5,313.5C 298.308,314.859 296.641,316.692 295.5,319C 292.062,321.367 290.562,320.534 291,316.5C 292.793,313.705 294.96,311.205 297.5,309C 296.944,308.617 296.611,308.117 296.5,307.5 Z"/></g>
<g><path style="opacity:0.835" fill="#e8e8e8" d="M 393.5,317.5 C 399.898,317.243 406.231,317.743 412.5,319C 414.9,320.844 414.567,322.344 411.5,323.5C 405.079,322.037 398.745,321.704 392.5,322.5C 392.137,337.929 394.47,352.929 399.5,367.5C 396.367,371.24 392.367,372.407 387.5,371C 386.62,369.644 386.286,368.144 386.5,366.5C 389.328,367.461 391.995,367.295 394.5,366C 388.935,350.62 386.935,334.787 388.5,318.5C 390.415,318.784 392.081,318.451 393.5,317.5 Z"/></g>
<g><path style="opacity:0.961" fill="#046ff8" d="M 766.5,314.5 C 765.426,315.885 764.093,317.051 762.5,318C 764.126,321.71 765.459,325.543 766.5,329.5C 765.714,332.975 764.214,333.308 762,330.5C 761.025,327.24 759.858,324.073 758.5,321C 755.635,322.083 752.635,323.25 749.5,324.5C 748,324.547 747,323.881 746.5,322.5C 749.475,319.677 752.808,317.344 756.5,315.5C 759.807,314.949 763.14,314.616 766.5,314.5 Z"/></g>
<g><path style="opacity:0.806" fill="#e8e8e8" d="M 366.5,330.5 C 370.846,330.334 375.179,330.501 379.5,331C 380.38,332.356 380.714,333.856 380.5,335.5C 375.496,334.34 370.496,334.174 365.5,335C 364.257,333.184 364.59,331.684 366.5,330.5 Z"/></g>
<g><path style="opacity:0.816" fill="#e8e8e8" d="M 399.5,332.5 C 403.222,333.017 406.888,333.85 410.5,335C 411.38,336.356 411.714,337.856 411.5,339.5C 407.307,339.326 403.307,338.326 399.5,336.5C 398.374,335.192 398.374,333.858 399.5,332.5 Z"/></g>
<g><path style="opacity:0.834" fill="#e8e8e8" d="M 712.5,333.5 C 713.833,333.5 715.167,333.5 716.5,333.5C 714.331,362.189 711.831,390.856 709,419.5C 707.951,421.107 706.451,421.773 704.5,421.5C 706.868,392.119 709.535,362.785 712.5,333.5 Z"/></g>
<g><path style="opacity:0.858" fill="#e8e8e8" d="M 265.5,349.5 C 269.768,351.933 273.268,355.266 276,359.5C 291.264,352.766 294.097,356.266 284.5,370C 286.827,373.65 289.16,377.317 291.5,381C 290.455,382.526 288.955,383.359 287,383.5C 283.756,383.151 280.59,382.485 277.5,381.5C 274.534,384.091 272.034,387.091 270,390.5C 268.333,391.833 266.667,391.833 265,390.5C 264.398,386.117 263.565,381.784 262.5,377.5C 247.055,373.882 246.721,369.548 261.5,364.5C 262.325,360.878 262.825,357.211 263,353.5C 263.48,351.867 264.313,350.534 265.5,349.5 Z M 267.5,357.5 C 269.517,360.485 272.184,362.818 275.5,364.5C 278.057,363.593 280.557,362.593 283,361.5C 282.03,364.292 280.863,367.125 279.5,370C 280.391,373.108 282.058,375.775 284.5,378C 281.239,377.357 277.906,377.024 274.5,377C 272.548,379.074 270.715,381.241 269,383.5C 268.654,380.424 267.988,377.424 267,374.5C 264.345,372.947 261.512,371.78 258.5,371C 261.477,369.682 264.31,368.182 267,366.5C 267.498,363.518 267.665,360.518 267.5,357.5 Z"/></g>
<g><path style="opacity:0.839" fill="#e8e8e8" d="M 832.5,353.5 C 838.371,353.878 838.704,356.045 833.5,360C 801.685,387.647 770.018,415.481 738.5,443.5C 736.717,442.652 736.217,441.319 737,439.5C 769.028,410.968 800.862,382.301 832.5,353.5 Z"/></g>
<g><path style="opacity:0.903" fill="#0065f9" d="M 473.5,325.5 C 472.355,335.92 474.522,345.587 480,354.5C 489.399,365.058 498.566,375.725 507.5,386.5C 506.109,385.759 504.442,385.759 502.5,386.5C 492.491,375.987 482.991,364.987 474,353.5C 469.804,345.355 467.971,336.688 468.5,327.5C 471.598,327.587 471.932,327.087 469.5,326C 470.793,325.51 472.127,325.343 473.5,325.5 Z"/></g>
<g><path style="opacity:1" fill="#1461fa" d="M 647.5,386.5 C 632.5,386.5 617.5,386.5 602.5,386.5C 596.382,385.593 594.382,382.259 596.5,376.5C 598.115,377.154 599.782,377.654 601.5,378C 616.843,378.736 632.177,379.569 647.5,380.5C 647.5,382.5 647.5,384.5 647.5,386.5 Z"/></g>
<g><path style="opacity:0.8" fill="#e8e8e8" d="M 364.5,386.5 C 370.526,388.994 376.86,390.66 383.5,391.5C 383.5,392.833 383.5,394.167 383.5,395.5C 376.4,396.187 370.233,394.187 365,389.5C 364.517,388.552 364.351,387.552 364.5,386.5 Z"/></g>
<g><path style="opacity:1" fill="#1875f6" d="M 602.5,386.5 C 617.5,386.5 632.5,386.5 647.5,386.5C 647.141,388.371 646.141,389.871 644.5,391C 630.132,391.681 616.132,390.181 602.5,386.5 Z"/></g>
<g><path style="opacity:1" fill="#095cfb" d="M 635.5,399.5 C 623.5,399.5 611.5,399.5 599.5,399.5C 599.5,398.5 599.5,397.5 599.5,396.5C 599.247,394.173 599.914,392.173 601.5,390.5C 613.092,392.632 624.759,394.299 636.5,395.5C 636.567,396.959 636.234,398.292 635.5,399.5 Z"/></g>
<g><path style="opacity:0.833" fill="#e8e8e8" d="M 735.5,398.5 C 738.244,399.072 739.077,400.738 738,403.5C 734.394,410.379 731.061,417.379 728,424.5C 726.89,426.037 725.39,426.703 723.5,426.5C 723.34,424.801 723.506,423.134 724,421.5C 727.558,413.637 731.391,405.97 735.5,398.5 Z"/></g>
<g><path style="opacity:1" fill="#0e6df8" d="M 599.5,396.5 C 599.5,397.5 599.5,398.5 599.5,399.5C 611.5,399.5 623.5,399.5 635.5,399.5C 635.116,402.769 633.782,405.603 631.5,408C 621.077,409.881 610.743,409.215 600.5,406C 598.307,402.962 597.973,399.796 599.5,396.5 Z"/></g>
<g><path style="opacity:0.822" fill="#e8e8e8" d="M 484.5,409.5 C 485.833,409.5 487.167,409.5 488.5,409.5C 488.455,413.761 487.122,417.595 484.5,421C 486.249,422.292 488.082,423.458 490,424.5C 490.854,426.607 490.188,427.941 488,428.5C 485.845,427.756 483.845,426.756 482,425.5C 479.97,427.864 477.637,429.864 475,431.5C 473.5,431.333 472.667,430.5 472.5,429C 474.167,426.667 475.833,424.333 477.5,422C 476.722,419.61 475.555,417.443 474,415.5C 473.167,412.333 474.333,411.167 477.5,412C 478.542,413.918 479.708,415.751 481,417.5C 482.454,414.929 483.62,412.262 484.5,409.5 Z"/></g>
<g><path style="opacity:0.842" fill="#0071f7" d="M 507.5,386.5 C 516.139,396.462 520.972,408.128 522,421.5C 522.499,427.157 522.666,432.824 522.5,438.5C 520.958,439.301 519.292,439.634 517.5,439.5C 519.585,419.763 514.585,402.096 502.5,386.5C 504.442,385.759 506.109,385.759 507.5,386.5 Z"/></g>
<g><path style="opacity:0.827" fill="#015bfb" d="M 624.5,438.5 C 621.038,437.518 617.371,437.185 613.5,437.5C 623.688,433.937 634.021,430.437 644.5,427C 663.022,420.152 674.855,407.318 680,388.5C 681.5,388.667 682.333,389.5 682.5,391C 681.604,396.022 680.104,400.855 678,405.5C 669.81,418.022 658.643,426.855 644.5,432C 637.831,434.279 631.164,436.446 624.5,438.5 Z"/></g>
<g><path style="opacity:0.835" fill="#087bf5" d="M 522.5,438.5 C 521.701,441.43 521.368,444.43 521.5,447.5C 520.463,448.93 519.796,450.597 519.5,452.5C 516.658,465.856 509.991,476.856 499.5,485.5C 497.717,484.652 497.217,483.319 498,481.5C 506.157,472.852 511.99,462.852 515.5,451.5C 516.234,450.292 516.567,448.959 516.5,447.5C 516.833,444.833 517.167,442.167 517.5,439.5C 519.292,439.634 520.958,439.301 522.5,438.5 Z"/></g>
<g><path style="opacity:0.81" fill="#0269f9" d="M 613.5,437.5 C 617.371,437.185 621.038,437.518 624.5,438.5C 613.027,441.156 602.36,445.656 592.5,452C 590.959,453.371 589.625,454.871 588.5,456.5C 587.29,456.932 586.29,457.599 585.5,458.5C 584.175,457.047 583.342,457.381 583,459.5C 582.536,458.906 582.369,458.239 582.5,457.5C 582.5,456.833 582.5,456.167 582.5,455.5C 590.839,446.161 601.172,440.161 613.5,437.5 Z"/></g>
<g><path style="opacity:0.839" fill="#014efd" d="M 386.5,453.5 C 384.5,453.5 382.5,453.5 380.5,453.5C 378.983,453.489 377.816,452.823 377,451.5C 376.722,452.416 376.222,453.082 375.5,453.5C 373.833,453.5 372.167,453.5 370.5,453.5C 372.016,450.467 374.016,447.8 376.5,445.5C 380.165,447.841 383.499,450.507 386.5,453.5 Z"/></g>
<g><path style="opacity:0.818" fill="#014ffd" d="M 472.5,470.5 C 471.081,469.549 469.415,469.216 467.5,469.5C 469.279,467.454 470.946,465.287 472.5,463C 464.112,462.169 455.779,462.503 447.5,464C 450.423,466.416 452.757,469.25 454.5,472.5C 452.922,472.426 451.255,472.76 449.5,473.5C 445.651,469.81 442.317,465.643 439.5,461C 440.167,460.333 440.833,459.667 441.5,459C 453.516,458.475 465.516,458.142 477.5,458C 479.158,458.725 479.658,459.892 479,461.5C 477.301,464.921 475.135,467.921 472.5,470.5 Z"/></g>
<g><path style="opacity:0.885" fill="#0374f7" d="M 370.5,453.5 C 372.167,453.5 373.833,453.5 375.5,453.5C 374.496,457.008 372.829,460.174 370.5,463C 376.553,463.362 382.553,462.862 388.5,461.5C 385.506,459.173 382.839,456.506 380.5,453.5C 382.5,453.5 384.5,453.5 386.5,453.5C 391.614,456.276 395.281,460.276 397.5,465.5C 386.523,466.887 375.523,467.72 364.5,468C 364.043,467.586 363.709,467.086 363.5,466.5C 366.1,462.299 368.434,457.966 370.5,453.5 Z"/></g>
<g><path style="opacity:0.833" fill="#0e52fd" d="M 552.5,465.5 C 552.727,467.933 551.727,469.599 549.5,470.5C 548.794,469.443 548.461,469.776 548.5,471.5C 548.5,471.833 548.5,472.167 548.5,472.5C 547.833,472.5 547.5,472.833 547.5,473.5C 545.167,477.833 541.833,481.167 537.5,483.5C 540.309,475.878 544.142,468.878 549,462.5C 550.039,463.71 551.206,464.71 552.5,465.5 Z"/></g>
<g><path style="opacity:0.818" fill="#0379f6" d="M 582.5,457.5 C 582.369,458.239 582.536,458.906 583,459.5C 583.342,457.381 584.175,457.047 585.5,458.5C 585.167,459.167 584.833,459.833 584.5,460.5C 579.7,468.322 578.033,476.656 579.5,485.5C 578.167,485.5 576.833,485.5 575.5,485.5C 573.42,476.283 574.754,467.617 579.5,459.5C 580.5,458.833 581.5,458.167 582.5,457.5 Z"/></g>
<g><path style="opacity:1" fill="#054ffd" d="M 700.5,507.5 C 670.995,507.831 641.662,507.498 612.5,506.5C 646.505,487.498 680.505,468.498 714.5,449.5C 714.833,450.167 715.167,450.833 715.5,451.5C 712.593,468.943 709.26,486.277 705.5,503.5C 703.581,504.612 701.914,505.946 700.5,507.5 Z"/></g>
<g><path style="opacity:0.855" fill="#e8e8e8" d="M 734.5,468.5 C 743.513,468.56 752.513,468.893 761.5,469.5C 761.5,470.833 761.5,472.167 761.5,473.5C 753.16,473.666 744.827,473.5 736.5,473C 734.893,471.951 734.227,470.451 734.5,468.5 Z"/></g>
<g><path style="opacity:0.804" fill="#0272f7" d="M 467.5,469.5 C 469.415,469.216 471.081,469.549 472.5,470.5C 469.189,475.968 465.356,480.968 461,485.5C 456.951,481.762 453.118,477.762 449.5,473.5C 451.255,472.76 452.922,472.426 454.5,472.5C 456.493,474.467 458.493,476.467 460.5,478.5C 463.209,475.792 465.542,472.792 467.5,469.5 Z"/></g>
<g><path style="opacity:0.802" fill="#e9e9e9" d="M 511.5,481.5 C 514.491,481.33 516.491,482.663 517.5,485.5C 519.745,483.377 522.412,482.377 525.5,482.5C 525.028,485.815 523.195,488.149 520,489.5C 519.605,491.179 519.772,492.845 520.5,494.5C 520.566,496.266 519.732,497.266 518,497.5C 516.667,496.167 515.333,494.833 514,493.5C 511.736,495.164 509.403,495.497 507,494.5C 506.333,493.5 506.333,492.5 507,491.5C 509.137,490.521 510.971,489.188 512.5,487.5C 511.215,485.423 510.882,483.423 511.5,481.5 Z"/></g>
<g><path style="opacity:0.876" fill="#0660fa" d="M 556.5,470.5 C 560.525,476.185 564.525,481.851 568.5,487.5C 566.525,487.178 564.858,487.178 563.5,487.5C 559.596,483.352 555.929,479.019 552.5,474.5C 553.402,472.659 554.736,471.326 556.5,470.5 Z"/></g>
<g><path style="opacity:0.836" fill="#0156fc" d="M 334.5,488.5 C 333.036,487.595 331.702,487.595 330.5,488.5C 330.895,484.815 331.062,481.148 331,477.5C 321.932,481.524 312.765,485.357 303.5,489C 304.571,489.852 305.571,490.685 306.5,491.5C 304.379,491.325 302.379,491.659 300.5,492.5C 296.147,491.42 295.147,489.253 297.5,486C 309.843,480.774 322.343,475.941 335,471.5C 336.5,471.667 337.333,472.5 337.5,474C 336.552,478.859 335.552,483.692 334.5,488.5 Z"/></g>
<g><path style="opacity:0.86" fill="#e8e8e8" d="M 260.5,485.5 C 262.665,485.116 264.332,485.783 265.5,487.5C 264.07,490.433 262.07,492.933 259.5,495C 260.729,496.529 262.229,497.696 264,498.5C 264.884,500.641 264.384,502.307 262.5,503.5C 260.424,501.712 258.257,500.046 256,498.5C 253.407,500.549 250.907,502.715 248.5,505C 247.833,505.667 247.167,505.667 246.5,505C 245.446,503.612 245.28,502.112 246,500.5C 248.46,499.042 250.627,497.209 252.5,495C 249.898,493.446 248.731,491.28 249,488.5C 251.848,487.743 254.181,488.743 256,491.5C 258.127,489.886 259.627,487.886 260.5,485.5 Z"/></g>
<g><path style="opacity:0.861" fill="#e7e7e7" d="M 736.5,494.5 C 761.163,512.506 785.496,531.006 809.5,550C 810.38,551.356 810.714,552.856 810.5,554.5C 809.127,554.657 807.793,554.49 806.5,554C 782.909,535.621 759.409,517.121 736,498.5C 735.421,497.072 735.588,495.738 736.5,494.5 Z"/></g>
<g><path style="opacity:0.853" fill="#037bf6" d="M 540.5,486.5 C 539.372,490.09 537.705,493.423 535.5,496.5C 546.044,496.018 556.71,494.852 567.5,493C 566.035,491.226 564.702,489.392 563.5,487.5C 564.858,487.178 566.525,487.178 568.5,487.5C 570.55,489.237 572.383,491.237 574,493.5C 574.684,494.784 574.517,495.951 573.5,497C 558.845,498.998 544.179,500.832 529.5,502.5C 529.962,497.907 531.295,493.574 533.5,489.5C 536.206,489.312 538.539,488.312 540.5,486.5 Z"/></g>
<g><path style="opacity:0.845" fill="#0273f7" d="M 334.5,488.5 C 333.401,495.165 332.234,501.832 331,508.5C 330.882,510.573 329.882,511.907 328,512.5C 318.518,506.184 309.351,499.518 300.5,492.5C 302.379,491.659 304.379,491.325 306.5,491.5C 312.842,496.336 319.342,501.002 326,505.5C 327.571,499.795 329.071,494.128 330.5,488.5C 331.702,487.595 333.036,487.595 334.5,488.5 Z"/></g>
<g><path style="opacity:1" fill="#044efd" d="M 537.5,539.5 C 481.167,539.5 424.833,539.5 368.5,539.5C 370.264,521.459 372.431,503.459 375,485.5C 429.805,499.076 484.638,512.743 539.5,526.5C 539.201,530.928 538.535,535.261 537.5,539.5 Z"/></g>
<g><path style="opacity:1" fill="#0154fc" d="M 612.5,506.5 C 641.662,507.498 670.995,507.831 700.5,507.5C 695.028,518.833 691.695,530.833 690.5,543.5C 652.5,543.5 614.5,543.5 576.5,543.5C 576.5,542.5 576.5,541.5 576.5,540.5C 576.716,535.146 577.716,529.979 579.5,525C 590.527,518.821 601.527,512.655 612.5,506.5 Z"/></g>
<g><path style="opacity:0.867" fill="#0256fc" d="M 255.5,533.5 C 253.167,533.5 250.833,533.5 248.5,533.5C 248.631,532.624 248.298,531.957 247.5,531.5C 243.047,529.774 238.714,527.774 234.5,525.5C 232.757,531.368 231.757,537.368 231.5,543.5C 229.833,543.5 228.167,543.5 226.5,543.5C 227.469,535.573 228.802,527.739 230.5,520C 239.061,522.436 247.394,525.769 255.5,530C 256.791,531.292 256.791,532.458 255.5,533.5 Z"/></g>
<g><path style="opacity:1" fill="#0455fc" d="M 368.5,539.5 C 424.833,539.5 481.167,539.5 537.5,539.5C 536.797,550.264 535.464,560.931 533.5,571.5C 522.833,571.5 512.167,571.5 501.5,571.5C 501.586,570.504 501.252,569.671 500.5,569C 468.957,561.189 437.29,554.022 405.5,547.5C 405.36,549.124 406.027,550.29 407.5,551C 435.145,557.661 462.811,564.161 490.5,570.5C 470.34,571.497 450.007,571.83 429.5,571.5C 426.833,571.167 424.167,570.833 421.5,570.5C 412.075,571.154 402.575,571.488 393,571.5C 383.475,571.498 374.308,570.832 365.5,569.5C 365.903,559.393 366.903,549.393 368.5,539.5 Z"/></g>
<g><path style="opacity:0.834" fill="#e8e8e8" d="M 326.5,542.5 C 329.81,542.461 332.476,543.794 334.5,546.5C 335.981,545.52 337.315,544.353 338.5,543C 340.237,542.388 341.237,543.054 341.5,545C 341.01,546.982 340.01,548.649 338.5,550C 342.214,552.858 344.88,556.358 346.5,560.5C 341.971,560.504 338.471,558.504 336,554.5C 333.833,557.333 331.667,560.167 329.5,563C 326.333,563.833 325.167,562.667 326,559.5C 328.167,556.667 330.333,553.833 332.5,551C 330.983,549.315 329.316,547.815 327.5,546.5C 326.754,545.264 326.421,543.93 326.5,542.5 Z"/></g>
<g><path style="opacity:0.969" fill="#0e51fd" d="M 562.5,603.5 C 560.167,603.5 557.833,603.5 555.5,603.5C 557.467,585.664 559.467,567.831 561.5,550C 560.975,549.308 560.308,548.808 559.5,548.5C 556.776,567.404 554.776,586.404 553.5,605.5C 550.326,604.308 547.326,602.975 544.5,601.5C 545.851,586.744 547.851,572.077 550.5,557.5C 550.281,555.085 548.948,554.085 546.5,554.5C 546.335,561.658 545.335,568.658 543.5,575.5C 541.5,575.5 539.5,575.5 537.5,575.5C 537.5,574.5 537.5,573.5 537.5,572.5C 538.849,559.059 540.849,545.725 543.5,532.5C 547.298,539.796 553.298,542.63 561.5,541C 565.252,540.538 568.752,539.372 572,537.5C 569.488,559.596 566.321,581.596 562.5,603.5 Z"/></g>
<g><path style="opacity:1" fill="#025afb" d="M 576.5,540.5 C 576.5,541.5 576.5,542.5 576.5,543.5C 614.5,543.5 652.5,543.5 690.5,543.5C 689.978,549.577 688.978,555.577 687.5,561.5C 677.735,564.256 668.401,568.089 659.5,573C 656.712,574.719 654.379,576.885 652.5,579.5C 625.167,579.5 597.833,579.5 570.5,579.5C 572.103,566.312 574.103,553.312 576.5,540.5 Z"/></g>
<g><path style="opacity:0.874" fill="#0274f7" d="M 248.5,533.5 C 250.833,533.5 253.167,533.5 255.5,533.5C 246.746,540.39 237.746,547.056 228.5,553.5C 226.833,553.167 225.833,552.167 225.5,550.5C 226.223,548.218 226.557,545.884 226.5,543.5C 228.167,543.5 229.833,543.5 231.5,543.5C 231.369,544.239 231.536,544.906 232,545.5C 237.378,541.282 242.878,537.282 248.5,533.5 Z"/></g>
<g><path style="opacity:1" fill="#d2d8ea" d="M 501.5,571.5 C 500.584,571.982 499.584,572.315 498.5,572.5C 495.87,571.622 493.203,570.955 490.5,570.5C 462.811,564.161 435.145,557.661 407.5,551C 406.027,550.29 405.36,549.124 405.5,547.5C 437.29,554.022 468.957,561.189 500.5,569C 501.252,569.671 501.586,570.504 501.5,571.5 Z"/></g>
<g><path style="opacity:1" fill="#d2d9ea" d="M 544.5,601.5 C 541.513,620.986 538.847,640.653 536.5,660.5C 533.666,680.01 530.999,699.677 528.5,719.5C 526.941,728.33 525.608,737.33 524.5,746.5C 523.5,746.5 522.5,746.5 521.5,746.5C 521.839,738.802 522.505,731.135 523.5,723.5C 526.86,702.865 529.86,682.199 532.5,661.5C 536.526,632.879 540.193,604.212 543.5,575.5C 545.335,568.658 546.335,561.658 546.5,554.5C 548.948,554.085 550.281,555.085 550.5,557.5C 547.851,572.077 545.851,586.744 544.5,601.5 Z"/></g>
<g><path style="opacity:0.839" fill="#e8e8e8" d="M 193.5,560.5 C 194.833,560.5 196.167,560.5 197.5,560.5C 197.424,563.973 196.758,567.306 195.5,570.5C 200.141,570.108 202.474,572.108 202.5,576.5C 199.762,576.149 197.096,575.482 194.5,574.5C 193.284,576.766 191.784,578.766 190,580.5C 188.5,580.333 187.667,579.5 187.5,578C 188.606,576.118 188.606,574.284 187.5,572.5C 185.189,571.786 183.022,570.786 181,569.5C 180.544,567.287 181.544,566.287 184,566.5C 186.151,566.773 188.151,567.439 190,568.5C 191.454,565.929 192.62,563.262 193.5,560.5 Z"/></g>
<g><path style="opacity:1" fill="#045bfb" d="M 365.5,569.5 C 374.308,570.832 383.475,571.498 393,571.5C 402.575,571.488 412.075,571.154 421.5,570.5C 421.33,571.822 421.663,572.989 422.5,574C 442.215,579.012 461.882,584.179 481.5,589.5C 483.488,588.711 483.821,587.545 482.5,586C 464.672,581.296 447.006,576.462 429.5,571.5C 450.007,571.83 470.34,571.497 490.5,570.5C 493.203,570.955 495.87,571.622 498.5,572.5C 499.584,572.315 500.584,571.982 501.5,571.5C 512.167,571.5 522.833,571.5 533.5,571.5C 531.505,582.127 529.839,592.794 528.5,603.5C 472.664,603.832 416.998,603.499 361.5,602.5C 361.97,591.256 363.303,580.256 365.5,569.5 Z"/></g>
<g><path style="opacity:1" fill="#d5daea" d="M 421.5,570.5 C 424.167,570.833 426.833,571.167 429.5,571.5C 447.006,576.462 464.672,581.296 482.5,586C 483.821,587.545 483.488,588.711 481.5,589.5C 461.882,584.179 442.215,579.012 422.5,574C 421.663,572.989 421.33,571.822 421.5,570.5 Z"/></g>
<g><path style="opacity:0.819" fill="#0154fc" d="M 325.5,579.5 C 322.833,579.5 320.167,579.5 317.5,579.5C 311.886,576.392 306.386,573.059 301,569.5C 300.506,571.134 300.34,572.801 300.5,574.5C 298.958,575.301 297.292,575.634 295.5,575.5C 295.334,571.486 295.501,567.486 296,563.5C 296.561,562.978 297.228,562.645 298,562.5C 307.466,567.809 316.632,573.476 325.5,579.5 Z"/></g>
<g><path style="opacity:1" fill="#0460fa" d="M 570.5,579.5 C 597.833,579.5 625.167,579.5 652.5,579.5C 647.824,586.781 649.157,592.781 656.5,597.5C 650.745,601.983 649.078,607.649 651.5,614.5C 623.005,615.498 594.338,615.831 565.5,615.5C 565.5,614.167 565.5,612.833 565.5,611.5C 566.539,600.605 568.206,589.938 570.5,579.5 Z"/></g>
<g><path style="opacity:0.854" fill="#0271f7" d="M 300.5,574.5 C 300.952,581.831 301.452,589.165 302,596.5C 308.589,591.789 315.089,586.955 321.5,582C 319.934,581.392 318.6,580.558 317.5,579.5C 320.167,579.5 322.833,579.5 325.5,579.5C 329.029,580.609 329.362,582.442 326.5,585C 318.222,590.278 310.222,595.945 302.5,602C 300.866,602.494 299.199,602.66 297.5,602.5C 297.143,593.424 296.477,584.424 295.5,575.5C 297.292,575.634 298.958,575.301 300.5,574.5 Z"/></g>
<g><path style="opacity:1" fill="#1c5ffa" d="M 537.5,572.5 C 537.5,573.5 537.5,574.5 537.5,575.5C 539.5,575.5 541.5,575.5 543.5,575.5C 540.193,604.212 536.526,632.879 532.5,661.5C 529.833,661.5 527.167,661.5 524.5,661.5C 524.5,660.167 524.5,658.833 524.5,657.5C 528.213,628.96 532.546,600.627 537.5,572.5 Z"/></g>
<g><path style="opacity:1" fill="#0260fa" d="M 361.5,602.5 C 416.998,603.499 472.664,603.832 528.5,603.5C 526.834,614.823 525.168,626.156 523.5,637.5C 483.5,637.5 443.5,637.5 403.5,637.5C 402.841,633.176 400.508,630.176 396.5,628.5C 403.507,623.629 404.174,618.129 398.5,612C 394.928,610.595 391.261,610.262 387.5,611C 378.666,612.542 369.999,614.709 361.5,617.5C 360.833,617.167 360.167,616.833 359.5,616.5C 360.117,611.701 360.784,607.034 361.5,602.5 Z"/></g>
<g><path style="opacity:0.832" fill="#0253fd" d="M 201.5,638.5 C 200.432,637.566 199.099,637.232 197.5,637.5C 199.651,629.574 201.151,621.574 202,613.5C 193.713,619.721 185.546,626.054 177.5,632.5C 176.167,631.5 174.833,630.5 173.5,629.5C 184.386,620.805 195.553,612.472 207,604.5C 208.732,604.734 209.566,605.734 209.5,607.5C 207.069,618.024 204.402,628.357 201.5,638.5 Z"/></g>
<g><path style="opacity:1" fill="#0465f9" d="M 565.5,611.5 C 565.5,612.833 565.5,614.167 565.5,615.5C 594.338,615.831 623.005,615.498 651.5,614.5C 653.34,616.168 655.34,617.668 657.5,619C 652.66,622.041 651.327,626.207 653.5,631.5C 654.357,632.425 655.357,633.092 656.5,633.5C 625.338,634.498 594.004,634.832 562.5,634.5C 562.5,633.5 562.5,632.5 562.5,631.5C 562.873,624.608 563.873,617.942 565.5,611.5 Z"/></g>
<g><path style="opacity:0.961" fill="#065ffa" d="M 544.5,601.5 C 547.326,602.975 550.326,604.308 553.5,605.5C 550.758,623.766 548.425,642.099 546.5,660.5C 543.064,661.782 539.731,661.782 536.5,660.5C 538.847,640.653 541.513,620.986 544.5,601.5 Z"/></g>
<g><path style="opacity:0.939" fill="#045ffa" d="M 555.5,603.5 C 557.833,603.5 560.167,603.5 562.5,603.5C 559.685,622.873 556.685,642.206 553.5,661.5C 552.167,661.5 550.833,661.5 549.5,661.5C 551.5,642.168 553.5,622.834 555.5,603.5 Z"/></g>
<g><path style="opacity:1" fill="#0468f9" d="M 677.5,659.5 C 637.486,660.161 597.819,659.494 558.5,657.5C 559.198,648.606 560.531,639.939 562.5,631.5C 562.5,632.5 562.5,633.5 562.5,634.5C 594.004,634.832 625.338,634.498 656.5,633.5C 665.253,633.183 673.753,631.516 682,628.5C 682.5,628.833 683,629.167 683.5,629.5C 681.269,639.579 679.269,649.579 677.5,659.5 Z"/></g>
<g><path style="opacity:1" fill="#0065f9" d="M 403.5,637.5 C 443.5,637.5 483.5,637.5 523.5,637.5C 522.583,643.836 521.583,650.169 520.5,656.5C 481.5,656.5 442.5,656.5 403.5,656.5C 402.523,653.011 400.523,650.177 397.5,648C 400.934,645.297 402.934,641.797 403.5,637.5 Z"/></g>
<g><path style="opacity:0.844" fill="#014dfd" d="M 277.5,668.5 C 276.778,668.918 276.278,669.584 276,670.5C 275.583,669.244 274.75,668.577 273.5,668.5C 274.183,663.769 275.183,659.102 276.5,654.5C 266.523,654.33 256.523,655.164 246.5,657C 248.093,657.949 249.426,659.115 250.5,660.5C 248.5,660.5 246.5,660.5 244.5,660.5C 242.301,658.898 240.301,657.064 238.5,655C 239.381,653.529 240.714,652.696 242.5,652.5C 255.158,650.867 267.824,649.701 280.5,649C 281.081,649.893 281.415,650.893 281.5,652C 280.528,657.718 279.195,663.218 277.5,668.5 Z"/></g>
<g><path style="opacity:0.804" fill="#0273f7" d="M 173.5,629.5 C 174.833,630.5 176.167,631.5 177.5,632.5C 174.681,634.419 172.014,636.585 169.5,639C 176.667,646.833 183.833,654.667 191,662.5C 193.323,654.207 195.49,645.874 197.5,637.5C 199.099,637.232 200.432,637.566 201.5,638.5C 199.811,648.257 197.644,657.924 195,667.5C 193.933,669.283 192.433,669.783 190.5,669C 181.695,659.526 172.861,650.026 164,640.5C 163.219,639.056 163.386,637.723 164.5,636.5C 167.349,633.916 170.349,631.583 173.5,629.5 Z"/></g>
<g><path style="opacity:1" fill="#0169f9" d="M 403.5,656.5 C 442.5,656.5 481.5,656.5 520.5,656.5C 519.554,661.793 518.887,667.126 518.5,672.5C 517.596,673.209 517.263,674.209 517.5,675.5C 473.997,675.832 430.663,675.499 387.5,674.5C 396.788,671.886 402.121,665.886 403.5,656.5 Z"/></g>
<g><path style="opacity:1" fill="#026df8" d="M 558.5,657.5 C 597.819,659.494 637.486,660.161 677.5,659.5C 676.136,671.618 674.136,683.618 671.5,695.5C 632.167,695.5 592.833,695.5 553.5,695.5C 553.5,693.5 553.5,691.5 553.5,689.5C 554.539,678.605 556.206,667.938 558.5,657.5 Z"/></g>
<g><path style="opacity:0.825" fill="#e8e8e8" d="M 220.5,670.5 C 223.614,671.091 226.114,672.758 228,675.5C 229.167,674.333 230.333,673.167 231.5,672C 232.784,671.316 233.951,671.483 235,672.5C 234.948,675.272 233.781,677.606 231.5,679.5C 232.38,681.429 233.38,683.263 234.5,685C 233.941,687.188 232.607,687.854 230.5,687C 229.845,685.513 228.845,684.347 227.5,683.5C 225.35,685.149 223.35,686.982 221.5,689C 218.333,689.833 217.167,688.667 218,685.5C 220.167,683.333 222.333,681.167 224.5,679C 221.029,676.906 219.696,674.073 220.5,670.5 Z"/></g>
<g><path style="opacity:1" fill="#026df8" d="M 518.5,672.5 C 516.58,684.204 514.58,695.87 512.5,707.5C 457.997,707.832 403.664,707.499 349.5,706.5C 349.866,698.469 350.533,690.469 351.5,682.5C 363.72,680.723 375.72,678.056 387.5,674.5C 430.663,675.499 473.997,675.832 517.5,675.5C 517.263,674.209 517.596,673.209 518.5,672.5 Z"/></g>
<g><path style="opacity:0.792" fill="#0271f7" d="M 244.5,660.5 C 246.5,660.5 248.5,660.5 250.5,660.5C 257.131,666.631 263.631,672.964 270,679.5C 271.604,675.986 272.771,672.319 273.5,668.5C 274.75,668.577 275.583,669.244 276,670.5C 276.278,669.584 276.778,668.918 277.5,668.5C 276.913,674.601 275.747,680.601 274,686.5C 272.493,687.535 270.993,687.368 269.5,686C 260.964,677.632 252.631,669.132 244.5,660.5 Z"/></g>
<g><path style="opacity:1" fill="#116ef8" d="M 524.5,657.5 C 524.5,658.833 524.5,660.167 524.5,661.5C 527.167,661.5 529.833,661.5 532.5,661.5C 529.86,682.199 526.86,702.865 523.5,723.5C 520.833,723.5 518.167,723.5 515.5,723.5C 515.5,721.5 515.5,719.5 515.5,717.5C 518.218,697.328 521.218,677.328 524.5,657.5 Z"/></g>
<g><path style="opacity:0.966" fill="#096cf8" d="M 536.5,660.5 C 539.731,661.782 543.064,661.782 546.5,660.5C 543.338,680.982 540.005,701.315 536.5,721.5C 534.2,723.202 531.533,723.868 528.5,723.5C 528.5,722.167 528.5,720.833 528.5,719.5C 530.999,699.677 533.666,680.01 536.5,660.5 Z"/></g>
<g><path style="opacity:0.938" fill="#046cf8" d="M 549.5,661.5 C 550.833,661.5 552.167,661.5 553.5,661.5C 550.336,682.143 547.336,702.81 544.5,723.5C 542.446,723.635 540.779,722.968 539.5,721.5C 542.638,701.341 545.971,681.341 549.5,661.5 Z"/></g>
<g><path style="opacity:1" fill="#0373f7" d="M 553.5,689.5 C 553.5,691.5 553.5,693.5 553.5,695.5C 592.833,695.5 632.167,695.5 671.5,695.5C 670.8,704.039 669.133,712.372 666.5,720.5C 659.114,724.193 651.78,727.86 644.5,731.5C 612.167,731.5 579.833,731.5 547.5,731.5C 547.5,730.5 547.5,729.5 547.5,728.5C 548.958,715.285 550.958,702.285 553.5,689.5 Z"/></g>
<g><path style="opacity:1" fill="#0073f7" d="M 349.5,706.5 C 403.664,707.499 457.997,707.832 512.5,707.5C 511.296,718.184 509.963,728.851 508.5,739.5C 454.167,739.5 399.833,739.5 345.5,739.5C 346.409,728.309 347.742,717.309 349.5,706.5 Z"/></g>
<g><path style="opacity:0.762" fill="#0154fc" d="M 788.5,727.5 C 787.041,727.567 785.708,727.234 784.5,726.5C 784.867,718.236 784.2,710.069 782.5,702C 783.333,699.5 784.833,699 787,700.5C 789.38,709.563 789.88,718.563 788.5,727.5 Z"/></g>
<g><path style="opacity:1" fill="#077af6" d="M 547.5,728.5 C 547.5,729.5 547.5,730.5 547.5,731.5C 579.833,731.5 612.167,731.5 644.5,731.5C 609.718,749.726 574.718,767.726 539.5,785.5C 539.167,784.667 538.833,783.833 538.5,783C 541.908,764.759 544.908,746.593 547.5,728.5 Z"/></g>
<g><path style="opacity:1" fill="#077af6" d="M 345.5,739.5 C 399.833,739.5 454.167,739.5 508.5,739.5C 505.877,755.435 503.543,771.435 501.5,787.5C 449.755,772.866 398.088,757.699 346.5,742C 345.748,741.329 345.414,740.496 345.5,739.5 Z"/></g>
<g><path style="opacity:0.838" fill="#0271f7" d="M 784.5,726.5 C 785.708,727.234 787.041,727.567 788.5,727.5C 787.209,742.076 782.042,755.076 773,766.5C 771.644,767.38 770.144,767.714 768.5,767.5C 768.343,766.127 768.51,764.793 769,763.5C 777.449,752.594 782.616,740.261 784.5,726.5 Z"/></g>
<g><path style="opacity:0.977" fill="#0b79f6" d="M 515.5,717.5 C 515.5,719.5 515.5,721.5 515.5,723.5C 518.167,723.5 520.833,723.5 523.5,723.5C 522.505,731.135 521.839,738.802 521.5,746.5C 522.5,746.5 523.5,746.5 524.5,746.5C 525.608,737.33 526.941,728.33 528.5,719.5C 528.5,720.833 528.5,722.167 528.5,723.5C 531.533,723.868 534.2,723.202 536.5,721.5C 534.029,737.355 531.363,753.188 528.5,769C 528.833,770.167 529.167,771.333 529.5,772.5C 533.344,755.615 536.677,738.615 539.5,721.5C 540.779,722.968 542.446,723.635 544.5,723.5C 540.926,745.186 537.259,766.852 533.5,788.5C 529.5,790.5 525.5,792.5 521.5,794.5C 515.88,792.626 510.213,790.959 504.5,789.5C 508.321,765.405 511.987,741.405 515.5,717.5 Z"/></g>
<g><path style="opacity:1" fill="#0f54fc" d="M 367.5,841.5 C 352.657,841.829 337.99,841.496 323.5,840.5C 328.225,831.278 335.558,825.112 345.5,822C 380.17,821.491 414.836,820.825 449.5,820C 459.051,816.355 468.384,816.688 477.5,821C 472.255,822.43 466.922,823.43 461.5,824C 440.502,823.867 419.502,823.867 398.5,824C 385.72,825.718 375.387,831.551 367.5,841.5 Z"/></g>
<g><path style="opacity:1" fill="#045ffa" d="M 323.5,840.5 C 337.99,841.496 352.657,841.829 367.5,841.5C 363.871,846.875 362.538,852.875 363.5,859.5C 363.53,860.497 363.03,861.164 362,861.5C 348.321,861.382 334.488,861.216 320.5,861C 319.544,857.606 319.211,854.106 319.5,850.5C 319.934,846.723 321.267,843.39 323.5,840.5 Z"/></g>
<g><path style="opacity:0.948" fill="#0c56fc" d="M 694.5,866.5 C 694.5,867.5 694.5,868.5 694.5,869.5C 691.061,869.253 687.728,869.586 684.5,870.5C 683.238,863.898 679.905,858.565 674.5,854.5C 674.167,854.833 673.833,855.167 673.5,855.5C 677.749,859.338 680.415,864.005 681.5,869.5C 676.167,869.5 670.833,869.5 665.5,869.5C 665.633,865.401 664.467,861.734 662,858.5C 658.326,855.598 654.826,852.598 651.5,849.5C 657.5,845.833 663.5,842.167 669.5,838.5C 682.833,843.493 691.167,852.827 694.5,866.5 Z"/></g>
<g><path style="opacity:1" fill="#0c6cf8" d="M 319.5,850.5 C 319.211,854.106 319.544,857.606 320.5,861C 334.488,861.216 348.321,861.382 362,861.5C 363.03,861.164 363.53,860.497 363.5,859.5C 369.171,870.475 378.171,877.475 390.5,880.5C 369.673,881.497 348.673,881.831 327.5,881.5C 326.542,881.047 325.708,880.381 325,879.5C 322.61,874.997 320.61,870.331 319,865.5C 318.184,860.316 318.35,855.316 319.5,850.5 Z"/></g>
<g><path style="opacity:0.979" fill="#0865f9" d="M 694.5,866.5 C 696.47,873.917 695.47,880.917 691.5,887.5C 679.988,887.828 668.654,887.495 657.5,886.5C 662.464,881.952 665.131,876.286 665.5,869.5C 670.833,869.5 676.167,869.5 681.5,869.5C 682.479,872.625 682.813,875.958 682.5,879.5C 683.5,879.5 684.5,879.5 685.5,879.5C 685.736,876.391 685.403,873.391 684.5,870.5C 687.728,869.586 691.061,869.253 694.5,869.5C 694.5,868.5 694.5,867.5 694.5,866.5 Z"/></g>
<g><path style="opacity:1" fill="#0974f7" d="M 495.5,891.5 C 442.833,891.5 390.167,891.5 337.5,891.5C 333.194,889.194 329.861,885.861 327.5,881.5C 348.673,881.831 369.673,881.497 390.5,880.5C 406.024,885.799 422.024,887.633 438.5,886C 459.863,883.561 480.863,879.394 501.5,873.5C 500.095,879.715 498.095,885.715 495.5,891.5 Z"/></g>
<g><path style="opacity:1" fill="#0d7bf5" d="M 337.5,891.5 C 390.167,891.5 442.833,891.5 495.5,891.5C 494.27,893.297 493.604,895.297 493.5,897.5C 449.972,905.663 406.306,906.496 362.5,900C 353.736,898.095 345.403,895.262 337.5,891.5 Z"/></g>
<g><path style="opacity:1" fill="#0972f7" d="M 657.5,886.5 C 668.654,887.495 679.988,887.828 691.5,887.5C 688.766,894.913 684.099,900.913 677.5,905.5C 643.711,905.137 609.711,905.137 575.5,905.5C 564.631,901.399 554.298,896.232 544.5,890C 553.311,887.422 562.144,884.922 571,882.5C 593.804,892.55 617.637,896.384 642.5,894C 647.805,892.014 652.805,889.514 657.5,886.5 Z"/></g>
<g><path style="opacity:1" fill="#117cf5" d="M 677.5,905.5 C 664.728,913.909 650.561,918.242 635,918.5C 619.843,917.859 605.009,915.359 590.5,911C 585.286,909.432 580.286,907.599 575.5,905.5C 609.711,905.137 643.711,905.137 677.5,905.5 Z"/></g>
</svg>
