<?xml version="1.0" encoding="UTF-8"?>
<!DOCTYPE svg PUBLIC "-//W3C//DTD SVG 1.1//EN" "http://www.w3.org/Graphics/SVG/1.1/DTD/svg11.dtd">
<svg xmlns="http://www.w3.org/2000/svg" version="1.1" width="960px" height="960px" style="shape-rendering:geometricPrecision; text-rendering:geometricPrecision; image-rendering:optimizeQuality; fill-rule:evenodd; clip-rule:evenodd" xmlns:xlink="http://www.w3.org/1999/xlink">
<g><path style="opacity:0.971" fill="#e7e7e8" d="M 551.5,38.5 C 557.402,38.0347 561.902,40.3681 565,45.5C 574.219,58.6016 581.886,72.6016 588,87.5C 593.854,83.1447 600.354,80.978 607.5,81C 612.765,83.984 616.265,88.484 618,94.5C 633.27,129.246 641.77,165.58 643.5,203.5C 643.623,247.322 629.29,285.488 600.5,318C 604.832,329.163 609.832,339.997 615.5,350.5C 636.818,329.901 659.484,328.234 683.5,345.5C 706.97,326.588 732.303,310.421 759.5,297C 778.448,288.471 798.281,283.305 819,281.5C 832.525,281.113 843.859,285.779 853,295.5C 856.384,300.649 858.384,306.316 859,312.5C 860.154,327.316 859.154,341.983 856,356.5C 833.643,452.417 787.143,534.25 716.5,602C 691.651,626.028 664.651,647.195 635.5,665.5C 636.13,695.396 630.63,724.062 619,751.5C 597.321,791.615 563.488,812.948 517.5,815.5C 515.129,844.707 499.796,863.207 471.5,871C 446.018,873.175 426.184,863.675 412,842.5C 404.235,872.129 385.068,886.296 354.5,885C 338.444,881.622 326.277,872.789 318,858.5C 315.534,853.768 313.867,848.768 313,843.5C 301.026,866.403 282.193,876.57 256.5,874C 234.144,866.14 222.978,850.307 223,826.5C 204.105,845.419 181.605,851.586 155.5,845C 119.228,830.627 104.062,804.127 110,765.5C 111.577,756.756 115.077,748.923 120.5,742C 105.494,743.751 92.9943,738.917 83,727.5C 70.3689,711.311 65.7022,692.977 69,672.5C 72.4733,648.042 84.9733,629.875 106.5,618C 88.936,604.845 85.436,588.678 96,569.5C 102.189,562.822 109.689,558.322 118.5,556C 109.639,543.221 110.972,531.554 122.5,521C 128.054,517.778 134.054,516.111 140.5,516C 134.658,500.666 138.991,488.999 153.5,481C 158.053,478.853 162.72,478.353 167.5,479.5C 168.977,476.286 169.477,472.953 169,469.5C 155.64,448.598 152.64,426.265 160,402.5C 175.062,372.213 199.562,359.047 233.5,363C 265.436,368.536 286.269,386.702 296,417.5C 302.753,452.157 290.586,477.657 259.5,494C 245.497,499.334 231.331,499.834 217,495.5C 213.459,498.705 209.626,501.538 205.5,504C 200.584,505.161 195.584,505.827 190.5,506C 198.188,518.824 196.855,530.49 186.5,541C 183.052,542.927 179.385,544.261 175.5,545C 192.948,563.57 193.948,583.07 178.5,603.5C 206.718,612.604 216.385,631.27 207.5,659.5C 209.766,660.206 212.099,660.039 214.5,659C 235.968,656.635 248.302,666.135 251.5,687.5C 263.039,675.225 277.039,670.725 293.5,674C 299.452,675.952 304.285,679.452 308,684.5C 309.706,664.352 317.04,646.686 330,631.5C 342.766,619.356 357.933,614.189 375.5,616C 386.845,587.658 405.178,564.991 430.5,548C 452.844,534.892 476.51,531.058 501.5,536.5C 507.455,526.698 512.788,516.531 517.5,506C 512.234,495.104 509.401,483.604 509,471.5C 504.5,462.5 500,453.5 495.5,444.5C 477.893,465.811 459.227,486.311 439.5,506C 428.287,508.318 416.953,509.485 405.5,509.5C 406.507,498.108 408.007,486.775 410,475.5C 437.089,455.745 460.923,432.578 481.5,406C 478.455,397.696 475.122,389.529 471.5,381.5C 439.674,400.875 405.341,408.041 368.5,403C 344.326,397.833 324.493,385.667 309,366.5C 296.849,350.427 287.515,332.761 281,313.5C 274.56,294.514 268.727,275.347 263.5,256C 264.688,254.056 266.354,252.556 268.5,251.5C 259.058,234.277 247.891,218.277 235,203.5C 232.278,195.893 234.778,193.059 242.5,195C 247.634,199.133 252.468,203.633 257,208.5C 254.267,201.286 252.1,193.786 250.5,186C 250.594,181.905 252.594,179.905 256.5,180C 259.667,181.833 262.167,184.333 264,187.5C 268,195.5 272,203.5 276,211.5C 275.381,203.704 274.547,195.871 273.5,188C 273.614,184.711 274.281,181.544 275.5,178.5C 279.302,175.572 282.468,176.239 285,180.5C 285.862,182.087 286.529,183.754 287,185.5C 289.245,197.126 291.245,208.792 293,220.5C 298.167,216 303.333,211.5 308.5,207C 310.982,206.323 312.815,207.156 314,209.5C 314.667,211.5 314.667,213.5 314,215.5C 311.762,222.475 308.595,228.975 304.5,235C 309.427,235.214 313.261,237.381 316,241.5C 319.79,253.438 323.457,265.438 327,277.5C 337.712,306.214 357.545,325.38 386.5,335C 408.064,338.288 428.397,334.621 447.5,324C 453.863,320.824 459.863,317.157 465.5,313C 463.721,309.465 463.554,305.965 465,302.5C 467.205,299.96 469.705,297.793 472.5,296C 465.875,285.918 459.375,275.751 453,265.5C 452.215,267.286 451.049,268.786 449.5,270C 445.599,270.05 441.765,270.217 438,270.5C 436.527,270.097 435.194,269.43 434,268.5C 432.968,255.735 429.301,243.735 423,232.5C 417.79,219.503 420.624,208.67 431.5,200C 439.952,195.358 448.452,190.858 457,186.5C 457.5,185.5 458,184.5 458.5,183.5C 456.559,179.952 454.893,176.286 453.5,172.5C 455.653,167.741 459.32,166.241 464.5,168C 466.552,168.93 468.052,170.43 469,172.5C 473.054,162.364 477.72,162.03 483,171.5C 488.103,165.767 493.769,164.767 500,168.5C 501.007,173.111 500.34,177.445 498,181.5C 493.756,186.415 488.923,190.581 483.5,194C 491.733,209.633 499.566,225.466 507,241.5C 508.699,247.917 507.033,253.25 502,257.5C 500.216,265.98 502.549,273.313 509,279.5C 516.478,273.628 523.145,274.295 529,281.5C 556.942,270.879 574.276,250.879 581,221.5C 585.393,193.402 580.393,167.068 566,142.5C 562,135.833 558,129.167 554,122.5C 551.889,117.051 552.055,111.717 554.5,106.5C 548.752,105.317 543.085,103.817 537.5,102C 533.271,100.605 530.604,97.7718 529.5,93.5C 529.977,92.5224 530.643,91.6891 531.5,91C 536.5,90.6667 541.5,90.3333 546.5,90C 540.365,84.866 534.531,79.366 529,73.5C 525.319,69.48 523.986,64.8133 525,59.5C 526.085,58.7069 527.252,58.0402 528.5,57.5C 533.201,58.9323 537.367,61.2657 541,64.5C 539.165,60.6223 537.665,56.4557 536.5,52C 536.585,50.8926 536.919,49.8926 537.5,49C 539,48.5 540.5,48 542,47.5C 546.192,49.0283 549.858,51.3616 553,54.5C 552.309,50.8982 551.476,47.2315 550.5,43.5C 550.728,41.7927 551.062,40.126 551.5,38.5 Z M 554.5,42.5 C 557.394,43.8823 559.894,45.8823 562,48.5C 570.977,60.7819 578.143,74.1153 583.5,88.5C 576.188,93.159 568.521,97.3256 560.5,101C 550.663,102.623 541.663,100.623 533.5,95C 540.163,93.3282 546.83,93.4948 553.5,95.5C 555,95.5472 556,94.8805 556.5,93.5C 547.573,86.0771 539.073,78.0771 531,69.5C 529.456,67.5318 528.289,65.3651 527.5,63C 527.833,62.6667 528.167,62.3333 528.5,62C 531.966,63.066 535.299,64.7327 538.5,67C 544.5,72.3333 550.5,77.6667 556.5,83C 558.074,83.6987 559.407,83.3654 560.5,82C 554.667,74.1667 548.833,66.3333 543,58.5C 541.882,56.2346 541.049,53.9013 540.5,51.5C 543.14,51.954 545.473,53.1207 547.5,55C 553.692,61.8915 559.526,69.0581 565,76.5C 567.829,77.6745 568.829,76.6745 568,73.5C 562.372,63.5859 557.872,53.2526 554.5,42.5 Z M 601.5,84.5 C 605.594,83.7046 608.761,85.038 611,88.5C 613.909,93.9557 615.909,99.6224 617,105.5C 600.244,115.251 583.244,124.585 566,133.5C 559.371,127.243 556.371,119.577 557,110.5C 557.635,109.034 558.469,107.7 559.5,106.5C 573.445,98.97 587.445,91.6367 601.5,84.5 Z M 617.5,109.5 C 619.411,109.574 620.578,110.574 621,112.5C 632.491,142.282 638.658,173.116 639.5,205C 639.813,251.183 623.313,290.016 590,321.5C 589.517,322.448 589.351,323.448 589.5,324.5C 592.285,324.067 594.619,322.734 596.5,320.5C 601.81,333.289 607.81,345.789 614.5,358C 590.954,362.107 570.288,372.107 552.5,388C 535.136,402.25 522.302,419.75 514,440.5C 511.951,447.744 510.284,455.078 509,462.5C 505.628,454.924 502.128,447.424 498.5,440C 514.516,421.137 525.683,399.637 532,375.5C 535.804,355.989 532.804,337.655 523,320.5C 520.855,310.54 518.855,300.54 517,290.5C 515.192,288.604 513.025,288.104 510.5,289C 504.577,291.876 499.077,295.376 494,299.5C 492.033,302.998 492.367,306.332 495,309.5C 497.207,312.564 500.041,314.564 503.5,315.5C 503.595,318.358 504.762,320.691 507,322.5C 509.522,341.702 506.522,360.035 498,377.5C 493.838,385.828 489.171,393.828 484,401.5C 481.296,393.93 478.463,386.43 475.5,379C 478.576,378.089 480.909,376.256 482.5,373.5C 481.667,373.167 480.833,372.833 480,372.5C 464.715,381.715 448.549,389.215 431.5,395C 363.703,413.207 316.536,390.041 290,325.5C 284.054,310.829 279.22,295.829 275.5,280.5C 289.945,276.241 304.278,271.574 318.5,266.5C 325.929,293.575 341.262,314.742 364.5,330C 389.922,343.562 415.589,343.895 441.5,331C 452.517,326.164 462.85,320.331 472.5,313.5C 470.32,311.739 468.654,309.573 467.5,307C 468.191,305.933 468.691,304.766 469,303.5C 484.324,294.755 500.157,286.922 516.5,280C 521.458,278.722 524.291,280.555 525,285.5C 534.664,284.602 543.498,281.102 551.5,275C 574.663,256.673 586.329,232.673 586.5,203C 586.233,179.535 579.899,157.868 567.5,138C 584.392,128.726 601.059,119.226 617.5,109.5 Z M 278.5,180.5 C 279.496,180.414 280.329,180.748 281,181.5C 282.197,184.089 283.197,186.756 284,189.5C 286.226,201.085 287.893,212.752 289,224.5C 290.868,225.672 292.702,225.505 294.5,224C 299.667,219.5 304.833,215 310,210.5C 308.446,220.78 304.279,229.947 297.5,238C 288.8,241.767 280.3,245.933 272,250.5C 262.48,232.117 250.98,215.117 237.5,199.5C 237.808,198.692 238.308,198.025 239,197.5C 251.02,207.521 261.686,218.854 271,231.5C 272.365,230.407 272.699,229.074 272,227.5C 264.61,214.66 258.776,201.16 254.5,187C 254.538,183.112 255.704,182.612 258,185.5C 265.995,199.159 273.162,213.159 279.5,227.5C 280.086,227.291 280.586,226.957 281,226.5C 280.357,213.484 279.19,200.484 277.5,187.5C 277.637,185.117 277.971,182.783 278.5,180.5 Z M 478.5,196.5 C 479.496,196.414 480.329,196.748 481,197.5C 488.939,213.044 496.605,228.711 504,244.5C 503.826,248.405 502.159,251.739 499,254.5C 495.434,264.244 497.267,272.911 504.5,280.5C 495.287,285.024 486.12,289.69 477,294.5C 460.947,272.739 447.78,249.239 437.5,224C 438.376,221.121 440.042,218.787 442.5,217C 454.725,210.392 466.725,203.559 478.5,196.5 Z M 302.5,239.5 C 306.192,238.971 309.358,239.971 312,242.5C 314.708,248.837 316.875,255.337 318.5,262C 303.65,267.172 288.817,272.339 274,277.5C 272.026,270.578 269.859,263.745 267.5,257C 279.259,251.121 290.925,245.287 302.5,239.5 Z M 847.5,315.5 C 847.864,335.499 845.531,355.165 840.5,374.5C 835.641,389.399 829.974,404.066 823.5,418.5C 818.437,429.627 813.103,440.627 807.5,451.5C 807.167,451 806.833,450.5 806.5,450C 808.044,446.413 809.711,442.913 811.5,439.5C 815.046,433.075 818.046,426.408 820.5,419.5C 823.961,413.57 826.627,407.236 828.5,400.5C 830.539,396.734 832.205,392.734 833.5,388.5C 834.696,385.579 835.696,382.579 836.5,379.5C 838.797,372.313 840.463,364.98 841.5,357.5C 843.508,350.776 844.508,343.776 844.5,336.5C 845.418,330.225 845.751,323.892 845.5,317.5C 844.302,313.512 844.302,309.512 845.5,305.5C 846.167,308.977 846.834,312.311 847.5,315.5 Z M 686.5,348.5 C 680.194,395.051 696.194,431.884 734.5,459C 758.898,472.591 784.565,475.925 811.5,469C 800.879,488.417 789.379,507.25 777,525.5C 750.57,529.43 729.403,520.597 713.5,499C 711.633,498.289 710.133,498.789 709,500.5C 696.981,524.518 680.648,545.184 660,562.5C 659.833,563.167 659.667,563.833 659.5,564.5C 669.721,579.3 683.387,589.8 700.5,596C 704.953,597.153 709.286,598.486 713.5,600C 650.919,658.146 578.586,700.146 496.5,726C 485.677,728.862 474.844,729.029 464,726.5C 462.743,726.15 462.409,725.483 463,724.5C 490.234,701.94 513.901,676.273 534,647.5C 540.027,637.688 541.36,627.355 538,616.5C 532.763,610.739 526.263,608.905 518.5,611C 509.007,613.747 500.34,618.08 492.5,624C 472.143,643.347 453.643,664.18 437,686.5C 436.536,680.471 436.869,674.471 438,668.5C 445.234,650.031 453.567,632.031 463,614.5C 482.508,580.154 501.508,545.487 520,510.5C 526.627,521.72 536.46,526.22 549.5,524C 554.394,523.202 559.061,521.702 563.5,519.5C 563.833,520 564.167,520.5 564.5,521C 561.391,529.327 558.891,537.827 557,546.5C 556.148,551.477 556.648,556.31 558.5,561C 553.565,566.61 549.399,572.776 546,579.5C 544.243,588.413 545.243,597.08 549,605.5C 554.746,621.738 561.079,637.738 568,653.5C 571.688,657.259 576.188,659.259 581.5,659.5C 587.296,658.934 592.962,657.768 598.5,656C 605.929,651.425 608.596,644.758 606.5,636C 605.744,619.486 604.744,602.986 603.5,586.5C 603.833,584.167 604.167,581.833 604.5,579.5C 608.384,578.559 612.051,577.059 615.5,575C 619,571.5 622.5,568 626,564.5C 645.267,536.968 660.601,507.301 672,475.5C 679.856,450.564 681.523,425.231 677,399.5C 673.945,388.382 668.112,379.048 659.5,371.5C 668.226,363.436 677.226,355.769 686.5,348.5 Z M 219.5,365.5 C 248.375,366.016 270.541,378.349 286,402.5C 289.193,408.192 291.193,414.192 292,420.5C 279.95,413.945 272.45,417.278 269.5,430.5C 268.277,431.614 266.944,431.781 265.5,431C 258.609,421.774 252.109,412.274 246,402.5C 243.273,399.269 240.106,396.603 236.5,394.5C 232.876,394.959 230.709,396.959 230,400.5C 228.746,407.078 228.246,413.578 228.5,420C 227.167,420.667 225.833,420.667 224.5,420C 220.334,417.083 216.001,414.416 211.5,412C 201.199,410.615 195.032,415.115 193,425.5C 191.311,436.414 194.144,445.914 201.5,454C 201,454.5 200.5,455 200,455.5C 188.045,453.266 178.712,457.266 172,467.5C 164.652,456.622 160.818,444.622 160.5,431.5C 173.701,435.254 180.368,430.254 180.5,416.5C 190.878,414.951 195.378,408.951 194,398.5C 194.5,398 195,397.5 195.5,397C 207.153,400.254 215.32,396.421 220,385.5C 220.665,378.805 220.498,372.138 219.5,365.5 Z M 653.5,381.5 C 657.099,383.263 659.932,385.93 662,389.5C 670.162,403.8 673.162,419.134 671,435.5C 670.407,443.652 669.074,451.652 667,459.5C 667.772,448.689 668.605,437.855 669.5,427C 670.185,409.548 664.852,394.381 653.5,381.5 Z M 261.5,467.5 C 268.92,466.853 275.587,468.687 281.5,473C 264.058,492.528 242.725,498.695 217.5,491.5C 218.618,486.22 218.784,480.887 218,475.5C 217.55,473.481 216.717,471.648 215.5,470C 216.793,469.51 218.127,469.343 219.5,469.5C 220.581,482.791 227.248,487.291 239.5,483C 243.466,480.036 247.133,476.703 250.5,473C 254.017,470.674 257.683,468.84 261.5,467.5 Z M 711.5,504.5 C 727.756,523.019 748.089,532.019 772.5,531.5C 756.516,554.246 738.516,575.413 718.5,595C 695.943,592.888 677.943,582.722 664.5,564.5C 683.945,547.397 699.611,527.397 711.5,504.5 Z M 560.5,564.5 C 564.795,568.655 569.795,571.822 575.5,574C 583.369,576.467 591.369,578.301 599.5,579.5C 599.5,583.5 599.5,587.5 599.5,591.5C 589.91,591.115 580.577,589.448 571.5,586.5C 571.33,587.822 571.663,588.989 572.5,590C 581.425,593.877 590.758,595.71 600.5,595.5C 600.5,598.833 600.5,602.167 600.5,605.5C 592.179,605.369 584.179,603.702 576.5,600.5C 575.09,600.868 574.09,601.701 573.5,603C 582.165,607.836 591.498,610.003 601.5,609.5C 601.5,612.5 601.5,615.5 601.5,618.5C 597.154,618.666 592.821,618.499 588.5,618C 584.16,616.718 579.827,615.551 575.5,614.5C 575.227,616.451 575.893,617.951 577.5,619C 585.464,621.772 593.63,623.272 602,623.5C 602.301,629.52 602.801,635.52 603.5,641.5C 603.167,642.5 602.833,643.5 602.5,644.5C 595.314,647.504 587.981,648.004 580.5,646C 575.011,643.532 571.511,639.365 570,633.5C 564.727,613.239 559.227,593.073 553.5,573C 556.2,570.412 558.533,567.579 560.5,564.5 Z M 550.5,578.5 C 556.489,599.439 562.656,620.439 569,641.5C 577.197,650.65 587.197,653.316 599,649.5C 600.722,649.611 600.888,650.111 599.5,651C 592.507,654.276 585.173,655.61 577.5,655C 574.898,654.117 572.731,652.617 571,650.5C 561.799,630.1 554.299,609.1 548.5,587.5C 549.014,584.448 549.68,581.448 550.5,578.5 Z M 152.5,616.5 C 157.089,615.694 160.922,617.36 164,621.5C 167.123,627.24 167.29,633.073 164.5,639C 166.801,641.156 169.467,642.822 172.5,644C 181.201,651.966 182.701,661.133 177,671.5C 175.829,673.616 174.329,674.282 172.5,673.5C 181.213,662.748 180.213,652.915 169.5,644C 166.361,643.246 163.361,642.246 160.5,641C 167.739,629.552 165.073,621.385 152.5,616.5 Z M 270.5,640.5 C 279.702,641.232 282.535,645.899 279,654.5C 271.332,659.712 266.499,657.879 264.5,649C 264.451,644.572 266.451,641.738 270.5,640.5 Z M 492.5,684.5 C 476.043,700.461 458.543,715.127 440,728.5C 439.5,728 439,727.5 438.5,727C 445.833,721.667 453.167,716.333 460.5,711C 462.706,708.963 464.706,706.797 466.5,704.5C 474.402,699.27 481.402,692.936 487.5,685.5C 492.954,680.59 497.954,675.256 502.5,669.5C 506.145,665.52 509.811,661.52 513.5,657.5C 514.521,658.002 514.688,658.668 514,659.5C 506.998,668 499.831,676.334 492.5,684.5 Z M 159.5,712.5 C 160.239,712.369 160.906,712.536 161.5,713C 152.601,721.474 150.101,731.641 154,743.5C 159.262,753.713 167.428,757.88 178.5,756C 179.333,755.167 180.167,754.333 181,753.5C 185.618,780.77 201.451,791.27 228.5,785C 231.603,783.561 234.436,781.727 237,779.5C 237.5,780 238,780.5 238.5,781C 219.73,793.861 202.564,792.027 187,775.5C 183.296,770.058 180.963,764.058 180,757.5C 174.848,759.884 169.681,759.717 164.5,757C 150.822,748.102 146.989,735.936 153,720.5C 155.001,717.669 157.167,715.003 159.5,712.5 Z M 340.5,724.5 C 352.876,723.691 363.21,727.858 371.5,737C 370.5,737.667 369.5,737.667 368.5,737C 355.323,723.675 341.823,723.175 328,735.5C 325.994,738.536 325.16,741.869 325.5,745.5C 321.541,742.854 317.208,740.687 312.5,739C 294.196,737.457 284.196,745.957 282.5,764.5C 282.325,744.515 292.325,735.348 312.5,737C 316.363,738.181 319.863,740.014 323,742.5C 325.683,733.318 331.517,727.318 340.5,724.5 Z M 610.5,740.5 C 602.722,753.03 593.722,764.697 583.5,775.5C 566.502,789.498 547.169,798.998 525.5,804C 523.167,804.667 520.833,804.667 518.5,804C 524.721,802.194 531.055,800.527 537.5,799C 542.823,797.333 547.823,795.166 552.5,792.5C 561.943,788.383 570.609,783.05 578.5,776.5C 584.559,771.443 589.893,765.776 594.5,759.5C 599.727,754.719 603.727,749.052 606.5,742.5C 609.268,737.735 611.768,732.735 614,727.5C 614.5,728 615,728.5 615.5,729C 613.142,732.548 611.475,736.381 610.5,740.5 Z"/></g>
<g><path style="opacity:0.788" fill="#e8e8e8" d="M 619.5,148.5 C 620.833,148.5 622.167,148.5 623.5,148.5C 621.986,154.404 620.986,160.404 620.5,166.5C 617.757,166.923 616.424,165.756 616.5,163C 617.234,158.091 618.234,153.257 619.5,148.5 Z"/></g>
<g><path style="opacity:0.895" fill="#e8e8e8" d="M 349.5,149.5 C 351.731,151.076 353.397,153.243 354.5,156C 357.226,156.182 359.893,156.682 362.5,157.5C 360.628,159.535 358.961,161.702 357.5,164C 358.479,166.433 359.145,168.933 359.5,171.5C 356.646,171.076 353.979,170.076 351.5,168.5C 349.177,170.065 346.844,171.232 344.5,172C 344.336,169.301 344.17,166.468 344,163.5C 342.846,162.257 341.512,161.257 340,160.5C 339.517,159.552 339.351,158.552 339.5,157.5C 341.857,157.663 344.19,157.497 346.5,157C 347.601,154.528 348.601,152.028 349.5,149.5 Z"/></g>
<g><path style="opacity:0.781" fill="#e8e8e8" d="M 587.5,153.5 C 590.686,153.895 593.686,154.895 596.5,156.5C 597.386,157.325 597.719,158.325 597.5,159.5C 594.333,159.6 591.333,158.933 588.5,157.5C 587.571,156.311 587.238,154.978 587.5,153.5 Z"/></g>
<g><path style="opacity:0.825" fill="#e8e8e8" d="M 399.5,167.5 C 400.496,167.414 401.329,167.748 402,168.5C 402.497,171.146 402.664,173.813 402.5,176.5C 406.167,176.5 409.833,176.5 413.5,176.5C 413.67,177.822 413.337,178.989 412.5,180C 408.848,180.499 405.182,180.665 401.5,180.5C 401.665,183.518 401.498,186.518 401,189.5C 400.29,190.973 399.124,191.64 397.5,191.5C 397.5,187.833 397.5,184.167 397.5,180.5C 394.833,180.5 392.167,180.5 389.5,180.5C 389.5,179.167 389.5,177.833 389.5,176.5C 392.5,176.5 395.5,176.5 398.5,176.5C 398.264,173.391 398.597,170.391 399.5,167.5 Z"/></g>
<g><path style="opacity:0.8" fill="#e8e8e8" d="M 653.5,167.5 C 654.822,167.33 655.989,167.663 657,168.5C 666.649,181.537 668.815,195.537 663.5,210.5C 662.054,209.829 661.388,208.662 661.5,207C 664.311,192.914 661.311,180.247 652.5,169C 653.056,168.617 653.389,168.117 653.5,167.5 Z"/></g>
<g><path style="opacity:0.924" fill="#e8e8e8" d="M 800.5,189.5 C 801.552,189.351 802.552,189.517 803.5,190C 805.674,193.004 808.008,195.837 810.5,198.5C 814.105,197.51 817.772,196.844 821.5,196.5C 821.657,197.873 821.49,199.207 821,200.5C 819.152,203.011 817.319,205.511 815.5,208C 817.736,211.292 819.236,214.792 820,218.5C 819.439,219.022 818.772,219.355 818,219.5C 815,218.5 812,217.5 809,216.5C 806.216,218.28 803.716,220.447 801.5,223C 800.207,223.49 798.873,223.657 797.5,223.5C 797.858,219.401 797.858,215.401 797.5,211.5C 794.875,210.236 792.208,209.069 789.5,208C 788.643,207.311 787.977,206.478 787.5,205.5C 790.966,203.171 794.8,201.505 799,200.5C 799.42,196.809 799.92,193.142 800.5,189.5 Z"/></g>
<g><path style="opacity:0.838" fill="#e6e6e6" d="M 612.5,192.5 C 617.192,192.841 621.526,194.341 625.5,197C 626.337,198.011 626.67,199.178 626.5,200.5C 621.882,199.696 617.549,198.029 613.5,195.5C 612.614,194.675 612.281,193.675 612.5,192.5 Z"/></g>
<g><path style="opacity:0.805" fill="#e8e8e8" d="M 322.5,202.5 C 324.888,203.219 326.388,204.885 327,207.5C 328.301,213.922 327.301,219.922 324,225.5C 322.989,226.337 321.822,226.67 320.5,226.5C 321.79,222.247 322.79,217.913 323.5,213.5C 323.583,210.479 322.916,207.645 321.5,205C 321.743,204.098 322.077,203.265 322.5,202.5 Z"/></g>
<g><path style="opacity:0.807" fill="#e8e8e8" d="M 476.5,204.5 C 477.833,204.5 479.167,204.5 480.5,204.5C 480.67,205.822 480.337,206.989 479.5,208C 474.72,209.556 470.387,211.889 466.5,215C 471.705,221.908 476.538,229.074 481,236.5C 482.682,241.433 481.182,244.766 476.5,246.5C 472.477,244.64 472.644,242.973 477,241.5C 477.667,240.167 477.667,238.833 477,237.5C 471.709,229.752 466.542,221.919 461.5,214C 465.922,209.796 470.922,206.63 476.5,204.5 Z"/></g>
<g><path style="opacity:0.786" fill="#e9e9e9" d="M 475.5,214.5 C 479.919,215.257 482.253,217.924 482.5,222.5C 480.856,222.714 479.356,222.38 478,221.5C 477.028,219.695 475.861,218.028 474.5,216.5C 474.863,215.817 475.196,215.15 475.5,214.5 Z"/></g>
<g><path style="opacity:0.836" fill="#e8e8e8" d="M 223.5,215.5 C 224.675,215.281 225.675,215.614 226.5,216.5C 227.311,222.641 230.644,226.641 236.5,228.5C 237.429,229.689 237.762,231.022 237.5,232.5C 227.638,230.981 222.971,225.315 223.5,215.5 Z"/></g>
<g><path style="opacity:0.782" fill="#e9e9e9" d="M 379.5,224.5 C 381.346,224.222 382.68,224.889 383.5,226.5C 382.652,228.409 382.318,230.409 382.5,232.5C 385.518,232.704 388.518,233.037 391.5,233.5C 391.5,234.833 391.5,236.167 391.5,237.5C 388.193,236.949 384.86,236.616 381.5,236.5C 381.662,238.527 381.495,240.527 381,242.5C 379.989,243.337 378.822,243.67 377.5,243.5C 377.5,240.833 377.5,238.167 377.5,235.5C 375.139,235.326 372.806,234.993 370.5,234.5C 370.5,233.167 370.5,231.833 370.5,230.5C 373.167,230.833 375.833,231.167 378.5,231.5C 378.674,229.139 379.007,226.806 379.5,224.5 Z"/></g>
<g><path style="opacity:0.732" fill="#eaeaea" d="M 454.5,224.5 C 457.9,225.524 460.233,227.858 461.5,231.5C 461.291,232.086 460.957,232.586 460.5,233C 456.242,232.047 454.242,229.213 454.5,224.5 Z"/></g>
<g><path style="opacity:0.784" fill="#e8e8e8" d="M 598.5,228.5 C 602.223,228.358 603.056,229.691 601,232.5C 598.81,234.388 596.977,236.555 595.5,239C 594.207,239.49 592.873,239.657 591.5,239.5C 593.056,235.399 595.39,231.732 598.5,228.5 Z"/></g>
<g><path style="opacity:0.801" fill="#e9e9e9" d="M 610.5,247.5 C 611.5,247.5 612.5,247.5 613.5,247.5C 614.596,251.697 616.262,255.697 618.5,259.5C 616.378,262.14 614.544,261.806 613,258.5C 610.844,254.947 610.011,251.281 610.5,247.5 Z"/></g>
<g><path style="opacity:0.906" fill="#e8e8e8" d="M 482.5,247.5 C 485.076,247.722 485.91,249.055 485,251.5C 482.438,253.913 479.438,255.58 476,256.5C 474.899,260.057 475.899,262.723 479,264.5C 481.175,262.477 483.675,261.143 486.5,260.5C 485.808,265.696 482.808,268.863 477.5,270C 465.547,271.713 460.047,266.547 461,254.5C 464.38,249.845 468.547,249.179 473.5,252.5C 477.297,252.105 480.297,250.439 482.5,247.5 Z"/></g>
<g><path style="opacity:0.8" fill="#e7e7e7" d="M 757.5,249.5 C 758.5,249.5 759.5,249.5 760.5,249.5C 760.704,252.518 761.037,255.518 761.5,258.5C 764.455,257.841 767.455,257.508 770.5,257.5C 770.5,258.833 770.5,260.167 770.5,261.5C 764.471,260.165 761.804,262.498 762.5,268.5C 758.932,268.241 757.599,266.241 758.5,262.5C 755.214,263.207 751.881,263.54 748.5,263.5C 748.33,262.178 748.663,261.011 749.5,260C 752.095,259.774 754.595,259.274 757,258.5C 756.924,255.398 757.09,252.398 757.5,249.5 Z"/></g>
<g><path style="opacity:0.776" fill="#e8e8e8" d="M 588.5,267.5 C 589.586,267.62 590.253,268.287 590.5,269.5C 590.167,270.167 589.833,270.833 589.5,271.5C 586.072,273.386 582.572,274.053 579,273.5C 578.383,272.551 578.549,271.718 579.5,271C 582.718,270.1 585.718,268.933 588.5,267.5 Z"/></g>
<g><path style="opacity:0.769" fill="#eaeaea" d="M 305.5,274.5 C 310.003,275.153 314.003,276.987 317.5,280C 318.93,281.88 318.596,283.38 316.5,284.5C 313.5,282.667 310.5,280.833 307.5,279C 305.963,277.89 305.297,276.39 305.5,274.5 Z"/></g>
<g><path style="opacity:0.761" fill="#e8e8e8" d="M 547.5,294.5 C 549.857,294.337 552.19,294.503 554.5,295C 555.451,295.718 555.617,296.551 555,297.5C 551.27,298.46 547.437,298.793 543.5,298.5C 543.5,297.5 543.5,296.5 543.5,295.5C 545.099,295.768 546.432,295.434 547.5,294.5 Z"/></g>
<g><path style="opacity:0.774" fill="#e8e8e8" d="M 584.5,294.5 C 585.496,294.414 586.329,294.748 587,295.5C 587.238,299.222 587.738,302.889 588.5,306.5C 587.68,308.111 586.346,308.778 584.5,308.5C 583.291,303.787 583.291,299.121 584.5,294.5 Z"/></g>
<g><path style="opacity:0.996" fill="#054efd" d="M 855.5,313.5 C 855.662,315.527 855.495,317.527 855,319.5C 852.532,318.069 850.032,316.736 847.5,315.5C 846.834,312.311 846.167,308.977 845.5,305.5C 844.302,309.512 844.302,313.512 845.5,317.5C 842.921,317.083 840.754,317.75 839,319.5C 836.333,316.833 833.667,316.833 831,319.5C 828.333,316.833 825.667,316.833 823,319.5C 820.333,316.833 817.667,316.833 815,319.5C 812.333,316.833 809.667,316.833 807,319.5C 804.333,316.833 801.667,316.833 799,319.5C 796.333,316.833 793.667,316.833 791,319.5C 788.333,316.833 785.667,316.833 783,319.5C 780.333,316.833 777.667,316.833 775,319.5C 772.333,316.833 769.667,316.833 767,319.5C 764.333,316.833 761.667,316.833 759,319.5C 756.333,316.833 753.667,316.833 751,319.5C 748.333,316.833 745.667,316.833 743,319.5C 740.333,316.833 737.667,316.833 735,319.5C 733.69,318.103 732.19,317.103 730.5,316.5C 752.669,302.275 776.669,292.442 802.5,287C 811.793,285.558 821.126,285.224 830.5,286C 845.367,289.362 853.7,298.528 855.5,313.5 Z"/></g>
<g><path style="opacity:0.911" fill="#e8e8e8" d="M 143.5,296.5 C 147.23,297.056 150.397,298.722 153,301.5C 155.586,299.455 158.42,297.789 161.5,296.5C 162.558,299.74 162.225,302.907 160.5,306C 163.111,309.089 165.445,312.256 167.5,315.5C 164.15,315.335 160.817,315.502 157.5,316C 153.96,327.191 150.626,327.191 147.5,316C 136.23,316.24 135.063,313.406 144,307.5C 144.279,303.83 144.112,300.163 143.5,296.5 Z"/></g>
<g><path style="opacity:1" fill="#105ffa" d="M 515.5,298.5 C 515.5,299.833 515.5,301.167 515.5,302.5C 509.167,302.5 502.833,302.5 496.5,302.5C 501.019,298.004 506.352,294.671 512.5,292.5C 513.442,292.608 514.275,292.941 515,293.5C 515.494,295.134 515.66,296.801 515.5,298.5 Z"/></g>
<g><path style="opacity:1" fill="#126ff8" d="M 515.5,298.5 C 518.512,305.6 516.179,310.1 508.5,312C 501.787,312.47 497.787,309.303 496.5,302.5C 502.833,302.5 509.167,302.5 515.5,302.5C 515.5,301.167 515.5,299.833 515.5,298.5 Z"/></g>
<g><path style="opacity:0.772" fill="#e8e8e8" d="M 294.5,305.5 C 295.5,305.5 296.5,305.5 297.5,305.5C 298.314,310.119 298.647,314.786 298.5,319.5C 297.178,319.67 296.011,319.337 295,318.5C 294.762,314.778 294.262,311.111 293.5,307.5C 293.863,306.817 294.196,306.15 294.5,305.5 Z"/></g>
<g><path style="opacity:0.77" fill="#e8e8e8" d="M 321.5,309.5 C 326.058,310.014 330.058,311.681 333.5,314.5C 333.113,315.72 332.28,316.387 331,316.5C 327.569,315.189 324.069,314.189 320.5,313.5C 320.433,312.041 320.766,310.708 321.5,309.5 Z"/></g>
<g><path style="opacity:1" fill="#136ef8" d="M 516.5,310.5 C 520.771,314.296 520.104,317.463 514.5,320C 509.786,321.423 507.786,319.923 508.5,315.5C 511.568,314.309 514.235,312.642 516.5,310.5 Z"/></g>
<g><path style="opacity:0.996" fill="#0154fc" d="M 730.5,316.5 C 732.19,317.103 733.69,318.103 735,319.5C 737.667,316.833 740.333,316.833 743,319.5C 745.667,316.833 748.333,316.833 751,319.5C 753.667,316.833 756.333,316.833 759,319.5C 761.667,316.833 764.333,316.833 767,319.5C 769.667,316.833 772.333,316.833 775,319.5C 777.667,316.833 780.333,316.833 783,319.5C 785.667,316.833 788.333,316.833 791,319.5C 793.667,316.833 796.333,316.833 799,319.5C 801.667,316.833 804.333,316.833 807,319.5C 809.667,316.833 812.333,316.833 815,319.5C 817.667,316.833 820.333,316.833 823,319.5C 825.667,316.833 828.333,316.833 831,319.5C 833.667,316.833 836.333,316.833 839,319.5C 840.754,317.75 842.921,317.083 845.5,317.5C 845.751,323.892 845.418,330.225 844.5,336.5C 796.736,337.83 749.069,337.83 701.5,336.5C 710.993,329.587 720.659,322.92 730.5,316.5 Z"/></g>
<g><path style="opacity:0.777" fill="#e8e8e8" d="M 472.5,323.5 C 473.5,323.5 474.5,323.5 475.5,323.5C 475.665,326.85 475.498,330.183 475,333.5C 474.395,335.481 473.395,335.815 472,334.5C 471.245,330.745 471.411,327.078 472.5,323.5 Z"/></g>
<g><path style="opacity:1" fill="#1050fd" d="M 529.5,353.5 C 523.167,353.5 516.833,353.5 510.5,353.5C 510.5,352.167 510.5,350.833 510.5,349.5C 511.34,340.862 511.673,332.195 511.5,323.5C 513.787,323.276 515.953,322.609 518,321.5C 520.321,322.487 521.987,324.154 523,326.5C 527.212,335.015 529.379,344.015 529.5,353.5 Z"/></g>
<g><path style="opacity:0.763" fill="#e8e8e8" d="M 556.5,331.5 C 557.833,331.5 559.167,331.5 560.5,331.5C 560.5,336.167 560.5,340.833 560.5,345.5C 559.167,345.5 557.833,345.5 556.5,345.5C 556.5,340.833 556.5,336.167 556.5,331.5 Z"/></g>
<g><path style="opacity:0.807" fill="#e8e8e8" d="M 322.5,335.5 C 323.5,335.5 324.5,335.5 325.5,335.5C 325.666,339.514 325.499,343.514 325,347.5C 323.989,348.337 322.822,348.67 321.5,348.5C 321.372,344.119 321.705,339.785 322.5,335.5 Z"/></g>
<g><path style="opacity:0.998" fill="#005afb" d="M 701.5,336.5 C 749.069,337.83 796.736,337.83 844.5,336.5C 844.508,343.776 843.508,350.776 841.5,357.5C 791.167,357.5 740.833,357.5 690.5,357.5C 690.5,356.5 690.5,355.5 690.5,354.5C 691.045,351.187 691.545,347.854 692,344.5C 694.747,341.246 697.914,338.58 701.5,336.5 Z"/></g>
<g><path style="opacity:0.955" fill="#0f5cfb" d="M 855.5,313.5 C 856.545,323.017 856.379,332.684 855,342.5C 852.813,354.272 850.313,365.939 847.5,377.5C 845.167,377.5 842.833,377.5 840.5,377.5C 840.5,376.5 840.5,375.5 840.5,374.5C 845.531,355.165 847.864,335.499 847.5,315.5C 850.032,316.736 852.532,318.069 855,319.5C 855.495,317.527 855.662,315.527 855.5,313.5 Z"/></g>
<g><path style="opacity:0.75" fill="#e8e8e8" d="M 580.5,343.5 C 583.85,343.335 587.183,343.502 590.5,344C 591.833,345 591.833,346 590.5,347C 587.183,347.498 583.85,347.665 580.5,347.5C 580.5,346.167 580.5,344.833 580.5,343.5 Z"/></g>
<g><path style="opacity:0.787" fill="#e9e9e9" d="M 355.5,345.5 C 360.708,348.032 364.041,352.032 365.5,357.5C 360.633,355.64 356.967,352.307 354.5,347.5C 354.863,346.817 355.196,346.15 355.5,345.5 Z"/></g>
<g><path style="opacity:0.769" fill="#e7e7e7" d="M 486.5,345.5 C 489.833,345.5 493.167,345.5 496.5,345.5C 496.5,346.5 496.5,347.5 496.5,348.5C 492.167,349.167 487.833,349.833 483.5,350.5C 483.5,349.167 483.5,347.833 483.5,346.5C 484.791,346.737 485.791,346.404 486.5,345.5 Z"/></g>
<g><path style="opacity:0.799" fill="#e9e9e9" d="M 442.5,350.5 C 446.824,350.927 451.158,351.261 455.5,351.5C 455.763,354.734 454.263,356.068 451,355.5C 448.363,355.343 445.863,354.677 443.5,353.5C 442.614,352.675 442.281,351.675 442.5,350.5 Z"/></g>
<g><path style="opacity:0.81" fill="#e8e8e8" d="M 401.5,351.5 C 405.284,353.316 409.284,354.316 413.5,354.5C 413.5,355.833 413.5,357.167 413.5,358.5C 409.196,358.732 405.196,357.732 401.5,355.5C 400.374,354.192 400.374,352.858 401.5,351.5 Z"/></g>
<g><path style="opacity:1" fill="#0b56fc" d="M 510.5,349.5 C 510.5,350.833 510.5,352.167 510.5,353.5C 516.833,353.5 523.167,353.5 529.5,353.5C 529.609,360.196 529.276,366.863 528.5,373.5C 520.097,374.134 512.097,373.467 504.5,371.5C 506.511,364.118 508.511,356.784 510.5,349.5 Z"/></g>
<g><path style="opacity:0.997" fill="#0060fa" d="M 690.5,354.5 C 690.5,355.5 690.5,356.5 690.5,357.5C 740.833,357.5 791.167,357.5 841.5,357.5C 840.463,364.98 838.797,372.313 836.5,379.5C 787.717,377.512 738.717,376.845 689.5,377.5C 689.175,369.648 689.508,361.982 690.5,354.5 Z"/></g>
<g><path style="opacity:0.772" fill="#e8e8e8" d="M 378.5,368.5 C 379.5,368.5 380.5,368.5 381.5,368.5C 380.843,373.479 378.843,377.813 375.5,381.5C 374.28,381.113 373.613,380.28 373.5,379C 375.044,375.413 376.711,371.913 378.5,368.5 Z"/></g>
<g><path style="opacity:0.794" fill="#eaeaea" d="M 433.5,369.5 C 434.833,369.5 436.167,369.5 437.5,369.5C 436.65,373.553 435.484,377.553 434,381.5C 432.644,382.38 431.144,382.714 429.5,382.5C 430.833,378.167 432.167,373.833 433.5,369.5 Z"/></g>
<g><path style="opacity:0.91" fill="#ececec" d="M 489.5,369.5 C 490.117,369.611 490.617,369.944 491,370.5C 491.499,374.152 491.665,377.818 491.5,381.5C 489.876,381.64 488.71,380.973 488,379.5C 487.037,375.851 487.537,372.518 489.5,369.5 Z"/></g>
<g><path style="opacity:1" fill="#0a5cfb" d="M 504.5,371.5 C 512.097,373.467 520.097,374.134 528.5,373.5C 527.108,380.344 525.108,387.011 522.5,393.5C 512.985,393.827 503.652,393.494 494.5,392.5C 497.613,385.279 500.946,378.279 504.5,371.5 Z"/></g>
<g><path style="opacity:0.721" fill="#e8e8e8" d="M 541.5,373.5 C 542.833,373.5 544.167,373.5 545.5,373.5C 545.5,377.5 545.5,381.5 545.5,385.5C 544.167,385.5 542.833,385.5 541.5,385.5C 541.5,381.5 541.5,377.5 541.5,373.5 Z"/></g>
<g><path style="opacity:1" fill="#0f55fc" d="M 216.5,383.5 C 203.656,383.829 190.989,383.495 178.5,382.5C 188.84,372.817 201.173,367.15 215.5,365.5C 217.421,371.566 217.754,377.566 216.5,383.5 Z"/></g>
<g><path style="opacity:0.998" fill="#0265f9" d="M 689.5,377.5 C 738.717,376.845 787.717,377.512 836.5,379.5C 835.696,382.579 834.696,385.579 833.5,388.5C 786.167,388.5 738.833,388.5 691.5,388.5C 690.778,388.082 690.278,387.416 690,386.5C 689.502,383.518 689.335,380.518 689.5,377.5 Z"/></g>
<g><path style="opacity:0.997" fill="#0068f9" d="M 691.5,388.5 C 738.833,388.5 786.167,388.5 833.5,388.5C 832.205,392.734 830.539,396.734 828.5,400.5C 783.67,399.501 738.67,399.168 693.5,399.5C 692.515,395.924 691.848,392.258 691.5,388.5 Z"/></g>
<g><path style="opacity:1" fill="#075ffa" d="M 178.5,382.5 C 190.989,383.495 203.656,383.829 216.5,383.5C 215.437,389.397 211.937,392.73 206,393.5C 202.185,392.626 198.351,392.46 194.5,393C 192.959,394.371 191.625,395.871 190.5,397.5C 182.648,397.825 174.982,397.492 167.5,396.5C 169.722,390.736 173.388,386.069 178.5,382.5 Z"/></g>
<g><path style="opacity:0.795" fill="#e9e9e9" d="M 304.5,391.5 C 305.552,391.351 306.552,391.517 307.5,392C 320.364,408.765 337.364,416.932 358.5,416.5C 358.625,419.893 356.958,421.226 353.5,420.5C 334.179,419.333 318.346,411.333 306,396.5C 304.991,394.975 304.491,393.308 304.5,391.5 Z"/></g>
<g><path style="opacity:1" fill="#0661fa" d="M 494.5,392.5 C 503.652,393.494 512.985,393.827 522.5,393.5C 519.692,400.45 516.358,407.117 512.5,413.5C 501.833,413.5 491.167,413.5 480.5,413.5C 484.922,406.32 489.588,399.32 494.5,392.5 Z"/></g>
<g><path style="opacity:0.997" fill="#006df8" d="M 693.5,399.5 C 738.67,399.168 783.67,399.501 828.5,400.5C 826.627,407.236 823.961,413.57 820.5,419.5C 781.026,419.259 741.692,419.259 702.5,419.5C 698.741,413.241 695.741,406.574 693.5,399.5 Z"/></g>
<g><path style="opacity:0.954" fill="#0a6cf8" d="M 840.5,374.5 C 840.5,375.5 840.5,376.5 840.5,377.5C 842.833,377.5 845.167,377.5 847.5,377.5C 843.423,391.732 838.756,405.732 833.5,419.5C 830.061,419.747 826.728,419.414 823.5,418.5C 829.974,404.066 835.641,389.399 840.5,374.5 Z"/></g>
<g><path style="opacity:1" fill="#0568f9" d="M 167.5,396.5 C 174.982,397.492 182.648,397.825 190.5,397.5C 190.5,398.167 190.5,398.833 190.5,399.5C 189.539,401.265 189.205,403.265 189.5,405.5C 180.435,406.136 171.769,405.47 163.5,403.5C 164.079,400.669 165.412,398.336 167.5,396.5 Z"/></g>
<g><path style="opacity:1" fill="#1674f7" d="M 190.5,399.5 C 190.85,403.054 190.184,406.388 188.5,409.5C 184.571,410.86 180.738,412.527 177,414.5C 175.826,418.046 175.16,421.713 175,425.5C 174.167,427 173,428.167 171.5,429C 167.493,429.713 163.66,429.213 160,427.5C 159.186,419.099 160.352,411.099 163.5,403.5C 171.769,405.47 180.435,406.136 189.5,405.5C 189.205,403.265 189.539,401.265 190.5,399.5 Z"/></g>
<g><path style="opacity:0.996" fill="#0173f7" d="M 820.5,419.5 C 818.046,426.408 815.046,433.075 811.5,439.5C 779.833,439.5 748.167,439.5 716.5,439.5C 710.64,433.645 705.973,426.978 702.5,419.5C 741.692,419.259 781.026,419.259 820.5,419.5 Z"/></g>
<g><path style="opacity:1" fill="#0959fb" d="M 260.5,431.5 C 239.167,431.5 217.833,431.5 196.5,431.5C 196.5,429.833 196.5,428.167 196.5,426.5C 198.134,416.018 203.801,412.851 213.5,417C 217.945,421.56 223.278,423.893 229.5,424C 230.333,423.167 231.167,422.333 232,421.5C 232.333,414.833 232.667,408.167 233,401.5C 235.376,397.795 238.042,397.795 241,401.5C 247.749,411.4 254.249,421.4 260.5,431.5 Z"/></g>
<g><path style="opacity:1" fill="#0768f9" d="M 480.5,413.5 C 491.167,413.5 501.833,413.5 512.5,413.5C 507.578,422.079 501.911,430.079 495.5,437.5C 493.961,435.018 492.461,435.018 491,437.5C 489.667,434.833 488.333,434.833 487,437.5C 485.667,434.833 484.333,434.833 483,437.5C 481.667,434.833 480.333,434.833 479,437.5C 477.667,434.833 476.333,434.833 475,437.5C 473.667,434.833 472.333,434.833 471,437.5C 469.667,434.833 468.333,434.833 467,437.5C 465.667,434.833 464.333,434.833 463,437.5C 462.722,436.584 462.222,435.918 461.5,435.5C 467.843,428.126 474.177,420.793 480.5,413.5 Z"/></g>
<g><path style="opacity:1" fill="#0c62fa" d="M 294.5,439.5 C 274.167,439.5 253.833,439.5 233.5,439.5C 226.302,435.356 219.302,435.856 212.5,441C 209.317,444.015 206.317,447.182 203.5,450.5C 196.924,443.671 194.591,435.671 196.5,426.5C 196.5,428.167 196.5,429.833 196.5,431.5C 217.833,431.5 239.167,431.5 260.5,431.5C 263.638,434.522 267.305,435.189 271.5,433.5C 273.391,429.773 275.058,425.939 276.5,422C 290.831,419.164 296.831,424.997 294.5,439.5 Z"/></g>
<g><path style="opacity:1" fill="#056ef8" d="M 461.5,435.5 C 462.222,435.918 462.722,436.584 463,437.5C 464.333,434.833 465.667,434.833 467,437.5C 468.333,434.833 469.667,434.833 471,437.5C 472.333,434.833 473.667,434.833 475,437.5C 476.333,434.833 477.667,434.833 479,437.5C 480.333,434.833 481.667,434.833 483,437.5C 484.333,434.833 485.667,434.833 487,437.5C 488.333,434.833 489.667,434.833 491,437.5C 492.461,435.018 493.961,435.018 495.5,437.5C 491.224,444.109 486.224,450.109 480.5,455.5C 467.167,455.5 453.833,455.5 440.5,455.5C 447.474,448.861 454.474,442.194 461.5,435.5 Z"/></g>
<g><path style="opacity:0.774" fill="#e9e9e9" d="M 505.5,435.5 C 507.833,435.5 510.167,435.5 512.5,435.5C 512.67,436.822 512.337,437.989 511.5,439C 509.302,439.373 507.135,439.873 505,440.5C 502.98,439.968 502.147,438.635 502.5,436.5C 503.791,436.737 504.791,436.404 505.5,435.5 Z"/></g>
<g><path style="opacity:0.789" fill="#e9e9e9" d="M 401.5,437.5 C 403.252,437.418 404.252,438.251 404.5,440C 403.852,441.44 403.519,442.94 403.5,444.5C 405.308,444.491 406.975,444.991 408.5,446C 409.641,446.741 409.641,447.575 408.5,448.5C 406.328,448.676 403.995,448.843 401.5,449C 401.207,452.094 399.541,453.594 396.5,453.5C 396.318,451.409 396.652,449.409 397.5,447.5C 395.955,446.548 394.288,446.215 392.5,446.5C 392.5,445.167 392.5,443.833 392.5,442.5C 394.591,442.318 396.591,442.652 398.5,443.5C 399.509,441.482 400.509,439.482 401.5,437.5 Z"/></g>
<g><path style="opacity:0.994" fill="#0279f6" d="M 823.5,418.5 C 826.728,419.414 830.061,419.747 833.5,419.5C 828.612,433.165 822.945,446.499 816.5,459.5C 792.167,459.5 767.833,459.5 743.5,459.5C 733.349,454.344 724.349,447.677 716.5,439.5C 748.167,439.5 779.833,439.5 811.5,439.5C 809.711,442.913 808.044,446.413 806.5,450C 806.833,450.5 807.167,451 807.5,451.5C 813.103,440.627 818.437,429.627 823.5,418.5 Z"/></g>
<g><path style="opacity:1" fill="#0067f9" d="M 233.5,439.5 C 253.833,439.5 274.167,439.5 294.5,439.5C 294.042,443.538 293.376,447.538 292.5,451.5C 273.833,450.832 255.333,450.832 237,451.5C 236.768,450.263 236.268,449.263 235.5,448.5C 235.595,445.303 234.928,442.303 233.5,439.5 Z"/></g>
<g><path style="opacity:0.811" fill="#e8e8e8" d="M 881.5,444.5 C 883.273,445.314 883.773,446.648 883,448.5C 870.438,467.63 861.105,488.297 855,510.5C 853.416,519.989 854.75,528.989 859,537.5C 861.147,524.676 868.647,518.51 881.5,519C 891.156,523.966 893.656,531.466 889,541.5C 881.17,550.415 872.17,551.749 862,545.5C 862.998,565.152 863.665,584.819 864,604.5C 860.725,617.374 852.558,623.207 839.5,622C 831.074,617.551 828.741,611.051 832.5,602.5C 834.204,601.177 835.537,601.51 836.5,603.5C 833.258,611.357 835.758,616.69 844,619.5C 852.084,618.088 857.418,613.422 860,605.5C 860.667,597.167 860.667,588.833 860,580.5C 858.621,567.196 857.621,553.863 857,540.5C 854.833,538.17 853.166,535.503 852,532.5C 849.435,520.214 850.435,508.214 855,496.5C 860.977,477.544 869.81,460.211 881.5,444.5 Z M 875.5,522.5 C 887.281,523.723 890.448,529.723 885,540.5C 879.155,546.056 872.655,546.889 865.5,543C 863.785,542.223 862.785,540.89 862.5,539C 863.753,530.93 868.086,525.43 875.5,522.5 Z"/></g>
<g><path style="opacity:1" fill="#026ef8" d="M 235.5,448.5 C 236.268,449.263 236.768,450.263 237,451.5C 255.333,450.832 273.833,450.832 292.5,451.5C 291.501,454.162 290.501,456.828 289.5,459.5C 270.659,459.83 251.993,459.497 233.5,458.5C 235.023,455.365 235.69,452.032 235.5,448.5 Z"/></g>
<g><path style="opacity:1" fill="#0574f7" d="M 440.5,455.5 C 453.833,455.5 467.167,455.5 480.5,455.5C 475.298,462.578 469.631,469.245 463.5,475.5C 447.658,475.83 431.991,475.496 416.5,474.5C 424.519,468.143 432.519,461.81 440.5,455.5 Z"/></g>
<g><path style="opacity:1" fill="#0976f6" d="M 233.5,458.5 C 251.993,459.497 270.659,459.83 289.5,459.5C 287.925,463.078 285.925,466.411 283.5,469.5C 271.681,462.681 260.014,462.848 248.5,470C 244.8,474.035 240.8,477.702 236.5,481C 226.629,482.123 222.462,477.623 224,467.5C 227.72,464.943 230.887,461.943 233.5,458.5 Z"/></g>
<g><path style="opacity:1" fill="#1580f5" d="M 743.5,459.5 C 767.833,459.5 792.167,459.5 816.5,459.5C 815.625,462.541 813.625,464.375 810.5,465C 787.291,472.306 764.958,470.473 743.5,459.5 Z"/></g>
<g><path style="opacity:1" fill="#087bf5" d="M 416.5,474.5 C 431.991,475.496 447.658,475.83 463.5,475.5C 455.373,484.796 447.04,493.963 438.5,503C 428.925,504.872 419.258,505.705 409.5,505.5C 410.457,496.144 411.623,486.81 413,477.5C 414.039,476.29 415.206,475.29 416.5,474.5 Z"/></g>
<g><path style="opacity:0.811" fill="#e8e8e8" d="M 344.5,512.5 C 352.718,511.363 360.218,513.03 367,517.5C 367.483,518.448 367.649,519.448 367.5,520.5C 363.864,520.181 360.531,519.015 357.5,517C 342.877,514.559 333.377,520.392 329,534.5C 328.373,545.382 328.873,556.216 330.5,567C 330.255,584.91 321.255,594.91 303.5,597C 295.91,598.639 289.077,597.139 283,592.5C 278.109,586.832 278.609,581.665 284.5,577C 291.815,574.681 295.315,577.181 295,584.5C 290.474,587.501 288.641,586.168 289.5,580.5C 283.254,581.084 281.92,584.084 285.5,589.5C 287.131,591.297 289.131,592.464 291.5,593C 303.345,594.952 313.511,591.786 322,583.5C 324.785,578.019 326.285,572.185 326.5,566C 324.35,554.163 324.184,542.33 326,530.5C 329.441,521.557 335.608,515.557 344.5,512.5 Z"/></g>
<g><path style="opacity:0.805" fill="#e8e8e8" d="M 711.5,514.5 C 712.833,514.5 714.167,514.5 715.5,514.5C 715.928,517.564 716.594,520.564 717.5,523.5C 715.167,524.833 712.833,526.167 710.5,527.5C 710.5,525.833 710.5,524.167 710.5,522.5C 709.167,522.5 707.833,522.5 706.5,522.5C 706.5,521.167 706.5,519.833 706.5,518.5C 708.144,518.286 709.644,518.62 711,519.5C 711.494,517.866 711.66,516.199 711.5,514.5 Z"/></g>
<g><path style="opacity:1" fill="#084efd" d="M 487.5,563.5 C 485.549,563.227 484.049,563.893 483,565.5C 481.667,562.833 480.333,562.833 479,565.5C 477.667,562.833 476.333,562.833 475,565.5C 473.667,562.833 472.333,562.833 471,565.5C 469.667,562.833 468.333,562.833 467,565.5C 465.667,562.833 464.333,562.833 463,565.5C 461.667,562.833 460.333,562.833 459,565.5C 457.667,562.833 456.333,562.833 455,565.5C 453.667,562.833 452.333,562.833 451,565.5C 449.667,562.833 448.333,562.833 447,565.5C 445.667,562.833 444.333,562.833 443,565.5C 441.667,562.833 440.333,562.833 439,565.5C 437.667,562.833 436.333,562.833 435,565.5C 433.667,562.833 432.333,562.833 431,565.5C 429.667,562.833 428.333,562.833 427,565.5C 425.667,562.833 424.333,562.833 423,565.5C 421.667,562.833 420.333,562.833 419,565.5C 418.583,564.244 417.75,563.577 416.5,563.5C 433.693,547.328 454.193,538.662 478,537.5C 485.375,537.277 492.542,538.277 499.5,540.5C 495.788,548.255 491.788,555.921 487.5,563.5 Z"/></g>
<g><path style="opacity:0.824" fill="#e8e8e8" d="M 677.5,561.5 C 678.5,561.5 679.5,561.5 680.5,561.5C 680.5,562.833 680.5,564.167 680.5,565.5C 682.977,565.051 684.977,565.717 686.5,567.5C 685.332,569.217 683.665,569.884 681.5,569.5C 681.778,571.346 681.111,572.68 679.5,573.5C 678.049,571.441 676.049,570.441 673.5,570.5C 673.22,567.612 674.553,566.112 677.5,566C 676.272,564.51 676.272,563.01 677.5,561.5 Z"/></g>
<g><path style="opacity:1" fill="#0355fc" d="M 416.5,563.5 C 417.75,563.577 418.583,564.244 419,565.5C 420.333,562.833 421.667,562.833 423,565.5C 424.333,562.833 425.667,562.833 427,565.5C 428.333,562.833 429.667,562.833 431,565.5C 432.333,562.833 433.667,562.833 435,565.5C 436.333,562.833 437.667,562.833 439,565.5C 440.333,562.833 441.667,562.833 443,565.5C 444.333,562.833 445.667,562.833 447,565.5C 448.333,562.833 449.667,562.833 451,565.5C 452.333,562.833 453.667,562.833 455,565.5C 456.333,562.833 457.667,562.833 459,565.5C 460.333,562.833 461.667,562.833 463,565.5C 464.333,562.833 465.667,562.833 467,565.5C 468.333,562.833 469.667,562.833 471,565.5C 472.333,562.833 473.667,562.833 475,565.5C 476.333,562.833 477.667,562.833 479,565.5C 480.333,562.833 481.667,562.833 483,565.5C 484.049,563.893 485.549,563.227 487.5,563.5C 484.167,569.5 480.833,575.5 477.5,581.5C 451.5,581.5 425.5,581.5 399.5,581.5C 403.809,574.192 409.475,568.192 416.5,563.5 Z"/></g>
<g><path style="opacity:0.81" fill="#e8e8e8" d="M 787.5,574.5 C 788.822,574.33 789.989,574.663 791,575.5C 791.794,578.471 792.461,581.471 793,584.5C 795.518,582.536 798.184,581.87 801,582.5C 801.749,583.635 801.583,584.635 800.5,585.5C 798.205,586.432 795.871,587.265 793.5,588C 794.482,590.738 795.148,593.572 795.5,596.5C 794.167,596.5 792.833,596.5 791.5,596.5C 791.301,594.04 790.635,591.707 789.5,589.5C 785.986,591.117 782.319,592.117 778.5,592.5C 778.33,591.178 778.663,590.011 779.5,589C 782.833,587.667 786.167,586.333 789.5,585C 788.029,581.679 787.363,578.179 787.5,574.5 Z"/></g>
<g><path style="opacity:1" fill="#025bfb" d="M 399.5,581.5 C 425.5,581.5 451.5,581.5 477.5,581.5C 474.5,586.833 471.5,592.167 468.5,597.5C 441.995,597.831 415.661,597.498 389.5,596.5C 392.056,590.951 395.39,585.951 399.5,581.5 Z"/></g>
<g><path style="opacity:1" fill="#0361fa" d="M 389.5,596.5 C 415.661,597.498 441.995,597.831 468.5,597.5C 465.485,602.868 462.485,608.202 459.5,613.5C 433.328,613.831 407.328,613.498 381.5,612.5C 383.126,606.581 385.793,601.247 389.5,596.5 Z"/></g>
<g><path style="opacity:1" fill="#094ffd" d="M 533.5,639.5 C 516.325,639.83 499.325,639.497 482.5,638.5C 493.44,625.399 507.273,617.066 524,613.5C 533.139,613.906 537.306,618.74 536.5,628C 536.893,632.316 535.893,636.149 533.5,639.5 Z"/></g>
<g><path style="opacity:1" fill="#0367f9" d="M 381.5,612.5 C 407.328,613.498 433.328,613.831 459.5,613.5C 456.153,620.193 452.82,626.86 449.5,633.5C 448.778,633.082 448.278,632.416 448,631.5C 445.333,634.167 442.667,634.167 440,631.5C 437.333,634.167 434.667,634.167 432,631.5C 429.333,634.167 426.667,634.167 424,631.5C 421.333,634.167 418.667,634.167 416,631.5C 413.333,634.167 410.667,634.167 408,631.5C 405.333,634.167 402.667,634.167 400,631.5C 397.333,634.167 394.667,634.167 392,631.5C 389.333,634.167 386.667,634.167 384,631.5C 381.821,633.637 379.321,633.971 376.5,632.5C 375.754,631.264 375.421,629.93 375.5,628.5C 376.536,622.715 378.536,617.382 381.5,612.5 Z"/></g>
<g><path style="opacity:1" fill="#036df8" d="M 375.5,628.5 C 375.421,629.93 375.754,631.264 376.5,632.5C 379.321,633.971 381.821,633.637 384,631.5C 386.667,634.167 389.333,634.167 392,631.5C 394.667,634.167 397.333,634.167 400,631.5C 402.667,634.167 405.333,634.167 408,631.5C 410.667,634.167 413.333,634.167 416,631.5C 418.667,634.167 421.333,634.167 424,631.5C 426.667,634.167 429.333,634.167 432,631.5C 434.667,634.167 437.333,634.167 440,631.5C 442.667,634.167 445.333,634.167 448,631.5C 448.278,632.416 448.778,633.082 449.5,633.5C 447.307,638.052 444.974,642.552 442.5,647C 438.218,648.157 433.884,648.99 429.5,649.5C 410.167,649.5 390.833,649.5 371.5,649.5C 371.5,648.5 371.5,647.5 371.5,646.5C 371.916,640.182 373.249,634.182 375.5,628.5 Z"/></g>
<g><path style="opacity:0.815" fill="#e8e8e8" d="M 269.5,636.5 C 280.696,636.856 285.529,642.523 284,653.5C 278.501,662.525 271.501,663.858 263,657.5C 258.038,648.017 260.205,641.017 269.5,636.5 Z M 270.5,640.5 C 266.451,641.738 264.451,644.572 264.5,649C 266.499,657.879 271.332,659.712 279,654.5C 282.535,645.899 279.702,641.232 270.5,640.5 Z"/></g>
<g><path style="opacity:1" fill="#0455fc" d="M 482.5,638.5 C 499.325,639.497 516.325,639.83 533.5,639.5C 531.336,644.5 528.669,649.167 525.5,653.5C 524.244,653.904 523.077,654.571 522,655.5C 521.055,655.095 520.388,654.428 520,653.5C 518.667,656.167 517.333,656.167 516,653.5C 514.667,656.167 513.333,656.167 512,653.5C 510.667,656.167 509.333,656.167 508,653.5C 506.667,656.167 505.333,656.167 504,653.5C 502.667,656.167 501.333,656.167 500,653.5C 498.667,656.167 497.333,656.167 496,653.5C 494.667,656.167 493.333,656.167 492,653.5C 490.667,656.167 489.333,656.167 488,653.5C 486.667,656.167 485.333,656.167 484,653.5C 482.667,656.167 481.333,656.167 480,653.5C 478.667,656.167 477.333,656.167 476,653.5C 474.667,656.167 473.333,656.167 472,653.5C 470.624,656.125 469.458,656.125 468.5,653.5C 473.195,648.474 477.861,643.474 482.5,638.5 Z"/></g>
<g><path style="opacity:1" fill="#0573f7" d="M 371.5,646.5 C 371.5,647.5 371.5,648.5 371.5,649.5C 390.833,649.5 410.167,649.5 429.5,649.5C 419.16,653.506 409.494,658.839 400.5,665.5C 390.167,665.5 379.833,665.5 369.5,665.5C 369.334,660.489 369.501,655.489 370,650.5C 370.21,648.942 370.71,647.609 371.5,646.5 Z"/></g>
<g><path style="opacity:0.899" fill="#e8e8e8" d="M 778.5,648.5 C 779.5,648.5 780.5,648.5 781.5,648.5C 781.472,650.582 782.139,652.416 783.5,654C 786.146,654.497 788.813,654.664 791.5,654.5C 791.649,655.552 791.483,656.552 791,657.5C 789.315,659.017 787.815,660.684 786.5,662.5C 787.577,664.729 788.244,667.063 788.5,669.5C 785.495,669.747 782.995,668.747 781,666.5C 778.815,668.54 776.315,669.874 773.5,670.5C 773.292,668.08 773.626,665.747 774.5,663.5C 773.055,661.937 771.389,660.604 769.5,659.5C 768.614,658.675 768.281,657.675 768.5,656.5C 771.127,655.908 773.794,655.575 776.5,655.5C 776.767,653.035 777.434,650.701 778.5,648.5 Z"/></g>
<g><path style="opacity:0.986" fill="#055cfb" d="M 468.5,653.5 C 469.458,656.125 470.624,656.125 472,653.5C 473.333,656.167 474.667,656.167 476,653.5C 477.333,656.167 478.667,656.167 480,653.5C 481.333,656.167 482.667,656.167 484,653.5C 485.333,656.167 486.667,656.167 488,653.5C 489.333,656.167 490.667,656.167 492,653.5C 493.333,656.167 494.667,656.167 496,653.5C 497.333,656.167 498.667,656.167 500,653.5C 501.333,656.167 502.667,656.167 504,653.5C 505.333,656.167 506.667,656.167 508,653.5C 509.333,656.167 510.667,656.167 512,653.5C 513.333,656.167 514.667,656.167 516,653.5C 517.333,656.167 518.667,656.167 520,653.5C 520.388,654.428 521.055,655.095 522,655.5C 523.077,654.571 524.244,653.904 525.5,653.5C 517.915,665.319 508.915,675.986 498.5,685.5C 496.265,685.795 494.265,685.461 492.5,684.5C 499.831,676.334 506.998,668 514,659.5C 514.688,658.668 514.521,658.002 513.5,657.5C 509.811,661.52 506.145,665.52 502.5,669.5C 487.14,669.472 471.473,669.472 455.5,669.5C 459.357,663.791 463.69,658.458 468.5,653.5 Z"/></g>
<g><path style="opacity:1" fill="#097af5" d="M 369.5,665.5 C 379.833,665.5 390.167,665.5 400.5,665.5C 392.493,673.674 384.659,682.007 377,690.5C 373.875,687.164 371.875,683.164 371,678.5C 370.265,674.187 369.765,669.853 369.5,665.5 Z"/></g>
<g><path style="opacity:0.995" fill="#0260fa" d="M 502.5,669.5 C 497.954,675.256 492.954,680.59 487.5,685.5C 472.657,685.829 457.99,685.496 443.5,684.5C 446.747,678.917 450.747,673.917 455.5,669.5C 471.473,669.472 487.14,669.472 502.5,669.5 Z"/></g>
<g><path style="opacity:1" fill="#0a50fd" d="M 630.5,692.5 C 616.402,693.822 602.402,693.822 588.5,692.5C 602.352,684.653 616.186,676.653 630,668.5C 630.5,676.493 630.666,684.493 630.5,692.5 Z"/></g>
<g><path style="opacity:0.992" fill="#0267f9" d="M 443.5,684.5 C 457.99,685.496 472.657,685.829 487.5,685.5C 481.402,692.936 474.402,699.27 466.5,704.5C 454.167,703.833 441.833,703.167 429.5,702.5C 433.815,696.19 438.482,690.19 443.5,684.5 Z"/></g>
<g><path style="opacity:1" fill="#0956fc" d="M 588.5,692.5 C 602.402,693.822 616.402,693.822 630.5,692.5C 630.03,698.206 629.363,703.873 628.5,709.5C 603.661,709.831 578.994,709.498 554.5,708.5C 565.764,703.203 577.098,697.87 588.5,692.5 Z"/></g>
<g><path style="opacity:1" fill="#065bfb" d="M 554.5,708.5 C 578.994,709.498 603.661,709.831 628.5,709.5C 627.372,714.978 626.039,720.311 624.5,725.5C 587.33,725.832 550.33,725.498 513.5,724.5C 527.274,719.447 540.94,714.113 554.5,708.5 Z"/></g>
<g><path style="opacity:0.979" fill="#0971f7" d="M 492.5,684.5 C 494.265,685.461 496.265,685.795 498.5,685.5C 498.631,686.239 498.464,686.906 498,687.5C 481.19,704.819 463.357,720.819 444.5,735.5C 442.549,735.773 441.049,735.107 440,733.5C 438.667,736.167 437.333,736.167 436,733.5C 434.667,736.167 433.333,736.167 432,733.5C 430.667,736.167 429.333,736.167 428,733.5C 426.667,736.167 425.333,736.167 424,733.5C 422.667,736.167 421.333,736.167 420,733.5C 418.667,736.167 417.333,736.167 416,733.5C 414.539,735.982 413.039,735.982 411.5,733.5C 416.222,722.383 422.222,712.05 429.5,702.5C 441.833,703.167 454.167,703.833 466.5,704.5C 464.706,706.797 462.706,708.963 460.5,711C 453.167,716.333 445.833,721.667 438.5,727C 439,727.5 439.5,728 440,728.5C 458.543,715.127 476.043,700.461 492.5,684.5 Z"/></g>
<g><path style="opacity:0.996" fill="#0160fa" d="M 513.5,724.5 C 550.33,725.498 587.33,725.832 624.5,725.5C 623.068,731.141 621.068,736.475 618.5,741.5C 615.615,741.806 612.948,741.473 610.5,740.5C 611.475,736.381 613.142,732.548 615.5,729C 615,728.5 614.5,728 614,727.5C 611.768,732.735 609.268,737.735 606.5,742.5C 571.167,741.833 535.833,741.167 500.5,740.5C 500.334,736.486 500.501,732.486 501,728.5C 505.086,726.936 509.252,725.603 513.5,724.5 Z"/></g>
<g><path style="opacity:1" fill="#0f7cf5" d="M 411.5,733.5 C 413.039,735.982 414.539,735.982 416,733.5C 417.333,736.167 418.667,736.167 420,733.5C 421.333,736.167 422.667,736.167 424,733.5C 425.333,736.167 426.667,736.167 428,733.5C 429.333,736.167 430.667,736.167 432,733.5C 433.333,736.167 434.667,736.167 436,733.5C 437.333,736.167 438.667,736.167 440,733.5C 441.049,735.107 442.549,735.773 444.5,735.5C 434.941,745.895 423.441,753.229 410,757.5C 406.471,756.289 404.971,753.789 405.5,750C 406.273,743.972 408.273,738.472 411.5,733.5 Z"/></g>
<g><path style="opacity:0.996" fill="#0167f9" d="M 500.5,740.5 C 535.833,741.167 571.167,741.833 606.5,742.5C 603.727,749.052 599.727,754.719 594.5,759.5C 561.329,759.832 528.329,759.498 495.5,758.5C 497.241,752.401 498.908,746.401 500.5,740.5 Z"/></g>
<g><path style="opacity:0.994" fill="#026df8" d="M 495.5,758.5 C 528.329,759.498 561.329,759.832 594.5,759.5C 589.893,765.776 584.559,771.443 578.5,776.5C 548.005,775.502 517.338,775.169 486.5,775.5C 489.788,769.921 492.788,764.254 495.5,758.5 Z"/></g>
<g><path style="opacity:0.972" fill="#086cf8" d="M 610.5,740.5 C 612.948,741.473 615.615,741.806 618.5,741.5C 613.86,754.126 607.194,765.459 598.5,775.5C 593.5,775.5 588.5,775.5 583.5,775.5C 593.722,764.697 602.722,753.03 610.5,740.5 Z"/></g>
<g><path style="opacity:0.992" fill="#0173f7" d="M 486.5,775.5 C 517.338,775.169 548.005,775.502 578.5,776.5C 570.609,783.05 561.943,788.383 552.5,792.5C 525.167,791.833 497.833,791.167 470.5,790.5C 476.489,786.177 481.822,781.177 486.5,775.5 Z"/></g>
<g><path style="opacity:0.979" fill="#0479f6" d="M 583.5,775.5 C 588.5,775.5 593.5,775.5 598.5,775.5C 583.501,792.34 564.835,803.007 542.5,807.5C 514.833,807.5 487.167,807.5 459.5,807.5C 458.115,804.454 458.281,801.454 460,798.5C 463.26,795.46 466.76,792.794 470.5,790.5C 497.833,791.167 525.167,791.833 552.5,792.5C 547.823,795.166 542.823,797.333 537.5,799C 531.055,800.527 524.721,802.194 518.5,804C 520.833,804.667 523.167,804.667 525.5,804C 547.169,798.998 566.502,789.498 583.5,775.5 Z"/></g>
<g><path style="opacity:1" fill="#1280f5" d="M 459.5,807.5 C 487.167,807.5 514.833,807.5 542.5,807.5C 520.366,813.727 497.7,815.893 474.5,814C 468.698,813.427 463.698,811.26 459.5,807.5 Z"/></g>
<g><path style="opacity:0.842" fill="#e8e8e8" d="M 301.5,882.5 C 309.27,883.497 312.936,887.997 312.5,896C 311.348,906.525 305.682,909.859 295.5,906C 289.179,900.17 288.846,894.004 294.5,887.5C 296.618,885.358 298.952,883.692 301.5,882.5 Z M 302.5,886.5 C 308.513,889.526 310.346,894.192 308,900.5C 302.114,905.772 297.614,904.605 294.5,897C 295.632,892.196 298.298,888.696 302.5,886.5 Z"/></g>
<g><path style="opacity:0.822" fill="#e8e8e8" d="M 411.5,882.5 C 416.702,881.756 421.369,882.923 425.5,886C 436.119,895.89 437.119,906.556 428.5,918C 418.782,923.541 409.949,922.374 402,914.5C 395.051,900.752 398.217,890.085 411.5,882.5 Z M 412.5,886.5 C 417.855,885.345 422.022,887.012 425,891.5C 426.92,894.339 428.587,897.339 430,900.5C 430.935,913.232 425.102,918.732 412.5,917C 404.129,913.091 400.963,906.591 403,897.5C 404.97,892.704 408.137,889.037 412.5,886.5 Z"/></g>
</svg>
