<?xml version="1.0" encoding="UTF-8"?>
<!DOCTYPE svg PUBLIC "-//W3C//DTD SVG 1.1//EN" "http://www.w3.org/Graphics/SVG/1.1/DTD/svg11.dtd">
<svg xmlns="http://www.w3.org/2000/svg" version="1.1" width="960px" height="960px" style="shape-rendering:geometricPrecision; text-rendering:geometricPrecision; image-rendering:optimizeQuality; fill-rule:evenodd; clip-rule:evenodd" xmlns:xlink="http://www.w3.org/1999/xlink">
<g><path style="opacity:0.94" fill="#e6e7e8" d="M 799.5,121.5 C 805.579,122.409 809.746,125.743 812,131.5C 820.773,151.258 826.106,171.924 828,193.5C 831.838,195.167 835.671,197.001 839.5,199C 851.507,211.831 860.34,226.665 866,243.5C 879.662,285.029 879.995,326.696 867,368.5C 844.482,434.017 804.315,485.85 746.5,524C 705.163,548.668 660.496,559.501 612.5,556.5C 621.368,583.772 630.035,611.105 638.5,638.5C 643.5,638.833 648.5,639.167 653.5,639.5C 694.166,638.209 734.833,637.376 775.5,637C 823.545,702.256 871.711,767.422 920,832.5C 921.009,834.025 921.509,835.692 921.5,837.5C 638.153,834.839 354.82,831.339 71.5,827C 71.0426,826.586 70.7093,826.086 70.5,825.5C 123.798,766.867 177.465,708.533 231.5,650.5C 250.46,648.835 269.46,647.835 288.5,647.5C 290.113,610.482 302.28,577.482 325,548.5C 360.481,506.739 404.981,479.239 458.5,466C 474.567,461.399 490.9,458.233 507.5,456.5C 506.782,447.623 505.282,438.957 503,430.5C 490.012,441.837 474.846,448.337 457.5,450C 445.167,450.667 432.833,450.667 420.5,450C 402.415,447.479 384.249,445.979 366,445.5C 329.376,445.98 299.043,459.98 275,487.5C 258.29,509.216 240.457,530.05 221.5,550C 179.14,586.092 130.474,598.758 75.5,588C 62.988,585.052 50.988,580.719 39.5,575C 37.9632,573.89 37.2965,572.39 37.5,570.5C 78.2547,573.485 114.255,561.985 145.5,536C 154.798,527.042 162.964,517.209 170,506.5C 183.045,480.708 195.711,454.708 208,428.5C 235.265,385.93 274.098,361.097 324.5,354C 339.533,352.608 354.533,350.942 369.5,349C 387.386,346.221 403.053,338.888 416.5,327C 434.559,308.272 453.226,290.272 472.5,273C 498.95,252.637 528.617,245.304 561.5,251C 594.994,261.325 612.327,283.992 613.5,319C 613.04,345.085 603.206,366.919 584,384.5C 582.098,394.54 578.432,403.874 573,412.5C 563.703,423.466 554.036,434.132 544,444.5C 540.432,450.031 537.932,456.031 536.5,462.5C 595.751,477.957 652.085,470.79 705.5,441C 765.87,403.088 792.037,348.588 784,277.5C 780.462,265.219 777.128,252.886 774,240.5C 772.701,233.079 773.868,226.079 777.5,219.5C 765.145,216.102 753.145,211.602 741.5,206C 735.921,200.16 736.588,195.16 743.5,191C 753.349,189.917 763.016,190.75 772.5,193.5C 772.833,193.167 773.167,192.833 773.5,192.5C 760.36,177.552 752.027,160.219 748.5,140.5C 748.877,131.947 753.211,128.447 761.5,130C 763.96,131.458 766.127,133.291 768,135.5C 769.078,126.742 773.911,122.909 782.5,124C 785.579,125.248 788.246,127.081 790.5,129.5C 792.305,125.354 795.305,122.688 799.5,121.5 Z M 797.5,126.5 C 800.97,125.875 803.804,126.875 806,129.5C 816.05,150.033 821.883,171.7 823.5,194.5C 817.281,195.072 811.281,196.572 805.5,199C 796.299,203.427 787.633,208.594 779.5,214.5C 768.878,212.237 758.545,209.07 748.5,205C 745.527,203.69 743.193,201.69 741.5,199C 743.841,195.096 747.341,193.596 752,194.5C 762.429,195.286 772.596,197.286 782.5,200.5C 782.628,198.345 782.128,196.345 781,194.5C 768.221,180.698 759.221,164.698 754,146.5C 753.333,142.833 753.333,139.167 754,135.5C 755.466,133.675 757.299,133.175 759.5,134C 761.624,135.122 763.457,136.622 765,138.5C 766.944,142.11 769.277,145.443 772,148.5C 777.614,161.338 783.614,174.005 790,186.5C 791.356,187.38 792.856,187.714 794.5,187.5C 794.657,186.127 794.49,184.793 794,183.5C 787.59,169.016 780.924,154.682 774,140.5C 773.333,137.5 773.333,134.5 774,131.5C 775.544,128.311 778.044,127.145 781.5,128C 783.624,129.122 785.457,130.622 787,132.5C 794.196,148.926 800.696,165.593 806.5,182.5C 807.833,182.5 809.167,182.5 810.5,182.5C 805.638,167.099 800.471,151.765 795,136.5C 794.343,132.808 795.176,129.475 797.5,126.5 Z M 843.5,224.5 C 842.5,224.5 841.5,224.5 840.5,224.5C 839.265,221.699 837.765,219.032 836,216.5C 835.251,215.365 835.417,214.365 836.5,213.5C 839.221,216.894 841.554,220.561 843.5,224.5 Z M 843.5,228.5 C 844.167,228.5 844.833,228.5 845.5,228.5C 847.105,231.378 848.439,234.378 849.5,237.5C 848.833,237.5 848.167,237.5 847.5,237.5C 845.796,234.744 844.463,231.744 843.5,228.5 Z M 849.5,242.5 C 850.167,242.5 850.833,242.5 851.5,242.5C 862.217,273.85 864.384,305.85 858,338.5C 855.964,348.309 853.464,357.976 850.5,367.5C 842.776,388.279 833.443,408.279 822.5,427.5C 816.422,436.646 810.089,445.646 803.5,454.5C 802.592,453.21 802.759,451.877 804,450.5C 809.355,443.114 814.188,435.448 818.5,427.5C 830.479,409.539 839.813,390.205 846.5,369.5C 854.401,348.328 858.734,326.328 859.5,303.5C 859.513,282.595 856.179,262.262 849.5,242.5 Z M 542.5,257.5 C 578.544,261.711 598.211,281.877 601.5,318C 601.136,323.688 599.969,329.188 598,334.5C 596.368,332.293 596.368,329.96 598,327.5C 601.12,297.902 589.287,276.735 562.5,264C 549.267,259.79 535.934,259.457 522.5,263C 502.139,269.341 484.472,280.008 469.5,295C 452.739,312.764 435.073,329.431 416.5,345C 415.5,345.667 414.5,345.667 413.5,345C 430.44,330.062 446.773,314.395 462.5,298C 478.336,282.245 496.669,270.245 517.5,262C 525.818,259.615 534.151,258.115 542.5,257.5 Z M 565.5,327.5 C 571.685,333.856 575.852,341.523 578,350.5C 584.427,377.122 578.761,400.789 561,421.5C 549.006,430.15 540.006,441.15 534,454.5C 533.176,457.785 532.676,461.118 532.5,464.5C 534.526,476.271 537.026,487.938 540,499.5C 540.797,506.55 540.63,513.55 539.5,520.5C 538.635,521.583 537.635,521.749 536.5,521C 523.594,506.312 516.094,489.146 514,469.5C 512,456.167 510,442.833 508,429.5C 506.526,422.098 504.359,414.931 501.5,408C 509.829,406.009 515.329,400.842 518,392.5C 521.454,381.864 522.288,371.03 520.5,360C 521.337,358.413 522.67,357.58 524.5,357.5C 526.902,359.049 529.568,359.716 532.5,359.5C 531.948,357.669 531.948,356.003 532.5,354.5C 546.208,348.79 557.208,339.79 565.5,327.5 Z M 445.5,549.5 C 447.833,549.5 450.167,549.5 452.5,549.5C 443.773,579.407 434.273,609.073 424,638.5C 423.503,640.81 423.337,643.143 423.5,645.5C 403.155,645.33 382.821,645.664 362.5,646.5C 364.025,591.65 391.692,559.317 445.5,549.5 Z M 728.5,641.5 C 743.504,641.333 758.504,641.5 773.5,642C 820.5,705.667 867.5,769.333 914.5,833C 635.493,830.498 356.493,827.165 77.5,823C 129.833,766.667 182.167,710.333 234.5,654C 252.576,652.719 270.576,652.219 288.5,652.5C 290.174,702.701 312.507,740.535 355.5,766C 369.466,772.074 383.799,777.074 398.5,781C 393.532,788.431 389.199,796.264 385.5,804.5C 385.709,805.086 386.043,805.586 386.5,806C 476.501,805.992 566.501,805.492 656.5,804.5C 647.425,756.122 638.091,707.789 628.5,659.5C 574.163,659.167 519.829,659.5 465.5,660.5C 455.674,679.489 445.341,698.155 434.5,716.5C 403.039,714.91 380.872,699.576 368,670.5C 365.698,664.291 363.865,657.958 362.5,651.5C 484.518,648.008 606.518,644.674 728.5,641.5 Z M 545.5,706.5 C 546.827,699.729 547.827,692.896 548.5,686C 547.612,677.058 543.279,674.724 535.5,679C 533.093,681.285 530.593,683.451 528,685.5C 524.723,690.396 521.723,695.396 519,700.5C 497.163,709.003 474.663,714.837 451.5,718C 447.167,718.667 442.833,718.667 438.5,718C 449.133,700.571 459.133,682.738 468.5,664.5C 520.5,663.167 572.5,663.167 624.5,664.5C 633.646,709.733 642.98,754.9 652.5,800C 565.499,800.975 478.499,801.642 391.5,802C 394.901,794.621 399.067,787.788 404,781.5C 418.171,784.48 432.504,786.146 447,786.5C 464.896,785.722 482.729,784.222 500.5,782C 511.781,780.43 522.781,777.763 533.5,774C 556.77,771.932 579.104,766.266 600.5,757C 607.443,752.528 608.776,746.862 604.5,740C 601.623,738.873 598.623,738.206 595.5,738C 603.564,734.371 606.731,728.205 605,719.5C 603.833,717 602,715.167 599.5,714C 596.167,713.667 592.833,713.333 589.5,713C 593.667,710.167 597.167,706.667 600,702.5C 601.616,694.442 598.283,690.109 590,689.5C 573.746,691.721 558.913,697.387 545.5,706.5 Z M 540.5,680.5 C 541.15,680.804 541.817,681.137 542.5,681.5C 543.662,686.467 543.829,691.467 543,696.5C 541.702,702.06 540.202,707.56 538.5,713C 538.509,714.404 539.009,715.57 540,716.5C 550.436,707.531 562.269,701.031 575.5,697C 581.684,694.832 588.017,694.165 594.5,695C 596.968,697.716 596.968,700.549 594.5,703.5C 580.358,714.908 564.691,723.741 547.5,730C 546.167,731 546.167,732 547.5,733C 549.913,733.484 552.246,733.15 554.5,732C 566.343,726.941 578.343,722.274 590.5,718C 599.744,716.238 602.91,719.738 600,728.5C 594.155,734.008 587.321,737.842 579.5,740C 569.679,743.607 559.679,746.607 549.5,749C 548.663,750.011 548.33,751.178 548.5,752.5C 564.697,749.41 580.864,746.077 597,742.5C 602.143,742.125 603.809,744.459 602,749.5C 600.833,750.667 599.667,751.833 598.5,753C 576.808,762.925 554.141,768.092 530.5,768.5C 529.893,763.047 527.393,758.714 523,755.5C 516.529,740.764 515.862,725.764 521,710.5C 523.768,697.937 530.268,687.937 540.5,680.5 Z"/></g>
<g><path style="opacity:0.83" fill="#e8e8e8" d="M 248.5,162.5 C 280.859,161.758 304.359,175.758 319,204.5C 320.318,207.43 320.985,210.43 321,213.5C 319.817,214.731 318.651,214.731 317.5,213.5C 306.953,184.039 285.953,168.372 254.5,166.5C 223.308,169.855 204.141,186.855 197,217.5C 196.084,222.486 195.75,227.486 196,232.5C 207.101,227.435 218.267,227.268 229.5,232C 242.811,243.668 243.978,256.501 233,270.5C 226.325,275.628 219.158,276.461 211.5,273C 200.403,264.988 193.737,254.155 191.5,240.5C 182.703,249.337 177.203,260.003 175,272.5C 173.149,290.147 171.482,307.814 170,325.5C 167.688,344.763 158.522,359.597 142.5,370C 140.866,370.494 139.199,370.66 137.5,370.5C 137.33,369.178 137.663,368.011 138.5,367C 149.87,360.956 157.703,351.789 162,339.5C 163.647,334.246 164.98,328.913 166,323.5C 167.357,310.194 168.357,296.86 169,283.5C 169.872,264.429 177.205,248.429 191,235.5C 190.968,203.034 205.468,179.867 234.5,166C 239.278,164.751 243.945,163.584 248.5,162.5 Z M 207.5,232.5 C 231.94,231.108 240.107,241.775 232,264.5C 225.598,271.491 218.432,272.324 210.5,267C 201.31,258.799 196.977,248.632 197.5,236.5C 200.932,235.107 204.265,233.773 207.5,232.5 Z"/></g>
<g><path style="opacity:0.931" fill="#0051fd" d="M 603.5,196.5 C 597.642,196.178 591.975,196.511 586.5,197.5C 585.638,189.531 589.305,186.031 597.5,187C 601.655,188.811 603.655,191.977 603.5,196.5 Z"/></g>
<g><path style="opacity:0.993" fill="#084afe" d="M 852.5,223.5 C 849.713,224.477 846.713,224.81 843.5,224.5C 841.554,220.561 839.221,216.894 836.5,213.5C 835.417,214.365 835.251,215.365 836,216.5C 837.765,219.032 839.265,221.699 840.5,224.5C 817.833,228 798.167,237.666 781.5,253.5C 777.928,245.161 776.761,236.494 778,227.5C 779.922,221.57 783.422,216.737 788.5,213C 796.376,207.792 804.709,203.459 813.5,200C 828.79,195.897 840.29,200.73 848,214.5C 849.527,217.553 851.027,220.553 852.5,223.5 Z M 843.5,224.5 C 842.5,224.5 841.5,224.5 840.5,224.5C 839.265,221.699 837.765,219.032 836,216.5C 835.251,215.365 835.417,214.365 836.5,213.5C 839.221,216.894 841.554,220.561 843.5,224.5 Z"/></g>
<g><path style="opacity:0.97" fill="#0060fa" d="M 616.5,207.5 C 607.318,207.173 598.318,207.507 589.5,208.5C 587.517,205.201 586.517,201.534 586.5,197.5C 591.975,196.511 597.642,196.178 603.5,196.5C 603.343,197.873 603.51,199.207 604,200.5C 608.556,196.195 613.723,195.028 619.5,197C 621.308,201.337 620.308,204.837 616.5,207.5 Z"/></g>
<g><path style="opacity:0.916" fill="#e8e8e8" d="M 534.5,200.5 C 537.688,203.159 540.188,206.492 542,210.5C 555.259,206.414 556.759,208.914 546.5,218C 549.03,221.539 550.53,225.373 551,229.5C 547.684,228.171 544.35,226.838 541,225.5C 538.003,228.146 535.003,230.813 532,233.5C 531.667,229.5 531.333,225.5 531,221.5C 527.544,219.861 524.377,217.861 521.5,215.5C 525.009,213.885 528.675,212.885 532.5,212.5C 533.075,208.477 533.741,204.477 534.5,200.5 Z"/></g>
<g><path style="opacity:0.914" fill="#0072f7" d="M 616.5,207.5 C 610.364,213.076 603.364,217.409 595.5,220.5C 593.912,219.99 592.745,218.99 592,217.5C 591.261,214.454 590.428,211.454 589.5,208.5C 598.318,207.507 607.318,207.173 616.5,207.5 Z"/></g>
<g><path style="opacity:1" fill="#608af5" d="M 852.5,223.5 C 853.043,223.56 853.376,223.893 853.5,224.5C 850.02,225.806 846.687,225.806 843.5,224.5C 846.713,224.81 849.713,224.477 852.5,223.5 Z"/></g>
<g><path style="opacity:0.997" fill="#1951fd" d="M 843.5,228.5 C 844.463,231.744 845.796,234.744 847.5,237.5C 821.853,237.573 801.353,247.907 786,268.5C 784.734,264.802 783.734,261.135 783,257.5C 799.468,240.28 819.635,230.613 843.5,228.5 Z"/></g>
<g><path style="opacity:0.959" fill="#174ffd" d="M 845.5,228.5 C 848.85,228.335 852.183,228.502 855.5,229C 857.33,232.324 858.663,235.824 859.5,239.5C 855.84,239.841 852.507,239.175 849.5,237.5C 848.439,234.378 847.105,231.378 845.5,228.5 Z"/></g>
<g><path style="opacity:0.829" fill="#e8e8e8" d="M 431.5,234.5 C 432.5,234.5 433.5,234.5 434.5,234.5C 434.687,236.564 435.187,238.564 436,240.5C 437.57,239.642 439.237,238.975 441,238.5C 443.5,239.333 444,240.833 442.5,243C 440.564,243.813 438.564,244.313 436.5,244.5C 437.167,246.819 437.334,249.153 437,251.5C 435.989,252.337 434.822,252.67 433.5,252.5C 433.435,250.304 432.768,248.304 431.5,246.5C 429.568,247.366 427.568,248.033 425.5,248.5C 424,248.547 423,247.881 422.5,246.5C 425.124,244.281 428.124,242.614 431.5,241.5C 430.178,239.135 430.178,236.802 431.5,234.5 Z"/></g>
<g><path style="opacity:0.993" fill="#024ffd" d="M 849.5,242.5 C 856.179,262.262 859.513,282.595 859.5,303.5C 836.5,303.5 813.5,303.5 790.5,303.5C 790.234,293.598 789.234,283.765 787.5,274C 794.387,260.452 805.054,251.119 819.5,246C 829.21,241.879 839.21,240.712 849.5,242.5 Z"/></g>
<g><path style="opacity:0.843" fill="#e7e7e7" d="M 620.5,255.5 C 622.39,255.297 623.89,255.963 625,257.5C 626.752,260.672 628.752,263.672 631,266.5C 634.167,263.333 637.333,260.167 640.5,257C 642.353,256.449 643.687,257.115 644.5,259C 640.833,262.667 637.167,266.333 633.5,270C 637.597,274.581 640.597,279.748 642.5,285.5C 641.127,285.657 639.793,285.49 638.5,285C 636.052,280.885 633.219,277.052 630,273.5C 627.5,276 625,278.5 622.5,281C 621.207,281.49 619.873,281.657 618.5,281.5C 618.351,280.448 618.517,279.448 619,278.5C 622.016,275.651 624.85,272.651 627.5,269.5C 624.833,265.5 622.167,261.5 619.5,257.5C 619.863,256.817 620.196,256.15 620.5,255.5 Z"/></g>
<g><path style="opacity:0.825" fill="#e8e8e8" d="M 418.5,281.5 C 419.833,281.5 421.167,281.5 422.5,281.5C 422.657,282.873 422.49,284.207 422,285.5C 420.437,286.725 419.27,288.225 418.5,290C 420.312,291.812 422.145,293.645 424,295.5C 424.783,297.319 424.283,298.652 422.5,299.5C 419.888,298.221 417.555,296.555 415.5,294.5C 413.211,297.291 410.711,299.958 408,302.5C 406.842,302.002 406.009,301.169 405.5,300C 407.093,296.738 409.093,293.738 411.5,291C 408.758,289.114 407.091,286.614 406.5,283.5C 407.873,283.343 409.207,283.51 410.5,284C 414.318,287.564 416.985,286.73 418.5,281.5 Z"/></g>
<g><path style="opacity:0.993" fill="#0355fc" d="M 790.5,303.5 C 813.5,303.5 836.5,303.5 859.5,303.5C 858.734,326.328 854.401,348.328 846.5,369.5C 823.5,368.167 800.5,366.833 777.5,365.5C 785.663,345.69 789.996,325.023 790.5,303.5 Z"/></g>
<g><path style="opacity:0.969" fill="#0a54fc" d="M 851.5,242.5 C 854.91,242.457 858.243,242.957 861.5,244C 872.343,272.587 875.509,302.087 871,332.5C 869.355,344.583 866.522,356.25 862.5,367.5C 858.5,367.5 854.5,367.5 850.5,367.5C 853.464,357.976 855.964,348.309 858,338.5C 864.384,305.85 862.217,273.85 851.5,242.5 Z"/></g>
<g><path style="opacity:1" fill="#d6dbe9" d="M 838.5,318.5 C 840.903,318.393 842.736,319.393 844,321.5C 846.571,323.976 848.071,326.976 848.5,330.5C 847.325,330.719 846.325,330.386 845.5,329.5C 842.719,326.066 840.386,322.399 838.5,318.5 Z"/></g>
<g><path style="opacity:1" fill="#d6dbe9" d="M 801.5,334.5 C 805.376,336.824 808.376,340.157 810.5,344.5C 808.157,345.725 806.323,345.059 805,342.5C 803.007,340.182 801.841,337.516 801.5,334.5 Z"/></g>
<g><path style="opacity:0.806" fill="#e8e8e8" d="M 552.5,348.5 C 555.85,348.335 559.183,348.502 562.5,349C 566.62,350.33 567.12,352.163 564,354.5C 559.086,351.654 554.42,351.987 550,355.5C 548.72,355.387 547.887,354.72 547.5,353.5C 548.882,351.451 550.548,349.785 552.5,348.5 Z"/></g>
<g><path style="opacity:0.799" fill="#e8e8e8" d="M 541.5,362.5 C 542.822,362.33 543.989,362.663 545,363.5C 547.257,367.683 549.257,372.016 551,376.5C 551.939,383.222 549.106,386.389 542.5,386C 538.809,384.31 538.643,382.476 542,380.5C 544.861,383.323 546.361,382.656 546.5,378.5C 545.707,374.866 544.207,371.532 542,368.5C 541.505,366.527 541.338,364.527 541.5,362.5 Z"/></g>
<g><path style="opacity:0.994" fill="#035bfb" d="M 777.5,365.5 C 800.5,366.833 823.5,368.167 846.5,369.5C 839.813,390.205 830.479,409.539 818.5,427.5C 807.5,427.5 796.5,427.5 785.5,427.5C 784.617,422.868 783.95,418.202 783.5,413.5C 782.5,413.5 781.5,413.5 780.5,413.5C 780.998,418.152 781.331,422.819 781.5,427.5C 764.833,427.5 748.167,427.5 731.5,427.5C 751.221,410.046 766.554,389.379 777.5,365.5 Z"/></g>
<g><path style="opacity:0.963" fill="#045bfb" d="M 850.5,367.5 C 854.5,367.5 858.5,367.5 862.5,367.5C 856.196,388.77 847.196,408.77 835.5,427.5C 831.167,427.5 826.833,427.5 822.5,427.5C 833.443,408.279 842.776,388.279 850.5,367.5 Z"/></g>
<g><path style="opacity:0.841" fill="#e8e8e8" d="M 233.5,370.5 C 235.446,371.254 236.279,372.588 236,374.5C 214.429,391.094 199.429,412.427 191,438.5C 189.174,439.841 188.007,439.341 187.5,437C 195.308,409.527 210.641,387.36 233.5,370.5 Z"/></g>
<g><path style="opacity:1" fill="#d5dbea" d="M 817.5,375.5 C 818.5,375.5 819.5,375.5 820.5,375.5C 819.836,378.713 817.836,380.879 814.5,382C 811.955,384.376 809.622,386.876 807.5,389.5C 805.899,388.965 805.399,387.965 806,386.5C 809.399,382.265 813.233,378.598 817.5,375.5 Z"/></g>
<g><path style="opacity:0.812" fill="#e9e9e9" d="M 520.5,400.5 C 523.311,400.571 525.978,401.238 528.5,402.5C 530.453,401.844 532.453,401.511 534.5,401.5C 535.091,405.741 533.258,407.407 529,406.5C 524.13,407.009 521.297,405.009 520.5,400.5 Z"/></g>
<g><path style="opacity:1" fill="#d7dce9" d="M 785.5,427.5 C 785.5,428.5 785.5,429.5 785.5,430.5C 783.381,430.532 782.048,429.532 781.5,427.5C 781.331,422.819 780.998,418.152 780.5,413.5C 781.5,413.5 782.5,413.5 783.5,413.5C 783.95,418.202 784.617,422.868 785.5,427.5 Z"/></g>
<g><path style="opacity:0.998" fill="#0561fa" d="M 731.5,427.5 C 748.167,427.5 764.833,427.5 781.5,427.5C 782.048,429.532 783.381,430.532 785.5,430.5C 785.5,429.5 785.5,428.5 785.5,427.5C 796.5,427.5 807.5,427.5 818.5,427.5C 814.188,435.448 809.355,443.114 804,450.5C 802.759,451.877 802.592,453.21 803.5,454.5C 810.089,445.646 816.422,436.646 822.5,427.5C 826.833,427.5 831.167,427.5 835.5,427.5C 822.164,449.847 805.83,469.847 786.5,487.5C 742.5,487.5 698.5,487.5 654.5,487.5C 652.833,487.5 651.167,487.5 649.5,487.5C 616.167,487.5 582.833,487.5 549.5,487.5C 547.804,481.7 546.471,475.7 545.5,469.5C 602.184,480.376 655.851,472.209 706.5,445C 715.008,439.311 723.341,433.478 731.5,427.5 Z"/></g>
<g><path style="opacity:1" fill="#d7dde9" d="M 745.5,432.5 C 746.5,432.5 747.5,432.5 748.5,432.5C 748.649,433.552 748.483,434.552 748,435.5C 743.645,439.356 739.145,443.023 734.5,446.5C 733.692,446.192 733.025,445.692 732.5,445C 736.729,440.602 741.062,436.436 745.5,432.5 Z"/></g>
<g><path style="opacity:1" fill="#79a3f1" d="M 504.5,460.5 C 505.919,459.549 507.585,459.216 509.5,459.5C 509.5,460.833 509.5,462.167 509.5,463.5C 508.596,462.791 508.263,461.791 508.5,460.5C 507.167,460.5 505.833,460.5 504.5,460.5 Z"/></g>
<g><path style="opacity:1" fill="#d2daea" d="M 766.5,462.5 C 767.675,462.281 768.675,462.614 769.5,463.5C 771.5,467.167 773.5,470.833 775.5,474.5C 774.711,476.488 773.545,476.821 772,475.5C 769.57,471.319 767.736,466.986 766.5,462.5 Z"/></g>
<g><path style="opacity:0.858" fill="#e8e8e8" d="M 835.5,466.5 C 837.103,466.312 838.437,466.812 839.5,468C 820.824,494.241 797.991,516.075 771,533.5C 769.322,532.534 768.655,531.201 769,529.5C 794.546,512.122 816.713,491.122 835.5,466.5 Z"/></g>
<g><path style="opacity:1" fill="#0565f9" d="M 519.5,527.5 C 485.671,528.498 451.671,528.832 417.5,528.5C 415.235,523.857 411.568,520.857 406.5,519.5C 404.899,520.035 404.399,521.035 405,522.5C 408.135,523.311 410.635,524.977 412.5,527.5C 391.673,528.497 370.673,528.831 349.5,528.5C 364.671,513.902 381.671,501.735 400.5,492C 431.217,476.706 463.55,466.539 497.5,461.5C 498.219,485.838 505.552,507.838 519.5,527.5 Z"/></g>
<g><path style="opacity:1" fill="#d8dee9" d="M 476.5,488.5 C 479.998,488.565 480.498,489.899 478,492.5C 474.667,496.5 471.333,500.5 468,504.5C 465.667,505.833 464.667,505.167 465,502.5C 469.046,497.96 472.879,493.293 476.5,488.5 Z"/></g>
<g><path style="opacity:1" fill="#0264f9" d="M 549.5,487.5 C 582.833,487.5 616.167,487.5 649.5,487.5C 649.574,489.411 650.574,490.578 652.5,491C 657.007,492.893 661.673,494.059 666.5,494.5C 666.5,493.5 666.5,492.5 666.5,491.5C 662.216,490.739 658.216,489.405 654.5,487.5C 698.5,487.5 742.5,487.5 786.5,487.5C 777.773,495.892 768.44,503.559 758.5,510.5C 742.658,510.83 726.991,510.496 711.5,509.5C 713.193,507.14 712.86,505.64 710.5,505C 708.024,508.145 705.69,511.312 703.5,514.5C 653.5,514.5 603.5,514.5 553.5,514.5C 552.008,505.528 550.674,496.528 549.5,487.5 Z"/></g>
<g><path style="opacity:1" fill="#d4dbe9" d="M 649.5,487.5 C 651.167,487.5 652.833,487.5 654.5,487.5C 658.216,489.405 662.216,490.739 666.5,491.5C 666.5,492.5 666.5,493.5 666.5,494.5C 661.673,494.059 657.007,492.893 652.5,491C 650.574,490.578 649.574,489.411 649.5,487.5 Z"/></g>
<g><path style="opacity:1" fill="#d8dee9" d="M 568.5,491.5 C 574.2,493.1 579.033,496.1 583,500.5C 583.749,501.635 583.583,502.635 582.5,503.5C 578.471,499.642 573.804,496.809 568.5,495C 567.316,493.855 567.316,492.688 568.5,491.5 Z"/></g>
<g><path style="opacity:1" fill="#d6dde9" d="M 711.5,509.5 C 708.588,514.263 705.421,518.929 702,523.5C 701.13,522.892 700.63,522.059 700.5,521C 701.391,518.721 702.391,516.554 703.5,514.5C 705.69,511.312 708.024,508.145 710.5,505C 712.86,505.64 713.193,507.14 711.5,509.5 Z"/></g>
<g><path style="opacity:1" fill="#d2dbe9" d="M 417.5,528.5 C 417.189,529.478 416.522,530.145 415.5,530.5C 414.265,529.66 413.265,528.66 412.5,527.5C 410.635,524.977 408.135,523.311 405,522.5C 404.399,521.035 404.899,520.035 406.5,519.5C 411.568,520.857 415.235,523.857 417.5,528.5 Z"/></g>
<g><path style="opacity:1" fill="#1769f9" d="M 504.5,460.5 C 505.833,460.5 507.167,460.5 508.5,460.5C 508.263,461.791 508.596,462.791 509.5,463.5C 511.247,482.574 517.08,500.24 527,516.5C 530.311,522.184 535.144,524.684 541.5,524C 542.211,522.745 543.044,521.579 544,520.5C 544.776,511.126 544.442,501.793 543,492.5C 540.644,484.552 538.477,476.552 536.5,468.5C 536.833,467.833 537.167,467.167 537.5,466.5C 539.434,466.901 540.934,467.901 542,469.5C 543.948,481.574 546.281,493.574 549,505.5C 551.235,513.335 550.901,521.002 548,528.5C 543.019,533.643 537.186,534.809 530.5,532C 520.89,524.964 514.056,515.797 510,504.5C 504.976,490.214 501.81,475.547 500.5,460.5C 501.833,460.5 503.167,460.5 504.5,460.5 Z"/></g>
<g><path style="opacity:1" fill="#0268f9" d="M 711.5,509.5 C 726.991,510.496 742.658,510.83 758.5,510.5C 713.524,542.999 663.191,556.665 607.5,551.5C 608.461,554.426 609.127,557.426 609.5,560.5C 563.003,561.499 516.336,561.832 469.5,561.5C 471.162,554.184 472.829,546.85 474.5,539.5C 473.474,534.13 470.141,531.297 464.5,531C 439.65,529.204 417.65,536.037 398.5,551.5C 393.656,554.098 389.323,557.431 385.5,561.5C 376.167,561.5 366.833,561.5 357.5,561.5C 356.652,560.375 355.652,560.375 354.5,561.5C 343.5,561.5 332.5,561.5 321.5,561.5C 329.174,549.191 338.508,538.191 349.5,528.5C 370.673,528.831 391.673,528.497 412.5,527.5C 413.265,528.66 414.265,529.66 415.5,530.5C 416.522,530.145 417.189,529.478 417.5,528.5C 451.671,528.832 485.671,528.498 519.5,527.5C 527.184,536.752 536.518,538.919 547.5,534C 552.35,528.448 554.35,521.948 553.5,514.5C 603.5,514.5 653.5,514.5 703.5,514.5C 702.391,516.554 701.391,518.721 700.5,521C 700.63,522.059 701.13,522.892 702,523.5C 705.421,518.929 708.588,514.263 711.5,509.5 Z"/></g>
<g><path style="opacity:1" fill="#d8dee9" d="M 627.5,523.5 C 628.5,523.5 629.5,523.5 630.5,523.5C 628.904,529.358 626.238,534.691 622.5,539.5C 621.5,539.167 620.833,538.5 620.5,537.5C 622.86,532.78 625.193,528.114 627.5,523.5 Z"/></g>
<g><path style="opacity:1" fill="#1a76f6" d="M 469.5,561.5 C 466.041,573.212 462.374,584.879 458.5,596.5C 452.474,596.323 447.807,593.823 444.5,589C 449.075,573.776 453.742,558.609 458.5,543.5C 444.334,543.694 430.667,546.361 417.5,551.5C 411.167,551.5 404.833,551.5 398.5,551.5C 417.65,536.037 439.65,529.204 464.5,531C 470.141,531.297 473.474,534.13 474.5,539.5C 472.829,546.85 471.162,554.184 469.5,561.5 Z"/></g>
<g><path style="opacity:1" fill="#d8dee9" d="M 570.5,542.5 C 573.998,542.565 574.498,543.899 572,546.5C 569.971,549.029 568.138,551.696 566.5,554.5C 565.675,555.386 564.675,555.719 563.5,555.5C 565.038,550.759 567.371,546.425 570.5,542.5 Z"/></g>
<g><path style="opacity:1" fill="#d7dde9" d="M 487.5,544.5 C 492.155,546.81 495.155,550.477 496.5,555.5C 495.448,555.649 494.448,555.483 493.5,555C 491.707,552.205 489.54,549.705 487,547.5C 486.53,546.423 486.697,545.423 487.5,544.5 Z"/></g>
<g><path style="opacity:1" fill="#1e7bf6" d="M 398.5,551.5 C 404.833,551.5 411.167,551.5 417.5,551.5C 370.884,574.801 352.217,612.134 361.5,663.5C 358.167,663.973 356,662.64 355,659.5C 352.835,646.869 352.335,634.203 353.5,621.5C 356.218,606.729 361.718,593.062 370,580.5C 375.024,573.983 380.191,567.65 385.5,561.5C 389.323,557.431 393.656,554.098 398.5,551.5 Z"/></g>
<g><path style="opacity:1" fill="#046ef8" d="M 321.5,561.5 C 332.5,561.5 343.5,561.5 354.5,561.5C 352.031,567.103 349.031,572.436 345.5,577.5C 345.833,578.5 346.5,579.167 347.5,579.5C 351.876,574.082 355.209,568.082 357.5,561.5C 366.833,561.5 376.167,561.5 385.5,561.5C 380.191,567.65 375.024,573.983 370,580.5C 361.718,593.062 356.218,606.729 353.5,621.5C 351.621,621.393 351.288,621.893 352.5,623C 333.329,623.829 314.329,623.662 295.5,622.5C 299.135,599.9 307.802,579.566 321.5,561.5 Z"/></g>
<g><path style="opacity:1" fill="#d5dde9" d="M 357.5,561.5 C 355.209,568.082 351.876,574.082 347.5,579.5C 346.5,579.167 345.833,578.5 345.5,577.5C 349.031,572.436 352.031,567.103 354.5,561.5C 355.652,560.375 356.652,560.375 357.5,561.5 Z"/></g>
<g><path style="opacity:1" fill="#066cf8" d="M 609.5,560.5 C 612.95,570.349 616.283,580.349 619.5,590.5C 618.811,592.353 617.478,593.519 615.5,594C 609.167,596 602.833,596 596.5,594C 584.711,588.606 573.044,582.939 561.5,577C 547.258,572.019 533.258,572.686 519.5,579C 507.283,584.609 494.95,589.942 482.5,595C 474.459,597.437 466.459,597.937 458.5,596.5C 462.374,584.879 466.041,573.212 469.5,561.5C 516.336,561.832 563.003,561.499 609.5,560.5 Z"/></g>
<g><path style="opacity:1" fill="#0f70f7" d="M 452.5,613.5 C 453.204,608.71 454.871,604.377 457.5,600.5C 465.214,600.705 472.881,600.205 480.5,599C 495.077,593.585 509.41,587.585 523.5,581C 536.536,576.43 549.536,576.43 562.5,581C 572.324,585.745 581.99,590.745 591.5,596C 601.563,599.4 611.563,599.233 621.5,595.5C 622.29,599.206 623.29,602.872 624.5,606.5C 621.949,609.536 618.616,611.369 614.5,612C 607.647,612.961 600.98,612.294 594.5,610C 582.927,603.714 571.261,597.714 559.5,592C 545.977,588.323 532.643,588.99 519.5,594C 506.35,599.743 493.35,605.743 480.5,612C 471.262,614.606 461.929,615.106 452.5,613.5 Z"/></g>
<g><path style="opacity:0.837" fill="#e8e8e8" d="M 199.5,580.5 C 202.799,581.901 203.132,583.735 200.5,586C 180.421,601.193 157.754,608.693 132.5,608.5C 132.33,607.178 132.663,606.011 133.5,605C 158.421,604.199 180.421,596.032 199.5,580.5 Z"/></g>
<g><path style="opacity:1" fill="#1272f7" d="M 532.5,593.5 C 540.553,593.225 548.553,593.725 556.5,595C 570.682,601.924 585.016,608.59 599.5,615C 608.566,616.46 617.232,615.293 625.5,611.5C 629.35,615.985 629.016,619.818 624.5,623C 615.276,627.766 605.609,628.766 595.5,626C 582.833,620.333 570.167,614.667 557.5,609C 543.704,604.098 530.037,604.431 516.5,610C 501.387,618.059 485.721,624.725 469.5,630C 458.51,631.835 448.51,629.501 439.5,623C 438.152,620.99 436.818,618.99 435.5,617C 436.576,614.526 437.576,612.026 438.5,609.5C 451.708,619.189 466.042,621.022 481.5,615C 492.439,610.53 503.105,605.53 513.5,600C 519.846,597.497 526.179,595.33 532.5,593.5 Z"/></g>
<g><path style="opacity:1" fill="#237df5" d="M 457.5,600.5 C 454.871,604.377 453.204,608.71 452.5,613.5C 447.457,612.227 443.291,609.561 440,605.5C 440.047,601.524 441.214,597.858 443.5,594.5C 447.852,597.497 452.518,599.497 457.5,600.5 Z"/></g>
<g><path style="opacity:1" fill="#d1dae9" d="M 312.5,604.5 C 313.978,604.238 315.311,604.571 316.5,605.5C 313.522,610.469 310.189,615.135 306.5,619.5C 305.5,619.167 304.833,618.5 304.5,617.5C 307.44,613.278 310.106,608.945 312.5,604.5 Z"/></g>
<g><path style="opacity:1" fill="#0373f7" d="M 353.5,621.5 C 352.335,634.203 352.835,646.869 355,659.5C 356,662.64 358.167,663.973 361.5,663.5C 363.851,669.881 366.518,676.214 369.5,682.5C 348.931,683.826 328.264,683.826 307.5,682.5C 304.187,673.725 301.354,664.725 299,655.5C 297.907,653.651 296.574,651.984 295,650.5C 294.329,651.252 293.496,651.586 292.5,651.5C 292.286,641.568 293.286,631.902 295.5,622.5C 314.329,623.662 333.329,623.829 352.5,623C 351.288,621.893 351.621,621.393 353.5,621.5 Z"/></g>
<g><path style="opacity:1" fill="#0a72f7" d="M 440.5,644.5 C 439.427,643.749 439.26,642.749 440,641.5C 441.461,637.542 443.628,634.209 446.5,631.5C 456.109,633.926 465.775,634.093 475.5,632C 490.186,626.491 504.519,620.158 518.5,613C 531.826,607.059 545.16,607.059 558.5,613C 571.159,619.498 584.159,625.164 597.5,630C 603.833,630.667 610.167,630.667 616.5,630C 621.018,628.491 625.185,626.324 629,623.5C 631.771,628.846 633.604,634.512 634.5,640.5C 569.845,642.351 505.178,643.685 440.5,644.5 Z"/></g>
<g><path style="opacity:1" fill="#2581f5" d="M 446.5,631.5 C 443.628,634.209 441.461,637.542 440,641.5C 439.26,642.749 439.427,643.749 440.5,644.5C 435.985,645.812 431.318,645.812 426.5,644.5C 428.972,637.916 431.139,631.25 433,624.5C 433.423,623.044 434.256,622.544 435.5,623C 438.874,626.337 442.541,629.171 446.5,631.5 Z"/></g>
<g><path style="opacity:1" fill="#cfdae9" d="M 332.5,628.5 C 336.402,630.893 339.902,633.893 343,637.5C 343.5,639.667 342.667,640.5 340.5,640C 337.667,637.167 334.833,634.333 332,631.5C 331.53,630.423 331.697,629.423 332.5,628.5 Z"/></g>
<g><path style="opacity:1" fill="#1c82f5" d="M 307.5,682.5 C 310.577,689.652 313.91,696.652 317.5,703.5C 312.833,703.5 308.167,703.5 303.5,703.5C 296.109,686.984 292.442,669.65 292.5,651.5C 293.496,651.586 294.329,651.252 295,650.5C 296.574,651.984 297.907,653.651 299,655.5C 301.354,664.725 304.187,673.725 307.5,682.5 Z"/></g>
<g><path style="opacity:1" fill="#047bf5" d="M 307.5,682.5 C 328.264,683.826 348.931,683.826 369.5,682.5C 390.988,714.193 420.988,727.026 459.5,721C 465.494,720.056 471.494,719.223 477.5,718.5C 475.678,732.406 476.678,746.073 480.5,759.5C 479.391,760.29 478.058,760.79 476.5,761C 450.592,763.945 424.925,762.778 399.5,757.5C 397.862,756.343 396.196,755.176 394.5,754C 393.251,753.26 392.251,753.427 391.5,754.5C 361.293,745.407 336.626,728.407 317.5,703.5C 313.91,696.652 310.577,689.652 307.5,682.5 Z"/></g>
<g><path style="opacity:0.89" fill="#e2e4e8" d="M 734.5,685.5 C 740.922,684.104 744.256,686.604 744.5,693C 744.435,695.591 743.935,698.091 743,700.5C 731.596,724.159 717.096,745.659 699.5,765C 692.915,768.042 687.748,766.542 684,760.5C 683.107,757.084 683.607,753.917 685.5,751C 680.262,747.726 679.096,743.226 682,737.5C 686.669,730.351 692.169,723.851 698.5,718C 701.091,717.699 701.925,718.866 701,721.5C 694.516,727.647 689.183,734.647 685,742.5C 684.243,745.914 685.41,746.914 688.5,745.5C 701.911,727.677 715.078,709.677 728,691.5C 730.063,689.266 732.229,687.266 734.5,685.5 Z"/></g>
<g><path style="opacity:1" fill="#dae0e8" d="M 336.5,691.5 C 337.5,691.5 338.5,691.5 339.5,691.5C 337.427,697.424 334.26,702.757 330,707.5C 328.635,706.407 328.301,705.074 329,703.5C 331.761,699.64 334.261,695.64 336.5,691.5 Z"/></g>
<g><path style="opacity:1" fill="#1758fc" d="M 734.5,707.5 C 730.298,707.817 726.298,707.483 722.5,706.5C 725.42,701.732 728.586,697.066 732,692.5C 734.552,688.678 737.552,688.012 741,690.5C 741.167,691.333 741.333,692.167 741.5,693C 739.841,698.152 737.507,702.986 734.5,707.5 Z"/></g>
<g><path style="opacity:1" fill="#1e89f4" d="M 303.5,703.5 C 308.167,703.5 312.833,703.5 317.5,703.5C 336.626,728.407 361.293,745.407 391.5,754.5C 394.144,758.138 397.478,761.138 401.5,763.5C 402.308,763.192 402.975,762.692 403.5,762C 401.959,760.629 400.625,759.129 399.5,757.5C 424.925,762.778 450.592,763.945 476.5,761C 478.058,760.79 479.391,760.29 480.5,759.5C 483.368,766.229 487.035,772.562 491.5,778.5C 488.893,779.318 486.226,779.818 483.5,780C 460.788,780.836 438.121,780.17 415.5,778C 385.586,776.256 358.92,766.256 335.5,748C 321.484,735.498 310.818,720.665 303.5,703.5 Z"/></g>
<g><path style="opacity:1" fill="#0d7cf5" d="M 517.5,753.5 C 511.741,755.454 505.741,756.787 499.5,757.5C 492.506,743.532 490.672,728.866 494,713.5C 502.25,709.861 510.75,707.028 519.5,705C 512.319,720.901 511.653,737.068 517.5,753.5 Z"/></g>
<g><path style="opacity:1" fill="#187ff5" d="M 495.5,758.5 C 491.936,759.423 488.269,759.756 484.5,759.5C 479.237,745.842 478.237,731.842 481.5,717.5C 483.971,715.929 486.637,714.929 489.5,714.5C 488.073,729.674 490.073,744.341 495.5,758.5 Z"/></g>
<g><path style="opacity:1" fill="#0d69f9" d="M 722.5,706.5 C 726.298,707.483 730.298,707.817 734.5,707.5C 732.007,713.157 729.007,718.49 725.5,723.5C 720.475,723.158 715.642,723.492 711,724.5C 710.536,723.906 710.369,723.239 710.5,722.5C 714.147,716.86 718.147,711.527 722.5,706.5 Z"/></g>
<g><path style="opacity:1" fill="#d7dfe9" d="M 356.5,716.5 C 361.397,719.719 364.731,724.052 366.5,729.5C 365.448,729.649 364.448,729.483 363.5,729C 361.372,725.87 358.872,723.037 356,720.5C 355.421,719.072 355.588,717.738 356.5,716.5 Z"/></g>
<g><path style="opacity:1" fill="#1a78f6" d="M 710.5,722.5 C 710.369,723.239 710.536,723.906 711,724.5C 715.642,723.492 720.475,723.158 725.5,723.5C 723.427,727.308 721.094,730.974 718.5,734.5C 715.403,731.112 711.736,728.445 707.5,726.5C 708.521,725.099 709.521,723.765 710.5,722.5 Z"/></g>
<g><path style="opacity:1" fill="#d1dbe9" d="M 430.5,733.5 C 431.5,733.5 432.5,733.5 433.5,733.5C 431.88,737.642 429.214,741.142 425.5,744C 424.552,744.483 423.552,744.649 422.5,744.5C 422.351,743.448 422.517,742.448 423,741.5C 425.705,738.964 428.205,736.297 430.5,733.5 Z"/></g>
<g><path style="opacity:1" fill="#105bfb" d="M 713.5,742.5 C 707.833,742.5 702.167,742.5 696.5,742.5C 698.311,739.556 700.144,736.556 702,733.5C 705.196,729.813 708.696,729.647 712.5,733C 713.787,734.41 714.954,735.91 716,737.5C 715.942,739.435 715.109,741.102 713.5,742.5 Z"/></g>
<g><path style="opacity:1" fill="#0c67f9" d="M 696.5,742.5 C 702.167,742.5 707.833,742.5 713.5,742.5C 711.397,745.72 709.064,748.72 706.5,751.5C 700.974,751.821 695.64,751.488 690.5,750.5C 691.529,747.109 693.529,744.443 696.5,742.5 Z"/></g>
<g><path style="opacity:1" fill="#d6dfe9" d="M 399.5,757.5 C 400.625,759.129 401.959,760.629 403.5,762C 402.975,762.692 402.308,763.192 401.5,763.5C 397.478,761.138 394.144,758.138 391.5,754.5C 392.251,753.427 393.251,753.26 394.5,754C 396.196,755.176 397.862,756.343 399.5,757.5 Z"/></g>
<g><path style="opacity:1" fill="#0d75f7" d="M 690.5,750.5 C 695.64,751.488 700.974,751.821 706.5,751.5C 703.628,757.05 699.294,760.717 693.5,762.5C 688.19,761.911 686.357,758.911 688,753.5C 688.377,752.058 689.21,751.058 690.5,750.5 Z"/></g>
<g><path style="opacity:1" fill="#1e8af4" d="M 517.5,753.5 C 520.284,759.728 523.617,765.728 527.5,771.5C 522.322,773.63 516.989,774.796 511.5,775C 506.368,769.89 502.368,764.057 499.5,757.5C 505.741,756.787 511.741,755.454 517.5,753.5 Z"/></g>
<g><path style="opacity:1" fill="#218bf3" d="M 495.5,758.5 C 498.86,764.701 502.86,770.535 507.5,776C 503.62,777.64 499.62,778.307 495.5,778C 490.927,772.351 487.26,766.185 484.5,759.5C 488.269,759.756 491.936,759.423 495.5,758.5 Z"/></g>
</svg>
